<svg xmlns="http://www.w3.org/2000/svg" xmlns:xlink="http://www.w3.org/1999/xlink" width="291.576" height="47.8" viewBox="0 0 291.576 47.8">
  <defs>
    <clipPath id="clip-path">
      <rect id="Rectangle_14" data-name="Rectangle 14" width="291.576" height="47.8" fill="none"/>
    </clipPath>
  </defs>
  <g id="Group_11" data-name="Group 11" transform="translate(0 0)">
    <g id="Group_10" data-name="Group 10" transform="translate(0 0)" clip-path="url(#clip-path)">
      <path id="Path_47" data-name="Path 47" d="M18.69,29.368a10.554,10.554,0,0,0-7.749-3.191,10.555,10.555,0,0,0-7.75,3.191A10.554,10.554,0,0,0,0,37.118a10.551,10.551,0,0,0,3.191,7.749,10.551,10.551,0,0,0,7.75,3.191,10.586,10.586,0,0,0,7.294-2.771V60.628h3.647V37.118a10.554,10.554,0,0,0-3.191-7.75M16.119,42.3a7.042,7.042,0,0,1-5.178,2.115A7.04,7.04,0,0,1,5.762,42.3a7.4,7.4,0,0,1,0-10.357,7.042,7.042,0,0,1,5.178-2.115,7.223,7.223,0,0,1,7.294,7.294A7.043,7.043,0,0,1,16.119,42.3" transform="translate(0 -12.829)" fill="#ffffff"/>
      <path id="Path_48" data-name="Path 48" d="M465.079,25.838V47.945h3.667v-11.5c-.232-5.154,2.962-7.386,6.632-7.386V25.4a11.167,11.167,0,0,0-6.632,2.211V25.838Z" transform="translate(-227.919 -12.446)" fill="#ffffff"/>
      <path id="Path_49" data-name="Path 49" d="M93.884,9.254C93.7,5.715,95.5,4.539,97.525,4.539l1.749-.06.8-3.789H97.761c-5.092,0-7.549,3.472-7.549,7.754v27.2h3.672V14.221h4.629V10.172H93.884Z" transform="translate(-44.21 -0.339)" fill="#ffffff"/>
      <path id="Path_50" data-name="Path 50" d="M317.968,9.58h-6.619v4.036h6.619V35.3h3.659V13.616h7V9.58h-7V0h-3.659Z" transform="translate(-152.581 0)" fill="#ffffff"/>
      <path id="Path_51" data-name="Path 51" d="M168.154,29.368a10.94,10.94,0,0,0-18.69,7.75A10.952,10.952,0,0,0,167.7,45.286v2.771h3.647V37.118a10.554,10.554,0,0,0-3.191-7.75M165.583,42.3a7.294,7.294,0,0,1-12.472-5.178A7.294,7.294,0,1,1,165.583,42.3" transform="translate(-73.247 -12.829)" fill="#ffffff"/>
      <path id="Path_52" data-name="Path 52" d="M393.246,42.255a7.293,7.293,0,0,1-12.472-5.179,7.294,7.294,0,1,1,12.472,5.179m2.571-12.928a10.941,10.941,0,0,0-18.69,7.749,10.941,10.941,0,1,0,21.881,0,10.551,10.551,0,0,0-3.191-7.749" transform="translate(-184.817 -12.808)" fill="#ffffff"/>
      <path id="Path_53" data-name="Path 53" d="M547.479,60.94h3.647V26.927h-3.647v10.94a7.043,7.043,0,0,1-2.115,5.179,6.23,6.23,0,0,1-4.8,2.115,7.223,7.223,0,0,1-7.294-7.294V26.927h-3.647v10.94a10.9,10.9,0,0,0,10.941,10.941A9.542,9.542,0,0,0,547.479,46Z" transform="translate(-259.55 -13.196)" fill="#ffffff"/>
      <path id="Path_54" data-name="Path 54" d="M252.841,42.3a7.294,7.294,0,0,1-12.472-5.179,7.223,7.223,0,0,1,7.294-7.294V26.177a10.894,10.894,0,0,0-10.941,10.94,10.94,10.94,0,1,0,21.881,0h-3.647a7.046,7.046,0,0,1-2.115,5.179" transform="translate(-116.009 -12.829)" fill="#ffffff"/>
    </g>
  </g>
</svg>
