<svg xmlns="http://www.w3.org/2000/svg">
<defs>
<font id="EingrantchMono-Medium" horiz-adv-x="1216" >
  <font-face 
    font-family="Eingrantch Mono Medium"
    font-weight="400"
    font-stretch="normal"
    units-per-em="2048"
    panose-1="2 0 7 9 0 0 0 0 0 0"
    ascent="1638"
    descent="-410"
    x-height="1044"
    cap-height="1401"
    bbox="-90 -514 3492 1843"
    underline-thickness="102"
    underline-position="-307"
    unicode-range="U+0020-1F642"
  />
<missing-glyph 
d="M80 1401v-1401h1055v1401h-1055zM258 1309l57 -197h97v-25h-115l-55 205h-66v17h82zM494 1309q-43 -54 -43 -105v-4q0 -48 43 -110h-21q-49 49 -49 110v4q0 33 14 61t35 44h21zM745 1309q20 -16 34 -44.5t14 -60.5v-4q0 -58 -48 -110h-22q43 54 43 106v8q0 58 -43 105h22
zM1038 1309v-17h-65l-55 -205h-113v25h94l55 197h84zM621 1214l-23 -6q-3 23 -23 76l23 8q16 -42 23 -78zM563 1124q98 45 107 158l22 -8q-12 -121 -114 -168zM567 1200l-26 -6q-1 13 -23 72l23 8q16 -36 26 -74zM258 1061l57 -197h97v-24h-115l-55 204h-66v17h82zM494 1061
q-43 -54 -43 -105v-4q0 -48 43 -110h-21q-49 49 -49 110v4q0 33 14 61t35 44h21zM745 1061q20 -16 34 -44.5t14 -60.5v-4q0 -58 -48 -110h-22q43 54 43 106v8q0 58 -43 105h22zM1038 1061v-17h-65l-55 -204h-113v24h94l55 197h84zM621 967l-23 -6q-3 22 -23 75l23 8
q16 -43 23 -77zM563 877q98 45 107 157l22 -8q-12 -121 -114 -168zM567 952l-26 -6q-1 13 -23 72l23 8q16 -36 26 -74zM258 811l57 -199h97v-20h-115l-55 199h-66v20h82zM494 811q-43 -58 -43 -104v-7q0 -48 43 -106h-21q-49 42 -49 106v7q0 62 49 104h21zM745 811
q48 -44 48 -104v-7q0 -62 -48 -106h-22q43 50 43 104v9q0 54 -43 104h22zM1038 811v-20h-65l-55 -199h-113v20h94l55 199h84zM598 791q12 -27 23 -74l-23 -6q-4 26 -23 73zM563 627q98 45 107 155l22 -6q-12 -124 -114 -170zM567 702l-26 -8q-1 15 -23 74l23 6
q16 -33 26 -72zM258 559l57 -199h97v-20h-115l-55 201h-66v18h82zM494 559q-43 -54 -43 -104v-6q0 -53 43 -107h-21q-49 45 -49 107v4q0 64 49 106h21zM745 559q48 -44 48 -106v-4q0 -59 -48 -107h-22q43 47 43 104v7q0 56 -43 106h22zM1038 559v-18h-65l-55 -201h-113v20

<glyph glyph-name="f_f" unicode="ff" horiz-adv-x="2433" 
d="M1999 1284q-91 0 -149 -53.5t-58 -132.5v-54h369v-135h-369v-774h453v-135h-822v135h234v774h-1082v-774h453v-135h-821v135h233v774h-233v135h233v62q0 134 94 223.5t240 89.5h305v-135h-297q-91 0 -149 -53.5t-58 -132.5v-54h1082v62q0 134 94 223.5t240 89.5h305v-135
h-297z" />
    <glyph glyph-name="f_f_i" unicode="ffi" horiz-adv-x="3649" 
d="M3152 135h340v-135h-840v135h365v774h-1225v-774h453v-135h-822v135h234v774h-1082v-774h453v-135h-821v135h233v774h-233v135h233v62q0 134 94 223.5t240 89.5h305v-135h-297q-91 0 -149 -53.5t-58 -132.5v-54h1082v62q0 134 94 223.5t240 89.5h305v-135h-297
q-91 0 -149 -53.5t-58 -132.5v-54h1288q31 0 51.5 -20t20.5 -51v-838zM3076 1208q-46 0 -78 30t-32 73q0 44 32 73t78 29q44 0 75.5 -29.5t31.5 -72.5q0 -42 -32 -72.5t-75 -30.5z" />
    <glyph glyph-name="f_i" unicode="fi" horiz-adv-x="2433" 
d="M1935 135h340v-135h-839v135h364v774h-1225v-774h453v-135h-821v135h233v774h-233v135h233v62q0 134 94 223.5t240 89.5h305v-135h-297q-91 0 -149 -53.5t-58 -132.5v-54h1289q31 0 51 -20t20 -51v-838zM1860 1208q-46 0 -78.5 30t-32.5 73q0 44 32.5 73t78.5 29
q44 0 75 -29t31 -73q0 -42 -31.5 -72.5t-74.5 -30.5z" />
    <glyph glyph-name=".notdef" 
d="M80 1401v-1401h1055v1401h-1055zM258 1309l57 -197h97v-25h-115l-55 205h-66v17h82zM494 1309q-43 -54 -43 -105v-4q0 -48 43 -110h-21q-49 49 -49 110v4q0 33 14 61t35 44h21zM745 1309q20 -16 34 -44.5t14 -60.5v-4q0 -58 -48 -110h-22q43 54 43 106v8q0 58 -43 105h22
zM1038 1309v-17h-65l-55 -205h-113v25h94l55 197h84zM621 1214l-23 -6q-3 23 -23 76l23 8q16 -42 23 -78zM563 1124q98 45 107 158l22 -8q-12 -121 -114 -168zM567 1200l-26 -6q-1 13 -23 72l23 8q16 -36 26 -74zM258 1061l57 -197h97v-24h-115l-55 204h-66v17h82zM494 1061
q-43 -54 -43 -105v-4q0 -48 43 -110h-21q-49 49 -49 110v4q0 33 14 61t35 44h21zM745 1061q20 -16 34 -44.5t14 -60.5v-4q0 -58 -48 -110h-22q43 54 43 106v8q0 58 -43 105h22zM1038 1061v-17h-65l-55 -204h-113v24h94l55 197h84zM621 967l-23 -6q-3 22 -23 75l23 8
q16 -43 23 -77zM563 877q98 45 107 157l22 -8q-12 -121 -114 -168zM567 952l-26 -6q-1 13 -23 72l23 8q16 -36 26 -74zM258 811l57 -199h97v-20h-115l-55 199h-66v20h82zM494 811q-43 -58 -43 -104v-7q0 -48 43 -106h-21q-49 42 -49 106v7q0 62 49 104h21zM745 811
q48 -44 48 -104v-7q0 -62 -48 -106h-22q43 50 43 104v9q0 54 -43 104h22zM1038 811v-20h-65l-55 -199h-113v20h94l55 199h84zM598 791q12 -27 23 -74l-23 -6q-4 26 -23 73zM563 627q98 45 107 155l22 -6q-12 -124 -114 -170zM567 702l-26 -8q-1 15 -23 74l23 6
q16 -33 26 -72zM258 559l57 -199h97v-20h-115l-55 201h-66v18h82zM494 559q-43 -54 -43 -104v-6q0 -53 43 -107h-21q-49 45 -49 107v4q0 64 49 106h21zM745 559q48 -44 48 -106v-4q0 -59 -48 -107h-22q43 47 43 104v7q0 56 -43 106h22zM1038 559v-18h-65l-55 -201h-113v20
h94l55 199h84zM598 541q12 -29 23 -76l-23 -6q-5 32 -23 73zM563 375q98 42 107 157l22 -6q-12 -125 -114 -172zM567 453l-26 -11q-1 12 -23 76l23 6q13 -26 26 -71zM258 309l57 -198h97v-21h-115l-55 199h-66v20h82zM494 309q-43 -54 -43 -104v-6q0 -51 43 -109h-21
q-49 45 -49 109v4q0 61 49 106h21zM745 309q48 -48 48 -106v-4q0 -61 -48 -109h-22q43 50 43 105v8q0 59 -43 106h22zM1038 309v-20h-65l-55 -199h-113v21h94l55 198h84zM598 291q14 -34 23 -76l-23 -6q-3 23 -23 76zM563 123q98 48 107 158l22 -7q-12 -120 -114 -170z
M541 274q17 -39 26 -75l-26 -6q-1 14 -23 73z" />
    <glyph glyph-name=".null" horiz-adv-x="0" 
 />
    <glyph glyph-name="nonmarkingreturn" horiz-adv-x="682" 
 />
    <glyph glyph-name="space" unicode=" " 
 />
    <glyph glyph-name="exclam" unicode="!" 
d="M541 412v989h135v-989h-135zM608 -16q-45 0 -76.5 30.5t-31.5 73.5q0 44 31 73t77 29q45 0 77 -29t32 -73q0 -43 -32.5 -73.5t-76.5 -30.5z" />
    <glyph glyph-name="quotedbl" unicode="&#x22;" 
d="M326 872l82 529h135l-82 -529h-135zM633 872l82 529h135l-82 -529h-135z" />
    <glyph glyph-name="numbersign" unicode="#" 
d="M1167 893h-239v-383h239v-135h-239v-375h-135v375h-357v-375h-135v375h-252v135h252v383h-252v135h252v373h135v-373h357v373h135v-373h239v-135zM793 510v383h-357v-383h357z" />
    <glyph glyph-name="dollar" unicode="$" 
d="M1020 352q0 -146 -100 -245.5t-269 -114.5v-166h-135v168q-158 18 -246 116.5t-106 299.5h141q17 -157 88.5 -221t204.5 -64q134 0 210.5 62.5t76.5 164.5q0 206 -221 275l-152 53q-319 99 -319 375q0 140 97 239.5t251 114.5v176h135v-180q140 -19 220.5 -113t98.5 -276
h-131q-17 142 -83.5 201t-192.5 59q-117 0 -188.5 -62t-71.5 -159q0 -90 52 -148.5t183 -101.5l152 -53q152 -48 228.5 -152t76.5 -248z" />
    <glyph glyph-name="percent" unicode="%" 
d="M344 913q-103 0 -177.5 69.5t-74.5 180.5q0 112 74 182t178 70t178 -70t74 -182q0 -111 -74.5 -180.5t-177.5 -69.5zM1110 1276h-195l-540 -1276h-269v125h197l539 1276h268v-125zM344 1315q-68 0 -109.5 -44t-41.5 -108q0 -62 41.5 -105.5t109.5 -43.5t109 43.5
t41 105.5q0 64 -41 108t-109 44zM874 489q104 0 178 -69.5t74 -181.5q0 -111 -74.5 -181.5t-177.5 -70.5t-177 70.5t-74 181.5t74 181t177 70zM874 86q68 0 109 44t41 108t-41 107.5t-109 43.5t-109.5 -43.5t-41.5 -107.5t41.5 -108t109.5 -44z" />
    <glyph glyph-name="ampersand" unicode="&#x26;" 
d="M666 795q210 0 319 -117t109 -336v-342h-136v342q0 148 -68.5 235t-191.5 87h-10q69 -34 110.5 -110t41.5 -185q0 -176 -98 -277.5t-259 -101.5q-162 0 -260 101.5t-98 277.5q0 287 237 383q-99 47 -149.5 124.5t-50.5 194.5q0 158 115 253t284 95h199v-135h-199
q-113 0 -188.5 -63.5t-75.5 -180.5q0 -110 74.5 -177.5t175.5 -67.5h119zM483 125q104 0 163 70.5t59 203.5q0 116 -64.5 181t-157.5 65q-94 0 -158.5 -65t-64.5 -181q0 -133 58.5 -203.5t164.5 -70.5z" />
    <glyph glyph-name="quotesingle" unicode="'" 
d="M479 872l82 529h135l-82 -529h-135z" />
    <glyph glyph-name="parenleft" unicode="(" 
d="M883 -197q-81 0 -143 21.5t-116 76t-88 144t-53.5 229.5t-19.5 328t19.5 327.5t53.5 229t88 144.5t116 76.5t143 21.5h28v-135h-28q-75 0 -123.5 -25t-87.5 -95t-56.5 -203.5t-17.5 -340.5q0 -139 8 -244.5t25.5 -178t40 -120t56 -74t70 -36.5t85.5 -10h28v-136h-28z" />
    <glyph glyph-name="parenright" unicode=")" 
d="M305 -197v136h29q59 0 100.5 15t78.5 56.5t58.5 115t34 191.5t12.5 285t-12 285t-33.5 192t-58.5 115.5t-78.5 56.5t-101.5 15h-29v135h29q81 0 143 -21.5t116 -76.5t88 -144.5t53.5 -229t19.5 -327.5t-19.5 -328t-53.5 -229.5t-88 -144t-116 -76t-143 -21.5h-29z" />
    <glyph glyph-name="asterisk" unicode="*" 
d="M987 1090v-134l-319 41l256 -194l-95 -96l-196 256l43 -320h-135l43 320l-195 -256l-96 96l256 194l-320 -41v134l320 -43l-256 196l96 94l195 -256l-43 320h135l-43 -320l196 256l95 -94l-256 -196z" />
    <glyph glyph-name="plus" unicode="+" 
d="M541 178v346h-346v135h346v349h135v-349h348v-135h-348v-346h-135z" />
    <glyph glyph-name="comma" unicode="," 
d="M717 88q0 -34 -19 -59l-143 -224l-51 27l63 160q-29 11 -48 37.5t-19 58.5q0 44 32 73t78 29q44 0 75.5 -29.5t31.5 -72.5z" />
    <glyph glyph-name="hyphen" unicode="-" 
d="M283 524v135h653v-135h-653z" />
    <glyph glyph-name="period" unicode="." 
d="M608 -10q-46 0 -77 30t-31 74q0 43 31 72t77 29q45 0 77 -29.5t32 -71.5q0 -44 -32 -74t-77 -30z" />
    <glyph glyph-name="slash" unicode="/" 
d="M125 0l811 1401h156l-811 -1401h-156z" />
    <glyph glyph-name="zero" unicode="0" 
d="M610 1411q78 0 139.5 -20.5t114 -70.5t87 -130t54 -203t19.5 -287q0 -163 -19.5 -286t-54 -203t-87 -130t-114 -70.5t-139.5 -20.5q-79 0 -140 20.5t-113.5 70t-87 129.5t-53.5 203t-19 287t19 287t53.5 203.5t87 130t113.5 70t140 20.5zM610 1276q-47 0 -82 -9.5
t-68 -32.5t-55.5 -65t-39.5 -105t-25 -154t-8 -210q0 -100 6 -176l520 523q-29 131 -89 180t-159 49zM610 125q56 0 96.5 13.5t76.5 51t57.5 101.5t34 166.5t12.5 244.5q0 98 -6 175l-521 -521q30 -132 90.5 -181.5t159.5 -49.5z" />
    <glyph glyph-name="one" unicode="1" 
d="M737 135h320v-135h-803v135h348v850h-330v135h330v281h135v-1266z" />
    <glyph glyph-name="two" unicode="2" 
d="M571 492q-106 -70 -152.5 -152.5t-51.5 -204.5h667v-135h-803v106q0 171 68.5 289.5t214.5 214.5l164 109q109 72 165 148t56 188q0 101 -69 161t-179 60q-122 0 -189.5 -60.5t-82.5 -197.5h-152q19 203 133 298t291 95q165 0 274 -100t109 -256q0 -80 -21.5 -147.5
t-65 -122.5t-93 -97.5t-119.5 -89.5z" />
    <glyph glyph-name="three" unicode="3" 
d="M758 754q118 -40 180.5 -136t62.5 -223q0 -182 -112.5 -293.5t-294.5 -111.5q-79 0 -147 22t-122 65t-87.5 114t-40.5 163h141q33 -229 264 -229q120 0 192 73t72 197q0 123 -70 198t-169 75h-185v129h133q96 0 163 69t67 172q0 105 -65 171.5t-169 66.5q-94 0 -155 -56
t-78 -171h-141q6 92 38 162.5t84 113.5t116 64.5t138 21.5q154 0 260.5 -100.5t106.5 -245.5q0 -103 -45 -184t-137 -127z" />
    <glyph glyph-name="four" unicode="4" 
d="M1010 496v-136h-109v-360h-135v360h-563v136l436 905h152l-439 -905h414v346h135v-346h109z" />
    <glyph glyph-name="five" unicode="5" 
d="M621 897q172 0 277.5 -117.5t105.5 -335.5q0 -219 -108.5 -336.5t-293.5 -117.5q-169 0 -269.5 89t-123.5 269h141q17 -115 80.5 -169t175.5 -54q262 0 262 319q0 162 -68 240t-190 78q-97 0 -161.5 -46.5t-83.5 -127.5l-136 39l82 774h602v-135h-485l-53 -465
q86 96 246 96z" />
    <glyph glyph-name="six" unicode="6" 
d="M618 897q173 0 282.5 -116t109.5 -337q0 -218 -111 -336t-291 -118q-442 0 -442 708q0 160 23 284.5t62.5 204t96.5 131t119.5 72.5t136.5 21q163 0 264.5 -95t124.5 -276h-141q-38 236 -252 236q-50 0 -90.5 -13t-79.5 -49t-65.5 -94.5t-43 -154t-18.5 -222.5v-51
q77 205 315 205zM608 125q266 0 266 319q0 162 -69.5 240t-196.5 78q-131 0 -210 -78t-79 -238q30 -321 289 -321z" />
    <glyph glyph-name="seven" unicode="7" 
d="M209 1401h819v-135l-487 -1266h-146l490 1266h-541v-236h-135v371z" />
    <glyph glyph-name="eight" unicode="8" 
d="M772 723q124 -33 191 -130t67 -226q0 -179 -115 -278t-305 -99t-305 99t-115 278q0 129 67 226t192 130q-108 38 -164 124t-56 206q0 156 103 257t278 101q176 0 278.5 -101t102.5 -257q0 -120 -55.5 -207t-163.5 -123zM365 1034q0 -114 65 -186t180 -72q114 0 180 72.5
t66 185.5q0 112 -66 181t-180 69t-179.5 -69t-65.5 -181zM610 125q132 0 208.5 71t76.5 203q0 127 -78.5 200t-206.5 73q-125 0 -204.5 -72.5t-79.5 -200.5q0 -132 76 -203t208 -71z" />
    <glyph glyph-name="nine" unicode="9" 
d="M598 1411q442 0 442 -706q0 -161 -23 -285.5t-62.5 -204.5t-96.5 -131.5t-119.5 -72.5t-136.5 -21q-163 0 -264.5 95t-124.5 277h141q38 -237 252 -237q50 0 91 13t80.5 49t66 94t43 153.5t16.5 222.5v52q-77 -203 -315 -203q-83 0 -153.5 28t-124 82t-83.5 141.5
t-30 198.5q0 218 111 336.5t290 118.5zM598 639q131 0 210 78.5t79 238.5q-30 320 -289 320q-266 0 -266 -320q0 -317 266 -317z" />
    <glyph glyph-name="colon" unicode=":" 
d="M608 698q-46 0 -77 30.5t-31 74.5q0 43 31 71.5t77 28.5q45 0 77 -29t32 -71q0 -44 -32 -74.5t-77 -30.5zM608 -20q-46 0 -77 30t-31 74q0 43 31 71.5t77 28.5q45 0 77 -29t32 -71q0 -44 -32 -74t-77 -30z" />
    <glyph glyph-name="semicolon" unicode=";" 
d="M608 709q-46 0 -77 30t-31 74q0 43 31 71.5t77 28.5q45 0 77 -29t32 -71q0 -44 -32 -74t-77 -30zM610 190q44 0 75.5 -29.5t31.5 -72.5q0 -34 -19 -59l-143 -224l-51 27l63 160q-29 11 -48 37.5t-19 58.5q0 44 32 73t78 29z" />
    <glyph glyph-name="less" unicode="&#x3c;" 
d="M948 186l-778 314v182l778 315v-147l-643 -258l643 -260v-146z" />
    <glyph glyph-name="equal" unicode="=" 
d="M195 705v135h829v-135h-829zM195 346v135h829v-135h-829z" />
    <glyph glyph-name="greater" unicode="&#x3e;" 
d="M223 186v146l641 260l-641 258v147l776 -315v-182z" />
    <glyph glyph-name="question" unicode="?" 
d="M510 473v37q0 90 55.5 169t159.5 140q135 83 135 219q0 99 -73 162.5t-197 63.5q-231 0 -264 -238h-142q21 189 127 281t275 92q182 0 295.5 -103.5t113.5 -257.5q0 -104 -52.5 -190.5t-149.5 -145.5q-148 -89 -148 -192v-37h-135zM578 -10q-46 0 -77.5 30t-31.5 74
q0 43 31.5 72t77.5 29q45 0 76.5 -29.5t31.5 -71.5q0 -44 -31.5 -74t-76.5 -30z" />
    <glyph glyph-name="at" unicode="@" 
d="M623 1411q164 0 260.5 -63t142 -205t45.5 -385v-516h-96l-14 178q-37 -97 -108 -146t-163 -49q-144 0 -225.5 115t-81.5 352q0 236 81.5 350.5t225.5 114.5q183 0 260 -170q-21 180 -95 250t-232 70q-72 0 -125.5 -17.5t-97 -59.5t-70.5 -110.5t-41.5 -171.5t-14.5 -243
q0 -175 24.5 -295t75 -188t118 -97t163.5 -29h416v-106h-416q-117 0 -203 36t-150 117.5t-96 221.5t-32 340q0 199 28.5 336.5t87.5 218.5t139.5 116t193.5 35zM727 338q234 0 234 354q0 355 -234 355q-113 0 -173 -83t-60 -272q0 -188 60 -271t173 -83z" />
    <glyph glyph-name="A" unicode="A" 
d="M971 0l-97 338h-532l-96 -338h-142l410 1401h188l410 -1401h-141zM381 473h455l-228 801z" />
    <glyph glyph-name="B" unicode="B" 
d="M842 733q99 -45 157 -133.5t58 -204.5q0 -178 -112.5 -286.5t-282.5 -108.5h-472v1401h406q167 0 276 -108.5t109 -274.5q0 -88 -37 -162.5t-102 -122.5zM596 1266h-270v-496h270q108 0 179 72.5t71 175.5q0 109 -70 178.5t-180 69.5zM662 135q114 0 187 69t73 191
q0 117 -74 188.5t-186 71.5h-336v-520h336z" />
    <glyph glyph-name="C" unicode="C" 
d="M639 -10q-85 0 -150 20.5t-120 70t-90 130t-54.5 203t-19.5 286.5q0 204 29 344.5t87 220t134.5 113t183.5 33.5q166 0 271 -108t126 -328h-135q-19 165 -86 233t-186 68q-59 0 -101.5 -13.5t-80 -50.5t-60 -101t-35 -166.5t-12.5 -244.5t12.5 -243.5t35 -165.5
t60 -101.5t80 -51t101.5 -13.5q118 0 185.5 69t86.5 234h135q-21 -221 -126 -329.5t-271 -108.5z" />
    <glyph glyph-name="D" unicode="D" 
d="M217 0v1401h268q130 0 226.5 -37t168 -118.5t108 -218t36.5 -327.5t-36.5 -327.5t-108 -217.5t-168 -118t-226.5 -37h-268zM352 135h144q95 0 163.5 26.5t122 89.5t80.5 175t27 274q0 130 -18 228t-50.5 162t-82.5 103.5t-108.5 56t-133.5 16.5h-144v-1131z" />
    <glyph glyph-name="E" unicode="E" 
d="M1042 1266h-671v-498h587v-135h-587v-498h671v-135h-806v1401h806v-135z" />
    <glyph glyph-name="F" unicode="F" 
d="M1083 1266h-667v-521h575v-135h-575v-610h-135v1401h802v-135z" />
    <glyph glyph-name="G" unicode="G" 
d="M612 748h424v-748h-114l-23 219q-70 -229 -305 -229q-60 0 -109.5 14.5t-95 46.5t-79 86.5t-58.5 132t-38 186.5t-13 246q1 163 20.5 286t54.5 203t88 129.5t115.5 70t143.5 20.5q355 0 397 -436h-135q-20 167 -84 234t-185 67q-57 0 -98 -13.5t-77 -50.5t-58 -101
t-34.5 -165.5t-12.5 -243.5t13.5 -245t37 -166.5t61 -101t79 -51t98.5 -13.5q66 0 113.5 19t85 63t56.5 124t19 195v86h-287v136z" />
    <glyph glyph-name="H" unicode="H" 
d="M874 1401h136v-1401h-136v633h-532v-633h-135v1401h135v-633h532v633z" />
    <glyph glyph-name="I" unicode="I" 
d="M676 135h334v-135h-803v135h334v1131h-324v135h782v-135h-323v-1131z" />
    <glyph glyph-name="J" unicode="J" 
d="M578 -10q-107 0 -188.5 36t-136 116.5t-69.5 201.5h140q19 -115 80.5 -167t177.5 -52q125 0 193.5 79t68.5 245v817h-604v135h739v-979q0 -203 -109 -317.5t-292 -114.5z" />
    <glyph glyph-name="K" unicode="K" 
d="M963 0l-416 711l-207 -260v-451h-135v1401h135v-733l582 733h174l-461 -580l483 -821h-155z" />
    <glyph glyph-name="L" unicode="L" 
d="M256 0v1401h135v-1266h649v-135h-784z" />
    <glyph glyph-name="M" unicode="M" 
d="M891 1401h166v-1401h-135v1104l-256 -721h-113l-258 723v-1106h-135v1401h168l280 -809z" />
    <glyph glyph-name="N" unicode="N" 
d="M905 1401h135v-1401h-168l-561 1165v-1165h-135v1401h170l559 -1163v1163z" />
    <glyph glyph-name="O" unicode="O" 
d="M608 -10q-78 0 -139 20.5t-114 70t-87 129.5t-53.5 203t-19.5 287q0 163 19.5 286t54 203.5t87 130.5t114 70.5t138.5 20.5q78 0 139.5 -20.5t114 -70.5t87 -130t54 -203t19.5 -287q0 -163 -19.5 -286.5t-54 -203.5t-87 -129.5t-114 -70t-139.5 -20.5zM608 125
q56 0 97 13.5t77 50.5t58 100.5t34.5 166t12.5 244.5t-12.5 244.5t-34 166.5t-57.5 101t-77 50.5t-98 13.5q-56 0 -97 -13.5t-76.5 -50.5t-57.5 -101t-34.5 -166.5t-12.5 -244.5t12.5 -244.5t34.5 -166t58 -100.5t76.5 -50.5t96.5 -13.5z" />
    <glyph glyph-name="P" unicode="P" 
d="M623 1401q198 0 317 -115t119 -313q0 -196 -119.5 -312t-316.5 -116h-232v-545h-135v1401h367zM612 680q156 0 234 74.5t78 218.5q0 293 -312 293h-221v-586h221z" />
    <glyph glyph-name="Q" unicode="Q" 
d="M1022 700q0 -280 -54.5 -438.5t-158.5 -222.5l90 -242h-137l-74 199q-40 -6 -80 -6q-78 0 -139 20.5t-114 70t-87 129.5t-53.5 203t-19.5 287q0 163 19.5 286t54 203.5t87 130.5t114 70.5t138.5 20.5q78 0 139.5 -20.5t114 -70.5t87 -130t54 -203t19.5 -287zM330 700
q0 -142 12.5 -244.5t34.5 -166t58 -100.5t76.5 -50.5t96.5 -13.5t97 13.5t77 50.5t58 100.5t34.5 166t12.5 244.5t-12.5 244.5t-34 166.5t-57.5 101t-77 50.5t-98 13.5q-56 0 -97 -13.5t-76.5 -50.5t-57.5 -101t-34.5 -166.5t-12.5 -244.5z" />
    <glyph glyph-name="R" unicode="R" 
d="M1065 0h-156l-239 549q-46 -4 -70 -4h-231v-545h-136v1401h367q198 0 317 -115t119 -313q0 -139 -62.5 -240t-172.5 -149zM590 680q155 0 233 74.5t78 218.5q0 293 -311 293h-221v-586h221z" />
    <glyph glyph-name="S" unicode="S" 
d="M598 -10q-196 0 -304.5 97.5t-129.5 322.5h141q17 -157 88.5 -221t204.5 -64q134 0 210.5 62.5t76.5 164.5q0 206 -221 275l-152 53q-319 99 -319 375q0 152 111 254t284 102q181 0 283.5 -93t123.5 -302h-131q-17 142 -83.5 201t-192.5 59q-117 0 -188.5 -62t-71.5 -159
q0 -90 52 -148.5t183 -101.5l152 -53q152 -48 228.5 -152t76.5 -248q0 -158 -115.5 -260t-306.5 -102z" />
    <glyph glyph-name="T" unicode="T" 
d="M1047 1401v-125h-371v-1276h-135v1276h-369v125h875z" />
    <glyph glyph-name="U" unicode="U" 
d="M608 -10q-188 0 -300.5 115t-112.5 311v985h135v-934q0 -342 278 -342q279 0 279 342v934h135v-985q0 -196 -113 -311t-301 -115z" />
    <glyph glyph-name="V" unicode="V" 
d="M977 1401h141l-426 -1401h-168l-424 1401h142l368 -1239z" />
    <glyph glyph-name="W" unicode="W" 
d="M987 1401h137l-225 -1401h-133l-158 684l-157 -684h-132l-227 1401h137l172 -1096l123 551h170l123 -553z" />
    <glyph glyph-name="X" unicode="X" 
d="M1104 0h-156l-338 614l-340 -614h-157l405 719l-387 682h158l319 -574l322 574h155l-385 -682z" />
    <glyph glyph-name="Y" unicode="Y" 
d="M676 551v-416h334v-135h-803v135h334v416l-412 850h152l327 -694l328 694h154z" />
    <glyph glyph-name="Z" unicode="Z" 
d="M348 135h666v-135h-815v135l645 1131h-631v135h782v-135z" />
    <glyph glyph-name="bracketleft" unicode="[" 
d="M506 -197q-32 0 -53 20.5t-21 51.5v1454q0 31 21 51.5t53 20.5h397v-135h-336v-1327h336v-136h-397z" />
    <glyph glyph-name="backslash" unicode="\" 
d="M936 0l-811 1401h156l811 -1401h-156z" />
    <glyph glyph-name="bracketright" unicode="]" 
d="M315 -197v136h334v1327h-334v135h398q31 0 51 -20.5t20 -51.5v-1454q0 -31 -20 -51.5t-51 -20.5h-398z" />
    <glyph glyph-name="asciicircum" unicode="^" 
d="M268 784l260 617h160l260 -617h-145l-195 482l-192 -482h-148z" />
    <glyph glyph-name="underscore" unicode="_" 
d="M225 -227v135h766v-135h-766z" />
    <glyph glyph-name="grave" unicode="`" 
d="M649 1163l-211 260h162l145 -260h-96z" />
    <glyph glyph-name="a" unicode="a" 
d="M1020 135h47v-135h-111q-141 0 -141 141v37q-45 -90 -128 -139.5t-195 -48.5q-152 0 -246 79.5t-94 217.5q0 143 107 230t329 87h227v94q0 98 -65.5 160t-159.5 62q-100 0 -160 -44.5t-78 -123.5h-149q18 141 126.5 222t260.5 81q159 0 265 -99t106 -258v-503
q0 -60 59 -60zM530 121q134 0 209.5 67t75.5 185v123h-227q-139 0 -212 -55t-73 -138q0 -80 59 -131t168 -51z" />
    <glyph glyph-name="b" unicode="b" 
d="M668 1055q167 0 260.5 -129.5t93.5 -403.5t-93.5 -403t-260.5 -129q-110 0 -191.5 55t-122.5 170l-20 -215h-115v1401h135v-557q42 117 120.5 164t193.5 47zM621 125q132 0 199 90.5t67 306.5q0 217 -67 307.5t-199 90.5q-130 0 -198.5 -91t-68.5 -307q0 -215 68.5 -306
t198.5 -91z" />
    <glyph glyph-name="c" unicode="c" 
d="M633 -10q-193 0 -300.5 129.5t-107.5 402.5q0 274 107.5 403.5t300.5 129.5q160 0 263 -90t124 -277h-139q-18 123 -78.5 177.5t-169.5 54.5q-89 0 -147 -35t-92 -125t-34 -238q0 -216 69 -306.5t204 -90.5q109 0 169.5 55t78.5 178h139q-21 -187 -124 -277.5t-263 -90.5
z" />
    <glyph glyph-name="d" unicode="d" 
d="M868 1401h136v-1401h-115l-19 211q-43 -113 -124 -167t-189 -54q-169 0 -262.5 129t-93.5 403t93.5 403.5t262.5 129.5q112 0 190.5 -46t120.5 -159v551zM602 125q131 0 198.5 90.5t67.5 306.5t-68 307t-198 91q-131 0 -198.5 -90.5t-67.5 -307.5q0 -216 67.5 -306.5
t198.5 -90.5z" />
    <glyph glyph-name="e" unicode="e" 
d="M893 483v-2h-545q7 -193 74 -275.5t190 -82.5q221 0 258 213h140q-32 -176 -132.5 -263t-259.5 -87q-191 0 -298 131.5t-107 404.5q0 274 106.5 405.5t294.5 131.5q187 0 294.5 -127t107.5 -379v-70h-123zM614 924q-119 0 -186 -75.5t-78 -250.5h531q-16 326 -267 326z
" />
    <glyph glyph-name="f" unicode="f" 
d="M782 1284q-91 0 -149 -53.5t-58 -132.5v-54h369v-135h-369v-774h453v-135h-821v135h233v774h-233v135h233v62q0 134 94 223.5t240 89.5h305v-135h-297z" />
    <glyph glyph-name="g" unicode="g" 
d="M469 -219h610v-137h-641q-131 0 -208.5 61t-77.5 191q0 95 47 178t131 123q-140 121 -140 374q0 236 99 360t276 124q254 0 334 -228l21 217h114v-464q0 -239 -111 -355t-311 -116q-132 0 -219 47q-53 -37 -81.5 -92.5t-28.5 -112.5q0 -86 45 -128t141 -42zM612 920
q-286 0 -286 -349q0 -179 71.5 -258.5t214.5 -79.5t215 81t72 266q0 172 -74 256t-213 84z" />
    <glyph glyph-name="h" unicode="h" 
d="M672 1059q158 0 251 -107t93 -282v-670h-135v596q0 167 -67.5 247.5t-188.5 80.5q-90 0 -149 -36.5t-93.5 -126.5t-34.5 -237v-524h-135v1401h135v-547q44 113 121.5 159t202.5 46z" />
    <glyph glyph-name="i" unicode="i" 
d="M651 1208q-48 0 -78 27t-30 76q0 50 30 76t78 26q47 0 78 -26t31 -76q0 -49 -31 -76t-78 -27zM719 135h340v-135h-840v135h365v774h-297v135h360q31 0 51.5 -20t20.5 -51v-838z" />
    <glyph glyph-name="j" unicode="j" 
d="M825 1208q-48 0 -79 27t-31 76q0 50 30.5 76t79.5 26q46 0 76.5 -26t30.5 -76q0 -49 -31 -76t-76 -27zM213 -367v136h358q77 0 132 55t55 131v954h-453v135h514q32 0 53 -20t21 -51v-1026q0 -131 -91.5 -222.5t-221.5 -91.5h-367z" />
    <glyph glyph-name="k" unicode="k" 
d="M928 0l-350 520l-181 -198v-322h-135v1401h135v-873l475 516h177l-377 -419l413 -625h-157z" />
    <glyph glyph-name="l" unicode="l" 
d="M768 0q-132 0 -222.5 90.5t-90.5 222.5v953h-328v135h391q31 0 51.5 -20.5t20.5 -51.5v-1007q0 -77 55 -132t131 -55h297v-135h-305z" />
    <glyph glyph-name="m" unicode="m" 
d="M858 1059q95 0 162 -71.5t67 -174.5v-813h-135v793q0 57 -38 94t-95 37q-60 0 -98.5 -38.5t-38.5 -97.5v-788h-135v793q0 57 -38 94t-95 37q-88 0 -123 -84l4 -25l-12 -2q-7 -28 -7 -55v-758h-135v1044h115l18 -110q49 125 179 125q139 0 184 -150q25 78 83.5 114
t137.5 36z" />
    <glyph glyph-name="n" unicode="n" 
d="M676 1059q164 0 253 -107t89 -276v-676h-137v643q0 135 -71 211t-192 76q-270 0 -270 -400v-530h-135v1044h115l20 -247q66 262 328 262z" />
    <glyph glyph-name="o" unicode="o" 
d="M608 -14q-186 0 -293.5 132.5t-107.5 403.5q0 274 107 405.5t294 131.5t294.5 -132.5t107.5 -404.5t-107.5 -404t-294.5 -132zM608 121q64 0 111 20.5t83 66t54 124.5t18 190q0 148 -33 238.5t-89.5 127t-143.5 36.5q-129 0 -197.5 -92.5t-68.5 -309.5
q0 -216 68.5 -308.5t197.5 -92.5zM561 653h96v-262h-96v262z" />
    <glyph glyph-name="p" unicode="p" 
d="M662 1055q167 0 260.5 -129.5t93.5 -403.5t-93.5 -403t-260.5 -129q-115 0 -193.5 47.5t-120.5 163.5v-557h-135v1400h115l20 -213q81 224 314 224zM614 125q65 0 112.5 20t83 65t53.5 122.5t18 189.5q0 216 -67.5 307t-199.5 91q-63 0 -110.5 -20t-83 -65.5t-54 -123.5
t-18.5 -189q0 -216 68 -306.5t198 -90.5z" />
    <glyph glyph-name="q" unicode="q" 
d="M883 1044h114v-1400h-135v553q-42 -114 -120.5 -160.5t-190.5 -46.5q-169 0 -262.5 129t-93.5 403t93.5 403.5t262.5 129.5q107 0 188.5 -54t124.5 -165zM596 125q130 0 198 90.5t68 306.5q0 111 -18 189t-54 123.5t-83 65.5t-111 20t-111 -20t-83 -65.5t-54 -123.5
t-18 -189q0 -217 67.5 -307t198.5 -90z" />
    <glyph glyph-name="r" unicode="r" 
d="M778 926q-138 0 -219.5 -89t-81.5 -223v-479h484v-135h-828v135h209v774h-209v135h324l22 -200q38 103 123 157t203 54h229v-129h-256z" />
    <glyph glyph-name="s" unicode="s" 
d="M625 -10q-84 0 -152.5 18.5t-125.5 59t-92.5 111t-45.5 167.5h151q15 -123 82 -177t189 -54q116 0 181 47.5t65 122.5q0 69 -46.5 120.5t-138.5 67.5l-160 31q-294 57 -294 278q0 116 95.5 194.5t266.5 78.5q157 0 259 -72.5t124 -220.5h-139q-15 83 -79 125.5t-169 42.5
q-116 0 -167.5 -44.5t-51.5 -103.5q0 -62 41 -106t129 -58l166 -30q140 -27 219.5 -106.5t79.5 -200.5q0 -127 -106.5 -209t-280.5 -82z" />
    <glyph glyph-name="t" unicode="t" 
d="M1055 909h-496v-587q0 -77 55 -132t131 -55h295v-135h-303q-132 0 -222.5 91t-90.5 222v596h-283v135h283v283h135v-283h496v-135z" />
    <glyph glyph-name="u" unicode="u" 
d="M608 -10q-176 0 -288.5 106.5t-112.5 263.5v684h135v-659q0 -119 71.5 -189.5t194.5 -70.5q124 0 195 70.5t71 189.5v659h136v-684q0 -157 -113 -263.5t-289 -106.5z" />
    <glyph glyph-name="v" unicode="v" 
d="M924 1044h143l-389 -1044h-141l-387 1044h141l317 -880z" />
    <glyph glyph-name="w" unicode="w" 
d="M977 1044h135l-219 -1044h-129l-156 696l-155 -696h-127l-222 1044h138l157 -751l138 663h143l139 -667z" />
    <glyph glyph-name="x" unicode="x" 
d="M1061 0h-162l-291 451l-289 -451h-163l366 541l-348 503h164l270 -403l271 403h165l-350 -503z" />
    <glyph glyph-name="y" unicode="y" 
d="M1081 1044l-432 -1265h369v-135h-795v135h291l74 221h-62l-381 1044h148l332 -931l311 931h145z" />
    <glyph glyph-name="z" unicode="z" 
d="M227 0v135l574 774h-555v135h733v-135l-573 -774h591v-135h-770z" />
    <glyph glyph-name="braceleft" unicode="{" 
d="M657 836q0 -78 -44.5 -141.5t-135.5 -92.5q93 -28 136.5 -90t43.5 -143v-281q0 -63 43.5 -106t106.5 -43h156v-136h-164q-117 0 -197 80t-80 197v289q0 69 -48.5 117.5t-117.5 48.5h-61v135h61q69 0 117.5 49t48.5 117v290q0 116 80 195.5t197 79.5h164v-135h-156
q-63 0 -106.5 -43t-43.5 -105v-282z" />
    <glyph glyph-name="bar" unicode="|" 
d="M541 -197v1598h135v-1598h-135z" />
    <glyph glyph-name="braceright" unicode="}" 
d="M860 670h62v-135h-62q-68 0 -117 -48.5t-49 -117.5v-289q0 -117 -79 -197t-195 -80h-164v136h156q62 0 104.5 43t42.5 106v281q0 81 44 143t138 90q-91 28 -136.5 92t-45.5 142v282q0 62 -43 105t-104 43h-156v135h164q115 0 194.5 -79.5t79.5 -195.5v-290
q0 -68 48.5 -117t117.5 -49z" />
    <glyph glyph-name="asciitilde" unicode="~" 
d="M780 469q-52 0 -91.5 15.5t-64 37.5t-47 43.5t-52.5 37t-68 15.5q-48 0 -81.5 -35t-33.5 -89v-15h-135v25q0 111 65.5 180.5t163.5 69.5q51 0 91 -15.5t65 -37.5t47.5 -44t53 -37.5t67.5 -15.5q48 0 82.5 35.5t34.5 89.5v14h135v-24q0 -111 -66.5 -180.5t-165.5 -69.5z
" />
    <glyph glyph-name="exclamdown" unicode="&#xa1;" 
d="M608 1212q-46 0 -77 29t-31 72q0 44 31 74t77 30q45 0 77 -30t32 -74q0 -42 -32 -71.5t-77 -29.5zM541 0v989h135v-989h-135z" />
    <glyph glyph-name="cent" unicode="&#xa2;" 
d="M633 299q109 0 169.5 55t78.5 178h139q-20 -168 -105.5 -258t-220.5 -106v-168h-135v168q-334 51 -334 528q0 478 334 529v176h135v-176q135 -16 220.5 -105.5t105.5 -257.5h-139q-18 123 -78.5 177.5t-169.5 54.5q-89 0 -147 -35t-92 -125t-34 -238q0 -216 69 -306.5
t204 -90.5z" />
    <glyph glyph-name="sterling" unicode="&#xa3;" 
d="M412 135h645v-135h-897v135h26q55 0 92 37.5t37 91.5v369h-155v135h155v285q0 150 106 254t259 104q134 0 233 -89.5t121 -260.5h-141q-17 104 -76 159.5t-143 55.5q-95 0 -159 -65.5t-64 -159.5v-283h440v-135h-440v-369q0 -76 -39 -129z" />
    <glyph glyph-name="currency" unicode="&#xa4;" 
d="M981 662q0 -124 -72 -222l154 -151l-82 -82l-152 153q-96 -71 -221 -71q-123 0 -219 71l-151 -153l-82 82l153 151q-73 95 -73 222q0 123 71 219l-151 151l82 82l151 -151q96 71 219 71q126 0 221 -73l152 153l82 -82l-154 -151q72 -98 72 -219zM608 403q107 0 182.5 76
t75.5 183q0 106 -75.5 182t-182.5 76q-106 0 -182 -76t-76 -182q0 -107 76 -183t182 -76z" />
    <glyph glyph-name="yen" unicode="&#xa5;" 
d="M1090 1401l-367 -754h274v-135h-321v-143h321v-136h-321v-233h-135v233h-322v136h322v143h-322v135h275l-365 754h152l327 -692l328 692h154z" />
    <glyph glyph-name="brokenbar" unicode="&#xa6;" 
d="M541 731v670h135v-670h-135zM541 -197v670h135v-670h-135z" />
    <glyph glyph-name="section" unicode="&#xa7;" 
d="M1057 373q0 -106 -76 -203q35 -72 35 -162q0 -153 -111 -258.5t-282 -105.5q-181 0 -285 96.5t-125 308.5h131q18 -144 85 -207t187 -63t192.5 65.5t72.5 163.5q0 90 -52 149.5t-182 102.5l-180 59q-143 45 -226 137.5t-83 233.5q0 111 75 203q-34 72 -34 162
q0 153 111 256.5t284 103.5q180 0 283 -94.5t124 -304.5h-131q-17 142 -83.5 203t-188.5 61q-119 0 -191.5 -64t-72.5 -161q0 -90 52 -148.5t183 -101.5l181 -60q142 -46 224.5 -138t82.5 -234zM526 442l172 -59q123 -38 191 -98q33 46 33 88q0 173 -234 250l-170 57
q-123 38 -194 98q-31 -45 -31 -88q0 -93 61 -152.5t172 -95.5z" />
    <glyph glyph-name="dieresis" unicode="&#xa8;" 
d="M457 1255q-46 0 -78.5 30.5t-32.5 74.5q0 42 32.5 71t78.5 29q43 0 74.5 -29t31.5 -71q0 -44 -31.5 -74.5t-74.5 -30.5zM764 1255q-46 0 -78.5 30.5t-32.5 74.5q0 42 32.5 71t78.5 29q43 0 74.5 -29t31.5 -71q0 -44 -31.5 -74.5t-74.5 -30.5z" />
    <glyph glyph-name="copyright" unicode="&#xa9;" 
d="M608 55q-190 0 -324 134t-134 325t134 325t324 134t324.5 -134.5t134.5 -324.5t-134.5 -324.5t-324.5 -134.5zM608 135q158 0 268.5 111t110.5 268q0 158 -110.5 268.5t-268.5 110.5q-157 0 -268 -110.5t-111 -268.5q0 -157 111 -268t268 -111zM614 242q-99 0 -153.5 67
t-54.5 205q0 272 208 272q81 0 134 -46.5t63 -141.5h-76q-9 62 -39 88.5t-82 26.5q-67 0 -101 -44t-34 -155q0 -110 34 -154.5t101 -44.5q105 0 121 115h76q-10 -94 -63 -141t-134 -47z" />
    <glyph glyph-name="ordfeminine" unicode="&#xaa;" 
d="M600 1409q103 0 169.5 -60.5t66.5 -158.5v-416h-80l-21 103q-22 -51 -70.5 -81t-115.5 -30q-106 0 -156.5 52t-50.5 124q0 86 55.5 139.5t173.5 53.5h164v55q0 54 -36.5 88.5t-94.5 34.5q-51 0 -84 -26.5t-39 -72.5h-108q15 92 74 143.5t153 51.5zM571 842q57 0 97 25
t55 67v2h2q10 30 10 61v74h-141q-87 0 -125.5 -31.5t-38.5 -81.5t34.5 -83t106.5 -33zM354 510v100h482v-100h-482z" />
    <glyph glyph-name="guillemotleft" unicode="&#xab;" 
d="M518 225l-325 367l325 366h160l-326 -366l326 -367h-160zM893 225l-324 367l324 366h160l-324 -366l324 -367h-160z" />
    <glyph glyph-name="logicalnot" unicode="&#xac;" 
d="M856 299v328h-674v135h809v-463h-135z" />
    <glyph glyph-name="registered" unicode="&#xae;" 
d="M608 1411q190 0 324.5 -134.5t134.5 -324.5t-134 -324t-325 -134q-190 0 -324 134t-134 324q0 191 134 325t324 134zM608 573q158 0 268.5 111t110.5 268q0 158 -110.5 268.5t-268.5 110.5q-157 0 -268 -110.5t-111 -268.5q0 -157 111 -268t268 -111zM791 1055
q0 -121 -101 -150l103 -217h-68l-96 209h-4h-113v-209h-59v524h172q78 0 122 -39.5t44 -117.5zM512 958h88q62 0 95.5 21t33.5 76q0 54 -33.5 75t-95.5 21h-88v-193z" />
    <glyph glyph-name="macron" unicode="&#xaf;" 
d="M344 1206v115h533v-115h-533z" />
    <glyph glyph-name="degree" unicode="&#xb0;" 
d="M573 1020q-87 0 -149 62t-62 149q0 88 61.5 149.5t149.5 61.5t149.5 -61.5t61.5 -149.5t-60 -149.5t-151 -61.5zM573 1104q49 0 88 34t39 93t-39 94t-88 35t-88 -35t-39 -94t39 -93t88 -34z" />
    <glyph glyph-name="plusminus" unicode="&#xb1;" 
d="M541 422v278h-346v136h346v278h135v-278h348v-136h-348v-278h-135zM195 160v135h829v-135h-829z" />
    <glyph glyph-name="uni00B2" unicode="&#xb2;" 
d="M465 1044v-28h393v-101h-493v105q0 124 42.5 191.5t161.5 131.5q109 59 149 97.5t40 105.5q0 53 -41 88t-109 35q-66 0 -100.5 -33.5t-46.5 -111.5h-107q14 128 81.5 186.5t172.5 58.5q111 0 180.5 -62t69.5 -161q0 -102 -49.5 -158.5t-196.5 -134.5
q-90 -50 -118.5 -92.5t-28.5 -116.5z" />
    <glyph glyph-name="uni00B3" unicode="&#xb3;" 
d="M690 1370q150 -51 150 -227q0 -105 -66 -171.5t-182 -66.5q-100 0 -169.5 56t-82.5 161h106q9 -57 46.5 -86.5t99.5 -29.5q70 0 108.5 40.5t38.5 116.5q0 69 -35.5 110.5t-89.5 41.5h-108v88h82q51 0 87 40t36 99q0 61 -35.5 98t-100.5 37q-52 0 -85.5 -31t-40.5 -90h-99
q10 104 74 160t151 56q103 0 165.5 -64t62.5 -156q0 -127 -113 -182z" />
    <glyph glyph-name="acute" unicode="&#xb4;" 
d="M500 1163l143 260h162l-211 -260h-94z" />
    <glyph glyph-name="uni00B5" unicode="&#xb5;" 
d="M1079 135h49v-135h-47q-63 0 -111 30t-63 81q-92 -125 -266 -125q-125 0 -202.5 47t-121.5 160v-549h-135v1400h135v-524q0 -111 18.5 -189t55.5 -123.5t86.5 -66t116.5 -20.5q121 0 188.5 80.5t67.5 247.5v595h135v-815q0 -37 28 -65.5t66 -28.5z" />
    <glyph glyph-name="paragraph" unicode="&#xb6;" 
d="M907 1401v-1401h-135v1276h-70v-1276h-135v725h-57q-121 0 -201 91t-80 249q0 156 80.5 246t200.5 90h397z" />
    <glyph glyph-name="periodcentered" unicode="&#xb7;" 
d="M608 489q-46 0 -77 30t-31 73q0 44 31 73t77 29q45 0 77 -29t32 -73q0 -43 -32.5 -73t-76.5 -30z" />
    <glyph glyph-name="cedilla" unicode="&#xb8;" 
d="M649 -131q83 0 136 -52.5t53 -135.5q0 -89 -65.5 -142t-172.5 -53h-145v111h145q61 0 92 30t31 74t-27.5 75t-74.5 31h-111v58l65 135h119l-61 -131h16z" />
    <glyph glyph-name="uni00B9" unicode="&#xb9;" 
d="M690 1014h189v-99h-494v99h207v508h-207v92h207v143h98v-743z" />
    <glyph glyph-name="ordmasculine" unicode="&#xba;" 
d="M608 768q-114 0 -180 79.5t-66 242.5q0 161 66 240t180 79q116 0 182 -78.5t66 -240.5q0 -163 -66.5 -242.5t-181.5 -79.5zM608 866q73 0 110.5 51t37.5 173q0 120 -37.5 170.5t-110.5 50.5q-72 0 -108.5 -50.5t-36.5 -170.5q0 -121 37 -172.5t108 -51.5zM377 510v100
h465v-100h-465z" />
    <glyph glyph-name="guillemotright" unicode="&#xbb;" 
d="M164 225l323 367l-323 366h160l323 -366l-323 -367h-160zM541 225l323 367l-323 366h159l324 -366l-324 -367h-159z" />
    <glyph glyph-name="onequarter" unicode="&#xbc;" 
d="M879 1014v-99h-494v99h207v508h-207v92h207v143h98v-743h189zM145 750h926v-99h-926v99zM784 150v-199h93v-98h-93v-209h-100v209h-340v98l260 534h111l-260 -534h229v199h100z" />
    <glyph glyph-name="onehalf" unicode="&#xbd;" 
d="M879 1014v-99h-494v99h207v508h-207v92h207v143h98v-743h189zM145 750h926v-99h-926v99zM612 -18q-90 -50 -118.5 -92.5t-28.5 -116.5v-29h393v-100h-493v104q0 124 42.5 192t161.5 132q57 31 85.5 48.5t56 42t37.5 50.5t10 61q0 53 -41 88t-109 35q-66 0 -100.5 -33.5
t-46.5 -111.5h-107q14 128 81.5 187t172.5 59q111 0 180.5 -62t69.5 -162q0 -102 -49.5 -158t-196.5 -134z" />
    <glyph glyph-name="threequarters" unicode="&#xbe;" 
d="M592 1006q70 0 108.5 40.5t38.5 116.5q0 69 -35.5 110.5t-89.5 41.5h-108v88h82q51 0 87 40t36 99q0 61 -35.5 98t-100.5 37q-52 0 -85.5 -31t-40.5 -90h-99q10 104 74 160t151 56q103 0 165.5 -64t62.5 -156q0 -127 -113 -182q150 -51 150 -227q0 -105 -66 -171.5
t-182 -66.5q-100 0 -169.5 56t-82.5 161h106q9 -57 46.5 -86.5t99.5 -29.5zM145 750h926v-99h-926v99zM784 150v-199h93v-98h-93v-209h-100v209h-340v98l260 534h111l-260 -534h229v199h100z" />
    <glyph glyph-name="questiondown" unicode="&#xbf;" 
d="M602 1399q46 0 77.5 -30.5t31.5 -74.5q0 -43 -31.5 -71.5t-77.5 -28.5q-45 0 -76.5 29t-31.5 71q0 44 31.5 74.5t76.5 30.5zM670 915v-36q0 -90 -55.5 -170t-159.5 -140q-136 -83 -136 -219q0 -99 73.5 -162t197.5 -63q231 0 264 237h141q-21 -189 -126.5 -280.5
t-274.5 -91.5q-183 0 -296.5 103t-113.5 257q0 104 53 190.5t150 145.5q148 89 148 193v36h135z" />
    <glyph glyph-name="Agrave" unicode="&#xc0;" 
d="M653 1520h-96l-211 260h162zM971 0l-97 338h-532l-96 -338h-142l410 1401h188l410 -1401h-141zM381 473h455l-228 801z" />
    <glyph glyph-name="Aacute" unicode="&#xc1;" 
d="M874 1780l-210 -260h-95l144 260h161zM971 0l-97 338h-532l-96 -338h-142l410 1401h188l410 -1401h-141zM381 473h455l-228 801z" />
    <glyph glyph-name="Acircumflex" unicode="&#xc2;" 
d="M608 1688l-164 -177h-157l254 258h135l254 -258h-158zM971 0l-97 338h-532l-96 -338h-142l410 1401h188l410 -1401h-141zM381 473h455l-228 801z" />
    <glyph glyph-name="Atilde" unicode="&#xc3;" 
d="M373 1585v-22h-115v22q0 92 59 156.5t144 64.5q49 0 83 -14.5t79 -50.5q27 -24 42 -36t42 -25t53 -13q35 0 61.5 32.5t26.5 76.5v20h115v-20q0 -93 -58.5 -158.5t-144.5 -65.5q-50 0 -85 16.5t-77 51.5q-32 29 -44.5 39.5t-38.5 22.5t-54 12q-38 0 -63 -31.5t-25 -77.5z
M971 0l-97 338h-532l-96 -338h-142l410 1401h188l410 -1401h-141zM381 473h455l-228 801z" />
    <glyph glyph-name="Adieresis" unicode="&#xc4;" 
d="M459 1544q-46 0 -78.5 30.5t-32.5 74.5q0 42 32.5 71t78.5 29q43 0 74.5 -29t31.5 -71q0 -44 -31.5 -74.5t-74.5 -30.5zM766 1544q-46 0 -78.5 30.5t-32.5 74.5q0 42 32.5 71t78.5 29q43 0 74.5 -29t31.5 -71q0 -44 -31.5 -74.5t-74.5 -30.5zM971 0l-97 338h-532
l-96 -338h-142l410 1401h188l410 -1401h-141zM381 473h455l-228 801z" />
    <glyph glyph-name="Aring" unicode="&#xc5;" 
d="M971 0l-97 338h-532l-96 -338h-142l394 1346q-53 29 -84 81t-31 119q0 97 66.5 161.5t158.5 64.5q94 0 161 -64t67 -162q0 -68 -31.5 -121.5t-85.5 -81.5l393 -1343h-141zM610 1665q-51 0 -87 -34t-36 -87t35.5 -88t87.5 -35q49 0 85 35t36 88t-35 87t-86 34zM381 473
h455l-228 801z" />
    <glyph glyph-name="AE" unicode="&#xc6;" 
d="M1104 1266h-326v-498h264v-135h-264v-498h326v-135h-461v338h-281l-92 -338h-139l395 1401h578v-135zM643 473v793h-27l-217 -793h244z" />
    <glyph glyph-name="Ccedilla" unicode="&#xc7;" 
d="M629 125q118 0 185.5 69t86.5 234h135q-20 -199 -107 -307t-227 -127l-59 -125h16q83 0 136 -52.5t53 -135.5q0 -89 -65.5 -142t-172.5 -53h-145v111h145q61 0 92 30t31 74t-27.5 75t-74.5 31h-111v58l62 127q-93 9 -160 48.5t-117 120t-75 215t-25 324.5q0 204 29 344.5
t87 220t134.5 113t183.5 33.5q166 0 271 -108t126 -328h-135q-19 165 -86 233t-186 68q-59 0 -101.5 -13.5t-80 -50.5t-60 -101t-35 -166.5t-12.5 -244.5t12.5 -243.5t35 -165.5t60 -101.5t80 -51t101.5 -13.5z" />
    <glyph glyph-name="Egrave" unicode="&#xc8;" 
d="M680 1520h-96l-211 260h162zM1042 1266h-671v-498h587v-135h-587v-498h671v-135h-806v1401h806v-135z" />
    <glyph glyph-name="Eacute" unicode="&#xc9;" 
d="M901 1780l-211 -260h-94l143 260h162zM1042 1266h-671v-498h587v-135h-587v-498h671v-135h-806v1401h806v-135z" />
    <glyph glyph-name="Ecircumflex" unicode="&#xca;" 
d="M651 1688l-164 -177h-157l254 258h135l254 -258h-158zM1042 1266h-671v-498h587v-135h-587v-498h671v-135h-806v1401h806v-135z" />
    <glyph glyph-name="Edieresis" unicode="&#xcb;" 
d="M492 1544q-46 0 -78.5 30.5t-32.5 74.5q0 42 32.5 71t78.5 29q43 0 74.5 -29t31.5 -71q0 -44 -31.5 -74.5t-74.5 -30.5zM799 1544q-46 0 -78.5 30.5t-32.5 74.5q0 42 32.5 71t78.5 29q43 0 74.5 -29t31.5 -71q0 -44 -31.5 -74.5t-74.5 -30.5zM1042 1266h-671v-498h587
v-135h-587v-498h671v-135h-806v1401h806v-135z" />
    <glyph glyph-name="Igrave" unicode="&#xcc;" 
d="M657 1520h-96l-211 260h162zM676 135h334v-135h-803v135h334v1131h-324v135h782v-135h-323v-1131z" />
    <glyph glyph-name="Iacute" unicode="&#xcd;" 
d="M872 1780l-210 -260h-95l144 260h161zM676 135h334v-135h-803v135h334v1131h-324v135h782v-135h-323v-1131z" />
    <glyph glyph-name="Icircumflex" unicode="&#xce;" 
d="M610 1688l-164 -177h-157l254 258h135l254 -258h-158zM676 135h334v-135h-803v135h334v1131h-324v135h782v-135h-323v-1131z" />
    <glyph glyph-name="Idieresis" unicode="&#xcf;" 
d="M459 1544q-46 0 -78.5 30.5t-32.5 74.5q0 42 32.5 71t78.5 29q43 0 74.5 -29t31.5 -71q0 -44 -31.5 -74.5t-74.5 -30.5zM766 1544q-46 0 -78.5 30.5t-32.5 74.5q0 42 32.5 71t78.5 29q43 0 74.5 -29t31.5 -71q0 -44 -31.5 -74.5t-74.5 -30.5zM676 135h334v-135h-803v135
h334v1131h-324v135h782v-135h-323v-1131z" />
    <glyph glyph-name="Eth" unicode="&#xd0;" 
d="M526 1401q130 0 226.5 -37t168 -118.5t108 -218t36.5 -327.5t-36.5 -327.5t-108 -217.5t-168 -118t-226.5 -37h-268v633h-176v135h176v633h268zM537 135q95 0 163.5 26.5t122 89.5t80.5 175t27 274q0 130 -18 228t-50.5 162t-82.5 103.5t-108.5 56t-133.5 16.5h-144v-498
h264v-135h-264v-498h144z" />
    <glyph glyph-name="Ntilde" unicode="&#xd1;" 
d="M373 1585v-22h-115v22q0 92 59 156.5t144 64.5q49 0 83 -14.5t79 -50.5q27 -24 42 -36t42 -25t53 -13q35 0 61.5 32.5t26.5 76.5v20h115v-20q0 -93 -58.5 -158.5t-144.5 -65.5q-50 0 -85 16.5t-77 51.5q-32 29 -44.5 39.5t-38.5 22.5t-54 12q-38 0 -63 -31.5t-25 -77.5z
M905 1401h135v-1401h-168l-561 1165v-1165h-135v1401h170l559 -1163v1163z" />
    <glyph glyph-name="Ograve" unicode="&#xd2;" 
d="M561 1520l-211 260h162l145 -260h-96zM608 -10q-78 0 -139 20.5t-114 70t-87 129.5t-53.5 203t-19.5 287q0 163 19.5 286t54 203.5t87 130.5t114 70.5t138.5 20.5q78 0 139.5 -20.5t114 -70.5t87 -130t54 -203t19.5 -287q0 -163 -19.5 -286.5t-54 -203.5t-87 -129.5
t-114 -70t-139.5 -20.5zM608 125q56 0 97 13.5t77 50.5t58 100.5t34.5 166t12.5 244.5t-12.5 244.5t-34 166.5t-57.5 101t-77 50.5t-98 13.5q-56 0 -97 -13.5t-76.5 -50.5t-57.5 -101t-34.5 -166.5t-12.5 -244.5t12.5 -244.5t34.5 -166t58 -100.5t76.5 -50.5t96.5 -13.5z
" />
    <glyph glyph-name="Oacute" unicode="&#xd3;" 
d="M567 1520l144 260h161l-210 -260h-95zM608 -10q-78 0 -139 20.5t-114 70t-87 129.5t-53.5 203t-19.5 287q0 163 19.5 286t54 203.5t87 130.5t114 70.5t138.5 20.5q78 0 139.5 -20.5t114 -70.5t87 -130t54 -203t19.5 -287q0 -163 -19.5 -286.5t-54 -203.5t-87 -129.5
t-114 -70t-139.5 -20.5zM608 125q56 0 97 13.5t77 50.5t58 100.5t34.5 166t12.5 244.5t-12.5 244.5t-34 166.5t-57.5 101t-77 50.5t-98 13.5q-56 0 -97 -13.5t-76.5 -50.5t-57.5 -101t-34.5 -166.5t-12.5 -244.5t12.5 -244.5t34.5 -166t58 -100.5t76.5 -50.5t96.5 -13.5z
" />
    <glyph glyph-name="Ocircumflex" unicode="&#xd4;" 
d="M289 1511l254 258h135l254 -258h-158l-164 177l-164 -177h-157zM608 -10q-78 0 -139 20.5t-114 70t-87 129.5t-53.5 203t-19.5 287q0 163 19.5 286t54 203.5t87 130.5t114 70.5t138.5 20.5q78 0 139.5 -20.5t114 -70.5t87 -130t54 -203t19.5 -287q0 -163 -19.5 -286.5
t-54 -203.5t-87 -129.5t-114 -70t-139.5 -20.5zM608 125q56 0 97 13.5t77 50.5t58 100.5t34.5 166t12.5 244.5t-12.5 244.5t-34 166.5t-57.5 101t-77 50.5t-98 13.5q-56 0 -97 -13.5t-76.5 -50.5t-57.5 -101t-34.5 -166.5t-12.5 -244.5t12.5 -244.5t34.5 -166t58 -100.5
t76.5 -50.5t96.5 -13.5z" />
    <glyph glyph-name="Otilde" unicode="&#xd5;" 
d="M760 1552q-50 0 -85 16.5t-77 51.5q-32 29 -44.5 39.5t-38.5 22.5t-54 12q-38 0 -63 -31.5t-25 -77.5v-22h-115v22q0 92 59 156.5t144 64.5q49 0 83 -14.5t79 -50.5q27 -24 42 -36t42 -25t53 -13q35 0 61.5 32.5t26.5 76.5v20h115v-20q0 -93 -58.5 -158.5t-144.5 -65.5z
M608 -10q-78 0 -139 20.5t-114 70t-87 129.5t-53.5 203t-19.5 287q0 163 19.5 286t54 203.5t87 130.5t114 70.5t138.5 20.5q78 0 139.5 -20.5t114 -70.5t87 -130t54 -203t19.5 -287q0 -163 -19.5 -286.5t-54 -203.5t-87 -129.5t-114 -70t-139.5 -20.5zM608 125q56 0 97 13.5
t77 50.5t58 100.5t34.5 166t12.5 244.5t-12.5 244.5t-34 166.5t-57.5 101t-77 50.5t-98 13.5q-56 0 -97 -13.5t-76.5 -50.5t-57.5 -101t-34.5 -166.5t-12.5 -244.5t12.5 -244.5t34.5 -166t58 -100.5t76.5 -50.5t96.5 -13.5z" />
    <glyph glyph-name="Odieresis" unicode="&#xd6;" 
d="M459 1544q-46 0 -78.5 30.5t-32.5 74.5q0 42 32.5 71t78.5 29q43 0 74.5 -29t31.5 -71q0 -44 -31.5 -74.5t-74.5 -30.5zM766 1544q-46 0 -78.5 30.5t-32.5 74.5q0 42 32.5 71t78.5 29q43 0 74.5 -29t31.5 -71q0 -44 -31.5 -74.5t-74.5 -30.5zM608 -10q-78 0 -139 20.5
t-114 70t-87 129.5t-53.5 203t-19.5 287q0 163 19.5 286t54 203.5t87 130.5t114 70.5t138.5 20.5q78 0 139.5 -20.5t114 -70.5t87 -130t54 -203t19.5 -287q0 -163 -19.5 -286.5t-54 -203.5t-87 -129.5t-114 -70t-139.5 -20.5zM608 125q56 0 97 13.5t77 50.5t58 100.5
t34.5 166t12.5 244.5t-12.5 244.5t-34 166.5t-57.5 101t-77 50.5t-98 13.5q-56 0 -97 -13.5t-76.5 -50.5t-57.5 -101t-34.5 -166.5t-12.5 -244.5t12.5 -244.5t34.5 -166t58 -100.5t76.5 -50.5t96.5 -13.5z" />
    <glyph glyph-name="multiply" unicode="&#xd7;" 
d="M344 233l-94 97l262 262l-260 262l94 94l262 -260l262 260l97 -94l-262 -262l262 -262l-97 -97l-262 263z" />
    <glyph glyph-name="Oslash" unicode="&#xd8;" 
d="M1071 1323l-106 -174q57 -163 57 -449q0 -163 -19.5 -286.5t-54 -203.5t-87 -129.5t-114 -70t-139.5 -20.5q-184 0 -280 121l-70 -113l-113 80l107 174q-57 163 -57 448q0 163 19.5 286t54 203.5t87 130.5t114 70.5t138.5 20.5q187 0 283 -123l70 111zM330 700
q0 -178 18 -292l469 757q-35 61 -86 86t-123 25q-56 0 -97 -13.5t-76.5 -50.5t-57.5 -101t-34.5 -166.5t-12.5 -244.5zM887 700q0 170 -19 293l-467 -760q35 -60 85.5 -84t121.5 -24q56 0 97 13.5t77 50.5t58 100.5t34.5 166t12.5 244.5z" />
    <glyph glyph-name="Ugrave" unicode="&#xd9;" 
d="M561 1520l-211 260h162l145 -260h-96zM608 -10q-188 0 -300.5 115t-112.5 311v985h135v-934q0 -342 278 -342q279 0 279 342v934h135v-985q0 -196 -113 -311t-301 -115z" />
    <glyph glyph-name="Uacute" unicode="&#xda;" 
d="M567 1520l144 260h161l-210 -260h-95zM608 -10q-188 0 -300.5 115t-112.5 311v985h135v-934q0 -342 278 -342q279 0 279 342v934h135v-985q0 -196 -113 -311t-301 -115z" />
    <glyph glyph-name="Ucircumflex" unicode="&#xdb;" 
d="M289 1511l254 258h135l254 -258h-158l-164 177l-164 -177h-157zM608 -10q-188 0 -300.5 115t-112.5 311v985h135v-934q0 -342 278 -342q279 0 279 342v934h135v-985q0 -196 -113 -311t-301 -115z" />
    <glyph glyph-name="Udieresis" unicode="&#xdc;" 
d="M459 1544q-46 0 -78.5 30.5t-32.5 74.5q0 42 32.5 71t78.5 29q43 0 74.5 -29t31.5 -71q0 -44 -31.5 -74.5t-74.5 -30.5zM766 1544q-46 0 -78.5 30.5t-32.5 74.5q0 42 32.5 71t78.5 29q43 0 74.5 -29t31.5 -71q0 -44 -31.5 -74.5t-74.5 -30.5zM608 -10q-188 0 -300.5 115
t-112.5 311v985h135v-934q0 -342 278 -342q279 0 279 342v934h135v-985q0 -196 -113 -311t-301 -115z" />
    <glyph glyph-name="Yacute" unicode="&#xdd;" 
d="M872 1780l-210 -260h-95l144 260h161zM676 551v-416h334v-135h-803v135h334v416l-412 850h152l327 -694l328 694h154z" />
    <glyph glyph-name="Thorn" unicode="&#xde;" 
d="M633 1130q197 0 311.5 -114.5t114.5 -313.5t-114.5 -314.5t-311.5 -115.5h-242v-272h-135v1401h135v-271h242zM612 408q155 0 233.5 74.5t78.5 219.5q0 143 -79 218t-233 75h-221v-587h221z" />
    <glyph glyph-name="germandbls" unicode="&#xdf;" 
d="M831 748q117 -39 179.5 -135t62.5 -224q0 -183 -117.5 -286t-326.5 -103h-64v135h64q153 0 231 65t78 189t-70.5 199.5t-169.5 75.5h-133v129h82q96 0 163 69t67 172q0 105 -65.5 173.5t-168.5 68.5q-99 0 -169.5 -60.5t-70.5 -173.5v-1042h-135v1044q0 91 31.5 162.5
t85 115.5t120 66.5t140.5 22.5q153 0 260 -103.5t107 -248.5q0 -103 -44.5 -184t-136.5 -127z" />
    <glyph glyph-name="agrave" unicode="&#xe0;" 
d="M623 1163h-97l-211 260h162zM1020 135h47v-135h-111q-141 0 -141 141v37q-45 -90 -128 -139.5t-195 -48.5q-152 0 -246 79.5t-94 217.5q0 143 107 230t329 87h227v94q0 98 -65.5 160t-159.5 62q-100 0 -160 -44.5t-78 -123.5h-149q18 141 126.5 222t260.5 81
q159 0 265 -99t106 -258v-503q0 -60 59 -60zM530 121q134 0 209.5 67t75.5 185v123h-227q-139 0 -212 -55t-73 -138q0 -80 59 -131t168 -51z" />
    <glyph glyph-name="aacute" unicode="&#xe1;" 
d="M844 1423l-211 -260h-94l143 260h162zM1020 135h47v-135h-111q-141 0 -141 141v37q-45 -90 -128 -139.5t-195 -48.5q-152 0 -246 79.5t-94 217.5q0 143 107 230t329 87h227v94q0 98 -65.5 160t-159.5 62q-100 0 -160 -44.5t-78 -123.5h-149q18 141 126.5 222t260.5 81
q159 0 265 -99t106 -258v-503q0 -60 59 -60zM530 121q134 0 209.5 67t75.5 185v123h-227q-139 0 -212 -55t-73 -138q0 -80 59 -131t168 -51z" />
    <glyph glyph-name="acircumflex" unicode="&#xe2;" 
d="M584 1356l-164 -176h-158l254 258h135l254 -258h-157zM1020 135h47v-135h-111q-141 0 -141 141v37q-45 -90 -128 -139.5t-195 -48.5q-152 0 -246 79.5t-94 217.5q0 143 107 230t329 87h227v94q0 98 -65.5 160t-159.5 62q-100 0 -160 -44.5t-78 -123.5h-149
q18 141 126.5 222t260.5 81q159 0 265 -99t106 -258v-503q0 -60 59 -60zM530 121q134 0 209.5 67t75.5 185v123h-227q-139 0 -212 -55t-73 -138q0 -80 59 -131t168 -51z" />
    <glyph glyph-name="atilde" unicode="&#xe3;" 
d="M342 1249v-22h-115v22q0 92 59 156.5t144 64.5q49 0 83 -14.5t79 -50.5q27 -24 42 -36t42 -25t53 -13q35 0 61.5 32.5t26.5 76.5v20h115v-20q0 -93 -58.5 -158t-144.5 -65q-50 0 -85 16t-77 51q-32 29 -44.5 39.5t-38.5 22.5t-54 12q-38 0 -63 -31.5t-25 -77.5zM1020 135
h47v-135h-111q-141 0 -141 141v37q-45 -90 -128 -139.5t-195 -48.5q-152 0 -246 79.5t-94 217.5q0 143 107 230t329 87h227v94q0 98 -65.5 160t-159.5 62q-100 0 -160 -44.5t-78 -123.5h-149q18 141 126.5 222t260.5 81q159 0 265 -99t106 -258v-503q0 -60 59 -60zM530 121
q134 0 209.5 67t75.5 185v123h-227q-139 0 -212 -55t-73 -138q0 -80 59 -131t168 -51z" />
    <glyph glyph-name="adieresis" unicode="&#xe4;" 
d="M430 1255q-46 0 -78.5 30.5t-32.5 74.5q0 42 32.5 71t78.5 29q43 0 75 -29t32 -71q0 -44 -32 -74.5t-75 -30.5zM737 1255q-46 0 -78 30.5t-32 74.5q0 42 32 71t78 29q43 0 75 -29t32 -71q0 -44 -32 -74.5t-75 -30.5zM1020 135h47v-135h-111q-141 0 -141 141v37
q-45 -90 -128 -139.5t-195 -48.5q-152 0 -246 79.5t-94 217.5q0 143 107 230t329 87h227v94q0 98 -65.5 160t-159.5 62q-100 0 -160 -44.5t-78 -123.5h-149q18 141 126.5 222t260.5 81q159 0 265 -99t106 -258v-503q0 -60 59 -60zM530 121q134 0 209.5 67t75.5 185v123h-227
q-139 0 -212 -55t-73 -138q0 -80 59 -131t168 -51z" />
    <glyph glyph-name="aring" unicode="&#xe5;" 
d="M594 1167q-93 0 -160 65t-67 165q0 97 66.5 161t158.5 64q94 0 160.5 -63.5t66.5 -161.5q0 -100 -66 -165t-159 -65zM594 1516q-51 0 -87 -34t-36 -87t35.5 -88t87.5 -35q49 0 85 35t36 88t-35 87t-86 34zM1020 135h47v-135h-111q-141 0 -141 141v37q-45 -90 -128 -139.5
t-195 -48.5q-152 0 -246 79.5t-94 217.5q0 143 107 230t329 87h227v94q0 98 -65.5 160t-159.5 62q-100 0 -160 -44.5t-78 -123.5h-149q18 141 126.5 222t260.5 81q159 0 265 -99t106 -258v-503q0 -60 59 -60zM530 121q134 0 209.5 67t75.5 185v123h-227q-139 0 -212 -55
t-73 -138q0 -80 59 -131t168 -51z" />
    <glyph glyph-name="ae" unicode="&#xe6;" 
d="M1118 571v-112h-444q0 -99 12 -167t34 -104.5t49 -51.5t62 -15q61 0 99 48.5t51 174.5h131q-26 -199 -90.5 -278.5t-169.5 -79.5q-39 0 -72 10t-67 35.5t-61.5 76.5t-45.5 125q-60 -247 -244 -247q-121 0 -194.5 75.5t-73.5 206.5q0 127 76.5 217t194.5 90h174
q0 349 -150 349q-123 0 -147 -170h-131q39 305 258 305q180 0 237 -240q55 240 242 240q270 0 270 -488zM674 575h309q0 108 -13 180.5t-36.5 107t-48.5 47t-58 12.5q-32 0 -56.5 -13.5t-48 -48.5t-36 -107t-12.5 -178zM385 125q25 0 45.5 7t41.5 28.5t35 57t23 97t9 144.5
h-156q-64 0 -109 -48t-45 -122q0 -82 45.5 -123t110.5 -41z" />
    <glyph glyph-name="ccedilla" unicode="&#xe7;" 
d="M633 125q109 0 169.5 55t78.5 178h139q-18 -166 -102.5 -256t-217.5 -108l-59 -125h16q83 0 136 -52.5t53 -135.5q0 -89 -65.5 -142t-172.5 -53h-145v111h145q61 0 92 30t31 74t-27.5 75t-74.5 31h-111v58l62 127q-168 18 -261.5 148t-93.5 382q0 274 107.5 403.5
t300.5 129.5q160 0 263 -90t124 -277h-139q-18 123 -78.5 177.5t-169.5 54.5q-89 0 -147 -35t-92 -125t-34 -238q0 -216 69 -306.5t204 -90.5z" />
    <glyph glyph-name="egrave" unicode="&#xe8;" 
d="M657 1163h-96l-211 260h162zM893 483v-2h-545q7 -193 74 -275.5t190 -82.5q221 0 258 213h140q-32 -176 -132.5 -263t-259.5 -87q-191 0 -298 131.5t-107 404.5q0 274 106.5 405.5t294.5 131.5q187 0 294.5 -127t107.5 -379v-70h-123zM614 924q-119 0 -186 -75.5
t-78 -250.5h531q-16 326 -267 326z" />
    <glyph glyph-name="eacute" unicode="&#xe9;" 
d="M879 1423l-211 -260h-95l144 260h162zM893 483v-2h-545q7 -193 74 -275.5t190 -82.5q221 0 258 213h140q-32 -176 -132.5 -263t-259.5 -87q-191 0 -298 131.5t-107 404.5q0 274 106.5 405.5t294.5 131.5q187 0 294.5 -127t107.5 -379v-70h-123zM614 924
q-119 0 -186 -75.5t-78 -250.5h531q-16 326 -267 326z" />
    <glyph glyph-name="ecircumflex" unicode="&#xea;" 
d="M616 1356l-163 -176h-158l254 258h135l254 -258h-158zM893 483v-2h-545q7 -193 74 -275.5t190 -82.5q221 0 258 213h140q-32 -176 -132.5 -263t-259.5 -87q-191 0 -298 131.5t-107 404.5q0 274 106.5 405.5t294.5 131.5q187 0 294.5 -127t107.5 -379v-70h-123zM614 924
q-119 0 -186 -75.5t-78 -250.5h531q-16 326 -267 326z" />
    <glyph glyph-name="edieresis" unicode="&#xeb;" 
d="M465 1255q-46 0 -78.5 30.5t-32.5 74.5q0 42 32.5 71t78.5 29q43 0 74.5 -29t31.5 -71q0 -44 -31.5 -74.5t-74.5 -30.5zM772 1255q-46 0 -78 30.5t-32 74.5q0 42 32 71t78 29q43 0 75 -29t32 -71q0 -44 -32 -74.5t-75 -30.5zM893 483v-2h-545q7 -193 74 -275.5t190 -82.5
q221 0 258 213h140q-32 -176 -132.5 -263t-259.5 -87q-191 0 -298 131.5t-107 404.5q0 274 106.5 405.5t294.5 131.5q187 0 294.5 -127t107.5 -379v-70h-123zM614 924q-119 0 -186 -75.5t-78 -250.5h531q-16 326 -267 326z" />
    <glyph glyph-name="igrave" unicode="&#xec;" 
d="M594 1163l-211 260h162l145 -260h-96zM219 0v135h365v774h-297v135h360q31 0 51.5 -20t20.5 -51v-838h340v-135h-840z" />
    <glyph glyph-name="iacute" unicode="&#xed;" 
d="M606 1163l144 260h161l-211 -260h-94zM219 0v135h365v774h-297v135h360q31 0 51.5 -20t20.5 -51v-838h340v-135h-840z" />
    <glyph glyph-name="icircumflex" unicode="&#xee;" 
d="M305 1180l254 258h135l254 -258h-157l-164 176l-164 -176h-158zM219 0v135h365v774h-297v135h360q31 0 51.5 -20t20.5 -51v-838h340v-135h-840z" />
    <glyph glyph-name="idieresis" unicode="&#xef;" 
d="M383 1255q-46 0 -78.5 30.5t-32.5 74.5q0 42 32.5 71t78.5 29q43 0 74.5 -29t31.5 -71q0 -44 -31.5 -74.5t-74.5 -30.5zM690 1255q-46 0 -78 30.5t-32 74.5q0 42 32 71t78 29q43 0 75 -29t32 -71q0 -44 -32 -74.5t-75 -30.5zM219 0v135h365v774h-297v135h360
q31 0 51.5 -20t20.5 -51v-838h340v-135h-840z" />
    <glyph glyph-name="eth" unicode="&#xf0;" 
d="M1178 1296v-135h-191v-639q0 -272 -106 -402t-295 -130q-188 0 -295 130.5t-107 401.5q0 270 103.5 401.5t277.5 131.5q102 0 173.5 -43.5t113.5 -147.5v297h-268v135h250q-27 63 -84.5 98.5t-126.5 35.5v135q131 0 230.5 -73.5t125.5 -195.5h199zM586 125
q131 0 198.5 90t67.5 307t-67.5 307.5t-198.5 90.5t-199 -90.5t-68 -307.5t68 -307t199 -90z" />
    <glyph glyph-name="ntilde" unicode="&#xf1;" 
d="M377 1249v-22h-115v22q0 92 59 156.5t144 64.5q49 0 83 -14.5t79 -50.5q27 -24 42 -36t42 -25t53 -13q35 0 61.5 32.5t26.5 76.5v20h115v-20q0 -93 -58.5 -158t-144.5 -65q-50 0 -85 16t-77 51q-32 29 -44.5 39.5t-38.5 22.5t-54 12q-38 0 -63 -31.5t-25 -77.5zM676 1059
q164 0 253 -107t89 -276v-676h-137v643q0 135 -71 211t-192 76q-270 0 -270 -400v-530h-135v1044h115l20 -247q66 262 328 262z" />
    <glyph glyph-name="ograve" unicode="&#xf2;" 
d="M547 1163l-211 260h162l145 -260h-96zM608 -14q-186 0 -293.5 132.5t-107.5 403.5q0 274 107 405.5t294 131.5t294.5 -132.5t107.5 -404.5t-107.5 -404t-294.5 -132zM608 121q64 0 111 20.5t83 66t54 124.5t18 190q0 148 -33 238.5t-89.5 127t-143.5 36.5
q-129 0 -197.5 -92.5t-68.5 -309.5q0 -216 68.5 -308.5t197.5 -92.5zM561 653h96v-262h-96v262z" />
    <glyph glyph-name="oacute" unicode="&#xf3;" 
d="M565 1163l144 260h161l-211 -260h-94zM608 -14q-186 0 -293.5 132.5t-107.5 403.5q0 274 107 405.5t294 131.5t294.5 -132.5t107.5 -404.5t-107.5 -404t-294.5 -132zM608 121q64 0 111 20.5t83 66t54 124.5t18 190q0 148 -33 238.5t-89.5 127t-143.5 36.5
q-129 0 -197.5 -92.5t-68.5 -309.5q0 -216 68.5 -308.5t197.5 -92.5zM561 653h96v-262h-96v262z" />
    <glyph glyph-name="ocircumflex" unicode="&#xf4;" 
d="M289 1180l254 258h135l254 -258h-158l-164 176l-164 -176h-157zM608 -14q-186 0 -293.5 132.5t-107.5 403.5q0 274 107 405.5t294 131.5t294.5 -132.5t107.5 -404.5t-107.5 -404t-294.5 -132zM608 121q64 0 111 20.5t83 66t54 124.5t18 190q0 148 -33 238.5t-89.5 127
t-143.5 36.5q-129 0 -197.5 -92.5t-68.5 -309.5q0 -216 68.5 -308.5t197.5 -92.5zM561 653h96v-262h-96v262z" />
    <glyph glyph-name="otilde" unicode="&#xf5;" 
d="M758 1217q-50 0 -85 16t-77 51q-32 29 -44.5 39.5t-38.5 22.5t-54 12q-38 0 -63 -31.5t-25 -77.5v-22h-115v22q0 92 59 156.5t144 64.5q49 0 83 -14.5t79 -50.5q27 -24 42 -36t42 -25t53 -13q35 0 61.5 32.5t26.5 76.5v20h115v-20q0 -93 -58.5 -158t-144.5 -65zM608 -14
q-186 0 -293.5 132.5t-107.5 403.5q0 274 107 405.5t294 131.5t294.5 -132.5t107.5 -404.5t-107.5 -404t-294.5 -132zM608 121q64 0 111 20.5t83 66t54 124.5t18 190q0 148 -33 238.5t-89.5 127t-143.5 36.5q-129 0 -197.5 -92.5t-68.5 -309.5q0 -216 68.5 -308.5
t197.5 -92.5zM561 653h96v-262h-96v262z" />
    <glyph glyph-name="odieresis" unicode="&#xf6;" 
d="M459 1255q-46 0 -78.5 30.5t-32.5 74.5q0 42 32.5 71t78.5 29q43 0 74.5 -29t31.5 -71q0 -44 -31.5 -74.5t-74.5 -30.5zM766 1255q-46 0 -78.5 30.5t-32.5 74.5q0 42 32.5 71t78.5 29q43 0 74.5 -29t31.5 -71q0 -44 -31.5 -74.5t-74.5 -30.5zM608 -14
q-186 0 -293.5 132.5t-107.5 403.5q0 274 107 405.5t294 131.5t294.5 -132.5t107.5 -404.5t-107.5 -404t-294.5 -132zM608 121q64 0 111 20.5t83 66t54 124.5t18 190q0 148 -33 238.5t-89.5 127t-143.5 36.5q-129 0 -197.5 -92.5t-68.5 -309.5q0 -216 68.5 -308.5
t197.5 -92.5zM561 653h96v-262h-96v262z" />
    <glyph glyph-name="divide" unicode="&#xf7;" 
d="M610 852q-46 0 -77 30t-31 74q0 43 31 72t77 29q45 0 77 -29.5t32 -71.5q0 -44 -32 -74t-77 -30zM195 524v135h829v-135h-829zM610 152q-46 0 -77 30t-31 74q0 43 31 71.5t77 28.5q45 0 77 -29t32 -71q0 -44 -32 -74t-77 -30z" />
    <glyph glyph-name="oslash" unicode="&#xf8;" 
d="M1073 926l-106 -117q43 -121 43 -287q0 -272 -107 -402t-295 -130q-178 0 -280 116l-80 -88l-105 103l107 117q-43 121 -43 284q0 273 106.5 403t294.5 130q177 0 283 -115l80 88zM342 522q0 -102 14 -168l443 486q-63 80 -191 80q-130 0 -198 -91t-68 -307zM874 522
q0 104 -14 170l-442 -487q66 -80 190 -80q131 0 198.5 90t67.5 307z" />
    <glyph glyph-name="ugrave" unicode="&#xf9;" 
d="M565 1163l-211 260h162l146 -260h-97zM608 -10q-176 0 -288.5 106.5t-112.5 263.5v684h135v-659q0 -119 71.5 -189.5t194.5 -70.5q124 0 195 70.5t71 189.5v659h136v-684q0 -157 -113 -263.5t-289 -106.5z" />
    <glyph glyph-name="uacute" unicode="&#xfa;" 
d="M561 1163l144 260h161l-211 -260h-94zM608 -10q-176 0 -288.5 106.5t-112.5 263.5v684h135v-659q0 -119 71.5 -189.5t194.5 -70.5q124 0 195 70.5t71 189.5v659h136v-684q0 -157 -113 -263.5t-289 -106.5z" />
    <glyph glyph-name="ucircumflex" unicode="&#xfb;" 
d="M289 1180l254 258h135l254 -258h-158l-164 176l-164 -176h-157zM608 -10q-176 0 -288.5 106.5t-112.5 263.5v684h135v-659q0 -119 71.5 -189.5t194.5 -70.5q124 0 195 70.5t71 189.5v659h136v-684q0 -157 -113 -263.5t-289 -106.5z" />
    <glyph glyph-name="udieresis" unicode="&#xfc;" 
d="M459 1255q-46 0 -78.5 30.5t-32.5 74.5q0 42 32.5 71t78.5 29q43 0 74.5 -29t31.5 -71q0 -44 -31.5 -74.5t-74.5 -30.5zM766 1255q-46 0 -78.5 30.5t-32.5 74.5q0 42 32.5 71t78.5 29q43 0 74.5 -29t31.5 -71q0 -44 -31.5 -74.5t-74.5 -30.5zM608 -10
q-176 0 -288.5 106.5t-112.5 263.5v684h135v-659q0 -119 71.5 -189.5t194.5 -70.5q124 0 195 70.5t71 189.5v659h136v-684q0 -157 -113 -263.5t-289 -106.5z" />
    <glyph glyph-name="yacute" unicode="&#xfd;" 
d="M881 1423l-211 -260h-95l144 260h162zM1081 1044l-432 -1265h369v-135h-795v135h291l74 221h-62l-381 1044h148l332 -931l311 931h145z" />
    <glyph glyph-name="thorn" unicode="&#xfe;" 
d="M651 1055q173 0 272 -130t99 -403t-99 -402.5t-272 -129.5q-227 0 -297 213v-559h-135v1757h135v-563q69 217 297 217zM621 125q132 0 199 90.5t67 306.5q0 217 -67 307.5t-199 90.5q-130 0 -198.5 -91t-68.5 -307q0 -215 68.5 -306t198.5 -91z" />
    <glyph glyph-name="ydieresis" unicode="&#xff;" 
d="M473 1255q-46 0 -78.5 30.5t-32.5 74.5q0 42 32.5 71t78.5 29q43 0 75 -29t32 -71q0 -44 -32 -74.5t-75 -30.5zM780 1255q-46 0 -78 30.5t-32 74.5q0 42 32 71t78 29q43 0 75 -29t32 -71q0 -44 -32 -74.5t-75 -30.5zM1081 1044l-432 -1265h369v-135h-795v135h291l74 221
h-62l-381 1044h148l332 -931l311 931h145z" />
    <glyph glyph-name="Amacron" unicode="&#x100;" 
d="M877 1677v-114h-533v114h533zM971 0l-97 338h-532l-96 -338h-142l410 1401h188l410 -1401h-141zM381 473h455l-228 801z" />
    <glyph glyph-name="amacron" unicode="&#x101;" 
d="M846 1321v-115h-533v115h533zM1020 135h47v-135h-111q-141 0 -141 141v37q-45 -90 -128 -139.5t-195 -48.5q-152 0 -246 79.5t-94 217.5q0 143 107 230t329 87h227v94q0 98 -65.5 160t-159.5 62q-100 0 -160 -44.5t-78 -123.5h-149q18 141 126.5 222t260.5 81
q159 0 265 -99t106 -258v-503q0 -60 59 -60zM530 121q134 0 209.5 67t75.5 185v123h-227q-139 0 -212 -55t-73 -138q0 -80 59 -131t168 -51z" />
    <glyph glyph-name="Abreve" unicode="&#x102;" 
d="M608 1520q-94 0 -159.5 60t-65.5 165l104 -2q0 -53 36 -87t87 -34t86 34t35 87l105 2q0 -106 -65.5 -165.5t-162.5 -59.5zM971 0l-97 338h-532l-96 -338h-142l410 1401h188l410 -1401h-141zM381 473h455l-228 801z" />
    <glyph glyph-name="abreve" unicode="&#x103;" 
d="M588 1194q-95 0 -160.5 60t-65.5 165l105 -2q0 -53 36 -87t87 -34t86 34t35 87l104 2q0 -106 -65 -165.5t-162 -59.5zM1020 135h47v-135h-111q-141 0 -141 141v37q-45 -90 -128 -139.5t-195 -48.5q-152 0 -246 79.5t-94 217.5q0 143 107 230t329 87h227v94
q0 98 -65.5 160t-159.5 62q-100 0 -160 -44.5t-78 -123.5h-149q18 141 126.5 222t260.5 81q159 0 265 -99t106 -258v-503q0 -60 59 -60zM530 121q134 0 209.5 67t75.5 185v123h-227q-139 0 -212 -55t-73 -138q0 -80 59 -131t168 -51z" />
    <glyph glyph-name="Aogonek" unicode="&#x104;" 
d="M1102 -221h90v-135h-170q-37 0 -68 11t-53 32.5t-22 59.5t28 87l90 166h-26l-97 338h-532l-96 -338h-142l410 1401h188l410 -1401l-61 -121q-17 -32 -17 -53.5t13 -30.5t26 -12.5t29 -3.5zM381 473h455l-228 801z" />
    <glyph glyph-name="aogonek" unicode="&#x105;" 
d="M1057 -221h90v-135h-170q-37 0 -68 11t-53 32.5t-22 59.5t28 87l90 166h4q-141 0 -141 141v37q-45 -90 -128 -139.5t-195 -48.5q-152 0 -246 79.5t-94 217.5q0 143 107 230t329 87h227v94q0 98 -65.5 160t-159.5 62q-100 0 -160 -44.5t-78 -123.5h-149q18 141 126.5 222
t260.5 81q159 0 265 -99t106 -258v-503q0 -60 59 -60h47v-135l-61 -121q-16 -32 -16.5 -53.5t12.5 -30.5t26 -12.5t29 -3.5zM530 121q134 0 209.5 67t75.5 185v123h-227q-139 0 -212 -55t-73 -138q0 -80 59 -131t168 -51z" />
    <glyph glyph-name="Cacute" unicode="&#x106;" 
d="M578 1520l143 260h162l-211 -260h-94zM639 -10q-85 0 -150 20.5t-120 70t-90 130t-54.5 203t-19.5 286.5q0 204 29 344.5t87 220t134.5 113t183.5 33.5q166 0 271 -108t126 -328h-135q-19 165 -86 233t-186 68q-59 0 -101.5 -13.5t-80 -50.5t-60 -101t-35 -166.5
t-12.5 -244.5t12.5 -243.5t35 -165.5t60 -101.5t80 -51t101.5 -13.5q118 0 185.5 69t86.5 234h135q-21 -221 -126 -329.5t-271 -108.5z" />
    <glyph glyph-name="cacute" unicode="&#x107;" 
d="M592 1163l143 260h162l-211 -260h-94zM633 -10q-193 0 -300.5 129.5t-107.5 402.5q0 274 107.5 403.5t300.5 129.5q160 0 263 -90t124 -277h-139q-18 123 -78.5 177.5t-169.5 54.5q-89 0 -147 -35t-92 -125t-34 -238q0 -216 69 -306.5t204 -90.5q109 0 169.5 55t78.5 178
h139q-21 -187 -124 -277.5t-263 -90.5z" />
    <glyph glyph-name="Ccircumflex" unicode="&#x108;" 
d="M319 1511l254 258h136l254 -258h-158l-164 177l-164 -177h-158zM639 -10q-85 0 -150 20.5t-120 70t-90 130t-54.5 203t-19.5 286.5q0 204 29 344.5t87 220t134.5 113t183.5 33.5q166 0 271 -108t126 -328h-135q-19 165 -86 233t-186 68q-59 0 -101.5 -13.5t-80 -50.5
t-60 -101t-35 -166.5t-12.5 -244.5t12.5 -243.5t35 -165.5t60 -101.5t80 -51t101.5 -13.5q118 0 185.5 69t86.5 234h135q-21 -221 -126 -329.5t-271 -108.5z" />
    <glyph glyph-name="ccircumflex" unicode="&#x109;" 
d="M311 1180l254 258h135l254 -258h-157l-164 176l-164 -176h-158zM633 -10q-193 0 -300.5 129.5t-107.5 402.5q0 274 107.5 403.5t300.5 129.5q160 0 263 -90t124 -277h-139q-18 123 -78.5 177.5t-169.5 54.5q-89 0 -147 -35t-92 -125t-34 -238q0 -216 69 -306.5t204 -90.5
q109 0 169.5 55t78.5 178h139q-21 -187 -124 -277.5t-263 -90.5z" />
    <glyph glyph-name="Cdotaccent" unicode="&#x10a;" 
d="M625 1577q-46 0 -78.5 30t-32.5 74q0 42 32.5 71.5t78.5 29.5q45 0 76.5 -29.5t31.5 -71.5q0 -44 -31.5 -74t-76.5 -30zM639 -10q-85 0 -150 20.5t-120 70t-90 130t-54.5 203t-19.5 286.5q0 204 29 344.5t87 220t134.5 113t183.5 33.5q166 0 271 -108t126 -328h-135
q-19 165 -86 233t-186 68q-59 0 -101.5 -13.5t-80 -50.5t-60 -101t-35 -166.5t-12.5 -244.5t12.5 -243.5t35 -165.5t60 -101.5t80 -51t101.5 -13.5q118 0 185.5 69t86.5 234h135q-21 -221 -126 -329.5t-271 -108.5z" />
    <glyph glyph-name="cdotaccent" unicode="&#x10b;" 
d="M627 1255q-46 0 -78.5 30.5t-32.5 74.5q0 42 32.5 71t78.5 29q45 0 76.5 -29t31.5 -71q0 -44 -31.5 -74.5t-76.5 -30.5zM633 -10q-193 0 -300.5 129.5t-107.5 402.5q0 274 107.5 403.5t300.5 129.5q160 0 263 -90t124 -277h-139q-18 123 -78.5 177.5t-169.5 54.5
q-89 0 -147 -35t-92 -125t-34 -238q0 -216 69 -306.5t204 -90.5q109 0 169.5 55t78.5 178h139q-21 -187 -124 -277.5t-263 -90.5z" />
    <glyph glyph-name="Ccaron" unicode="&#x10c;" 
d="M559 1511l-254 258h158l164 -176l164 176h157l-254 -258h-135zM639 -10q-85 0 -150 20.5t-120 70t-90 130t-54.5 203t-19.5 286.5q0 204 29 344.5t87 220t134.5 113t183.5 33.5q166 0 271 -108t126 -328h-135q-19 165 -86 233t-186 68q-59 0 -101.5 -13.5t-80 -50.5
t-60 -101t-35 -166.5t-12.5 -244.5t12.5 -243.5t35 -165.5t60 -101.5t80 -51t101.5 -13.5q118 0 185.5 69t86.5 234h135q-21 -221 -126 -329.5t-271 -108.5z" />
    <glyph glyph-name="ccaron" unicode="&#x10d;" 
d="M559 1180l-254 258h158l164 -176l164 176h157l-254 -258h-135zM633 -10q-193 0 -300.5 129.5t-107.5 402.5q0 274 107.5 403.5t300.5 129.5q160 0 263 -90t124 -277h-139q-18 123 -78.5 177.5t-169.5 54.5q-89 0 -147 -35t-92 -125t-34 -238q0 -216 69 -306.5t204 -90.5
q109 0 169.5 55t78.5 178h139q-21 -187 -124 -277.5t-263 -90.5z" />
    <glyph glyph-name="Dcaron" unicode="&#x10e;" 
d="M524 1511l-254 258h158l164 -176l164 176h157l-254 -258h-135zM217 0v1401h268q130 0 226.5 -37t168 -118.5t108 -218t36.5 -327.5t-36.5 -327.5t-108 -217.5t-168 -118t-226.5 -37h-268zM352 135h144q95 0 163.5 26.5t122 89.5t80.5 175t27 274q0 130 -18 228t-50.5 162
t-82.5 103.5t-108.5 56t-133.5 16.5h-144v-1131z" />
    <glyph glyph-name="dcaron" unicode="&#x10f;" 
d="M1311 1528q0 -35 -19 -60l-143 -223l-51 27l63 160q-29 11 -48 37.5t-19 58.5q0 44 32 73t78 29q44 0 75.5 -29.5t31.5 -72.5zM868 850v551h136v-1401h-115l-19 211q-43 -113 -124 -167t-189 -54q-169 0 -262.5 129t-93.5 403t93.5 403.5t262.5 129.5q112 0 190.5 -46
t120.5 -159zM602 125q131 0 198.5 90.5t67.5 306.5t-68 307t-198 91q-131 0 -198.5 -90.5t-67.5 -307.5q0 -216 67.5 -306.5t198.5 -90.5z" />
    <glyph glyph-name="Dcroat" unicode="&#x110;" 
d="M526 1401q130 0 226.5 -37t168 -118.5t108 -218t36.5 -327.5t-36.5 -327.5t-108 -217.5t-168 -118t-226.5 -37h-268v633h-176v135h176v633h268zM537 135q95 0 163.5 26.5t122 89.5t80.5 175t27 274q0 130 -18 228t-50.5 162t-82.5 103.5t-108.5 56t-133.5 16.5h-144v-498
h264v-135h-264v-498h144z" />
    <glyph glyph-name="dcroat" unicode="&#x111;" 
d="M1139 1292v-135h-135v-1157h-115l-19 211q-43 -113 -124 -167t-189 -54q-169 0 -262.5 129t-93.5 403t93.5 403.5t262.5 129.5q112 0 190.5 -46t120.5 -159v307h-299v135h299v109h136v-109h135zM602 125q131 0 198.5 90.5t67.5 306.5t-68 307t-198 91
q-131 0 -198.5 -90.5t-67.5 -307.5q0 -216 67.5 -306.5t198.5 -90.5z" />
    <glyph glyph-name="Emacron" unicode="&#x112;" 
d="M903 1677v-114h-532v114h532zM1042 1266h-671v-498h587v-135h-587v-498h671v-135h-806v1401h806v-135z" />
    <glyph glyph-name="emacron" unicode="&#x113;" 
d="M883 1321v-115h-533v115h533zM893 483v-2h-545q7 -193 74 -275.5t190 -82.5q221 0 258 213h140q-32 -176 -132.5 -263t-259.5 -87q-191 0 -298 131.5t-107 404.5q0 274 106.5 405.5t294.5 131.5q187 0 294.5 -127t107.5 -379v-70h-123zM614 924q-119 0 -186 -75.5
t-78 -250.5h531q-16 326 -267 326z" />
    <glyph glyph-name="Ebreve" unicode="&#x114;" 
d="M635 1520q-94 0 -159.5 60t-65.5 165l104 -2q0 -53 36 -87t87 -34t86 34t35 87l104 2q0 -106 -65 -165.5t-162 -59.5zM1042 1266h-671v-498h587v-135h-587v-498h671v-135h-806v1401h806v-135z" />
    <glyph glyph-name="ebreve" unicode="&#x115;" 
d="M614 1194q-94 0 -159.5 60t-65.5 165l105 -2q0 -53 35.5 -87t86.5 -34t86 34t35 87l105 2q0 -106 -65.5 -165.5t-162.5 -59.5zM893 483v-2h-545q7 -193 74 -275.5t190 -82.5q221 0 258 213h140q-32 -176 -132.5 -263t-259.5 -87q-191 0 -298 131.5t-107 404.5
q0 274 106.5 405.5t294.5 131.5q187 0 294.5 -127t107.5 -379v-70h-123zM614 924q-119 0 -186 -75.5t-78 -250.5h531q-16 326 -267 326z" />
    <glyph glyph-name="Edotaccent" unicode="&#x116;" 
d="M635 1577q-46 0 -78.5 30t-32.5 74q0 42 32.5 71.5t78.5 29.5q45 0 76.5 -29.5t31.5 -71.5q0 -44 -31.5 -74t-76.5 -30zM1042 1266h-671v-498h587v-135h-587v-498h671v-135h-806v1401h806v-135z" />
    <glyph glyph-name="edotaccent" unicode="&#x117;" 
d="M616 1255q-46 0 -78 30.5t-32 74.5q0 42 32 71t78 29q45 0 77 -29t32 -71q0 -44 -32 -74.5t-77 -30.5zM893 483v-2h-545q7 -193 74 -275.5t190 -82.5q221 0 258 213h140q-32 -176 -132.5 -263t-259.5 -87q-191 0 -298 131.5t-107 404.5q0 274 106.5 405.5t294.5 131.5
q187 0 294.5 -127t107.5 -379v-70h-123zM614 924q-119 0 -186 -75.5t-78 -250.5h531q-16 326 -267 326z" />
    <glyph glyph-name="Eogonek" unicode="&#x118;" 
d="M1032 -221h90v-135h-170q-37 0 -68 11t-53 32.5t-21.5 59.5t28.5 87l90 166h-692v1401h806v-135h-671v-498h587v-135h-587v-498h671v-135l-61 -121q-17 -32 -17 -53.5t13 -30.5t26 -12.5t29 -3.5z" />
    <glyph glyph-name="eogonek" unicode="&#x119;" 
d="M893 483v-2h-545q7 -193 74 -275.5t190 -82.5q221 0 258 213h140q-29 -159 -114 -245.5t-218 -100.5l-55 -111q-17 -32 -17 -53.5t13 -30.5t26 -12.5t29 -3.5h90v-135h-170q-37 0 -68 11t-53 32.5t-22 59.5t28 87l84 154q-166 20 -258 151t-92 383q0 274 106.5 405.5
t294.5 131.5q187 0 294.5 -127t107.5 -379v-70h-123zM614 924q-119 0 -186 -75.5t-78 -250.5h531q-16 326 -267 326z" />
    <glyph glyph-name="Ecaron" unicode="&#x11a;" 
d="M702 1511h-135l-254 258h158l164 -176l164 176h157zM1042 1266h-671v-498h587v-135h-587v-498h671v-135h-806v1401h806v-135z" />
    <glyph glyph-name="ecaron" unicode="&#x11b;" 
d="M684 1180h-135l-254 258h158l163 -176l164 176h158zM893 483v-2h-545q7 -193 74 -275.5t190 -82.5q221 0 258 213h140q-32 -176 -132.5 -263t-259.5 -87q-191 0 -298 131.5t-107 404.5q0 274 106.5 405.5t294.5 131.5q187 0 294.5 -127t107.5 -379v-70h-123zM614 924
q-119 0 -186 -75.5t-78 -250.5h531q-16 326 -267 326z" />
    <glyph glyph-name="Gcircumflex" unicode="&#x11c;" 
d="M631 1688l-164 -177h-158l254 258h135l254 -258h-157zM612 748h424v-748h-114l-23 219q-70 -229 -305 -229q-60 0 -109.5 14.5t-95 46.5t-79 86.5t-58.5 132t-38 186.5t-13 246q1 163 20.5 286t54.5 203t88 129.5t115.5 70t143.5 20.5q355 0 397 -436h-135
q-20 167 -84 234t-185 67q-57 0 -98 -13.5t-77 -50.5t-58 -101t-34.5 -165.5t-12.5 -243.5t13.5 -245t37 -166.5t61 -101t79 -51t98.5 -13.5q66 0 113.5 19t85 63t56.5 124t19 195v86h-287v136z" />
    <glyph glyph-name="gcircumflex" unicode="&#x11d;" 
d="M616 1356l-163 -176h-158l254 258h135l254 -258h-158zM469 -219h610v-137h-641q-131 0 -208.5 61t-77.5 191q0 95 47 178t131 123q-140 121 -140 374q0 236 99 360t276 124q254 0 334 -228l21 217h114v-464q0 -239 -111 -355t-311 -116q-132 0 -219 47
q-53 -37 -81.5 -92.5t-28.5 -112.5q0 -86 45 -128t141 -42zM612 920q-286 0 -286 -349q0 -179 71.5 -258.5t214.5 -79.5t215 81t72 266q0 172 -74 256t-213 84z" />
    <glyph glyph-name="Gbreve" unicode="&#x11e;" 
d="M616 1520q-94 0 -159.5 60t-65.5 165l105 -2q0 -53 35.5 -87t86.5 -34t86 34t35 87l105 2q0 -106 -65.5 -165.5t-162.5 -59.5zM612 748h424v-748h-114l-23 219q-70 -229 -305 -229q-60 0 -109.5 14.5t-95 46.5t-79 86.5t-58.5 132t-38 186.5t-13 246q1 163 20.5 286
t54.5 203t88 129.5t115.5 70t143.5 20.5q355 0 397 -436h-135q-20 167 -84 234t-185 67q-57 0 -98 -13.5t-77 -50.5t-58 -101t-34.5 -165.5t-12.5 -243.5t13.5 -245t37 -166.5t61 -101t79 -51t98.5 -13.5q66 0 113.5 19t85 63t56.5 124t19 195v86h-287v136z" />
    <glyph glyph-name="gbreve" unicode="&#x11f;" 
d="M612 1194q-94 0 -159.5 60t-65.5 165l105 -2q0 -53 35.5 -87t86.5 -34t86 34t35 87l105 2q0 -106 -65.5 -165.5t-162.5 -59.5zM469 -219h610v-137h-641q-131 0 -208.5 61t-77.5 191q0 95 47 178t131 123q-140 121 -140 374q0 236 99 360t276 124q254 0 334 -228l21 217
h114v-464q0 -239 -111 -355t-311 -116q-132 0 -219 47q-53 -37 -81.5 -92.5t-28.5 -112.5q0 -86 45 -128t141 -42zM612 920q-286 0 -286 -349q0 -179 71.5 -258.5t214.5 -79.5t215 81t72 266q0 172 -74 256t-213 84z" />
    <glyph glyph-name="Gdotaccent" unicode="&#x120;" 
d="M616 1577q-46 0 -78 30t-32 74q0 43 32 72t78 29q45 0 77 -29.5t32 -71.5q0 -44 -32 -74t-77 -30zM612 748h424v-748h-114l-23 219q-70 -229 -305 -229q-60 0 -109.5 14.5t-95 46.5t-79 86.5t-58.5 132t-38 186.5t-13 246q1 163 20.5 286t54.5 203t88 129.5t115.5 70
t143.5 20.5q355 0 397 -436h-135q-20 167 -84 234t-185 67q-57 0 -98 -13.5t-77 -50.5t-58 -101t-34.5 -165.5t-12.5 -243.5t13.5 -245t37 -166.5t61 -101t79 -51t98.5 -13.5q66 0 113.5 19t85 63t56.5 124t19 195v86h-287v136z" />
    <glyph glyph-name="gdotaccent" unicode="&#x121;" 
d="M602 1255q-46 0 -78 30.5t-32 74.5q0 42 32 71t78 29q45 0 77 -29t32 -71q0 -44 -32 -74.5t-77 -30.5zM469 -219h610v-137h-641q-131 0 -208.5 61t-77.5 191q0 95 47 178t131 123q-140 121 -140 374q0 236 99 360t276 124q254 0 334 -228l21 217h114v-464
q0 -239 -111 -355t-311 -116q-132 0 -219 47q-53 -37 -81.5 -92.5t-28.5 -112.5q0 -86 45 -128t141 -42zM612 920q-286 0 -286 -349q0 -179 71.5 -258.5t214.5 -79.5t215 81t72 266q0 172 -74 256t-213 84z" />
    <glyph glyph-name="uni0122" unicode="&#x122;" horiz-adv-x="1222" 
d="M612 748h424v-748h-114l-23 219q-70 -229 -305 -229q-60 0 -109.5 14.5t-95 46.5t-79 86.5t-58.5 132t-38 186.5t-13 246q1 163 20.5 286t54.5 203t88 129.5t115.5 70t143.5 20.5q355 0 397 -436h-135q-20 167 -84 234t-185 67q-57 0 -98 -13.5t-77 -50.5t-58 -101
t-34.5 -165.5t-12.5 -243.5t13.5 -245t37 -166.5t61 -101t79 -51t98.5 -13.5q66 0 113.5 19t85 63t56.5 124t19 195v86h-287v136zM670 -102q43 0 74.5 -29.5t31.5 -73.5q0 -35 -18 -59l-144 -223l-51 26l64 160q-30 11 -49 37.5t-19 58.5q0 44 32.5 73.5t78.5 29.5z" />
    <glyph glyph-name="uni0123" unicode="&#x123;" 
d="M631 1147q-44 0 -75.5 29.5t-31.5 72.5q0 35 19 60l143 223l51 -27l-63 -159q29 -11 48 -38t19 -59q0 -44 -32 -73t-78 -29zM469 -219h610v-137h-641q-131 0 -208.5 61t-77.5 191q0 95 47 178t131 123q-140 121 -140 374q0 236 99 360t276 124q254 0 334 -228l21 217h114
v-464q0 -239 -111 -355t-311 -116q-132 0 -219 47q-53 -37 -81.5 -92.5t-28.5 -112.5q0 -86 45 -128t141 -42zM612 920q-286 0 -286 -349q0 -179 71.5 -258.5t214.5 -79.5t215 81t72 266q0 172 -74 256t-213 84z" />
    <glyph glyph-name="Hcircumflex" unicode="&#x124;" 
d="M610 1688l-164 -177h-157l254 258h135l254 -258h-158zM874 1401h136v-1401h-136v633h-532v-633h-135v1401h135v-633h532v633z" />
    <glyph glyph-name="hcircumflex" unicode="&#x125;" 
d="M449 1505l-164 176l-164 -176h-158l254 258h135l254 -258h-157zM672 1059q158 0 251 -107t93 -282v-670h-135v596q0 167 -67.5 247.5t-188.5 80.5q-90 0 -149 -36.5t-93.5 -126.5t-34.5 -237v-524h-135v1401h135v-547q44 113 121.5 159t202.5 46z" />
    <glyph glyph-name="Hbar" unicode="&#x126;" 
d="M1192 1151v-135h-182v-1016h-136v633h-532v-633h-135v1016h-180v135h180v250h135v-250h532v250h136v-250h182zM874 768v248h-532v-248h532z" />
    <glyph glyph-name="hbar" unicode="&#x127;" 
d="M672 1059q158 0 251 -107t93 -282v-670h-135v596q0 167 -67.5 247.5t-188.5 80.5q-90 0 -149 -36.5t-93.5 -126.5t-34.5 -237v-524h-135v1157h-141v135h141v109h135v-109h293v-135h-293v-303q44 113 121.5 159t202.5 46z" />
    <glyph glyph-name="Itilde" unicode="&#x128;" 
d="M373 1585v-22h-115v22q0 92 59 156.5t144 64.5q49 0 83 -14.5t79 -50.5q27 -24 42 -36t42 -25t53 -13q35 0 61.5 32.5t26.5 76.5v20h115v-20q0 -93 -58.5 -158.5t-144.5 -65.5q-50 0 -85 16.5t-77 51.5q-32 29 -44.5 39.5t-38.5 22.5t-54 12q-38 0 -63 -31.5t-25 -77.5z
M676 135h334v-135h-803v135h334v1131h-324v135h782v-135h-323v-1131z" />
    <glyph glyph-name="itilde" unicode="&#x129;" 
d="M760 1217q-50 0 -85 16t-77 51q-32 29 -44.5 39.5t-38.5 22.5t-54 12q-38 0 -63 -31.5t-25 -77.5v-22h-115v22q0 92 59 156.5t144 64.5q49 0 83 -14.5t79 -50.5q27 -24 42 -36t42 -25t53 -13q35 0 61.5 32.5t26.5 76.5v20h115v-20q0 -93 -58.5 -158t-144.5 -65zM219 0
v135h365v774h-297v135h360q31 0 51.5 -20t20.5 -51v-838h340v-135h-840z" />
    <glyph glyph-name="Imacron" unicode="&#x12a;" 
d="M877 1677v-114h-533v114h533zM676 135h334v-135h-803v135h334v1131h-324v135h782v-135h-323v-1131z" />
    <glyph glyph-name="imacron" unicode="&#x12b;" 
d="M233 1206v115h533v-115h-533zM219 0v135h365v774h-297v135h360q31 0 51.5 -20t20.5 -51v-838h340v-135h-840z" />
    <glyph glyph-name="Ibreve" unicode="&#x12c;" 
d="M608 1520q-94 0 -159.5 60t-65.5 165l104 -2q0 -53 36 -87t87 -34t86 34t35 87l105 2q0 -106 -65.5 -165.5t-162.5 -59.5zM676 135h334v-135h-803v135h334v1131h-324v135h782v-135h-323v-1131z" />
    <glyph glyph-name="ibreve" unicode="&#x12d;" 
d="M639 1194q-94 0 -159.5 60t-65.5 165l104 -2q0 -53 36 -87t87 -34t86 34t35 87l104 2q0 -106 -65 -165.5t-162 -59.5zM219 0v135h365v774h-297v135h360q31 0 51.5 -20t20.5 -51v-838h340v-135h-840z" />
    <glyph glyph-name="Iogonek" unicode="&#x12e;" 
d="M999 -221h91v-135h-170q-37 0 -68 11t-53 32.5t-22 59.5t28 87l90 166h-688v135h334v1131h-324v135h782v-135h-323v-1131h334v-135l-62 -121q-16 -32 -16.5 -53.5t12.5 -30.5t26 -12.5t29 -3.5z" />
    <glyph glyph-name="iogonek" unicode="&#x12f;" 
d="M651 1208q-48 0 -78 27t-30 76q0 50 30 76t78 26q47 0 78 -26t31 -76q0 -49 -31 -76t-78 -27zM1049 -221h90v-135h-170q-37 0 -68 11t-53 32.5t-22 59.5t28 87l90 166h-725v135h365v774h-297v135h360q31 0 51.5 -20t20.5 -51v-838h340v-135l-62 -121q-13 -26 -15.5 -45
t3.5 -29t18 -16.5t23 -8t23 -1.5z" />
    <glyph glyph-name="Idotaccent" unicode="&#x130;" 
d="M610 1577q-46 0 -78 30t-32 74q0 43 32 72t78 29q45 0 77 -29.5t32 -71.5q0 -44 -32 -74t-77 -30zM676 135h334v-135h-803v135h334v1131h-324v135h782v-135h-323v-1131z" />
    <glyph glyph-name="dotlessi" unicode="&#x131;" 
d="M219 0v135h365v774h-297v135h360q31 0 51.5 -20t20.5 -51v-838h340v-135h-840z" />
    <glyph glyph-name="Jcircumflex" unicode="&#x134;" 
d="M285 1511l254 258h135l254 -258h-158l-164 177l-164 -177h-157zM580 -10q-107 0 -188.5 36t-136 116.5t-69.5 201.5h140q19 -115 80.5 -167t177.5 -52q125 0 193.5 79t68.5 245v817h-604v135h739v-979q0 -203 -109 -317.5t-292 -114.5z" />
    <glyph glyph-name="jcircumflex" unicode="&#x135;" 
d="M440 1180l254 258h135l254 -258h-157l-164 176l-164 -176h-158zM213 -367v136h358q77 0 132 55t55 131v954h-453v135h514q32 0 53 -20t21 -51v-1026q0 -131 -91.5 -222.5t-221.5 -91.5h-367z" />
    <glyph glyph-name="uni0136" unicode="&#x136;" 
d="M635 821l483 -821h-155l-416 711l-207 -260v-451h-135v1401h135v-733l582 733h174zM598 -102q44 0 75.5 -29.5t31.5 -73.5q0 -34 -19 -59l-143 -223l-51 26l63 160q-30 11 -49 37.5t-19 58.5q0 44 32.5 73.5t78.5 29.5z" />
    <glyph glyph-name="uni0137" unicode="&#x137;" 
d="M672 625l413 -625h-157l-350 520l-181 -198v-322h-135v1401h135v-873l475 516h177zM633 -102q43 0 74.5 -29.5t31.5 -73.5q0 -35 -18 -59l-143 -223l-52 26l64 160q-30 11 -49 37.5t-19 58.5q0 44 32.5 73.5t78.5 29.5z" />
    <glyph glyph-name="Lacute" unicode="&#x139;" 
d="M283 1520l143 260h162l-211 -260h-94zM256 0v1401h135v-1266h649v-135h-784z" />
    <glyph glyph-name="lacute" unicode="&#x13a;" 
d="M487 1520l144 260h162l-211 -260h-95zM768 0q-132 0 -222.5 90.5t-90.5 222.5v953h-328v135h391q31 0 51.5 -20.5t20.5 -51.5v-1007q0 -77 55 -132t131 -55h297v-135h-305z" />
    <glyph glyph-name="uni013B" unicode="&#x13b;" 
d="M391 135h649v-135h-784v1401h135v-1266zM643 -102q44 0 75.5 -29.5t31.5 -73.5q0 -34 -19 -59l-143 -223l-51 26l63 160q-30 11 -49 37.5t-19 58.5q0 44 32.5 73.5t78.5 29.5z" />
    <glyph glyph-name="uni013C" unicode="&#x13c;" 
d="M776 135h297v-135h-305q-132 0 -222.5 90.5t-90.5 222.5v953h-328v135h391q31 0 51.5 -20.5t20.5 -51.5v-1007q0 -77 55 -132t131 -55zM827 -102q44 0 75.5 -29.5t31.5 -73.5q0 -34 -19 -59l-143 -223l-51 26l63 160q-29 11 -48 37.5t-19 58.5q0 44 32 73.5t78 29.5z" />
    <glyph glyph-name="Lcaron" unicode="&#x13d;" 
d="M651 1214q-29 11 -48 38t-19 59q0 44 32 73t78 29q44 0 75.5 -29.5t31.5 -72.5q0 -35 -19 -60l-143 -223l-51 27zM391 135h649v-135h-784v1401h135v-1266z" />
    <glyph glyph-name="lcaron" unicode="&#x13e;" 
d="M799 1229q-30 11 -49 37.5t-19 58.5q0 44 32.5 73t78.5 29q44 0 75 -29t31 -73q0 -35 -18 -59l-144 -224l-51 27zM776 135h297v-135h-305q-132 0 -222.5 90.5t-90.5 222.5v953h-328v135h391q31 0 51.5 -20.5t20.5 -51.5v-1007q0 -77 55 -132t131 -55z" />
    <glyph glyph-name="Ldot" unicode="&#x13f;" 
d="M256 0v1401h135v-1266h649v-135h-784zM682 637q-46 0 -78.5 30t-32.5 74q0 42 32.5 71.5t78.5 29.5q45 0 77 -29.5t32 -71.5q0 -44 -32 -74t-77 -30z" />
    <glyph glyph-name="ldot" unicode="&#x140;" 
d="M768 0q-132 0 -222.5 90.5t-90.5 222.5v953h-328v135h391q31 0 51.5 -20.5t20.5 -51.5v-1007q0 -77 55 -132t131 -55h297v-135h-305zM860 678q-46 0 -78 30t-32 74q0 43 32 72t78 29q45 0 77 -29.5t32 -71.5q0 -44 -32 -74t-77 -30z" />
    <glyph glyph-name="Lslash" unicode="&#x141;" 
d="M446 135h650v-135h-785v473l-182 -182v190l182 183v737h135v-602l279 278v-190l-279 -279v-473z" />
    <glyph glyph-name="lslash" unicode="&#x142;" 
d="M776 135h297v-135h-305q-132 0 -222.5 90.5t-90.5 222.5v269l-181 -181v191l181 178v496h-328v135h391q31 0 51.5 -20.5t20.5 -51.5v-424l203 201v-188l-203 -203v-393q0 -77 55 -132t131 -55z" />
    <glyph glyph-name="Nacute" unicode="&#x143;" 
d="M872 1780l-210 -260h-95l144 260h161zM905 1401h135v-1401h-168l-561 1165v-1165h-135v1401h170l559 -1163v1163z" />
    <glyph glyph-name="nacute" unicode="&#x144;" 
d="M860 1423l-211 -260h-94l143 260h162zM676 1059q164 0 253 -107t89 -276v-676h-137v643q0 135 -71 211t-192 76q-270 0 -270 -400v-530h-135v1044h115l20 -247q66 262 328 262z" />
    <glyph glyph-name="uni0145" unicode="&#x145;" horiz-adv-x="1222" 
d="M905 1401h135v-1401h-168l-561 1165v-1165h-135v1401h170l559 -1163v1163zM582 -102q43 0 74.5 -29.5t31.5 -73.5q0 -35 -18 -59l-144 -223l-51 26l64 160q-30 11 -49 37.5t-19 58.5q0 44 32.5 73.5t78.5 29.5z" />
    <glyph glyph-name="uni0146" unicode="&#x146;" 
d="M676 1059q164 0 253 -107t89 -276v-676h-137v643q0 135 -71 211t-192 76q-270 0 -270 -400v-530h-135v1044h115l20 -247q66 262 328 262zM602 -102q44 0 75.5 -29.5t31.5 -73.5q0 -34 -19 -59l-143 -223l-51 26l63 160q-29 11 -48 37.5t-19 58.5q0 44 32 73.5t78 29.5z
" />
    <glyph glyph-name="Ncaron" unicode="&#x147;" 
d="M678 1511h-135l-254 258h157l164 -176l164 176h158zM905 1401h135v-1401h-168l-561 1165v-1165h-135v1401h170l559 -1163v1163z" />
    <glyph glyph-name="ncaron" unicode="&#x148;" 
d="M672 1180h-135l-254 258h157l164 -176l164 176h158zM676 1059q164 0 253 -107t89 -276v-676h-137v643q0 135 -71 211t-192 76q-270 0 -270 -400v-530h-135v1044h115l20 -247q66 262 328 262z" />
    <glyph glyph-name="napostrophe" unicode="&#x149;" 
d="M295 1362l-143 -223l-52 26l64 160q-30 11 -49 37.5t-19 58.5q0 44 32.5 73.5t78.5 29.5q43 0 74.5 -29.5t31.5 -73.5q0 -35 -18 -59zM676 1059q164 0 253 -107t89 -276v-676h-137v643q0 135 -71 211t-192 76q-270 0 -270 -400v-530h-135v1044h115l20 -247
q66 262 328 262z" />
    <glyph glyph-name="Eng" unicode="&#x14a;" 
d="M905 1401h135v-1540q0 -98 -59.5 -157.5t-157.5 -59.5h-59v135h39q43 0 72.5 29.5t29.5 72.5v119h-33l-561 1165v-1165h-135v1401h170l559 -1161v1161z" />
    <glyph glyph-name="eng" unicode="&#x14b;" 
d="M1018 698v-817q0 -98 -70 -167.5t-168 -69.5h-41v135h39q43 0 73 29.5t30 72.5v762q0 135 -71 211t-192 76q-270 0 -270 -400v-530h-135v1044h115l20 -247q66 262 328 262q159 0 247.5 -100t94.5 -261z" />
    <glyph glyph-name="Omacron" unicode="&#x14c;" 
d="M344 1563v114h533v-114h-533zM608 -10q-78 0 -139 20.5t-114 70t-87 129.5t-53.5 203t-19.5 287q0 163 19.5 286t54 203.5t87 130.5t114 70.5t138.5 20.5q78 0 139.5 -20.5t114 -70.5t87 -130t54 -203t19.5 -287q0 -163 -19.5 -286.5t-54 -203.5t-87 -129.5t-114 -70
t-139.5 -20.5zM608 125q56 0 97 13.5t77 50.5t58 100.5t34.5 166t12.5 244.5t-12.5 244.5t-34 166.5t-57.5 101t-77 50.5t-98 13.5q-56 0 -97 -13.5t-76.5 -50.5t-57.5 -101t-34.5 -166.5t-12.5 -244.5t12.5 -244.5t34.5 -166t58 -100.5t76.5 -50.5t96.5 -13.5z" />
    <glyph glyph-name="omacron" unicode="&#x14d;" 
d="M344 1206v115h533v-115h-533zM608 -14q-186 0 -293.5 132.5t-107.5 403.5q0 274 107 405.5t294 131.5t294.5 -132.5t107.5 -404.5t-107.5 -404t-294.5 -132zM608 121q64 0 111 20.5t83 66t54 124.5t18 190q0 148 -33 238.5t-89.5 127t-143.5 36.5q-129 0 -197.5 -92.5
t-68.5 -309.5q0 -216 68.5 -308.5t197.5 -92.5zM561 653h96v-262h-96v262z" />
    <glyph glyph-name="Obreve" unicode="&#x14e;" 
d="M608 1520q-94 0 -159.5 60t-65.5 165l104 -2q0 -53 36 -87t87 -34t86 34t35 87l105 2q0 -106 -65.5 -165.5t-162.5 -59.5zM608 -10q-78 0 -139 20.5t-114 70t-87 129.5t-53.5 203t-19.5 287q0 163 19.5 286t54 203.5t87 130.5t114 70.5t138.5 20.5q78 0 139.5 -20.5
t114 -70.5t87 -130t54 -203t19.5 -287q0 -163 -19.5 -286.5t-54 -203.5t-87 -129.5t-114 -70t-139.5 -20.5zM608 125q56 0 97 13.5t77 50.5t58 100.5t34.5 166t12.5 244.5t-12.5 244.5t-34 166.5t-57.5 101t-77 50.5t-98 13.5q-56 0 -97 -13.5t-76.5 -50.5t-57.5 -101
t-34.5 -166.5t-12.5 -244.5t12.5 -244.5t34.5 -166t58 -100.5t76.5 -50.5t96.5 -13.5z" />
    <glyph glyph-name="obreve" unicode="&#x14f;" 
d="M608 1194q-94 0 -159.5 60t-65.5 165l104 -2q0 -53 36 -87t87 -34t86 34t35 87l105 2q0 -106 -65.5 -165.5t-162.5 -59.5zM608 -14q-186 0 -293.5 132.5t-107.5 403.5q0 274 107 405.5t294 131.5t294.5 -132.5t107.5 -404.5t-107.5 -404t-294.5 -132zM608 121
q64 0 111 20.5t83 66t54 124.5t18 190q0 148 -33 238.5t-89.5 127t-143.5 36.5q-129 0 -197.5 -92.5t-68.5 -309.5q0 -216 68.5 -308.5t197.5 -92.5zM561 653h96v-262h-96v262z" />
    <glyph glyph-name="Ohungarumlaut" unicode="&#x150;" 
d="M424 1520l143 260h162l-211 -260h-94zM690 1520l144 260h161l-211 -260h-94zM608 -10q-78 0 -139 20.5t-114 70t-87 129.5t-53.5 203t-19.5 287q0 163 19.5 286t54 203.5t87 130.5t114 70.5t138.5 20.5q78 0 139.5 -20.5t114 -70.5t87 -130t54 -203t19.5 -287
q0 -163 -19.5 -286.5t-54 -203.5t-87 -129.5t-114 -70t-139.5 -20.5zM608 125q56 0 97 13.5t77 50.5t58 100.5t34.5 166t12.5 244.5t-12.5 244.5t-34 166.5t-57.5 101t-77 50.5t-98 13.5q-56 0 -97 -13.5t-76.5 -50.5t-57.5 -101t-34.5 -166.5t-12.5 -244.5t12.5 -244.5
t34.5 -166t58 -100.5t76.5 -50.5t96.5 -13.5z" />
    <glyph glyph-name="ohungarumlaut" unicode="&#x151;" 
d="M428 1163l143 260h162l-211 -260h-94zM694 1163l144 260h161l-211 -260h-94zM608 -14q-186 0 -293.5 132.5t-107.5 403.5q0 274 107 405.5t294 131.5t294.5 -132.5t107.5 -404.5t-107.5 -404t-294.5 -132zM608 121q64 0 111 20.5t83 66t54 124.5t18 190q0 148 -33 238.5
t-89.5 127t-143.5 36.5q-129 0 -197.5 -92.5t-68.5 -309.5q0 -216 68.5 -308.5t197.5 -92.5zM561 653h96v-262h-96v262z" />
    <glyph glyph-name="OE" unicode="&#x152;" 
d="M1118 1266h-327v-498h266v-135h-266v-498h327v-135h-565q-342 0 -342 700q0 170 20.5 298.5t52.5 203.5t79 121.5t92 62t98 15.5h565v-135zM655 129v1137h-102q-25 0 -45.5 -6.5t-46 -25.5t-44.5 -59t-36 -99.5t-26 -155.5t-9 -220q0 -147 14 -256t34 -168t49.5 -93.5
t54.5 -44t55 -9.5h102z" />
    <glyph glyph-name="oe" unicode="&#x153;" 
d="M1120 565v-106h-444q0 -98 12 -166t34.5 -103.5t48.5 -50t60 -14.5q61 0 102.5 47.5t53.5 171.5h131q-26 -190 -100.5 -272t-175.5 -82q-88 0 -146 51t-88 190q-29 -139 -86 -190t-145 -51q-47 0 -87 15.5t-76.5 54t-62 98t-40.5 152t-15 212.5q0 533 281 533
q87 0 144.5 -50t86.5 -180q29 130 88 180t146 50q47 0 87 -15t75.5 -51.5t61 -91.5t40 -139.5t14.5 -192.5zM387 127q34 0 59 14.5t48 54.5t35 121.5t12 204.5q0 99 -8.5 172t-22 116t-34 68t-41.5 33.5t-48 8.5q-35 0 -60.5 -15t-48.5 -55t-35 -122.5t-12 -205.5t12 -204.5
t35 -121.5t48.5 -54.5t60.5 -14.5zM676 575h309q0 87 -9 151t-22.5 100t-35 57.5t-41.5 28t-46 6.5t-46.5 -6.5t-41.5 -28t-35 -57.5t-23 -100t-9 -151z" />
    <glyph glyph-name="Racute" unicode="&#x154;" 
d="M872 1780l-210 -260h-95l144 260h161zM1065 0h-156l-239 549q-46 -4 -70 -4h-231v-545h-136v1401h367q198 0 317 -115t119 -313q0 -139 -62.5 -240t-172.5 -149zM590 680q155 0 233 74.5t78 218.5q0 293 -311 293h-221v-586h221z" />
    <glyph glyph-name="racute" unicode="&#x155;" 
d="M934 1423l-211 -260h-94l143 260h162zM778 926q-138 0 -219.5 -89t-81.5 -223v-479h484v-135h-828v135h209v774h-209v135h324l22 -200q38 103 123 157t203 54h229v-129h-256z" />
    <glyph glyph-name="uni0156" unicode="&#x156;" horiz-adv-x="1222" 
d="M801 584l264 -584h-156l-239 549q-46 -4 -70 -4h-231v-545h-136v1401h367q198 0 317 -115t119 -313q0 -139 -62.5 -240t-172.5 -149zM590 680q155 0 233 74.5t78 218.5q0 293 -311 293h-221v-586h221zM633 -102q43 0 74.5 -29.5t31.5 -73.5q0 -35 -18 -59l-143 -223
l-52 26l64 160q-30 11 -49 37.5t-19 58.5q0 44 32.5 73.5t78.5 29.5z" />
    <glyph glyph-name="uni0157" unicode="&#x157;" 
d="M778 926q-138 0 -219.5 -89t-81.5 -223v-479h484v-135h-828v135h209v774h-209v135h324l22 -200q38 103 123 157t203 54h229v-129h-256zM403 -102q44 0 75.5 -29.5t31.5 -73.5q0 -35 -18 -59l-144 -223l-51 26l63 160q-29 11 -48 37.5t-19 58.5q0 44 32 73.5t78 29.5z" />
    <glyph glyph-name="Rcaron" unicode="&#x158;" 
d="M674 1511h-135l-254 258h157l164 -176l164 176h158zM1065 0h-156l-239 549q-46 -4 -70 -4h-231v-545h-136v1401h367q198 0 317 -115t119 -313q0 -139 -62.5 -240t-172.5 -149zM590 680q155 0 233 74.5t78 218.5q0 293 -311 293h-221v-586h221z" />
    <glyph glyph-name="rcaron" unicode="&#x159;" 
d="M756 1180h-135l-254 258h157l164 -176l164 176h158zM778 926q-138 0 -219.5 -89t-81.5 -223v-479h484v-135h-828v135h209v774h-209v135h324l22 -200q38 103 123 157t203 54h229v-129h-256z" />
    <glyph glyph-name="Sacute" unicode="&#x15a;" 
d="M555 1520l143 260h162l-211 -260h-94zM598 -10q-196 0 -304.5 97.5t-129.5 322.5h141q17 -157 88.5 -221t204.5 -64q134 0 210.5 62.5t76.5 164.5q0 206 -221 275l-152 53q-319 99 -319 375q0 152 111 254t284 102q181 0 283.5 -93t123.5 -302h-131q-17 142 -83.5 201
t-192.5 59q-117 0 -188.5 -62t-71.5 -159q0 -90 52 -148.5t183 -101.5l152 -53q152 -48 228.5 -152t76.5 -248q0 -158 -115.5 -260t-306.5 -102z" />
    <glyph glyph-name="sacute" unicode="&#x15b;" 
d="M563 1163l144 260h161l-211 -260h-94zM625 -10q-84 0 -152.5 18.5t-125.5 59t-92.5 111t-45.5 167.5h151q15 -123 82 -177t189 -54q116 0 181 47.5t65 122.5q0 69 -46.5 120.5t-138.5 67.5l-160 31q-294 57 -294 278q0 116 95.5 194.5t266.5 78.5q157 0 259 -72.5
t124 -220.5h-139q-15 83 -79 125.5t-169 42.5q-116 0 -167.5 -44.5t-51.5 -103.5q0 -62 41 -106t129 -58l166 -30q140 -27 219.5 -106.5t79.5 -200.5q0 -127 -106.5 -209t-280.5 -82z" />
    <glyph glyph-name="Scircumflex" unicode="&#x15c;" 
d="M279 1511l253 258h136l254 -258h-158l-164 177l-164 -177h-157zM598 -10q-196 0 -304.5 97.5t-129.5 322.5h141q17 -157 88.5 -221t204.5 -64q134 0 210.5 62.5t76.5 164.5q0 206 -221 275l-152 53q-319 99 -319 375q0 152 111 254t284 102q181 0 283.5 -93t123.5 -302
h-131q-17 142 -83.5 201t-192.5 59q-117 0 -188.5 -62t-71.5 -159q0 -90 52 -148.5t183 -101.5l152 -53q152 -48 228.5 -152t76.5 -248q0 -158 -115.5 -260t-306.5 -102z" />
    <glyph glyph-name="scircumflex" unicode="&#x15d;" 
d="M291 1180l254 258h135l254 -258h-158l-164 176l-163 -176h-158zM625 -10q-84 0 -152.5 18.5t-125.5 59t-92.5 111t-45.5 167.5h151q15 -123 82 -177t189 -54q116 0 181 47.5t65 122.5q0 69 -46.5 120.5t-138.5 67.5l-160 31q-294 57 -294 278q0 116 95.5 194.5
t266.5 78.5q157 0 259 -72.5t124 -220.5h-139q-15 83 -79 125.5t-169 42.5q-116 0 -167.5 -44.5t-51.5 -103.5q0 -62 41 -106t129 -58l166 -30q140 -27 219.5 -106.5t79.5 -200.5q0 -127 -106.5 -209t-280.5 -82z" />
    <glyph glyph-name="Scedilla" unicode="&#x15e;" 
d="M1020 352q0 -139 -91 -236t-247 -120l-59 -127h16q83 0 135.5 -52.5t52.5 -135.5q0 -89 -65.5 -142t-171.5 -53h-146v111h146q61 0 92 30t31 74t-28 75t-75 31h-110v58l61 125q-179 9 -278 107.5t-119 312.5h141q17 -157 88.5 -221t204.5 -64q134 0 210.5 62.5
t76.5 164.5q0 206 -221 275l-152 53q-319 99 -319 375q0 152 111 254t284 102q181 0 283.5 -93t123.5 -302h-131q-17 142 -83.5 201t-192.5 59q-117 0 -188.5 -62t-71.5 -159q0 -90 52 -148.5t183 -101.5l152 -53q152 -48 228.5 -152t76.5 -248z" />
    <glyph glyph-name="scedilla" unicode="&#x15f;" 
d="M1012 281q0 -114 -87 -193t-235 -94l-57 -125h16q83 0 136 -52.5t53 -135.5q0 -89 -65.5 -142t-172.5 -53h-145v111h145q61 0 92 30t31 74t-27.5 75t-74.5 31h-111v58l61 127q-328 24 -362 354h151q15 -123 82 -177t189 -54q116 0 181 47.5t65 122.5q0 69 -46.5 120.5
t-138.5 67.5l-160 31q-294 57 -294 278q0 116 95.5 194.5t266.5 78.5q157 0 259 -72.5t124 -220.5h-139q-15 83 -79 125.5t-169 42.5q-116 0 -167.5 -44.5t-51.5 -103.5q0 -62 41 -106t129 -58l166 -30q140 -27 219.5 -106.5t79.5 -200.5z" />
    <glyph glyph-name="Scaron" unicode="&#x160;" 
d="M532 1511l-253 258h157l164 -176l164 176h158l-254 -258h-136zM598 -10q-196 0 -304.5 97.5t-129.5 322.5h141q17 -157 88.5 -221t204.5 -64q134 0 210.5 62.5t76.5 164.5q0 206 -221 275l-152 53q-319 99 -319 375q0 152 111 254t284 102q181 0 283.5 -93t123.5 -302
h-131q-17 142 -83.5 201t-192.5 59q-117 0 -188.5 -62t-71.5 -159q0 -90 52 -148.5t183 -101.5l152 -53q152 -48 228.5 -152t76.5 -248q0 -158 -115.5 -260t-306.5 -102z" />
    <glyph glyph-name="scaron" unicode="&#x161;" 
d="M545 1180l-254 258h158l163 -176l164 176h158l-254 -258h-135zM625 -10q-84 0 -152.5 18.5t-125.5 59t-92.5 111t-45.5 167.5h151q15 -123 82 -177t189 -54q116 0 181 47.5t65 122.5q0 69 -46.5 120.5t-138.5 67.5l-160 31q-294 57 -294 278q0 116 95.5 194.5t266.5 78.5
q157 0 259 -72.5t124 -220.5h-139q-15 83 -79 125.5t-169 42.5q-116 0 -167.5 -44.5t-51.5 -103.5q0 -62 41 -106t129 -58l166 -30q140 -27 219.5 -106.5t79.5 -200.5q0 -127 -106.5 -209t-280.5 -82z" />
    <glyph glyph-name="uni0162" unicode="&#x162;" horiz-adv-x="1228" 
d="M676 0h-6l-62 -131h17q83 0 135.5 -52.5t52.5 -135.5q0 -89 -65.5 -142t-172.5 -53h-145v111h145q61 0 92 30t31 74t-27.5 75t-74.5 31h-111v58l66 135h-10v1276h-369v125h875v-125h-371v-1276z" />
    <glyph glyph-name="uni0163" unicode="&#x163;" 
d="M897 -131q83 0 135.5 -52.5t52.5 -135.5q0 -89 -65.5 -142t-171.5 -53h-146v111h146q61 0 92 30t31 74t-28 75t-75 31h-110v58l65 135h-86q-132 0 -222.5 91t-90.5 222v596h-283v135h283v283h135v-283h496v-135h-496v-587q0 -77 55 -132t131 -55h295v-135h-98l-61 -131
h16z" />
    <glyph glyph-name="Tcaron" unicode="&#x164;" 
d="M678 1511h-135l-254 258h157l164 -176l164 176h158zM1047 1401v-125h-371v-1276h-135v1276h-369v125h875z" />
    <glyph glyph-name="tcaron" unicode="&#x165;" 
d="M758 1329q-30 11 -49 37.5t-19 58.5q0 44 32.5 73.5t78.5 29.5q43 0 74.5 -29.5t31.5 -73.5q0 -35 -18 -59l-144 -223l-51 26zM1055 909h-496v-587q0 -77 55 -132t131 -55h295v-135h-303q-132 0 -222.5 91t-90.5 222v596h-283v135h283v283h135v-283h496v-135z" />
    <glyph glyph-name="Tbar" unicode="&#x166;" 
d="M1047 1276h-371v-528h246v-136h-246v-612h-135v612h-248v136h248v528h-369v125h875v-125z" />
    <glyph glyph-name="tbar" unicode="&#x167;" 
d="M1055 909h-496v-239h266v-135h-266v-213q0 -77 55 -132t131 -55h295v-135h-303q-132 0 -222.5 91t-90.5 222v222h-207v135h207v239h-283v135h283v283h135v-283h496v-135z" />
    <glyph glyph-name="Utilde" unicode="&#x168;" 
d="M760 1552q-50 0 -85 16.5t-77 51.5q-32 29 -44.5 39.5t-38.5 22.5t-54 12q-38 0 -63 -31.5t-25 -77.5v-22h-115v22q0 92 59 156.5t144 64.5q49 0 83 -14.5t79 -50.5q27 -24 42 -36t42 -25t53 -13q35 0 61.5 32.5t26.5 76.5v20h115v-20q0 -93 -58.5 -158.5t-144.5 -65.5z
M608 -10q-188 0 -300.5 115t-112.5 311v985h135v-934q0 -342 278 -342q279 0 279 342v934h135v-985q0 -196 -113 -311t-301 -115z" />
    <glyph glyph-name="utilde" unicode="&#x169;" 
d="M758 1217q-50 0 -85 16t-77 51q-32 29 -44.5 39.5t-38.5 22.5t-54 12q-38 0 -63 -31.5t-25 -77.5v-22h-115v22q0 92 59 156.5t144 64.5q49 0 83 -14.5t79 -50.5q27 -24 42 -36t42 -25t53 -13q35 0 61.5 32.5t26.5 76.5v20h115v-20q0 -93 -58.5 -158t-144.5 -65zM608 -10
q-176 0 -288.5 106.5t-112.5 263.5v684h135v-659q0 -119 71.5 -189.5t194.5 -70.5q124 0 195 70.5t71 189.5v659h136v-684q0 -157 -113 -263.5t-289 -106.5z" />
    <glyph glyph-name="Umacron" unicode="&#x16a;" 
d="M344 1563v114h533v-114h-533zM608 -10q-188 0 -300.5 115t-112.5 311v985h135v-934q0 -342 278 -342q279 0 279 342v934h135v-985q0 -196 -113 -311t-301 -115z" />
    <glyph glyph-name="umacron" unicode="&#x16b;" 
d="M344 1206v115h533v-115h-533zM608 -10q-176 0 -288.5 106.5t-112.5 263.5v684h135v-659q0 -119 71.5 -189.5t194.5 -70.5q124 0 195 70.5t71 189.5v659h136v-684q0 -157 -113 -263.5t-289 -106.5z" />
    <glyph glyph-name="Ubreve" unicode="&#x16c;" 
d="M608 1520q-94 0 -159.5 60t-65.5 165l104 -2q0 -53 36 -87t87 -34t86 34t35 87l105 2q0 -106 -65.5 -165.5t-162.5 -59.5zM608 -10q-188 0 -300.5 115t-112.5 311v985h135v-934q0 -342 278 -342q279 0 279 342v934h135v-985q0 -196 -113 -311t-301 -115z" />
    <glyph glyph-name="ubreve" unicode="&#x16d;" 
d="M608 1194q-94 0 -159.5 60t-65.5 165l104 -2q0 -53 36 -87t87 -34t86 34t35 87l105 2q0 -106 -65.5 -165.5t-162.5 -59.5zM608 -10q-176 0 -288.5 106.5t-112.5 263.5v684h135v-659q0 -119 71.5 -189.5t194.5 -70.5q124 0 195 70.5t71 189.5v659h136v-684
q0 -157 -113 -263.5t-289 -106.5z" />
    <glyph glyph-name="Uring" unicode="&#x16e;" 
d="M610 1389q-93 0 -160 64.5t-67 164.5q0 97 66.5 161t158.5 64q94 0 161 -63.5t67 -161.5q0 -100 -66.5 -164.5t-159.5 -64.5zM610 1493q49 0 85 35t36 88t-35 87t-86 34t-87 -34t-36 -87t35.5 -88t87.5 -35zM608 -10q-188 0 -300.5 115t-112.5 311v985h135v-934
q0 -342 278 -342q279 0 279 342v934h135v-985q0 -196 -113 -311t-301 -115z" />
    <glyph glyph-name="uring" unicode="&#x16f;" 
d="M608 1167q-93 0 -160 65t-67 165q0 97 66.5 161t158.5 64q94 0 161 -63.5t67 -161.5q0 -100 -66.5 -165t-159.5 -65zM608 1272q49 0 85 35t36 88t-35 87t-86 34t-87 -34t-36 -87t35.5 -88t87.5 -35zM608 -10q-176 0 -288.5 106.5t-112.5 263.5v684h135v-659
q0 -119 71.5 -189.5t194.5 -70.5q124 0 195 70.5t71 189.5v659h136v-684q0 -157 -113 -263.5t-289 -106.5z" />
    <glyph glyph-name="Uhungarumlaut" unicode="&#x170;" 
d="M426 1520l143 260h162l-211 -260h-94zM692 1520l144 260h161l-211 -260h-94zM608 -10q-188 0 -300.5 115t-112.5 311v985h135v-934q0 -342 278 -342q279 0 279 342v934h135v-985q0 -196 -113 -311t-301 -115z" />
    <glyph glyph-name="uhungarumlaut" unicode="&#x171;" 
d="M424 1161l143 260h162l-211 -260h-94zM690 1161l144 260h161l-211 -260h-94zM608 -10q-176 0 -288.5 106.5t-112.5 263.5v684h135v-659q0 -119 71.5 -189.5t194.5 -70.5q124 0 195 70.5t71 189.5v659h136v-684q0 -157 -113 -263.5t-289 -106.5z" />
    <glyph glyph-name="Uogonek" unicode="&#x172;" 
d="M887 1401h135v-985q0 -177 -92.5 -288.5t-251.5 -133.5l-60 -115q-13 -26 -15.5 -45t3.5 -29t18 -16.5t23 -8t23 -1.5h90v-135h-170q-37 0 -68 11t-53 32.5t-22 59.5t28 87l86 158q-169 15 -267.5 128t-98.5 296v985h135v-934q0 -342 278 -342q279 0 279 342v934z" />
    <glyph glyph-name="uogonek" unicode="&#x173;" 
d="M874 1044h136v-684q0 -143 -95 -245t-249 -121l-58 -115q-16 -32 -16.5 -53.5t12.5 -30.5t26 -12.5t29 -3.5h91v-135h-170q-37 0 -68 11t-53 32.5t-22 59.5t28 87l86 160q-154 17 -249 119.5t-95 246.5v684h135v-659q0 -119 71.5 -189.5t194.5 -70.5q124 0 195 70.5
t71 189.5v659z" />
    <glyph glyph-name="Wcircumflex" unicode="&#x174;" 
d="M610 1688l-164 -177h-157l254 258h135l254 -258h-158zM987 1401h137l-225 -1401h-133l-158 684l-157 -684h-132l-227 1401h137l172 -1096l123 551h170l123 -553z" />
    <glyph glyph-name="wcircumflex" unicode="&#x175;" 
d="M610 1356l-164 -176h-157l254 258h135l254 -258h-158zM977 1044h135l-219 -1044h-129l-156 696l-155 -696h-127l-222 1044h138l157 -751l138 663h143l139 -667z" />
    <glyph glyph-name="Ycircumflex" unicode="&#x176;" 
d="M610 1688l-164 -177h-157l254 258h135l254 -258h-158zM676 551v-416h334v-135h-803v135h334v416l-412 850h152l327 -694l328 694h154z" />
    <glyph glyph-name="ycircumflex" unicode="&#x177;" 
d="M625 1356l-164 -176h-158l254 258h135l254 -258h-158zM1081 1044l-432 -1265h369v-135h-795v135h291l74 221h-62l-381 1044h148l332 -931l311 931h145z" />
    <glyph glyph-name="Ydieresis" unicode="&#x178;" 
d="M459 1544q-46 0 -78.5 30.5t-32.5 74.5q0 42 32.5 71t78.5 29q43 0 74.5 -29t31.5 -71q0 -44 -31.5 -74.5t-74.5 -30.5zM766 1544q-46 0 -78.5 30.5t-32.5 74.5q0 42 32.5 71t78.5 29q43 0 74.5 -29t31.5 -71q0 -44 -31.5 -74.5t-74.5 -30.5zM676 551v-416h334v-135h-803
v135h334v416l-412 850h152l327 -694l328 694h154z" />
    <glyph glyph-name="Zacute" unicode="&#x179;" 
d="M874 1780l-210 -260h-95l144 260h161zM348 135h666v-135h-815v135l645 1131h-631v135h782v-135z" />
    <glyph glyph-name="zacute" unicode="&#x17a;" 
d="M561 1163l144 260h161l-211 -260h-94zM227 0v135l574 774h-555v135h733v-135l-573 -774h591v-135h-770z" />
    <glyph glyph-name="Zdotaccent" unicode="&#x17b;" 
d="M610 1577q-46 0 -78 30t-32 74q0 43 32 72t78 29q45 0 77 -29.5t32 -71.5q0 -44 -32 -74t-77 -30zM348 135h666v-135h-815v135l645 1131h-631v135h782v-135z" />
    <glyph glyph-name="zdotaccent" unicode="&#x17c;" 
d="M612 1255q-46 0 -78 30.5t-32 74.5q0 42 32 71t78 29q45 0 77 -29t32 -71q0 -44 -32 -74.5t-77 -30.5zM227 0v135l574 774h-555v135h733v-135l-573 -774h591v-135h-770z" />
    <glyph glyph-name="Zcaron" unicode="&#x17d;" 
d="M676 1511h-135l-254 258h157l164 -176l164 176h158zM348 135h666v-135h-815v135l645 1131h-631v135h782v-135z" />
    <glyph glyph-name="zcaron" unicode="&#x17e;" 
d="M545 1180l-254 258h158l163 -176l164 176h158l-254 -258h-135zM227 0v135l574 774h-555v135h733v-135l-573 -774h591v-135h-770z" />
    <glyph glyph-name="florin" unicode="&#x192;" 
d="M813 1276q-57 0 -97 -40t-40 -97v-371h231v-135h-231v-379q0 -110 -76 -187t-186 -77h-211v137h203q56 0 95.5 39t39.5 96v371h-232v135h232v379q0 113 75.5 188.5t188.5 75.5h209v-135h-201z" />
    <glyph glyph-name="AEacute" unicode="&#x1fc;" 
d="M977 1780l-211 -260h-94l143 260h162zM1104 1266h-326v-498h264v-135h-264v-498h326v-135h-461v338h-281l-92 -338h-139l395 1401h578v-135zM643 473v793h-27l-217 -793h244z" />
    <glyph glyph-name="aeacute" unicode="&#x1fd;" 
d="M864 1423l-211 -260h-94l143 260h162zM1118 571v-112h-444q0 -99 12 -167t34 -104.5t49 -51.5t62 -15q61 0 99 48.5t51 174.5h131q-26 -199 -90.5 -278.5t-169.5 -79.5q-39 0 -72 10t-67 35.5t-61.5 76.5t-45.5 125q-60 -247 -244 -247q-121 0 -194.5 75.5t-73.5 206.5
q0 127 76.5 217t194.5 90h174q0 349 -150 349q-123 0 -147 -170h-131q39 305 258 305q180 0 237 -240q55 240 242 240q270 0 270 -488zM674 575h309q0 108 -13 180.5t-36.5 107t-48.5 47t-58 12.5q-32 0 -56.5 -13.5t-48 -48.5t-36 -107t-12.5 -178zM385 125q25 0 45.5 7
t41.5 28.5t35 57t23 97t9 144.5h-156q-64 0 -109 -48t-45 -122q0 -82 45.5 -123t110.5 -41z" />
    <glyph glyph-name="uni0218" unicode="&#x218;" horiz-adv-x="1222" 
d="M715 752q152 -48 228.5 -152t76.5 -248q0 -158 -115.5 -260t-306.5 -102q-196 0 -304.5 97.5t-129.5 322.5h141q17 -157 88.5 -221t204.5 -64q134 0 210.5 62.5t76.5 164.5q0 206 -221 275l-152 53q-319 99 -319 375q0 152 111 254t284 102q181 0 283.5 -93t123.5 -302
h-131q-17 142 -83.5 201t-192.5 59q-117 0 -188.5 -62t-71.5 -159q0 -90 52 -148.5t183 -101.5zM586 -102q43 0 74.5 -29.5t31.5 -73.5q0 -35 -18 -59l-144 -223l-51 26l64 160q-30 11 -49 37.5t-19 58.5q0 44 32.5 73.5t78.5 29.5z" />
    <glyph glyph-name="uni0219" unicode="&#x219;" 
d="M713 588q140 -27 219.5 -106.5t79.5 -200.5q0 -127 -106.5 -209t-280.5 -82q-84 0 -152.5 18.5t-125.5 59t-92.5 111t-45.5 167.5h151q15 -123 82 -177t189 -54q116 0 181 47.5t65 122.5q0 69 -46.5 120.5t-138.5 67.5l-160 31q-294 57 -294 278q0 116 95.5 194.5
t266.5 78.5q157 0 259 -72.5t124 -220.5h-139q-15 83 -79 125.5t-169 42.5q-116 0 -167.5 -44.5t-51.5 -103.5q0 -62 41 -106t129 -58zM590 -102q43 0 74.5 -29.5t31.5 -73.5q0 -35 -18 -59l-143 -223l-52 26l64 160q-30 11 -49 37.5t-19 58.5q0 44 32.5 73.5t78.5 29.5z
" />
    <glyph glyph-name="uni021A" unicode="&#x21a;" 
d="M172 1401h875v-125h-371v-1276h-135v1276h-369v125zM592 -102q43 0 74.5 -29.5t31.5 -73.5q0 -35 -18 -59l-143 -223l-52 26l64 160q-30 11 -49 37.5t-19 58.5q0 44 32.5 73.5t78.5 29.5z" />
    <glyph glyph-name="uni021B" unicode="&#x21b;" 
d="M1055 909h-496v-587q0 -77 55 -132t131 -55h295v-135h-303q-132 0 -222.5 91t-90.5 222v596h-283v135h283v283h135v-283h496v-135zM784 -102q44 0 75.5 -29.5t31.5 -73.5q0 -34 -19 -59l-143 -223l-51 26l63 160q-29 11 -48 37.5t-19 58.5q0 44 32 73.5t78 29.5z" />
    <glyph glyph-name="uni0237" unicode="&#x237;" 
d="M213 -367v136h358q77 0 132 55t55 131v954h-453v135h514q32 0 53 -20t21 -51v-1026q0 -131 -91.5 -222.5t-221.5 -91.5h-367z" />
    <glyph glyph-name="uni02BC" unicode="&#x2bc;" horiz-adv-x="1228" 
d="M711 1311q0 -35 -19 -60l-143 -223l-51 27l63 159q-29 11 -48 38t-19 59q0 44 32 73t78 29q44 0 75.5 -29.5t31.5 -72.5z" />
    <glyph glyph-name="circumflex" unicode="&#x2c6;" 
d="M287 1239l254 258h135l254 -258h-158l-164 176l-164 -176h-157z" />
    <glyph glyph-name="caron" unicode="&#x2c7;" 
d="M541 1239l-254 258h157l164 -176l164 176h158l-254 -258h-135z" />
    <glyph glyph-name="breve" unicode="&#x2d8;" 
d="M608 1194q-94 0 -159.5 60t-65.5 165l104 -2q0 -53 36 -87t87 -34t86 34t35 87l105 2q0 -106 -65.5 -165.5t-162.5 -59.5z" />
    <glyph glyph-name="dotaccent" unicode="&#x2d9;" 
d="M608 1255q-46 0 -78 30.5t-32 74.5q0 42 32 71t78 29q45 0 77 -29t32 -71q0 -44 -32 -74.5t-77 -30.5z" />
    <glyph glyph-name="ring" unicode="&#x2da;" 
d="M610 1249q-93 0 -160 65t-67 165q0 97 66.5 161t158.5 64q94 0 161 -63.5t67 -161.5q0 -100 -66.5 -165t-159.5 -65zM610 1354q49 0 85 35t36 88t-35 86.5t-86 33.5t-87 -33.5t-36 -86.5t35.5 -88t87.5 -35z" />
    <glyph glyph-name="ogonek" unicode="&#x2db;" 
d="M635 -356q-37 0 -68 11t-53 32.5t-22 59.5t28 87l90 166h115l-61 -121q-16 -32 -16.5 -53.5t12.5 -30.5t26 -12.5t29 -3.5h90v-135h-170z" />
    <glyph glyph-name="tilde" unicode="&#x2dc;" 
d="M760 1217q-50 0 -85 16t-77 51q-32 29 -44.5 39.5t-38.5 22.5t-54 12q-38 0 -63 -31.5t-25 -77.5v-22h-115v22q0 92 59 156.5t144 64.5q49 0 83 -14.5t79 -50.5q27 -24 42 -36t42 -25t53 -13q35 0 61.5 32.5t26.5 76.5v20h115v-20q0 -93 -58.5 -158t-144.5 -65z" />
    <glyph glyph-name="hungarumlaut" unicode="&#x2dd;" 
d="M436 1092l144 260h161l-211 -260h-94zM702 1092l144 260h162l-211 -260h-95z" />
    <glyph glyph-name="gravecomb" unicode="&#x300;" horiz-adv-x="0" 
d="M211 1163l-211 260h162l145 -260h-96z" />
    <glyph glyph-name="acutecomb" unicode="&#x301;" horiz-adv-x="0" 
d="M74 1163l143 260h162l-211 -260h-94z" />
    <glyph glyph-name="uni0302" unicode="&#x302;" horiz-adv-x="0" 
d="M-20 1180l253 258h136l254 -258h-158l-164 176l-164 -176h-157z" />
    <glyph glyph-name="tildecomb" unicode="&#x303;" horiz-adv-x="0" 
d="M553 1217q-50 0 -85 16t-77 51q-32 29 -44.5 39.5t-38.5 22.5t-54 12q-38 0 -63 -31.5t-25 -77.5v-22h-115v22q0 92 59 156.5t144 64.5q49 0 83 -14.5t79 -50.5q27 -24 42 -36t42 -25t53 -13q35 0 61.5 32.5t26.5 76.5v20h115v-20q0 -93 -58.5 -158t-144.5 -65z" />
    <glyph glyph-name="uni0304" unicode="&#x304;" horiz-adv-x="0" 
d="M31 1206v115h532v-115h-532z" />
    <glyph glyph-name="uni0306" unicode="&#x306;" horiz-adv-x="0" 
d="M246 1194q-95 0 -160.5 60t-65.5 165l105 -2q0 -53 36 -87t87 -34t86 34t35 87l104 2q0 -106 -65 -165.5t-162 -59.5z" />
    <glyph glyph-name="uni0307" unicode="&#x307;" horiz-adv-x="0" 
d="M68 1255q-46 0 -78.5 30.5t-32.5 74.5q0 42 32.5 71t78.5 29q45 0 76.5 -29t31.5 -71q0 -44 -31.5 -74.5t-76.5 -30.5z" />
    <glyph glyph-name="uni0308" unicode="&#x308;" horiz-adv-x="0" 
d="M70 1255q-46 0 -78.5 30.5t-32.5 74.5q0 42 32.5 71t78.5 29q43 0 74.5 -29t31.5 -71q0 -44 -31.5 -74.5t-74.5 -30.5zM377 1255q-46 0 -78.5 30.5t-32.5 74.5q0 42 32.5 71t78.5 29q43 0 74.5 -29t31.5 -71q0 -44 -31.5 -74.5t-74.5 -30.5z" />
    <glyph glyph-name="uni030A" unicode="&#x30a;" horiz-adv-x="0" 
d="M248 1249q-93 0 -160.5 65t-67.5 165q0 97 67 161t159 64q94 0 160.5 -63.5t66.5 -161.5q0 -100 -66 -165t-159 -65zM248 1354q49 0 85 35t36 88t-35 86.5t-86 33.5t-87 -33.5t-36 -86.5t35.5 -88t87.5 -35z" />
    <glyph glyph-name="uni030B" unicode="&#x30b;" horiz-adv-x="0" 
d="M135 1233l144 260h161l-211 -260h-94zM401 1233l144 260h162l-211 -260h-95z" />
    <glyph glyph-name="uni030C" unicode="&#x30c;" horiz-adv-x="0" 
d="M233 1239l-253 258h157l164 -176l164 176h158l-254 -258h-136z" />
    <glyph glyph-name="uni0312" unicode="&#x312;" horiz-adv-x="0" 
d="M205 1346q29 -11 48 -38t19 -59q0 -44 -32 -73t-78 -29q-44 0 -75.5 29.5t-31.5 72.5q0 35 19 60l143 223l51 -27z" />
    <glyph glyph-name="uni0326" unicode="&#x326;" horiz-adv-x="0" 
d="M262 -205q0 -35 -18 -59l-144 -223l-51 26l64 160q-30 11 -49 37.5t-19 58.5q0 44 32.5 73.5t78.5 29.5q43 0 74.5 -29.5t31.5 -73.5z" />
    <glyph glyph-name="uni0327" unicode="&#x327;" horiz-adv-x="0" 
d="M104 -131q83 0 136 -52.5t53 -135.5q0 -89 -65.5 -142t-172.5 -53h-145v111h145q61 0 92 30t31 74t-27.5 75t-74.5 31h-111v58l66 135h119l-62 -131h16z" />
    <glyph glyph-name="uni0328" unicode="&#x328;" horiz-adv-x="0" 
d="M66 -356q-37 0 -68 11t-53 32.5t-22 59.5t28 87l90 166h115l-62 -121q-16 -32 -16.5 -53.5t12.5 -30.5t26 -12.5t29 -3.5h91v-135h-170z" />
    <glyph glyph-name="pi" unicode="&#x3c0;" 
d="M1120 909h-205v-680q0 -40 27.5 -67t67.5 -27h49v-135h-47q-97 0 -164.5 67t-67.5 164v678h-356v-909h-135v909h-205v135h1036v-135z" />
    <glyph glyph-name="uni0E3F" unicode="&#xe3f;" 
d="M842 733q99 -45 157 -133.5t58 -204.5q0 -178 -112.5 -286.5t-282.5 -108.5h-3v-174h-135v174h-334v1401h334v184h135v-188q143 -22 232.5 -126.5t89.5 -252.5q0 -88 -37 -162.5t-102 -122.5zM596 1266h-270v-496h270q108 0 179 72.5t71 175.5q0 109 -70 178.5t-180 69.5
zM662 135q114 0 187 69t73 191q0 117 -74 188.5t-186 71.5h-336v-520h336z" />
    <glyph glyph-name="Wgrave" unicode="&#x1e80;" 
d="M657 1520h-96l-211 260h162zM987 1401h137l-225 -1401h-133l-158 684l-157 -684h-132l-227 1401h137l172 -1096l123 551h170l123 -553z" />
    <glyph glyph-name="wgrave" unicode="&#x1e81;" 
d="M657 1163h-96l-211 260h162zM977 1044h135l-219 -1044h-129l-156 696l-155 -696h-127l-222 1044h138l157 -751l138 663h143l139 -667z" />
    <glyph glyph-name="Wacute" unicode="&#x1e82;" 
d="M872 1780l-210 -260h-95l144 260h161zM987 1401h137l-225 -1401h-133l-158 684l-157 -684h-132l-227 1401h137l172 -1096l123 551h170l123 -553z" />
    <glyph glyph-name="wacute" unicode="&#x1e83;" 
d="M874 1423l-210 -260h-95l144 260h161zM977 1044h135l-219 -1044h-129l-156 696l-155 -696h-127l-222 1044h138l157 -751l138 663h143l139 -667z" />
    <glyph glyph-name="Wdieresis" unicode="&#x1e84;" 
d="M459 1544q-46 0 -78.5 30.5t-32.5 74.5q0 42 32.5 71t78.5 29q43 0 74.5 -29t31.5 -71q0 -44 -31.5 -74.5t-74.5 -30.5zM766 1544q-46 0 -78.5 30.5t-32.5 74.5q0 42 32.5 71t78.5 29q43 0 74.5 -29t31.5 -71q0 -44 -31.5 -74.5t-74.5 -30.5zM987 1401h137l-225 -1401
h-133l-158 684l-157 -684h-132l-227 1401h137l172 -1096l123 551h170l123 -553z" />
    <glyph glyph-name="wdieresis" unicode="&#x1e85;" 
d="M459 1255q-46 0 -78.5 30.5t-32.5 74.5q0 42 32.5 71t78.5 29q43 0 74.5 -29t31.5 -71q0 -44 -31.5 -74.5t-74.5 -30.5zM766 1255q-46 0 -78.5 30.5t-32.5 74.5q0 42 32.5 71t78.5 29q43 0 74.5 -29t31.5 -71q0 -44 -31.5 -74.5t-74.5 -30.5zM977 1044h135l-219 -1044
h-129l-156 696l-155 -696h-127l-222 1044h138l157 -751l138 663h143l139 -667z" />
    <glyph glyph-name="Ygrave" unicode="&#x1ef2;" 
d="M653 1520h-96l-211 260h162zM676 551v-416h334v-135h-803v135h334v416l-412 850h152l327 -694l328 694h154z" />
    <glyph glyph-name="ygrave" unicode="&#x1ef3;" 
d="M668 1163h-97l-211 260h162zM1081 1044l-432 -1265h369v-135h-795v135h291l74 221h-62l-381 1044h148l332 -931l311 931h145z" />
    <glyph glyph-name="endash" unicode="&#x2013;" 
d="M213 524v135h803v-135h-803z" />
    <glyph glyph-name="emdash" unicode="&#x2014;" 
d="M160 524v135h897v-135h-897z" />
    <glyph glyph-name="quoteleft" unicode="&#x2018;" 
d="M653 1214q30 -11 49 -37.5t19 -58.5q0 -44 -32.5 -73t-78.5 -29q-44 0 -75 29t-31 73q0 36 18 60l144 223l51 -27z" />
    <glyph glyph-name="quoteright" unicode="&#x2019;" 
d="M711 1311q0 -35 -19 -60l-143 -223l-51 27l63 159q-29 11 -48 38t-19 59q0 44 32 73t78 29q44 0 75.5 -29.5t31.5 -72.5z" />
    <glyph glyph-name="quotesinglbase" unicode="&#x201a;" 
d="M717 88q0 -34 -19 -59l-143 -224l-51 27l63 160q-29 11 -48 37.5t-19 58.5q0 44 32 73t78 29q44 0 75.5 -29.5t31.5 -72.5z" />
    <glyph glyph-name="quotedblleft" unicode="&#x201c;" 
d="M502 1214q29 -11 48 -37.5t19 -58.5q0 -44 -32 -73t-78 -29q-44 0 -75.5 29.5t-31.5 72.5q0 35 19 60l143 223l51 -27zM807 1214q29 -11 48 -37.5t19 -58.5q0 -44 -32 -73t-78 -29q-44 0 -75.5 29.5t-31.5 72.5q0 35 19 60l143 223l51 -27z" />
    <glyph glyph-name="quotedblright" unicode="&#x201d;" 
d="M477 1413q44 0 75.5 -29.5t31.5 -72.5q0 -35 -19 -60l-143 -223l-51 27l63 159q-29 11 -48 38t-19 59q0 44 32 73t78 29zM889 1311q0 -35 -19 -60l-143 -223l-51 27l63 159q-29 11 -48 38t-19 59q0 44 32 73t78 29q44 0 75.5 -29.5t31.5 -72.5z" />
    <glyph glyph-name="quotedblbase" unicode="&#x201e;" 
d="M453 190q44 0 75 -29t31 -73q0 -35 -18 -59l-144 -224l-51 27l64 160q-30 11 -49 37.5t-19 58.5q0 44 32.5 73t78.5 29zM866 88q0 -35 -18 -59l-143 -224l-52 27l64 160q-30 11 -49 37.5t-19 58.5q0 44 32.5 73t78.5 29q44 0 75 -29t31 -73z" />
    <glyph glyph-name="dagger" unicode="&#x2020;" 
d="M541 -356v1265h-328v135h328v357h135v-357h328v-135h-328v-1265h-135z" />
    <glyph glyph-name="daggerdbl" unicode="&#x2021;" 
d="M541 -356v356h-328v135h328v774h-328v135h328v357h135v-357h328v-135h-328v-774h328v-135h-328v-356h-135z" />
    <glyph glyph-name="bullet" unicode="&#x2022;" 
d="M608 281q-128 0 -219.5 91t-91.5 220q0 128 91.5 219.5t219.5 91.5q129 0 220.5 -91.5t91.5 -219.5q0 -129 -91.5 -220t-220.5 -91zM608 406q79 0 133 54t54 132q0 80 -55 133t-132 53t-131.5 -53.5t-54.5 -132.5q0 -76 55 -131t131 -55z" />
    <glyph glyph-name="ellipsis" unicode="&#x2026;" 
d="M227 -20q-46 0 -78 30t-32 74q0 42 32 71t78 29q43 0 75 -29t32 -71q0 -44 -32 -74t-75 -30zM608 -20q-46 0 -77 30t-31 74q0 43 31 71.5t77 28.5q45 0 77 -29t32 -71q0 -44 -32 -74t-77 -30zM993 -20q-46 0 -78 30t-32 74q0 42 32 71t78 29q43 0 75 -29t32 -71
q0 -44 -32 -74t-75 -30z" />
    <glyph glyph-name="perthousand" unicode="&#x2030;" 
d="M592 918q-103 0 -177.5 69t-74.5 180q0 112 74 182t178 70t178 -70t74 -182q0 -111 -73.5 -180t-178.5 -69zM592 1016q68 0 108.5 43.5t40.5 107.5t-40.5 108t-108.5 44t-110 -44t-42 -108t41.5 -107.5t110.5 -43.5zM90 655v95h1036v-95h-1036zM342 -18q-102 0 -177 70.5
t-75 180.5t75 180t177 70q103 0 177.5 -69.5t74.5 -180.5t-74.5 -181t-177.5 -70zM874 -18q-102 0 -176.5 70.5t-74.5 180.5t74.5 180t176.5 70q103 0 177.5 -69.5t74.5 -180.5t-74.5 -181t-177.5 -70zM342 82q68 0 109 43.5t41 107.5t-41 108t-109 44t-108.5 -44
t-40.5 -108t40.5 -107.5t108.5 -43.5zM874 82q68 0 109 43.5t41 107.5t-41 108t-109 44t-108.5 -44t-40.5 -108t40.5 -107.5t108.5 -43.5z" />
    <glyph glyph-name="guilsinglleft" unicode="&#x2039;" 
d="M715 225l-324 367l324 366h159l-323 -366l323 -367h-159z" />
    <glyph glyph-name="guilsinglright" unicode="&#x203a;" 
d="M342 225l326 367l-326 366h160l325 -366l-325 -367h-160z" />
    <glyph glyph-name="fraction" unicode="&#x2044;" 
d="M125 0l811 1401h156l-811 -1401h-156z" />
    <glyph glyph-name="uni2051" unicode="&#x2051;" 
d="M987 1090v-134l-319 41l256 -194l-95 -96l-196 256l43 -320h-135l43 320l-195 -256l-96 96l256 194l-320 -41v134l320 -43l-256 196l96 94l195 -256l-43 320h135l-43 -320l196 256l95 -94l-256 -196zM987 219v-133l-319 41l256 -195l-95 -96l-196 256l43 -319h-135
l43 319l-195 -256l-96 96l256 195l-320 -41v133l320 -43l-256 197l96 94l195 -256l-43 319h135l-43 -319l196 256l95 -94l-256 -197z" />
    <glyph glyph-name="uni2070" unicode="&#x2070;" 
d="M610 1772q124 0 189 -98t65 -335q0 -122 -17.5 -208t-52 -134.5t-79.5 -70t-105 -21.5t-105 21.5t-79.5 70t-52 134.5t-17.5 208q0 237 65 335t189 98zM610 1671q-52 0 -84 -27t-50.5 -101.5t-18.5 -203.5q0 -63 2 -90l289 289q-18 73 -51.5 103t-86.5 30zM610 1004
q51 0 83 27t51.5 102.5t19.5 205.5q0 59 -2 86l-289 -288q18 -73 51.5 -103t85.5 -30z" />
    <glyph glyph-name="uni2074" unicode="&#x2074;" 
d="M877 1223v-99h-93v-209h-100v209h-340v99l260 534h111l-260 -534h229v198h100v-198h93z" />
    <glyph glyph-name="uni2075" unicode="&#x2075;" 
d="M623 1466q104 0 168.5 -74t64.5 -208q0 -131 -68 -205t-180 -74q-99 0 -165.5 54.5t-75.5 154.5h98q9 -49 45.5 -78.5t97.5 -29.5q148 0 148 178q0 92 -39 137t-109 45q-48 0 -82.5 -27t-46.5 -71l-100 28l16 463h406v-100h-309l-11 -256q53 63 142 63z" />
    <glyph glyph-name="uni2076" unicode="&#x2076;" 
d="M625 1466q111 0 178 -74.5t67 -205.5t-67 -206t-178 -75h-2q-89 0 -148 47q-56 41 -80 115q-43 110 -43 299q0 110 20.5 190.5t58 126.5t83.5 67.5t104 21.5q98 0 160.5 -54.5t71.5 -154.5h-98q-21 108 -134 108q-169 0 -176 -280q66 75 183 75zM625 1006q145 0 145 180
t-145 180q-70 0 -109 -44.5t-39 -135.5t39 -135.5t109 -44.5z" />
    <glyph glyph-name="uni2077" unicode="&#x2077;" 
d="M459 915l289 742h-291v-133h-101v233h496v-100l-285 -742h-108z" />
    <glyph glyph-name="uni2078" unicode="&#x2078;" 
d="M705 1354q74 -20 112.5 -76.5t38.5 -140.5q0 -108 -67.5 -170t-178.5 -62q-114 0 -182 62t-68 170q0 85 39 142t113 75q-133 50 -133 200q0 91 63 153t168 62q103 0 166.5 -62.5t63.5 -152.5q0 -149 -135 -200zM463 1546q0 -62 40.5 -101.5t106.5 -39.5q64 0 104 39.5
t40 101.5t-40 99.5t-104 37.5q-65 0 -106 -37.5t-41 -99.5zM610 1006q71 0 113.5 39.5t42.5 109.5q0 67 -41.5 109.5t-114.5 42.5q-76 0 -117.5 -42t-41.5 -110q0 -70 42.5 -109.5t116.5 -39.5z" />
    <glyph glyph-name="uni2079" unicode="&#x2079;" 
d="M827 1612q43 -110 43 -301q0 -215 -72.5 -310.5t-191.5 -95.5q-99 0 -161 54t-72 155h100q17 -108 133 -108q167 0 174 280q-67 -76 -180 -76q-111 0 -179.5 75t-68.5 206t68.5 204.5t179.5 73.5h2q94 0 154 -51q48 -42 71 -106zM600 1311q145 0 145 180q0 178 -145 178
q-147 0 -147 -178q0 -90 38 -135t109 -45z" />
    <glyph glyph-name="uni2080" unicode="&#x2080;" 
d="M610 496q124 0 189 -98t65 -335q0 -122 -17.5 -208t-52 -134.5t-79.5 -70t-105 -21.5t-105 21.5t-79.5 70t-52 134.5t-17.5 208q0 237 65 335t189 98zM610 395q-52 0 -84 -27t-50.5 -101.5t-18.5 -203.5q0 -63 2 -90l289 289q-18 73 -51.5 103t-86.5 30zM610 -272
q51 0 83 27t51.5 102.5t19.5 205.5q0 60 -2 87l-289 -289q18 -73 51.5 -103t85.5 -30z" />
    <glyph glyph-name="uni2081" unicode="&#x2081;" 
d="M690 -258h189v-98h-494v98h207v508h-207v92h207v143h98v-743z" />
    <glyph glyph-name="uni2082" unicode="&#x2082;" 
d="M465 -227v-29h393v-100h-493v104q0 124 42.5 192t161.5 132q57 31 85.5 48.5t56 42t37.5 50.5t10 61q0 53 -41 88t-109 35q-66 0 -100.5 -33.5t-46.5 -111.5h-107q14 128 81.5 187t172.5 59q111 0 180.5 -62t69.5 -162q0 -102 -49.5 -158t-196.5 -134
q-90 -50 -118.5 -92.5t-28.5 -116.5z" />
    <glyph glyph-name="uni2083" unicode="&#x2083;" 
d="M690 96q150 -51 150 -227q0 -105 -66 -171.5t-182 -66.5q-100 0 -169.5 56t-82.5 161h106q9 -57 46.5 -86.5t99.5 -29.5q70 0 108.5 40.5t38.5 116.5q0 69 -35.5 110.5t-89.5 41.5h-108v88h82q51 0 87 40t36 99q0 61 -35.5 98t-100.5 37q-52 0 -85.5 -30.5t-40.5 -89.5
h-99q10 104 74 159.5t151 55.5q103 0 165.5 -63.5t62.5 -155.5q0 -128 -113 -183z" />
    <glyph glyph-name="uni2084" unicode="&#x2084;" 
d="M877 -49v-98h-93v-209h-100v209h-340v98l260 534h111l-260 -534h229v199h100v-199h93z" />
    <glyph glyph-name="uni2085" unicode="&#x2085;" 
d="M623 193q104 0 168.5 -74.5t64.5 -208.5q0 -131 -68 -205t-180 -74q-99 0 -165.5 54.5t-75.5 154.5h98q9 -49 45.5 -78.5t97.5 -29.5q148 0 148 178q0 92 -39 137t-109 45q-48 0 -82.5 -27t-46.5 -71l-100 29l16 462h406v-100h-309l-11 -256q54 64 142 64z" />
    <glyph glyph-name="uni2086" unicode="&#x2086;" 
d="M625 193q111 0 178 -75t67 -206t-67 -206t-178 -75h-2q-89 0 -148 47q-56 41 -80 115q-43 110 -43 299q0 110 20.5 190.5t58 126.5t83.5 67.5t104 21.5q98 0 160.5 -54.5t71.5 -154.5h-98q-21 108 -134 108q-169 0 -176 -280q67 76 183 76zM625 -268q145 0 145 180
t-145 180q-70 0 -109 -44.5t-39 -135.5t39 -135.5t109 -44.5z" />
    <glyph glyph-name="uni2087" unicode="&#x2087;" 
d="M459 -356l289 741h-291v-133h-101v233h496v-100l-285 -741h-108z" />
    <glyph glyph-name="uni2088" unicode="&#x2088;" 
d="M705 80q74 -20 112.5 -76.5t38.5 -140.5q0 -108 -67.5 -170t-178.5 -62q-114 0 -182 62t-68 170q0 85 39 142t113 75q-133 50 -133 201q0 91 63 153t168 62q103 0 166.5 -62.5t63.5 -152.5q0 -72 -34.5 -124t-100.5 -77zM463 272q0 -62 40.5 -101.5t106.5 -39.5
q64 0 104 39.5t40 101.5t-40 100t-104 38q-65 0 -106 -38t-41 -100zM610 -268q71 0 113.5 39.5t42.5 109.5q0 67 -41.5 109.5t-114.5 42.5q-76 0 -117.5 -42t-41.5 -110q0 -70 42.5 -109.5t116.5 -39.5z" />
    <glyph glyph-name="uni2089" unicode="&#x2089;" 
d="M827 336q43 -110 43 -301q0 -215 -72.5 -310.5t-191.5 -95.5q-99 0 -161 54t-72 155h100q17 -108 133 -108q167 0 174 280q-67 -76 -180 -76q-111 0 -179.5 75t-68.5 206t68.5 205t179.5 74h2q93 0 154 -52q48 -42 71 -106zM600 35q145 0 145 180q0 178 -145 178
q-147 0 -147 -178q0 -90 38 -135t109 -45z" />
    <glyph glyph-name="franc" unicode="&#x20a3;" 
d="M1083 1266h-667v-521h575v-135h-575v-235h174v-135h-174v-240h-135v240h-146v135h146v1026h802v-135z" />
    <glyph glyph-name="uni20A8" unicode="&#x20a8;" 
d="M1008 1266h-207q78 -87 96 -224h111v-135h-111q-13 -115 -73.5 -198t-157.5 -125l270 -584h-150l-249 549q-46 -4 -72 -4h-236v135h226q271 0 307 227h-533v135h533q-38 224 -307 224h-226v135h779v-135z" />
    <glyph glyph-name="Euro" unicode="&#x20ac;" 
d="M629 125q118 0 185.5 69t86.5 234h135q-21 -221 -126 -329.5t-271 -108.5q-93 0 -162.5 25t-125.5 83t-90.5 159.5t-47.5 246.5h-172v135h164v61v64h-164v135h172q14 146 48 246.5t90 158t125.5 82.5t162.5 25q166 0 271 -108t126 -328h-135q-19 165 -86 233t-186 68
q-63 0 -107.5 -16t-81.5 -56.5t-59.5 -115.5t-32.5 -189h352v-135h-360v-64v-61h360v-135h-352q10 -114 32.5 -189.5t59.5 -116.5t81.5 -57t107.5 -16z" />
    <glyph glyph-name="uni20BF" unicode="&#x20bf;" 
d="M1057 395q0 -167 -100.5 -274t-256.5 -119v-176h-98v174h-78v-174h-98v174h-236v1401h236v184h98v-184h72h6v184h98v-196q127 -32 204 -133t77 -238q0 -88 -37 -162.5t-102 -122.5q99 -45 157 -133.5t58 -204.5zM596 1266h-270v-496h270q108 0 179 72.5t71 175.5
q0 109 -70 178.5t-180 69.5zM662 135q114 0 187 69t73 191q0 117 -74 188.5t-186 71.5h-336v-520h336z" />
    <glyph glyph-name="uni2116" unicode="&#x2116;" 
d="M973 1411q77 0 130.5 -51t53.5 -131q0 -82 -53.5 -134.5t-130.5 -52.5q-76 0 -130.5 53t-54.5 134q0 80 54.5 131t130.5 51zM905 238v761h135v-999h-168l-561 1165v-1165h-135v1401h170zM973 1133q38 0 66 27t28 67q0 41 -27.5 67.5t-66.5 26.5q-38 0 -66 -27t-28 -67
q0 -41 27.5 -67.5t66.5 -26.5z" />
    <glyph glyph-name="trademark" unicode="&#x2122;" 
d="M909 1401h113v-588h-90v391l-76 -225h-104l-76 225v-391h-90v500h-150v-500h-90v500h-149v88h501l107 -332z" />
    <glyph glyph-name="uni2126" unicode="&#x2126;" 
d="M819 135h221v-135h-383v125q42 10 73.5 29.5t62.5 63t50.5 109.5t31.5 172.5t12 248.5q0 157 -18 262t-55.5 162.5t-86 80.5t-119.5 23q-69 0 -117.5 -23t-86 -80.5t-56 -162.5t-18.5 -262q0 -142 12 -248.5t32 -172.5t51 -109.5t62 -63t72 -29.5v-125h-383v135h223
q-204 118 -204 643q0 174 29 298t84.5 196.5t129 105.5t170.5 33t170.5 -33t129.5 -105.5t85 -196.5t29 -298q0 -524 -203 -643z" />
    <glyph glyph-name="uni2155" unicode="&#x2155;" 
d="M879 1014v-99h-494v99h207v508h-207v92h207v143h98v-743h189zM145 750h926v-99h-926v99zM623 193q104 0 168.5 -74.5t64.5 -208.5q0 -131 -68 -205t-180 -74q-99 0 -165.5 54.5t-75.5 154.5h98q9 -49 45.5 -78.5t97.5 -29.5q148 0 148 178q0 92 -39 137t-109 45
q-48 0 -82.5 -27t-46.5 -71l-100 29l16 462h406v-100h-309l-11 -256q54 64 142 64z" />
    <glyph glyph-name="uni2156" unicode="&#x2156;" 
d="M608 1669q-66 0 -100.5 -33.5t-46.5 -111.5h-107q14 128 81.5 186.5t172.5 58.5q111 0 180.5 -62t69.5 -161q0 -102 -49.5 -158.5t-196.5 -134.5q-90 -50 -118.5 -92.5t-28.5 -116.5v-28h393v-101h-493v105q0 124 42.5 191.5t161.5 131.5q109 59 149 97.5t40 105.5
q0 53 -41 88t-109 35zM145 750h926v-99h-926v99zM623 193q104 0 168.5 -74.5t64.5 -208.5q0 -131 -68 -205t-180 -74q-99 0 -165.5 54.5t-75.5 154.5h98q9 -49 45.5 -78.5t97.5 -29.5q148 0 148 178q0 92 -39 137t-109 45q-48 0 -82.5 -27t-46.5 -71l-100 29l16 462h406
v-100h-309l-11 -256q54 64 142 64z" />
    <glyph glyph-name="uni2157" unicode="&#x2157;" 
d="M592 1006q70 0 108.5 40.5t38.5 116.5q0 69 -35.5 110.5t-89.5 41.5h-108v88h82q51 0 87 40t36 99q0 61 -35.5 98t-100.5 37q-52 0 -85.5 -31t-40.5 -90h-99q10 104 74 160t151 56q103 0 165.5 -64t62.5 -156q0 -127 -113 -182q150 -51 150 -227q0 -105 -66 -171.5
t-182 -66.5q-100 0 -169.5 56t-82.5 161h106q9 -57 46.5 -86.5t99.5 -29.5zM145 750h926v-99h-926v99zM623 193q104 0 168.5 -74.5t64.5 -208.5q0 -131 -68 -205t-180 -74q-99 0 -165.5 54.5t-75.5 154.5h98q9 -49 45.5 -78.5t97.5 -29.5q148 0 148 178q0 92 -39 137
t-109 45q-48 0 -82.5 -27t-46.5 -71l-100 29l16 462h406v-100h-309l-11 -256q54 64 142 64z" />
    <glyph glyph-name="uni2158" unicode="&#x2158;" 
d="M684 915v209h-340v99l260 534h111l-260 -534h229v198h100v-198h93v-99h-93v-209h-100zM145 750h926v-99h-926v99zM623 193q104 0 168.5 -74.5t64.5 -208.5q0 -131 -68 -205t-180 -74q-99 0 -165.5 54.5t-75.5 154.5h98q9 -49 45.5 -78.5t97.5 -29.5q148 0 148 178
q0 92 -39 137t-109 45q-48 0 -82.5 -27t-46.5 -71l-100 29l16 462h406v-100h-309l-11 -256q54 64 142 64z" />
    <glyph glyph-name="uni2159" unicode="&#x2159;" 
d="M879 1014v-99h-494v99h207v508h-207v92h207v143h98v-743h189zM145 750h926v-99h-926v99zM625 193q111 0 178 -75t67 -206t-67 -206t-178 -75h-2q-89 0 -148 47q-56 41 -80 115q-43 110 -43 299q0 110 20.5 190.5t58 126.5t83.5 67.5t104 21.5q98 0 160.5 -54.5
t71.5 -154.5h-98q-21 108 -134 108q-169 0 -176 -280q67 76 183 76zM625 -268q145 0 145 180t-145 180q-70 0 -109 -44.5t-39 -135.5t39 -135.5t109 -44.5z" />
    <glyph glyph-name="oneeighth" unicode="&#x215b;" 
d="M879 1014v-99h-494v99h207v508h-207v92h207v143h98v-743h189zM145 750h926v-99h-926v99zM705 80q74 -20 112.5 -76.5t38.5 -140.5q0 -108 -67.5 -170t-178.5 -62q-114 0 -182 62t-68 170q0 85 39 142t113 75q-133 50 -133 201q0 91 63 153t168 62q103 0 166.5 -62.5
t63.5 -152.5q0 -72 -34.5 -124t-100.5 -77zM463 272q0 -62 40.5 -101.5t106.5 -39.5q64 0 104 39.5t40 101.5t-40 100t-104 38q-65 0 -106 -38t-41 -100zM610 -268q71 0 113.5 39.5t42.5 109.5q0 67 -41.5 109.5t-114.5 42.5q-76 0 -117.5 -42t-41.5 -110q0 -70 42.5 -109.5
t116.5 -39.5z" />
    <glyph glyph-name="threeeighths" unicode="&#x215c;" 
d="M592 1006q70 0 108.5 40.5t38.5 116.5q0 69 -35.5 110.5t-89.5 41.5h-108v88h82q51 0 87 40t36 99q0 61 -35.5 98t-100.5 37q-52 0 -85.5 -31t-40.5 -90h-99q10 104 74 160t151 56q103 0 165.5 -64t62.5 -156q0 -127 -113 -182q150 -51 150 -227q0 -105 -66 -171.5
t-182 -66.5q-100 0 -169.5 56t-82.5 161h106q9 -57 46.5 -86.5t99.5 -29.5zM145 750h926v-99h-926v99zM705 80q74 -20 112.5 -76.5t38.5 -140.5q0 -108 -67.5 -170t-178.5 -62q-114 0 -182 62t-68 170q0 85 39 142t113 75q-133 50 -133 201q0 91 63 153t168 62
q103 0 166.5 -62.5t63.5 -152.5q0 -72 -34.5 -124t-100.5 -77zM463 272q0 -62 40.5 -101.5t106.5 -39.5q64 0 104 39.5t40 101.5t-40 100t-104 38q-65 0 -106 -38t-41 -100zM610 -268q71 0 113.5 39.5t42.5 109.5q0 67 -41.5 109.5t-114.5 42.5q-76 0 -117.5 -42t-41.5 -110
q0 -70 42.5 -109.5t116.5 -39.5z" />
    <glyph glyph-name="fiveeighths" unicode="&#x215d;" 
d="M608 1006q148 0 148 178q0 92 -39 137t-109 45q-48 0 -82.5 -27t-46.5 -71l-100 28l16 463h406v-100h-309l-11 -256q53 63 142 63q104 0 168.5 -74t64.5 -208q0 -131 -68 -205t-180 -74q-99 0 -165.5 54.5t-75.5 154.5h98q9 -49 45.5 -78.5t97.5 -29.5zM145 750h926v-99
h-926v99zM705 80q74 -20 112.5 -76.5t38.5 -140.5q0 -108 -67.5 -170t-178.5 -62q-114 0 -182 62t-68 170q0 85 39 142t113 75q-133 50 -133 201q0 91 63 153t168 62q103 0 166.5 -62.5t63.5 -152.5q0 -72 -34.5 -124t-100.5 -77zM463 272q0 -62 40.5 -101.5t106.5 -39.5
q64 0 104 39.5t40 101.5t-40 100t-104 38q-65 0 -106 -38t-41 -100zM610 -268q71 0 113.5 39.5t42.5 109.5q0 67 -41.5 109.5t-114.5 42.5q-76 0 -117.5 -42t-41.5 -110q0 -70 42.5 -109.5t116.5 -39.5z" />
    <glyph glyph-name="seveneighths" unicode="&#x215e;" 
d="M457 1657v-133h-101v233h496v-100l-285 -742h-108l289 742h-291zM145 750h926v-99h-926v99zM705 80q74 -20 112.5 -76.5t38.5 -140.5q0 -108 -67.5 -170t-178.5 -62q-114 0 -182 62t-68 170q0 85 39 142t113 75q-133 50 -133 201q0 91 63 153t168 62q103 0 166.5 -62.5
t63.5 -152.5q0 -72 -34.5 -124t-100.5 -77zM463 272q0 -62 40.5 -101.5t106.5 -39.5q64 0 104 39.5t40 101.5t-40 100t-104 38q-65 0 -106 -38t-41 -100zM610 -268q71 0 113.5 39.5t42.5 109.5q0 67 -41.5 109.5t-114.5 42.5q-76 0 -117.5 -42t-41.5 -110q0 -70 42.5 -109.5
t116.5 -39.5z" />
    <glyph glyph-name="arrowleft" unicode="&#x2190;" 
d="M1130 600v-84h-884l248 -248l-60 -59l-348 348l348 348l60 -59l-246 -246h882z" />
    <glyph glyph-name="arrowup" unicode="&#x2191;" 
d="M897 639l-246 244v-799h230v-84h-543v84h229v801l-245 -246l-60 57l346 348l348 -348z" />
    <glyph glyph-name="arrowright" unicode="&#x2192;" 
d="M782 905l348 -348l-348 -348l-57 59l246 248h-885v84h883l-244 246z" />
    <glyph glyph-name="arrowdown" unicode="&#x2193;" 
d="M897 408l59 -60l-348 -348l-346 348l60 60l245 -248v801h-229v83h543v-83h-230v-799z" />
    <glyph glyph-name="arrowboth" unicode="&#x2194;" 
d="M782 905l348 -348l-348 -348l-57 59l246 248h-725l248 -248l-60 -59l-348 348l348 348l60 -59l-246 -246h721l-244 246z" />
    <glyph glyph-name="arrowupdn" unicode="&#x2195;" 
d="M651 162l246 246l59 -60l-348 -348l-346 348l60 60l245 -248v725l-245 -246l-60 57l346 348l348 -348l-59 -57l-246 244v-721z" />
    <glyph glyph-name="uni2196" unicode="&#x2196;" 
d="M993 260l-59 -59l-625 624v-348h-84v492h492v-84h-348z" />
    <glyph glyph-name="uni2197" unicode="&#x2197;" 
d="M502 969h491v-492h-84v348l-624 -624l-60 59l625 625h-348v84z" />
    <glyph glyph-name="uni2198" unicode="&#x2198;" 
d="M909 563h84v-491h-491v84h348l-625 624l60 60l624 -625v348z" />
    <glyph glyph-name="uni2199" unicode="&#x2199;" 
d="M993 780l-624 -624h348v-84h-492v491h84v-348l625 625z" />
    <glyph glyph-name="partialdiff" unicode="&#x2202;" 
d="M360 1411q116 0 212 -23t178.5 -76t139 -134.5t88.5 -203t32 -276.5q0 -712 -443 -712q-179 0 -290 120t-111 338q0 222 109.5 341.5t281.5 119.5q238 0 317 -211v49q-2 122 -28 215t-70 153t-109 97t-139 52.5t-168 15.5v135zM567 121q258 0 291 325q0 160 -80.5 242
t-210.5 82q-126 0 -196 -81.5t-70 -244.5q0 -164 69.5 -243.5t196.5 -79.5z" />
    <glyph glyph-name="emptyset" unicode="&#x2205;" 
d="M1092 1063l-164 -164q69 -94 69 -237q0 -183 -109.5 -285.5t-279.5 -102.5q-142 0 -237 68l-164 -162l-82 82l162 162q-68 96 -68 238q0 182 109.5 285.5t279.5 103.5q138 0 236 -70l166 166zM328 662q0 -94 41 -156l395 395q-65 41 -156 41q-122 0 -201 -75.5
t-79 -204.5zM891 662q0 91 -43 159l-397 -399q68 -41 157 -41q124 0 203.5 75.5t79.5 205.5z" />
    <glyph glyph-name="uni2206" unicode="&#x2206;" 
d="M141 0v135l383 1266h168l383 -1266v-135h-934zM283 135h653l-328 1100z" />
    <glyph glyph-name="product" unicode="&#x220f;" 
d="M207 0v1401h803v-1401h-136v1266h-532v-1266h-135z" />
    <glyph glyph-name="summation" unicode="&#x2211;" 
d="M352 133h713v-133h-883v133l418 567l-399 570v131h846v-131h-687l408 -570z" />
    <glyph glyph-name="minus" unicode="&#x2212;" 
d="M195 524v135h829v-135h-829z" />
    <glyph glyph-name="radical" unicode="&#x221a;" 
d="M473 0l-166 571h-137v136h242l157 -543l400 1237h248v-135h-150l-408 -1266h-186z" />
    <glyph glyph-name="infinity" unicode="&#x221e;" 
d="M883 868q113 0 189.5 -82t76.5 -194q0 -113 -76 -195t-190 -82q-95 0 -155 41t-120 140q-59 -101 -118.5 -141t-155.5 -40q-113 0 -188.5 82t-75.5 195t75.5 194.5t188.5 81.5q96 0 156 -40.5t118 -139.5q63 102 121.5 141t153.5 39zM334 451q40 0 67 13.5t45 34t58 74.5
q9 12 14 19q-64 90 -95.5 115.5t-88.5 25.5q-59 0 -94 -42t-35 -99q0 -56 35 -98.5t94 -42.5zM883 451q60 0 94.5 42t34.5 99q0 58 -34.5 99.5t-94.5 41.5q-61 0 -91 -25t-94 -116q63 -89 95 -115t90 -26z" />
    <glyph glyph-name="integral" unicode="&#x222b;" 
d="M221 -356v135h164q65 0 110.5 45.5t45.5 109.5v1184q0 120 82 201.5t202 81.5h172v-135h-163q-65 0 -111.5 -46t-46.5 -110v-1184q0 -120 -82 -201t-201 -81h-172z" />
    <glyph glyph-name="approxequal" unicode="&#x2248;" 
d="M760 633q-98 0 -164 72q-28 34 -66 56.5t-73 22.5q-48 0 -81.5 -33.5t-33.5 -82.5v-23h-135v23q0 104 73 178t177 74q97 0 166 -72q26 -34 64 -57t73 -23q47 0 82 34.5t35 80.5v24h135v-24q0 -104 -74 -177t-178 -73zM760 266q-95 0 -164 72q-28 33 -66 55.5t-73 22.5
q-48 0 -81.5 -33t-33.5 -82v-25h-135v25q0 104 73 177t177 73q97 0 166 -72q26 -33 64 -55.5t73 -22.5q47 0 82 34.5t35 80.5v25h135v-25q0 -104 -74 -177t-178 -73z" />
    <glyph glyph-name="notequal" unicode="&#x2260;" 
d="M1022 702h-270l-131 -223h401v-135h-479l-97 -166h-155l96 166h-192v135h270l131 223h-401v136h479l96 166h156l-97 -166h193v-136z" />
    <glyph glyph-name="lessequal" unicode="&#x2264;" 
d="M989 496l-764 143v190l764 144l4 -125l-653 -115l653 -115zM225 231v125h766v-125h-766z" />
    <glyph glyph-name="greaterequal" unicode="&#x2265;" 
d="M227 496l-2 122l652 115l-652 115l2 125l764 -144v-190zM225 231v125h766v-125h-766z" />
    <glyph glyph-name="uni24EA" unicode="&#x24ea;" horiz-adv-x="1228" 
d="M608 1065q147 0 272 -73t198 -198t73 -272t-72.5 -271.5t-197.5 -196.5t-273 -72q-145 0 -269.5 72t-197.5 196.5t-73 271.5t73 272t197.5 198t269.5 73zM608 39q133 0 245 64.5t176.5 175t64.5 241.5q0 202 -142.5 345t-343.5 143q-131 0 -242 -65t-176 -177.5
t-65 -245.5q0 -131 65 -241.5t176 -175t242 -64.5zM610 827q85 0 130.5 -68.5t45.5 -234.5t-45.5 -234.5t-130.5 -68.5q-87 0 -132.5 68.5t-45.5 234.5t45.5 234.5t132.5 68.5zM610 758q-56 0 -82 -50.5t-26 -183.5q0 -43 2 -61l201 203q-21 92 -95 92zM610 289
q54 0 80.5 51t26.5 184q0 42 -2 60l-201 -199q11 -53 35 -74.5t61 -21.5z" />
    <glyph glyph-name="uni24FF" unicode="&#x24ff;" horiz-adv-x="1228" 
d="M608 -18q-110 0 -210 42.5t-173 114.5t-116 172t-43 211q0 148 73 273.5t198 198.5t271 73q148 0 273 -73t197.5 -198.5t72.5 -273.5t-72.5 -272.5t-197.5 -196t-273 -71.5zM608 827q-87 0 -131.5 -68t-44.5 -235q0 -164 45.5 -232.5t130.5 -68.5q87 0 132.5 68t45.5 233
q0 166 -45.5 234.5t-132.5 68.5zM608 758q76 0 97 -94l-201 -197q-23 291 104 291zM608 291q-37 0 -61 21t-35 71l201 201q23 -293 -105 -293z" />
    <glyph glyph-name="filledbox" unicode="&#x25a0;" horiz-adv-x="1228" 
d="M207 0v1401h803v-1401h-803z" />
    <glyph glyph-name="uni25A1" unicode="&#x25a1;" horiz-adv-x="1228" 
d="M207 0v1401h803v-1401h-803zM342 135h532v1131h-532v-1131z" />
    <glyph glyph-name="uni25AF" unicode="&#x25af;" horiz-adv-x="1228" 
d="M207 0v1401h803v-1401h-803zM342 135h532v1131h-532v-1131z" />
    <glyph glyph-name="triagup" unicode="&#x25b2;" horiz-adv-x="1228" 
d="M92 0l516 1401l516 -1401h-1032z" />
    <glyph glyph-name="uni25B3" unicode="&#x25b3;" horiz-adv-x="1228" 
d="M63 0l545 1401l545 -1401h-1090zM258 135h703l-353 920z" />
    <glyph glyph-name="uni25B6" unicode="&#x25b6;" horiz-adv-x="1228" 
d="M178 0v1044l901 -522z" />
    <glyph glyph-name="uni25B7" unicode="&#x25b7;" horiz-adv-x="1228" 
d="M178 0v1044l901 -522zM307 209l539 313l-539 314v-627z" />
    <glyph glyph-name="uni25C0" unicode="&#x25c0;" horiz-adv-x="1228" 
d="M1079 0l-901 522l901 522v-1044z" />
    <glyph glyph-name="uni25C1" unicode="&#x25c1;" horiz-adv-x="1228" 
d="M1079 0l-901 522l901 522v-1044zM950 209v627l-538 -314z" />
    <glyph glyph-name="lozenge" unicode="&#x25ca;" 
d="M537 0l-381 700l381 701h143l381 -701l-381 -700h-143zM608 152l299 548l-299 551l-299 -551z" />
    <glyph glyph-name="circle" unicode="&#x25cb;" 
d="M608 -18q-145 0 -269.5 72t-197.5 196.5t-73 271.5t73 272t197.5 198t269.5 73q147 0 272 -73t198 -198t73 -272t-72.5 -271.5t-197.5 -196.5t-273 -72zM608 39q133 0 245 64.5t176.5 175t64.5 241.5q0 202 -142.5 345t-343.5 143q-131 0 -242 -65t-176 -177.5
t-65 -245.5q0 -131 65 -241.5t176 -175t242 -64.5z" />
    <glyph glyph-name="uni25CF" unicode="&#x25cf;" horiz-adv-x="1222" 
d="M608 -18q148 0 273 71.5t197.5 196t72.5 272.5t-72.5 273.5t-197.5 198.5t-273 73q-146 0 -271 -73t-198 -198.5t-73 -273.5q0 -111 43 -211t116 -172t173 -114.5t210 -42.5z" />
    <glyph glyph-name="uni25D0" unicode="&#x25d0;" horiz-adv-x="1228" 
d="M614 -6q-146 0 -269.5 72t-195 196t-71.5 270t71.5 269.5t195 195.5t269.5 72t269.5 -72t195.5 -195.5t72 -269.5t-72 -270t-195.5 -196t-269.5 -72zM614 80q189 0 321 131.5t132 320.5q0 188 -132 319.5t-321 131.5v-903z" />
    <glyph glyph-name="uni25D1" unicode="&#x25d1;" horiz-adv-x="1228" 
d="M614 -6q-146 0 -269.5 72t-195 196t-71.5 270t71.5 269.5t195 195.5t269.5 72t269.5 -72t195.5 -195.5t72 -269.5t-72 -270t-195.5 -196t-269.5 -72zM614 80v903q-187 0 -318.5 -131.5t-131.5 -319.5q0 -189 131 -320.5t319 -131.5z" />
    <glyph glyph-name="uni25D2" unicode="&#x25d2;" horiz-adv-x="1228" 
d="M614 -6q-146 0 -269.5 72t-195 196t-71.5 270t71.5 269.5t195 195.5t269.5 72t269.5 -72t195.5 -195.5t72 -269.5t-72 -270t-195.5 -196t-269.5 -72zM164 532h903q0 188 -132 319.5t-321 131.5q-187 0 -318.5 -131.5t-131.5 -319.5z" />
    <glyph glyph-name="uni25D3" unicode="&#x25d3;" horiz-adv-x="1228" 
d="M614 -6q-146 0 -269.5 72t-195 196t-71.5 270t71.5 269.5t195 195.5t269.5 72t269.5 -72t195.5 -195.5t72 -269.5t-72 -270t-195.5 -196t-269.5 -72zM614 80q189 0 321 131.5t132 320.5h-903q0 -189 131 -320.5t319 -131.5z" />
    <glyph glyph-name="uni25FD" unicode="&#x25fd;" horiz-adv-x="1228" 
d="M207 0v1044h803v-1044h-803zM342 135h532v774h-532v-774z" />
    <glyph glyph-name="uni25FE" unicode="&#x25fe;" horiz-adv-x="1228" 
d="M207 0v1044h803v-1044h-803z" />
    <glyph glyph-name="uni261D" unicode="&#x261d;" 
d="M633 0q-78 0 -140.5 19t-86 35t-23.5 20v213q0 5 18 12q-35 73 -61.5 174t-26.5 195q0 28 3 66t8.5 79t12.5 87t14.5 90t16 89t16.5 84t15 74t12.5 59t8.5 40l4 16q3 18 16 27.5t29 9.5q21 0 36.5 -13.5t14.5 -40.5q-1 -25 -4 -72.5t-4 -70.5q-3 -106 2 -191q14 9 29 7
q31 39 71 39t67.5 -22.5t33.5 -61.5q18 6 35 6q81 0 81 -109v-26q72 -6 72 -84q0 -53 -12 -101q-10 -56 -9.5 -76.5t6 -67t5.5 -83.5q0 -63 -27 -123q15 -6 15 -12v-213q0 -2 -8 -9.5t-28 -18.5t-47 -21t-70.5 -17.5t-94.5 -7.5zM633 215q74 0 168 23q38 38 55.5 78
t17.5 100q0 135 -43 135q-15 0 -35 -7t-34 -7q-19 0 -33.5 10t-22 21.5t-18 21.5t-22.5 10q-15 0 -26 -9.5t-11 -25.5q0 -15 13.5 -35.5t26.5 -49t13 -62.5q0 -46 -20.5 -81.5t-69.5 -70.5q47 65 47 140q0 44 -28.5 90.5t-73.5 46.5q-19 0 -57 -18.5t-64 -18.5q-21 0 -37 8
q44 -4 84.5 28t40.5 105q0 39 -12 65t-24 44t-13 37q7 -17 16.5 -24.5t18.5 -5.5t16.5 7t11.5 12q60 96 60 150q0 22 -13.5 39.5t-27.5 17.5q-22 0 -33 -18l-72 -113q-20 -33 -41 -105t-20 -155q-12 52 3 141t44 131l78 117l-2 17q-3 17 -8 21.5t-15 4.5q-15 0 -28.5 5
t-20.5 11l-6 5q10 -2 26 -2q32 0 41 12.5t9 34.5v80q0 8 -9 8q-35 0 -51 20q34 -10 47 0.5t15 36.5l6 78q4 51 -27 51q-19 0 -25.5 -9t-11.5 -36l-4 -15q-3 -16 -8 -39t-12 -56.5t-14.5 -70.5t-15.5 -80t-15.5 -85.5t-14 -86.5t-11.5 -83.5t-8 -76t-3 -64.5q0 -219 116 -418
q72 -35 187 -35zM561 680q36 0 83 63t52 109q4 46 4 66q0 112 -84 112q-34 0 -59 -29q39 -19 39 -67q0 -50 -57 -154q-2 -3 -7.5 -12.5t-8 -14t-5 -13.5t-2.5 -19q0 -21 14.5 -31t30.5 -10zM735 678q12 19 24 40t21 39t16 32.5t12 25.5t5 12q11 125 -63 125q-17 0 -33 -8
q2 -27 -2 -96q-1 -33 -29.5 -79.5t-58.5 -76.5q-13 -14 -12 -34t14 -31q45 -40 106 51zM762 551q47 0 72 45q8 11 40 76q13 32 13 78q0 62 -60 67q-2 -5 -10.5 -24t-11 -24.5l-10 -22t-11.5 -23t-11 -20.5t-12.5 -21.5t-13.5 -18.5t-15.5 -20t-16.5 -18q-18 -19 -0.5 -46.5
t47.5 -27.5zM799 125q12 0 21 9.5t9 21.5t-9 21t-21 9t-21.5 -9t-9.5 -21t9.5 -21.5t21.5 -9.5z" />
    <glyph glyph-name="uni262E" unicode="&#x262e;" horiz-adv-x="1228" 
d="M608 1065q147 0 272 -73t198 -198t73 -272t-72.5 -271.5t-197.5 -196.5t-273 -72q-145 0 -269.5 72t-197.5 196.5t-73 271.5t73 272t197.5 198t269.5 73zM1094 520q0 194 -131 334t-322 152v-418l356 -357q97 127 97 289zM575 1006q-190 -12 -320 -152t-130 -334
q0 -161 96 -287l354 355v418zM264 182q129 -132 311 -141v453zM641 41q180 9 313 139l-313 314v-453z" />
    <glyph glyph-name="uni2638" unicode="&#x2638;" 
d="M1130 502h-73q-9 -160 -117 -281l53 -53l-28 -29l-54 54q-121 -108 -280 -117v-76h-43v76q-160 9 -281 117l-53 -54l-29 29l54 53q-108 121 -117 281h-76v41h76q9 162 117 280l-54 56l29 28l55 -53q117 108 279 117v73h43v-73q161 -9 278 -117l56 53l28 -28l-53 -56
q108 -118 117 -280h73v-41zM588 922q-141 -9 -246 -103l152 -149q46 34 94 37v215zM877 819q-105 94 -246 103v-215q56 -6 94 -39zM311 791q-93 -104 -102 -248h217q3 46 37 96zM1010 543q-9 144 -105 248l-151 -152q36 -46 39 -96h217zM608 383q59 0 100.5 40.5t41.5 98.5
t-41.5 99t-100.5 41q-57 0 -98 -41t-41 -99q0 -57 41 -98t98 -41zM209 502q9 -144 102 -248l154 154q-36 42 -39 94h-217zM907 254q94 108 103 248h-217q-3 -52 -39 -94zM631 123q142 9 246 102l-154 152q-39 -31 -92 -37v-217zM342 225q104 -93 246 -102v217q-49 3 -92 37z
" />
    <glyph glyph-name="uni26AA" unicode="&#x26aa;" horiz-adv-x="1228" 
d="M608 -18q-145 0 -269.5 72t-197.5 196.5t-73 271.5t73 272t197.5 198t269.5 73q147 0 272 -73t198 -198t73 -272t-72.5 -271.5t-197.5 -196.5t-273 -72zM608 133q164 0 277.5 113t113.5 276t-114 278t-277 115q-161 0 -276 -115t-115 -278q0 -162 114.5 -275.5
t276.5 -113.5z" />
    <glyph glyph-name="uni26AB" unicode="&#x26ab;" horiz-adv-x="1228" 
d="M608 -18q148 0 273 71.5t197.5 196t72.5 272.5t-72.5 273.5t-197.5 198.5t-273 73q-146 0 -271 -73t-198 -198.5t-73 -273.5q0 -111 43 -211t116 -172t173 -114.5t210 -42.5z" />
    <glyph glyph-name="uni2709" unicode="&#x2709;" horiz-adv-x="1228" 
d="M1079 1401v-1401h-942v1401h942zM944 1198l94 100v58l-108 -117h-643l-109 117v-58l94 -100h316v-1157h41v1157h315zM516 70v125h-309v-125h309z" />
    <glyph glyph-name="uni2713" unicode="&#x2713;" horiz-adv-x="1228" 
d="M608 -18q-110 0 -210.5 42.5t-173 114.5t-115.5 172t-43 211q0 148 72.5 273.5t197.5 198.5t272 73t272 -73t198 -198.5t73 -273.5t-73 -272.5t-198 -196t-272 -71.5zM608 416l176 174l-47 45l-129 -127l-127 127l-47 -45z" />
    <glyph glyph-name="uni2715" unicode="&#x2715;" horiz-adv-x="1228" 
d="M608 -18q148 0 273 71.5t197.5 196t72.5 272.5t-72.5 273.5t-197.5 198.5t-273 73q-146 0 -271 -73t-198 -198.5t-73 -273.5q0 -111 43 -211t116 -172t173 -114.5t210 -42.5zM754 625l-99 -99l99 -98l-47 -47l-99 98l-98 -98l-47 47l100 98l-100 99l47 45l98 -99l99 99z
" />
    <glyph glyph-name="uni2728" unicode="&#x2728;" 
d="M289 866q-19 122 -48.5 167.5t-107.5 66.5q78 23 107.5 68.5t48.5 164.5q18 -120 46.5 -165t108.5 -68q-80 -21 -108.5 -66t-46.5 -168zM694 178q-11 100 -23 167t-32 123.5t-44.5 91t-64 63t-87 45t-117.5 30.5q84 18 138 41t94.5 58t65 94t40.5 133.5t30 192.5
q12 -98 25 -164.5t33.5 -123t45.5 -91t65 -63t88.5 -45.5t119.5 -32q-71 -14 -119.5 -30.5t-88.5 -45t-65 -63t-45.5 -91t-33.5 -123.5t-25 -167zM373 78q-17 121 -47 166t-107 67q77 21 106.5 68t47.5 166q18 -121 47 -167t108 -67q-80 -21 -108.5 -65.5t-46.5 -167.5z" />
    <glyph glyph-name="uni2733" unicode="&#x2733;" 
d="M1130 588v-107l-499 43l385 -321l-76 -76l-322 385l46 -500h-109l45 500l-324 -385l-73 76l385 321l-502 -43v107l502 -45l-385 321l73 78l324 -387l-45 502h109l-46 -502l322 387l76 -78l-385 -321z" />
    <glyph glyph-name="uni2734" unicode="&#x2734;" horiz-adv-x="1222" 
d="M1145 735v-37l-451 -16l307 -330l-26 -26l-328 307l-16 -449h-37l-16 449l-330 -307l-25 26l307 330l-452 16v37l450 17l-307 329l27 25l330 -307l16 452h37l16 -452l330 307l27 -25l-308 -329z" />
    <glyph glyph-name="uni2764" unicode="&#x2764;" 
d="M809 1018q78 0 138.5 -60t60.5 -139q0 -78 -27 -133.5t-73.5 -92t-96 -65.5t-107.5 -73t-96 -97q-38 54 -96 98.5t-107.5 74t-95.5 65t-73 91t-27 132.5q0 78 60 138.5t139 60.5q67 0 108 -24t92 -89q54 66 94.5 89.5t106.5 23.5z" />
    <glyph glyph-name="uni2780" unicode="&#x2780;" 
d="M608 1065q147 0 272 -73t198 -198t73 -272t-72.5 -271.5t-197.5 -196.5t-273 -72q-145 0 -269.5 72t-197.5 196.5t-73 271.5t73 272t197.5 198t269.5 73zM608 39q133 0 245 64.5t176.5 175t64.5 241.5q0 202 -142.5 345t-343.5 143q-131 0 -242 -65t-176 -177.5
t-65 -245.5q0 -131 65 -241.5t176 -175t242 -64.5zM649 819v-520h131v-70h-344v70h144v354h-144v66h144v100h69z" />
    <glyph glyph-name="uni2781" unicode="&#x2781;" horiz-adv-x="1222" 
d="M608 1065q147 0 272 -73t198 -198t73 -272t-72.5 -271.5t-197.5 -196.5t-273 -72q-145 0 -269.5 72t-197.5 196.5t-73 271.5t73 272t197.5 198t269.5 73zM608 39q133 0 245 64.5t176.5 175t64.5 241.5q0 202 -142.5 345t-343.5 143q-131 0 -242 -65t-176 -177.5
t-65 -245.5q0 -131 65 -241.5t176 -175t242 -64.5zM614 463q-63 -36 -82.5 -65.5t-19.5 -82.5v-20h274v-70h-344v74q0 87 30 134t114 91q75 41 103 68.5t28 75.5q0 36 -29.5 61t-75.5 25q-45 0 -70 -24t-32 -79h-76q19 172 178 172q77 0 125.5 -43t48.5 -112
q0 -73 -34 -111.5t-138 -93.5z" />
    <glyph glyph-name="uni2782" unicode="&#x2782;" horiz-adv-x="1228" 
d="M608 1065q147 0 272 -73t198 -198t73 -272t-72.5 -271.5t-197.5 -196.5t-273 -72q-145 0 -269.5 72t-197.5 196.5t-73 271.5t73 272t197.5 198t269.5 73zM608 39q133 0 245 64.5t176.5 175t64.5 241.5q0 202 -142.5 345t-343.5 143q-131 0 -242 -65t-176 -177.5
t-65 -245.5q0 -131 65 -241.5t176 -175t242 -64.5zM680 547q104 -37 104 -160q0 -74 -46.5 -120t-127.5 -46q-69 0 -117.5 39t-58.5 113h76q12 -82 100 -82q50 0 77.5 28.5t27.5 81.5q0 48 -25 77.5t-63 29.5h-76v61h57q36 0 61 28.5t25 70.5t-24 68t-70 26q-36 0 -60 -22
t-30 -64h-68q7 73 52 112t106 39q72 0 115 -44t43 -109q0 -89 -78 -127z" />
    <glyph glyph-name="uni2783" unicode="&#x2783;" horiz-adv-x="1228" 
d="M608 1065q147 0 272 -73t198 -198t73 -272t-72.5 -271.5t-197.5 -196.5t-273 -72q-145 0 -269.5 72t-197.5 196.5t-73 271.5t73 272t197.5 198t269.5 73zM608 39q133 0 245 64.5t176.5 175t64.5 241.5q0 202 -142.5 345t-343.5 143q-131 0 -242 -65t-176 -177.5
t-65 -245.5q0 -131 65 -241.5t176 -175t242 -64.5zM702 584v-140h66v-69h-66v-146h-69v146h-238v69l183 375h75l-182 -375h162v140h69z" />
    <glyph glyph-name="uni2784" unicode="&#x2784;" horiz-adv-x="1228" 
d="M608 1065q147 0 272 -73t198 -198t73 -272t-72.5 -271.5t-197.5 -196.5t-273 -72q-145 0 -269.5 72t-197.5 196.5t-73 271.5t73 272t197.5 198t269.5 73zM608 39q133 0 245 64.5t176.5 175t64.5 241.5q0 202 -142.5 345t-343.5 143q-131 0 -242 -65t-176 -177.5
t-65 -245.5q0 -131 65 -241.5t176 -175t242 -64.5zM618 618q73 0 118.5 -52t45.5 -146q0 -92 -48 -143.5t-126 -51.5q-69 0 -116 38t-54 108h70q6 -34 32 -55t68 -21q49 0 76 31t27 94q0 127 -103 127q-33 0 -57.5 -19t-32.5 -49l-69 21l10 323h284v-71h-217l-6 -179
q36 45 98 45z" />
    <glyph glyph-name="uni2785" unicode="&#x2785;" horiz-adv-x="1228" 
d="M608 1065q147 0 272 -73t198 -198t73 -272t-72.5 -271.5t-197.5 -196.5t-273 -72q-145 0 -269.5 72t-197.5 196.5t-73 271.5t73 272t197.5 198t269.5 73zM608 39q133 0 245 64.5t176.5 175t64.5 241.5q0 202 -142.5 345t-343.5 143q-131 0 -242 -65t-176 -177.5
t-65 -245.5q0 -131 65 -241.5t176 -175t242 -64.5zM618 614q77 0 125 -52t48 -144t-48 -144.5t-125 -52.5h-2q-71 0 -114 43q-22 19 -37 49q-39 77 -39 230q0 150 51 217t135 67q69 0 113 -38t51 -107h-69q-14 76 -95 76q-118 0 -123 -199q46 55 129 55zM618 291
q101 0 101 127q0 125 -101 125q-49 0 -76.5 -31t-27.5 -94q0 -64 27.5 -95.5t76.5 -31.5z" />
    <glyph glyph-name="uni2786" unicode="&#x2786;" horiz-adv-x="1228" 
d="M608 -18q-145 0 -269.5 72t-197.5 196.5t-73 271.5t73 272t197.5 198t269.5 73q147 0 272 -73t198 -198t73 -272t-72.5 -271.5t-197.5 -196.5t-273 -72zM608 39q133 0 245 64.5t176.5 175t64.5 241.5q0 202 -142.5 345t-343.5 143q-131 0 -242 -65t-176 -177.5
t-65 -245.5q0 -131 65 -241.5t176 -175t242 -64.5zM508 229l203 519h-205v-93h-70v164h346v-71l-198 -519h-76z" />
    <glyph glyph-name="uni2787" unicode="&#x2787;" horiz-adv-x="1228" 
d="M608 1065q147 0 272 -73t198 -198t73 -272t-72.5 -271.5t-197.5 -196.5t-273 -72q-145 0 -269.5 72t-197.5 196.5t-73 271.5t73 272t197.5 198t269.5 73zM608 39q133 0 245 64.5t176.5 175t64.5 241.5q0 202 -142.5 345t-343.5 143q-131 0 -242 -65t-176 -177.5
t-65 -245.5q0 -131 65 -241.5t176 -175t242 -64.5zM676 539q52 -15 79 -55t27 -99q0 -75 -47 -118.5t-125 -43.5q-79 0 -127.5 43.5t-48.5 118.5q0 58 27 98.5t78 55.5q-90 35 -90 139q0 64 43.5 106.5t117.5 42.5q72 0 116 -43t44 -106q0 -104 -94 -139zM506 672
q0 -43 29 -71t75 -28q44 0 72.5 28t28.5 71t-28.5 69.5t-72.5 26.5q-46 0 -75 -26t-29 -70zM610 293q50 0 79.5 27.5t29.5 76.5q0 47 -29 77t-80 30q-54 0 -83 -29.5t-29 -77.5q0 -49 29.5 -76.5t82.5 -27.5z" />
    <glyph glyph-name="uni2788" unicode="&#x2788;" horiz-adv-x="1228" 
d="M608 1065q147 0 272 -73t198 -198t73 -272t-72.5 -271.5t-197.5 -196.5t-273 -72q-145 0 -269.5 72t-197.5 196.5t-73 271.5t73 272t197.5 198t269.5 73zM608 39q133 0 245 64.5t176.5 175t64.5 241.5q0 202 -142.5 345t-343.5 143q-131 0 -242 -65t-176 -177.5
t-65 -245.5q0 -131 65 -241.5t176 -175t242 -64.5zM721 778q17 -17 29 -41q41 -75 41 -233q0 -150 -51.5 -216.5t-135.5 -66.5q-69 0 -113 37.5t-51 108.5h72q5 -34 28 -55t64 -21q118 0 123 196q-47 -53 -127 -53q-78 0 -126 52.5t-48 144.5t48 143t126 51h2q75 0 119 -47z
M600 504q102 0 102 127q0 125 -102 125t-102 -125q0 -63 27 -95t75 -32z" />
    <glyph glyph-name="uni278A" unicode="&#x278a;" 
d="M608 -18q148 0 273 71.5t197.5 196t72.5 272.5t-72.5 273.5t-197.5 198.5t-273 73q-146 0 -271 -73t-198 -198.5t-73 -273.5q0 -111 43 -211t116 -172t173 -114.5t210 -42.5zM649 299h131v-70h-344v70h144v354h-144v64h144v102h69v-520z" />
    <glyph glyph-name="uni278B" unicode="&#x278b;" horiz-adv-x="1228" 
d="M608 -18q148 0 273 71.5t197.5 196t72.5 272.5t-72.5 273.5t-197.5 198.5t-273 73q-146 0 -271 -73t-198 -198.5t-73 -273.5q0 -111 43 -211t116 -172t173 -114.5t210 -42.5zM510 317v-20h276v-72h-346v74q0 86 30.5 133.5t113.5 93.5q77 40 105 66.5t28 75.5
q0 36 -29.5 61t-75.5 25q-47 0 -72 -23.5t-32 -79.5h-74q10 89 57 130.5t121 41.5q77 0 125.5 -43t48.5 -112q0 -71 -35 -112t-137 -95q-63 -32 -82.5 -61t-21.5 -83z" />
    <glyph glyph-name="uni278C" unicode="&#x278c;" horiz-adv-x="1228" 
d="M608 -18q148 0 273 71.5t197.5 196t72.5 272.5t-72.5 273.5t-197.5 198.5t-273 73q-146 0 -271 -73t-198 -198.5t-73 -273.5q0 -111 43 -211t116 -172t173 -114.5t210 -42.5zM678 547q106 -32 106 -158q0 -74 -46.5 -120t-127.5 -46q-70 0 -118.5 39.5t-55.5 112.5h74
q12 -82 100 -82q105 0 105 110q0 48 -25 76.5t-63 28.5h-76v63h57q36 0 61 28t25 69q0 43 -24 68.5t-70 25.5q-36 0 -60 -22t-30 -62h-68q6 72 51 110.5t107 38.5q72 0 115 -44t43 -109q0 -90 -80 -127z" />
    <glyph glyph-name="uni278D" unicode="&#x278d;" horiz-adv-x="1228" 
d="M608 -18q148 0 273 71.5t197.5 196t72.5 272.5t-72.5 273.5t-197.5 198.5t-273 73q-146 0 -271 -73t-198 -198.5t-73 -273.5q0 -111 43 -211t116 -172t173 -114.5t210 -42.5zM774 444v-67h-63v-148h-72v148h-238v67l183 375h78l-183 -375h160v140h72v-140h63z" />
    <glyph glyph-name="uni278E" unicode="&#x278e;" horiz-adv-x="1228" 
d="M608 -18q148 0 273 71.5t197.5 196t72.5 272.5t-72.5 273.5t-197.5 198.5t-273 73q-146 0 -271 -73t-198 -198.5t-73 -273.5q0 -111 43 -211t116 -172t173 -114.5t210 -42.5zM616 618q73 0 118.5 -52t45.5 -146q0 -91 -47 -143t-125 -52q-70 0 -117 38.5t-53 109.5h70
q6 -35 31.5 -56.5t68.5 -21.5q49 0 76 31t27 94q0 65 -27.5 97t-75.5 32q-34 0 -58.5 -19.5t-33.5 -50.5l-70 21l13 323h282v-69h-215l-8 -189q31 53 98 53z" />
    <glyph glyph-name="uni278F" unicode="&#x278f;" horiz-adv-x="1228" 
d="M608 -18q-110 0 -210 42.5t-173 114.5t-116 172t-43 211q0 148 73 273.5t198 198.5t271 73q148 0 273 -73t197.5 -198.5t72.5 -273.5t-72.5 -272.5t-197.5 -196t-273 -71.5zM616 223q78 0 126.5 51.5t48.5 143.5t-48.5 143t-126.5 51q-92 0 -122 -80q0 226 118 226
q81 0 95 -76h69q-7 69 -51 107t-113 38q-84 0 -135 -67t-51 -217q0 -156 43.5 -238t146.5 -82zM616 293q-102 0 -102 125q0 62 27.5 93.5t74.5 31.5q103 0 103 -125t-103 -125z" />
    <glyph glyph-name="uni2790" unicode="&#x2790;" horiz-adv-x="1228" 
d="M608 -18q148 0 273 71.5t197.5 196t72.5 272.5t-72.5 273.5t-197.5 198.5t-273 73q-146 0 -271 -73t-198 -198.5t-73 -273.5q0 -111 43 -211t116 -172t173 -114.5t210 -42.5zM506 229l203 519h-203v-93h-72v164h348v-71l-200 -519h-76z" />
    <glyph glyph-name="uni2791" unicode="&#x2791;" horiz-adv-x="1228" 
d="M608 -18q-110 0 -210 42.5t-173 114.5t-116 172t-43 211q0 148 73 273.5t198 198.5t271 73q148 0 273 -73t197.5 -198.5t72.5 -273.5t-72.5 -272.5t-197.5 -196t-273 -71.5zM610 223q78 0 124 43.5t46 120.5q0 124 -104 150q94 35 94 141q0 62 -44.5 105.5t-115.5 43.5
q-74 0 -119 -43.5t-45 -105.5q0 -105 95 -141q-105 -26 -105 -150q0 -77 47 -120.5t127 -43.5zM610 571q-46 0 -75 28.5t-29 72.5t28.5 69t75.5 25q44 0 72.5 -25.5t28.5 -68.5t-28.5 -72t-72.5 -29zM610 293q-53 0 -82.5 27.5t-29.5 78.5q0 47 29 76t83 29q51 0 80 -29.5
t29 -75.5q0 -50 -29.5 -78t-79.5 -28z" />
    <glyph glyph-name="uni2792" unicode="&#x2792;" horiz-adv-x="1228" 
d="M608 -18q-110 0 -210 42.5t-173 114.5t-116 172t-43 211q0 148 73 273.5t198 198.5t271 73q148 0 273 -73t197.5 -198.5t72.5 -273.5t-72.5 -272.5t-197.5 -196t-273 -71.5zM604 223q84 0 135.5 66.5t51.5 216.5q0 156 -43.5 238.5t-147.5 82.5q-78 0 -126 -51.5
t-48 -142.5q0 -92 48 -144.5t126 -52.5q43 0 75.5 21t47.5 59q0 -223 -119 -223q-80 0 -94 76h-70q7 -71 51 -108.5t113 -37.5zM600 506q-102 0 -102 127q0 125 102 125t102 -125q0 -64 -27 -95.5t-75 -31.5z" />
    <glyph glyph-name="uniF31E" unicode="&#xf31e;" 
d="M592 1044h35v-307h-35v307zM551 731l-31 -12l-104 287l30 12zM772 1018l33 -12l-107 -287l-30 12zM481 698l-24 -20l-197 233l29 21zM932 932l26 -21l-198 -235l-25 22zM432 645l-20 -29l-265 152l19 31zM1053 797l16 -31l-264 -150l-19 29zM610 358q-69 0 -117.5 47.5
t-48.5 116.5q0 68 48.5 116t117.5 48q67 0 114.5 -48t47.5 -116q0 -69 -47 -116.5t-115 -47.5zM399 578l-6 -35l-301 53l6 33zM1120 629l6 -33l-301 -53l-6 32zM393 502l4 -33l-299 -53l-6 33zM1126 449l-6 -35l-301 53l6 33zM412 428l18 -29l-264 -153l-19 30zM1069 274
l-16 -28l-267 153l19 27zM457 367l24 -21l-194 -235l-27 22zM958 133l-26 -22l-197 235l25 21zM520 324l31 -13l-105 -286l-32 12zM803 37l-33 -12l-102 286l30 13zM592 305h35v-305h-35v305z" />
    <glyph glyph-name="uniF3AF" unicode="&#xf3af;" horiz-adv-x="1222" 
d="M606 -10q-144 0 -265.5 70t-193 192t-71.5 268q0 148 72 271.5t193.5 193.5t264.5 70q109 0 208 -42t170.5 -113.5t114 -171t42.5 -208.5q0 -146 -72.5 -268t-195.5 -192t-267 -70zM606 96q180 0 304 124.5t124 299.5q0 178 -124 303t-304 125q-179 0 -301.5 -125
t-122.5 -303q0 -173 124 -298.5t300 -125.5zM606 229q-124 0 -207.5 86.5t-83.5 204.5q0 125 84 210t207 85q129 0 213 -86t84 -209q0 -120 -86.5 -205.5t-210.5 -85.5zM606 303q96 0 159.5 63.5t63.5 153.5q0 91 -63 157t-160 66q-92 0 -155.5 -66t-63.5 -157
q0 -89 62.5 -153t156.5 -64zM606 442q-32 0 -56 24t-24 56t24 56t56 24q35 0 58.5 -23.5t23.5 -56.5t-23.5 -56.5t-58.5 -23.5zM606 483q17 0 29 12t12 27q0 17 -12 28t-29 11q-16 0 -27.5 -11t-11.5 -28q0 -15 12 -27t27 -12z" />
    <glyph glyph-name="uniF48A" unicode="&#xf48a;" horiz-adv-x="1228" 
d="M614 -10q-141 0 -235 95.5t-94 236.5v759q0 141 94 235.5t235 94.5t236.5 -94.5t95.5 -235.5v-759q0 -141 -95.5 -236.5t-236.5 -95.5zM352 700h527v381q0 112 -76 187t-189 75q-112 0 -187 -74.5t-75 -187.5v-381z" />
    <glyph glyph-name="uniF4A3" unicode="&#xf4a3;" horiz-adv-x="1222" 
d="M623 1266v-78h-31v78h31zM575 1182l-22 -23l-55 55l20 23zM719 1214l-55 -55l-23 23l55 55zM608 1094q-14 0 -23.5 9.5t-9.5 22.5q0 12 10 22.5t23 10.5t22 -10t9 -23q0 -14 -9 -23t-22 -9zM547 1141v-31h-80v31h80zM670 1110v31h78v-31h-78zM498 1038l55 56l22 -23
l-57 -55zM719 1038l-23 -22l-55 55l23 23zM698 883q115 -31 190 -127t75 -217q0 -145 -105.5 -250t-251.5 -105q-145 0 -249.5 105t-104.5 250q0 120 74 216.5t188 127.5v65h78v117h31v-117h75v-65zM821 664l35 22q-39 64 -104 105l-21 -35q56 -35 90 -92z" />
    <glyph glyph-name="uniF8FF" unicode="&#xf8ff;" 
d="M905 512q-119 0 -178 -47.5t-59 -122.5q0 -81 38 -119.5t99 -38.5q70 0 111.5 38.5t41.5 101.5h209q0 -150 -97.5 -242t-250.5 -92q-143 0 -237.5 79t-94.5 203q0 88 45 148.5t123 93.5h-163v-2h-23q-120 0 -179 -47.5t-59 -122.5q0 -145 189 -145l4 -195
q-186 0 -280.5 74t-94.5 196q0 87 44.5 147.5t121.5 92.5h-166v125h121q63 0 111.5 35.5t74.5 91.5t39 114t13 113h210q0 -62 -24.5 -127t-84.5 -129.5t-147 -97.5h144q52 0 94 24t68 61.5t44 86t25.5 94t7.5 88.5h211q0 -45 -14.5 -94.5t-44 -99t-81 -92.5t-118.5 -68h469
v-121h-241v-4h-21zM1038 694q-40 0 -69 30t-29 73q0 41 29 70.5t69 29.5q43 0 73 -29.5t30 -70.5q0 -43 -30 -73t-73 -30z" />
    <glyph glyph-name="u1F609" unicode="&#x1f609;" 
d="M608 184q-111 0 -211 42t-172 114.5t-114.5 172.5t-42.5 212q0 111 42 211t114 172.5t172 115t212 42.5q148 0 272.5 -71.5t196.5 -196t72 -273.5q0 -148 -71.5 -272.5t-196 -196.5t-273.5 -72zM469 721q30 0 51 26t21 74q0 51 -21 79t-51 28q-31 0 -52.5 -29t-21.5 -78
q0 -47 21.5 -73.5t52.5 -26.5zM834 760l24 33q-34 25 -115 34l101 62l-21 35l-157 -97l12 -36q27 4 76.5 -2.5t79.5 -28.5zM608 401q113 0 190 66.5t93 165.5h-41q-16 -82 -81 -136.5t-161 -54.5q-95 0 -159 54.5t-80 136.5h-41q15 -100 92 -166t188 -66z" />
    <glyph glyph-name="u1F641" unicode="&#x1f641;" 
d="M608 184q-146 0 -270.5 73t-197 197.5t-72.5 270.5t72.5 270.5t197 197.5t270.5 73t270.5 -73t197.5 -197.5t73 -270.5t-73 -270.5t-197.5 -197.5t-270.5 -73zM479 743q34 0 57 28t23 83q0 56 -23 85.5t-57 29.5q-33 0 -56.5 -30.5t-23.5 -84.5q0 -53 23.5 -82t56.5 -29z
M739 743q34 0 57 28t23 83q0 56 -23 85.5t-57 29.5q-35 0 -57.5 -29t-22.5 -86q0 -55 22.5 -83t57.5 -28zM395 465q28 54 85 85.5t128 31.5t129 -31.5t86 -85.5l35 18q-32 63 -100.5 101.5t-149.5 38.5t-149.5 -38.5t-100.5 -101.5z" />
    <glyph glyph-name="u1F642" unicode="&#x1f642;" 
d="M608 184q-146 0 -270.5 73t-197 197.5t-72.5 270.5t72.5 270.5t197 197.5t270.5 73t270.5 -73t197.5 -197.5t73 -270.5t-73 -270.5t-197.5 -197.5t-270.5 -73zM479 743q34 0 57 28t23 83q0 56 -23 85.5t-57 29.5q-33 0 -56.5 -30.5t-23.5 -84.5q0 -53 23.5 -82t56.5 -29z
M739 743q34 0 57 28t23 83q0 56 -23 85.5t-57 29.5q-35 0 -57.5 -29t-22.5 -86q0 -55 22.5 -83t57.5 -28zM608 340q159 0 272 113t113 272h-41q0 -141 -101 -242.5t-243 -101.5q-141 0 -242.5 101.5t-101.5 242.5h-41q0 -158 113.5 -271.5t271.5 -113.5z" />
    <glyph glyph-name="NULL" horiz-adv-x="1228" 
 />
    <glyph glyph-name="J.ss06" horiz-adv-x="1228" 
d="M987 1401v-135h-151v-826q0 -203 -109.5 -321.5t-290.5 -118.5h-239v135h239q125 0 194.5 82.5t69.5 249.5v799h-460v135h747z" />
    <glyph glyph-name="Jcircumflex.ss06" horiz-adv-x="1228" 
d="M596 1688l-164 -177h-158l254 258h136l254 -258h-158zM987 1401v-135h-151v-826q0 -203 -109.5 -321.5t-290.5 -118.5h-239v135h239q125 0 194.5 82.5t69.5 249.5v799h-460v135h747z" />
    <glyph glyph-name="Q.ss07" horiz-adv-x="1228" 
d="M1022 700q0 -186 -24 -320.5t-70.5 -216.5t-108.5 -124t-145 -53v-84q0 -35 14 -49.5t49 -14.5h121v-114h-160q-76 0 -117.5 41t-41.5 118v103q-82 12 -143 54.5t-107.5 125t-70 216t-23.5 318.5q0 163 19.5 287t54 205.5t87 132.5t114 72.5t138.5 21.5q98 0 171 -35
t129 -115.5t85 -223t29 -345.5zM330 700q0 -142 12.5 -245t34.5 -168t57.5 -103t76.5 -52.5t97 -14.5q71 0 119 24t86 86.5t56 179t18 293.5t-18 293.5t-55.5 179.5t-86 87t-119.5 24q-56 0 -97 -14.5t-76.5 -52.5t-57.5 -103.5t-34.5 -168.5t-12.5 -245z" />
    <glyph glyph-name="a.ss01" 
d="M885 1044h114v-1044h-114l-19 209q-43 -111 -124.5 -165t-188.5 -54q-169 0 -262.5 129.5t-93.5 404.5q0 273 93.5 402t262.5 129q107 0 188.5 -53.5t124.5 -163.5zM598 125q131 0 198.5 91t67.5 308q0 110 -18 187.5t-54 123t-83 65.5t-111 20t-111 -20t-83 -65.5
t-54 -123t-18 -187.5q0 -217 67.5 -308t198.5 -91z" />
    <glyph glyph-name="a.ss02" horiz-adv-x="1228" 
d="M627 1055q157 0 263.5 -102t106.5 -255v-698h-125l-24 158q-48 -87 -132.5 -127.5t-187.5 -40.5q-152 0 -246 79.5t-94 219.5q0 144 112.5 229.5t324.5 85.5h227v94q0 98 -65.5 160t-159.5 62q-100 0 -160 -44.5t-78 -123.5h-149q18 141 126.5 222t260.5 81zM567 121
q141 0 213 61.5t72 179.5v134h-227q-140 0 -212.5 -54.5t-72.5 -140.5q0 -77 59.5 -128.5t167.5 -51.5z" />
    <glyph glyph-name="aacute.ss01" 
d="M870 1423l-211 -260h-94l144 260h161zM885 1044h114v-1044h-114l-19 209q-43 -111 -124.5 -165t-188.5 -54q-169 0 -262.5 129.5t-93.5 404.5q0 273 93.5 402t262.5 129q107 0 188.5 -53.5t124.5 -163.5zM598 125q131 0 198.5 91t67.5 308q0 110 -18 187.5t-54 123
t-83 65.5t-111 20t-111 -20t-83 -65.5t-54 -123t-18 -187.5q0 -217 67.5 -308t198.5 -91z" />
    <glyph glyph-name="aacute.ss02" 
d="M891 1423l-211 -260h-94l143 260h162zM627 1055q157 0 263.5 -102t106.5 -255v-698h-125l-24 158q-48 -87 -132.5 -127.5t-187.5 -40.5q-152 0 -246 79.5t-94 219.5q0 144 112.5 229.5t324.5 85.5h227v94q0 98 -65.5 160t-159.5 62q-100 0 -160 -44.5t-78 -123.5h-149
q18 141 126.5 222t260.5 81zM567 121q141 0 213 61.5t72 179.5v134h-227q-140 0 -212.5 -54.5t-72.5 -140.5q0 -77 59.5 -128.5t167.5 -51.5z" />
    <glyph glyph-name="abreve.ss01" 
d="M639 1194q-94 0 -159.5 60t-65.5 165l104 -2q0 -53 36 -87t87 -34t86 34t35 87l104 2q0 -106 -65 -165.5t-162 -59.5zM885 1044h114v-1044h-114l-19 209q-43 -111 -124.5 -165t-188.5 -54q-169 0 -262.5 129.5t-93.5 404.5q0 273 93.5 402t262.5 129q107 0 188.5 -53.5
t124.5 -163.5zM598 125q131 0 198.5 91t67.5 308q0 110 -18 187.5t-54 123t-83 65.5t-111 20t-111 -20t-83 -65.5t-54 -123t-18 -187.5q0 -217 67.5 -308t198.5 -91z" />
    <glyph glyph-name="abreve.ss02" horiz-adv-x="1228" 
d="M608 1194q-94 0 -159.5 60t-65.5 165l104 -2q0 -53 36 -87t87 -34t86 34t35 87l105 2q0 -106 -65.5 -165.5t-162.5 -59.5zM627 1055q157 0 263.5 -102t106.5 -255v-698h-125l-24 158q-48 -87 -132.5 -127.5t-187.5 -40.5q-152 0 -246 79.5t-94 219.5q0 144 112.5 229.5
t324.5 85.5h227v94q0 98 -65.5 160t-159.5 62q-100 0 -160 -44.5t-78 -123.5h-149q18 141 126.5 222t260.5 81zM567 121q141 0 213 61.5t72 179.5v134h-227q-140 0 -212.5 -54.5t-72.5 -140.5q0 -77 59.5 -128.5t167.5 -51.5z" />
    <glyph glyph-name="acircumflex.ss01" 
d="M618 1356l-163 -176h-158l254 258h135l254 -258h-158zM885 1044h114v-1044h-114l-19 209q-43 -111 -124.5 -165t-188.5 -54q-169 0 -262.5 129.5t-93.5 404.5q0 273 93.5 402t262.5 129q107 0 188.5 -53.5t124.5 -163.5zM598 125q131 0 198.5 91t67.5 308
q0 110 -18 187.5t-54 123t-83 65.5t-111 20t-111 -20t-83 -65.5t-54 -123t-18 -187.5q0 -217 67.5 -308t198.5 -91z" />
    <glyph glyph-name="acircumflex.ss02" horiz-adv-x="1228" 
d="M618 1415l-163 -176h-158l254 258h135l254 -258h-158zM627 1055q157 0 263.5 -102t106.5 -255v-698h-125l-24 158q-48 -87 -132.5 -127.5t-187.5 -40.5q-152 0 -246 79.5t-94 219.5q0 144 112.5 229.5t324.5 85.5h227v94q0 98 -65.5 160t-159.5 62q-100 0 -160 -44.5
t-78 -123.5h-149q18 141 126.5 222t260.5 81zM567 121q141 0 213 61.5t72 179.5v134h-227q-140 0 -212.5 -54.5t-72.5 -140.5q0 -77 59.5 -128.5t167.5 -51.5z" />
    <glyph glyph-name="adieresis.ss01" 
d="M467 1255q-46 0 -78.5 30.5t-32.5 74.5q0 42 32.5 71t78.5 29q43 0 74.5 -29t31.5 -71q0 -44 -31.5 -74.5t-74.5 -30.5zM774 1255q-46 0 -78 30.5t-32 74.5q0 42 32 71t78 29q43 0 75 -29t32 -71q0 -44 -32 -74.5t-75 -30.5zM885 1044h114v-1044h-114l-19 209
q-43 -111 -124.5 -165t-188.5 -54q-169 0 -262.5 129.5t-93.5 404.5q0 273 93.5 402t262.5 129q107 0 188.5 -53.5t124.5 -163.5zM598 125q131 0 198.5 91t67.5 308q0 110 -18 187.5t-54 123t-83 65.5t-111 20t-111 -20t-83 -65.5t-54 -123t-18 -187.5q0 -217 67.5 -308
t198.5 -91z" />
    <glyph glyph-name="adieresis.ss02" horiz-adv-x="1228" 
d="M463 1255q-46 0 -78.5 30.5t-32.5 74.5q0 42 32.5 71t78.5 29q43 0 74.5 -29t31.5 -71q0 -44 -31.5 -74.5t-74.5 -30.5zM770 1255q-46 0 -78.5 30.5t-32.5 74.5q0 42 32.5 71t78.5 29q43 0 75 -29t32 -71q0 -44 -32 -74.5t-75 -30.5zM627 1055q157 0 263.5 -102
t106.5 -255v-698h-125l-24 158q-48 -87 -132.5 -127.5t-187.5 -40.5q-152 0 -246 79.5t-94 219.5q0 144 112.5 229.5t324.5 85.5h227v94q0 98 -65.5 160t-159.5 62q-100 0 -160 -44.5t-78 -123.5h-149q18 141 126.5 222t260.5 81zM567 121q141 0 213 61.5t72 179.5v134h-227
q-140 0 -212.5 -54.5t-72.5 -140.5q0 -77 59.5 -128.5t167.5 -51.5z" />
    <glyph glyph-name="agrave.ss01" 
d="M645 1163h-96l-211 260h162zM885 1044h114v-1044h-114l-19 209q-43 -111 -124.5 -165t-188.5 -54q-169 0 -262.5 129.5t-93.5 404.5q0 273 93.5 402t262.5 129q107 0 188.5 -53.5t124.5 -163.5zM598 125q131 0 198.5 91t67.5 308q0 110 -18 187.5t-54 123t-83 65.5
t-111 20t-111 -20t-83 -65.5t-54 -123t-18 -187.5q0 -217 67.5 -308t198.5 -91z" />
    <glyph glyph-name="agrave.ss02" 
d="M666 1163h-97l-211 260h162zM627 1055q157 0 263.5 -102t106.5 -255v-698h-125l-24 158q-48 -87 -132.5 -127.5t-187.5 -40.5q-152 0 -246 79.5t-94 219.5q0 144 112.5 229.5t324.5 85.5h227v94q0 98 -65.5 160t-159.5 62q-100 0 -160 -44.5t-78 -123.5h-149
q18 141 126.5 222t260.5 81zM567 121q141 0 213 61.5t72 179.5v134h-227q-140 0 -212.5 -54.5t-72.5 -140.5q0 -77 59.5 -128.5t167.5 -51.5z" />
    <glyph glyph-name="amacron.ss01" 
d="M872 1321v-115h-532v115h532zM885 1044h114v-1044h-114l-19 209q-43 -111 -124.5 -165t-188.5 -54q-169 0 -262.5 129.5t-93.5 404.5q0 273 93.5 402t262.5 129q107 0 188.5 -53.5t124.5 -163.5zM598 125q131 0 198.5 91t67.5 308q0 110 -18 187.5t-54 123t-83 65.5
t-111 20t-111 -20t-83 -65.5t-54 -123t-18 -187.5q0 -217 67.5 -308t198.5 -91z" />
    <glyph glyph-name="amacron.ss02" horiz-adv-x="1228" 
d="M874 1321v-115h-532v115h532zM627 1055q157 0 263.5 -102t106.5 -255v-698h-125l-24 158q-48 -87 -132.5 -127.5t-187.5 -40.5q-152 0 -246 79.5t-94 219.5q0 144 112.5 229.5t324.5 85.5h227v94q0 98 -65.5 160t-159.5 62q-100 0 -160 -44.5t-78 -123.5h-149
q18 141 126.5 222t260.5 81zM567 121q141 0 213 61.5t72 179.5v134h-227q-140 0 -212.5 -54.5t-72.5 -140.5q0 -77 59.5 -128.5t167.5 -51.5z" />
    <glyph glyph-name="aogonek.ss01" 
d="M989 -221h90v-135h-170q-37 0 -68 11t-53 32.5t-21.5 59.5t28.5 87l90 166l-19 209q-43 -111 -124.5 -165t-188.5 -54q-169 0 -262.5 129.5t-93.5 404.5q0 273 93.5 402t262.5 129q107 0 188.5 -53.5t124.5 -163.5l19 206h114v-1044l-61 -121q-16 -32 -16.5 -53.5
t12.5 -30.5t26 -12.5t29 -3.5zM598 125q131 0 198.5 91t67.5 308q0 110 -18 187.5t-54 123t-83 65.5t-111 20t-111 -20t-83 -65.5t-54 -123t-18 -187.5q0 -217 67.5 -308t198.5 -91z" />
    <glyph glyph-name="aogonek.ss02" horiz-adv-x="1228" 
d="M989 -221h90v-135h-170q-37 0 -68 11t-53 32.5t-21.5 59.5t28.5 87l90 166h-13l-24 158q-48 -87 -132.5 -127.5t-187.5 -40.5q-152 0 -246 79.5t-94 219.5q0 144 112.5 229.5t324.5 85.5h227v94q0 98 -65.5 160t-159.5 62q-100 0 -160 -44.5t-78 -123.5h-149
q18 141 126.5 222t260.5 81q157 0 263.5 -102t106.5 -255v-698h2l-61 -121q-16 -32 -16.5 -53.5t12.5 -30.5t26 -12.5t29 -3.5zM567 121q141 0 213 61.5t72 179.5v134h-227q-140 0 -212.5 -54.5t-72.5 -140.5q0 -77 59.5 -128.5t167.5 -51.5z" />
    <glyph glyph-name="aring.ss01" 
d="M610 1167q-93 0 -160 65t-67 165q0 97 66.5 161t158.5 64q94 0 161 -63.5t67 -161.5q0 -100 -66.5 -165t-159.5 -65zM610 1516q-51 0 -87 -34t-36 -87t35.5 -88t87.5 -35q49 0 85 35t36 88t-35 87t-86 34zM885 1044h114v-1044h-114l-19 209q-43 -111 -124.5 -165
t-188.5 -54q-169 0 -262.5 129.5t-93.5 404.5q0 273 93.5 402t262.5 129q107 0 188.5 -53.5t124.5 -163.5zM598 125q131 0 198.5 91t67.5 308q0 110 -18 187.5t-54 123t-83 65.5t-111 20t-111 -20t-83 -65.5t-54 -123t-18 -187.5q0 -217 67.5 -308t198.5 -91z" />
    <glyph glyph-name="aring.ss02" horiz-adv-x="1228" 
d="M610 1167q-93 0 -160 65t-67 165q0 97 66.5 161t158.5 64q94 0 161 -63.5t67 -161.5q0 -100 -66.5 -165t-159.5 -65zM610 1516q-51 0 -87 -34t-36 -87t35.5 -88t87.5 -35q49 0 85 35t36 88t-35 87t-86 34zM627 1055q157 0 263.5 -102t106.5 -255v-698h-125l-24 158
q-48 -87 -132.5 -127.5t-187.5 -40.5q-152 0 -246 79.5t-94 219.5q0 144 112.5 229.5t324.5 85.5h227v94q0 98 -65.5 160t-159.5 62q-100 0 -160 -44.5t-78 -123.5h-149q18 141 126.5 222t260.5 81zM567 121q141 0 213 61.5t72 179.5v134h-227q-140 0 -212.5 -54.5
t-72.5 -140.5q0 -77 59.5 -128.5t167.5 -51.5z" />
    <glyph glyph-name="atilde.ss01" 
d="M393 1249v-22h-114v22q0 92 58.5 156.5t143.5 64.5q49 0 83 -14.5t79 -50.5q27 -24 42 -36t42 -25t53 -13q35 0 61.5 32.5t26.5 76.5v20h115v-20q0 -93 -58.5 -158t-144.5 -65q-50 0 -85 16t-77 51q-32 29 -44.5 39.5t-38.5 22.5t-54 12q-38 0 -63 -31.5t-25 -77.5z
M885 1044h114v-1044h-114l-19 209q-43 -111 -124.5 -165t-188.5 -54q-169 0 -262.5 129.5t-93.5 404.5q0 273 93.5 402t262.5 129q107 0 188.5 -53.5t124.5 -163.5zM598 125q131 0 198.5 91t67.5 308q0 110 -18 187.5t-54 123t-83 65.5t-111 20t-111 -20t-83 -65.5t-54 -123
t-18 -187.5q0 -217 67.5 -308t198.5 -91z" />
    <glyph glyph-name="atilde.ss02" 
d="M379 1249v-22h-115v22q0 92 59 156.5t144 64.5q49 0 83 -14.5t79 -50.5q27 -24 42 -36t42 -25t53 -13q35 0 61.5 32.5t26.5 76.5v20h115v-20q0 -93 -58.5 -158t-144.5 -65q-50 0 -85 16t-77 51q-32 29 -44.5 39.5t-38.5 22.5t-54 12q-38 0 -63 -31.5t-25 -77.5zM627 1055
q157 0 263.5 -102t106.5 -255v-698h-125l-24 158q-48 -87 -132.5 -127.5t-187.5 -40.5q-152 0 -246 79.5t-94 219.5q0 144 112.5 229.5t324.5 85.5h227v94q0 98 -65.5 160t-159.5 62q-100 0 -160 -44.5t-78 -123.5h-149q18 141 126.5 222t260.5 81zM567 121q141 0 213 61.5
t72 179.5v134h-227q-140 0 -212.5 -54.5t-72.5 -140.5q0 -77 59.5 -128.5t167.5 -51.5z" />
    <glyph glyph-name="i.ss03" 
d="M567 1208q-48 0 -78 27t-30 76q0 50 30 76t78 26q47 0 78 -26t31 -76q0 -49 -31 -76t-78 -27zM805 0q-129 0 -217 88t-88 217v604h-342v135h405q31 0 51.5 -20t20.5 -51v-660q0 -73 52.5 -125.5t125.5 -52.5h248v-135h-256z" />
    <glyph glyph-name="dotlessi.ss03" 
d="M805 0q-129 0 -217 88t-88 217v604h-342v135h405q31 0 51.5 -20t20.5 -51v-660q0 -73 52.5 -125.5t125.5 -52.5h248v-135h-256z" />
    <glyph glyph-name="iacute.ss03" 
d="M543 1163l143 260h162l-211 -260h-94zM805 0q-129 0 -217 88t-88 217v604h-342v135h405q31 0 51.5 -20t20.5 -51v-660q0 -73 52.5 -125.5t125.5 -52.5h248v-135h-256z" />
    <glyph glyph-name="ibreve.ss03" 
d="M608 1194q-94 0 -159.5 60t-65.5 165l104 -2q0 -53 36 -87t87 -34t86 34t35 87l105 2q0 -106 -65.5 -165.5t-162.5 -59.5zM805 0q-129 0 -217 88t-88 217v604h-342v135h405q31 0 51.5 -20t20.5 -51v-660q0 -73 52.5 -125.5t125.5 -52.5h248v-135h-256z" />
    <glyph glyph-name="icircumflex.ss03" 
d="M289 1180l254 258h135l254 -258h-158l-164 176l-164 -176h-157zM805 0q-129 0 -217 88t-88 217v604h-342v135h405q31 0 51.5 -20t20.5 -51v-660q0 -73 52.5 -125.5t125.5 -52.5h248v-135h-256z" />
    <glyph glyph-name="idieresis.ss03" 
d="M248 1255q-46 0 -78.5 30.5t-32.5 74.5q0 42 32.5 71t78.5 29q43 0 74.5 -29t31.5 -71q0 -44 -31.5 -74.5t-74.5 -30.5zM555 1255q-46 0 -78.5 30.5t-32.5 74.5q0 42 32.5 71t78.5 29q43 0 75 -29t32 -71q0 -44 -32 -74.5t-75 -30.5zM805 0q-129 0 -217 88t-88 217v604
h-342v135h405q31 0 51.5 -20t20.5 -51v-660q0 -73 52.5 -125.5t125.5 -52.5h248v-135h-256z" />
    <glyph glyph-name="i.loclTRK" 
d="M651 1208q-48 0 -78 27t-30 76q0 50 30 76t78 26q47 0 78 -26t31 -76q0 -49 -31 -76t-78 -27zM719 135h340v-135h-840v135h365v774h-297v135h360q31 0 51.5 -20t20.5 -51v-838z" />
    <glyph glyph-name="i.loclTRK.ss03" 
d="M567 1208q-48 0 -78 27t-30 76q0 50 30 76t78 26q47 0 78 -26t31 -76q0 -49 -31 -76t-78 -27zM805 0q-129 0 -217 88t-88 217v604h-342v135h405q31 0 51.5 -20t20.5 -51v-660q0 -73 52.5 -125.5t125.5 -52.5h248v-135h-256z" />
    <glyph glyph-name="igrave.ss03" 
d="M537 1163l-211 260h161l146 -260h-96zM805 0q-129 0 -217 88t-88 217v604h-342v135h405q31 0 51.5 -20t20.5 -51v-660q0 -73 52.5 -125.5t125.5 -52.5h248v-135h-256z" />
    <glyph glyph-name="imacron.ss01" horiz-adv-x="1222" 
d="M150 1206v115h532v-115h-532zM805 0q-129 0 -217 88t-88 217v604h-342v135h405q31 0 51.5 -20t20.5 -51v-660q0 -73 52.5 -125.5t125.5 -52.5h248v-135h-256z" />
    <glyph glyph-name="iogonek.ss03" 
d="M567 1208q-48 0 -78 27t-30 76q0 50 30 76t78 26q47 0 78 -26t31 -76q0 -49 -31 -76t-78 -27zM1051 -221h90v-135h-170q-37 0 -68 11t-53 32.5t-22 59.5t28 87l90 166h-141q-129 0 -217 88t-88 217v604h-342v135h405q31 0 51.5 -20t20.5 -51v-660q0 -73 52.5 -125.5
t125.5 -52.5h248v-135l-62 -121q-13 -26 -15.5 -45t3.5 -29t18 -16.5t23 -8t23 -1.5z" />
    <glyph glyph-name="itilde.ss03" 
d="M760 1217q-50 0 -85 16t-77 51q-32 29 -44.5 39.5t-38.5 22.5t-54 12q-38 0 -63 -31.5t-25 -77.5v-22h-115v22q0 92 59 156.5t144 64.5q49 0 83 -14.5t79 -50.5q27 -24 42 -36t42 -25t53 -13q35 0 61.5 32.5t26.5 76.5v20h115v-20q0 -93 -58.5 -158t-144.5 -65zM805 0
q-129 0 -217 88t-88 217v604h-342v135h405q31 0 51.5 -20t20.5 -51v-660q0 -73 52.5 -125.5t125.5 -52.5h248v-135h-256z" />
    <glyph glyph-name="j.short" 
d="M764 1208q-48 0 -78.5 27t-30.5 76q0 50 30.5 76t78.5 26q47 0 77.5 -26t30.5 -76q0 -49 -30.5 -76t-77.5 -27zM463 -367v136h47q76 0 131 54.5t55 131.5v954h-452v135h516q31 0 51 -20t20 -51v-1026q0 -131 -90.5 -222.5t-222.5 -91.5h-55z" />
    <glyph glyph-name="j.ss03" horiz-adv-x="1228" 
d="M770 1208q-46 0 -78.5 30t-32.5 73q0 44 32.5 73t78.5 29q44 0 75.5 -29.5t31.5 -72.5q0 -42 -32 -72.5t-75 -30.5zM342 -367v136h174q76 0 131 54.5t55 131.5v1089h136v-1097q0 -131 -92 -222.5t-222 -91.5h-182z" />
    <glyph glyph-name="j.ss04" horiz-adv-x="1228" 
d="M766 1208q-46 0 -78.5 30t-32.5 73q0 44 32.5 73t78.5 29q44 0 75 -29t31 -73q0 -42 -31.5 -72.5t-74.5 -30.5zM944 1044v-135h-106v-962q0 -131 -92 -222.5t-222 -91.5h-182v136h174q76 0 131 54.5t55 131.5v954h-114v135h356z" />
    <glyph glyph-name="uni0237.short" 
d="M463 -367v136h47q76 0 131 54.5t55 131.5v954h-452v135h516q31 0 51 -20t20 -51v-1026q0 -131 -90.5 -222.5t-222.5 -91.5h-55z" />
    <glyph glyph-name="uni0237.ss03" horiz-adv-x="1228" 
d="M342 -367v136h174q76 0 131 54.5t55 131.5v1089h136v-1097q0 -131 -92 -222.5t-222 -91.5h-182z" />
    <glyph glyph-name="uni0237.ss04" horiz-adv-x="1228" 
d="M944 1044v-135h-106v-962q0 -131 -92 -222.5t-222 -91.5h-182v136h174q76 0 131 54.5t55 131.5v954h-114v135h356z" />
    <glyph glyph-name="jcircumflex.short" horiz-adv-x="1222" 
d="M436 1180l254 258h135l254 -258h-157l-164 176l-164 -176h-158zM463 -367v136h47q76 0 131 54.5t55 131.5v954h-452v135h516q31 0 51 -20t20 -51v-1026q0 -131 -90.5 -222.5t-222.5 -91.5h-55z" />
    <glyph glyph-name="jcircumflex.ss03" horiz-adv-x="1228" 
d="M438 1180l254 258h135l254 -258h-157l-164 176l-164 -176h-158zM342 -367v136h174q76 0 131 54.5t55 131.5v1089h136v-1097q0 -131 -92 -222.5t-222 -91.5h-182z" />
    <glyph glyph-name="jcircumflex.ss04" horiz-adv-x="1228" 
d="M764 1356l-164 -176h-158l254 258h135l254 -258h-157zM588 909v135h356v-135h-106v-962q0 -131 -92 -222.5t-222 -91.5h-182v136h174q76 0 131 54.5t55 131.5v954h-114z" />
    <glyph glyph-name="t.ss05" 
d="M1042 909h-389v-774h201v-135h-535v135h199v774h-389v135h389v283h135v-283h389v-135z" />
    <glyph glyph-name="tbar.ss05" 
d="M1042 909h-389v-239h238v-135h-238v-400h201v-135h-535v135h199v400h-235v135h235v239h-389v135h389v283h135v-283h389v-135z" />
    <glyph glyph-name="tcaron.ss05" 
d="M864 1329q-29 11 -48 37.5t-19 58.5q0 44 32 73.5t78 29.5q44 0 75.5 -29.5t31.5 -73.5q0 -34 -19 -59l-143 -223l-51 26zM1042 909h-389v-774h201v-135h-535v135h199v774h-389v135h389v283h135v-283h389v-135z" />
    <glyph glyph-name="uni0163.ss05" horiz-adv-x="1222" 
d="M1042 909h-389v-774h201v-135h-197l-61 -131h16q83 0 136 -52.5t53 -135.5q0 -89 -65.5 -142t-172.5 -53h-145v111h145q61 0 92 30t31 74t-27.5 75t-74.5 31h-111v58l66 135h-220v135h199v774h-389v135h389v283h135v-283h389v-135z" />
    <glyph glyph-name="uni021B.ss05" 
d="M1042 909h-389v-774h201v-135h-535v135h199v774h-389v135h389v283h135v-283h389v-135zM575 -102q44 0 75.5 -29.5t31.5 -73.5q0 -35 -18 -59l-144 -223l-51 26l63 160q-29 11 -48 37.5t-19 58.5q0 44 32 73.5t78 29.5z" />
    <glyph glyph-name="y.ss01" 
d="M956 1044h146l-451 -1263q-23 -64 -75.5 -100.5t-120.5 -36.5h-222v135h193q38 0 69.5 24t41.5 54l51 143h-51l-392 1044h148l338 -921z" />
    <glyph glyph-name="yacute.ss01" 
d="M877 1423l-211 -260h-95l144 260h162zM956 1044h146l-451 -1263q-23 -64 -75.5 -100.5t-120.5 -36.5h-222v135h193q38 0 69.5 24t41.5 54l51 143h-51l-392 1044h148l338 -921z" />
    <glyph glyph-name="ycircumflex.ss01" 
d="M625 1356l-164 -176h-158l254 258h135l254 -258h-158zM956 1044h146l-451 -1263q-23 -64 -75.5 -100.5t-120.5 -36.5h-222v135h193q38 0 69.5 24t41.5 54l51 143h-51l-392 1044h148l338 -921z" />
    <glyph glyph-name="ydieresis.ss01" 
d="M473 1255q-46 0 -78.5 30.5t-32.5 74.5q0 42 32.5 71t78.5 29q43 0 75 -29t32 -71q0 -44 -32 -74.5t-75 -30.5zM780 1255q-46 0 -78 30.5t-32 74.5q0 42 32 71t78 29q43 0 75 -29t32 -71q0 -44 -32 -74.5t-75 -30.5zM956 1044h146l-451 -1263q-23 -64 -75.5 -100.5
t-120.5 -36.5h-222v135h193q38 0 69.5 24t41.5 54l51 143h-51l-392 1044h148l338 -921z" />
    <glyph glyph-name="ygrave.ss01" 
d="M672 1163h-97l-210 260h161zM956 1044h146l-451 -1263q-23 -64 -75.5 -100.5t-120.5 -36.5h-222v135h193q38 0 69.5 24t41.5 54l51 143h-51l-392 1044h148l338 -921z" />
    <glyph glyph-name="f_t" horiz-adv-x="2433" 
d="M2271 909h-495v-587q0 -77 55 -132t131 -55h295v-135h-303q-132 0 -223 91t-91 222v596h-1065v-774h453v-135h-821v135h233v774h-233v135h233v62q0 134 94 223.5t240 89.5h305v-135h-297q-91 0 -149 -53.5t-58 -132.5v-54h1065v283h136v-283h495v-135z" />
    <glyph glyph-name="t_t" horiz-adv-x="2433" 
d="M2271 909h-495v-587q0 -77 55 -132t131 -55h295v-135h-303q-132 0 -223 91t-91 222v596h-1081v-587q0 -77 55 -132t131 -55h295v-135h-303q-132 0 -222.5 91t-90.5 222v596h-283v135h283v283h135v-283h1081v283h136v-283h495v-135z" />
    <glyph glyph-name="uni24FF.001" horiz-adv-x="1228" 
d="M608 -18q-110 0 -210 42.5t-173 114.5t-116 172t-43 211q0 148 73 273.5t198 198.5t271 73q148 0 273 -73t197.5 -198.5t72.5 -273.5t-72.5 -272.5t-197.5 -196t-273 -71.5zM608 223q86 0 132 68.5t46 232.5q0 165 -46 234t-132 69q-87 0 -132.5 -68.5t-45.5 -234.5
q0 -164 46 -232.5t132 -68.5zM608 291q-55 0 -81.5 50.5t-26.5 182.5t26.5 183t81.5 51t82 -51.5t27 -182.5q0 -132 -27 -182.5t-82 -50.5zM582 449h53v151h-53v-151z" />
    <glyph glyph-name="uni24EA.001" horiz-adv-x="1228" 
d="M608 -18q-145 0 -269.5 72t-197.5 196.5t-73 271.5t73 272t197.5 198t269.5 73q147 0 272 -73t198 -198t73 -272t-72.5 -271.5t-197.5 -196.5t-273 -72zM608 39q133 0 245 64.5t176.5 175t64.5 241.5q0 202 -142.5 345t-343.5 143q-131 0 -242 -65t-176 -177.5
t-65 -245.5q0 -131 65 -241.5t176 -175t242 -64.5zM610 221q-87 0 -132.5 68.5t-45.5 234.5t45.5 234.5t132.5 68.5q85 0 130.5 -68.5t45.5 -234.5t-45.5 -234.5t-130.5 -68.5zM610 291q55 0 81 50t26 183q0 132 -26.5 183t-80.5 51q-56 0 -82 -50.5t-26 -183.5t26 -183
t82 -50zM586 449v151h47v-151h-47z" />
    <glyph glyph-name="zero.ss02" 
d="M608 1419q98 0 171 -35t129 -115.5t85 -223t29 -345.5q0 -164 -19.5 -288t-54 -205t-87 -132t-114 -72t-139.5 -21t-139.5 21t-113.5 72t-86.5 132.5t-54 205t-19.5 287.5q0 163 19.5 287t54 205.5t87 132.5t114 72.5t138.5 21.5zM608 1284q-53 0 -92.5 -13t-74.5 -47
t-57.5 -91.5t-36.5 -148.5t-17 -216h557q-3 125 -17 216t-36.5 149t-57.5 91.5t-74.5 46.5t-93.5 13zM608 117q54 0 93.5 13t74.5 46.5t57.5 91.5t36.5 149t17 216h-557q3 -125 17 -216t36.5 -148.5t57.5 -91.5t74.5 -47t92.5 -13z" />
    <glyph glyph-name="zero.osf" 
d="M608 1055q196 0 305 -130t109 -403t-109 -402.5t-305 -129.5q-194 0 -303.5 130.5t-109.5 401.5q0 274 108.5 403.5t304.5 129.5zM608 920q-141 0 -209.5 -90.5t-68.5 -307.5q0 -102 14 -168l473 473q-63 93 -209 93zM608 125q141 0 210 91t69 306q0 100 -15 170
l-475 -473q65 -94 211 -94z" />
    <glyph glyph-name="one.osf" 
d="M752 135h321v-135h-805v135h348v522h-350v123h350v264h136v-909z" />
    <glyph glyph-name="two.osf" 
d="M508 375q-79 -27 -117 -83t-41 -157h660v-135h-803v145q0 138 66 231.5t194 131.5l231 70q176 52 176 182q0 74 -64.5 117t-203.5 43q-132 0 -187.5 -45t-76.5 -177h-129q25 201 119 279t284 78q191 0 292.5 -80.5t101.5 -214.5q0 -125 -73.5 -201t-209.5 -115z" />
    <glyph glyph-name="three.osf" 
d="M758 397q118 -40 180.5 -135.5t62.5 -222.5q0 -183 -112.5 -294.5t-294.5 -111.5q-79 0 -147 22t-122 65.5t-87.5 114.5t-40.5 163h141q33 -229 264 -229q120 0 192 73t72 197q0 123 -70 197.5t-169 74.5h-185v129h133q96 0 163 69.5t67 172.5q0 105 -65 171.5t-169 66.5
q-94 0 -155 -56.5t-78 -171.5h-141q6 92 38 162.5t84 114t116 65t138 21.5q154 0 260.5 -100.5t106.5 -245.5q0 -103 -45 -184.5t-137 -127.5z" />
    <glyph glyph-name="four.osf" 
d="M983 139v-135h-92v-360h-135v360h-553v135l436 905h152l-439 -905h404v346h135v-346h92z" />
    <glyph glyph-name="five.osf" 
d="M627 549q167 0 272 -121.5t105 -339.5q0 -221 -108.5 -338t-293.5 -117q-169 0 -275 85.5t-120 224.5h141q42 -174 254 -174q266 0 266 319q0 163 -69 244.5t-193 81.5q-93 0 -157.5 -50.5t-83.5 -132.5l-136 41l52 772h643v-135h-518l-35 -475q97 115 256 115z" />
    <glyph glyph-name="six.osf" 
d="M618 897q173 0 282.5 -116t109.5 -337q0 -218 -111 -336t-291 -118q-442 0 -442 708q0 160 23 284.5t62.5 204t96.5 131t119.5 72.5t136.5 21q163 0 264.5 -95t124.5 -276h-141q-38 236 -252 236q-50 0 -90.5 -13t-79.5 -49t-65.5 -94.5t-43 -154t-18.5 -222.5v-51
q77 205 315 205zM608 125q266 0 266 319q0 162 -69.5 240t-196.5 78q-131 0 -210 -78t-79 -238q30 -321 289 -321z" />
    <glyph glyph-name="seven.osf" 
d="M395 -356l492 1265h-543v-235h-135v370h819v-135l-487 -1265h-146z" />
    <glyph glyph-name="eight.osf" 
d="M772 723q124 -33 191 -130t67 -226q0 -179 -115 -278t-305 -99t-305 99t-115 278q0 129 67 226t192 130q-108 38 -164 124t-56 206q0 156 103 257t278 101q176 0 278.5 -101t102.5 -257q0 -120 -55.5 -207t-163.5 -123zM365 1034q0 -114 65 -186t180 -72q114 0 180 72.5
t66 185.5q0 112 -66 181t-180 69t-179.5 -69t-65.5 -181zM610 125q132 0 208.5 71t76.5 203q0 127 -78.5 200t-206.5 73q-125 0 -204.5 -72.5t-79.5 -200.5q0 -132 76 -203t208 -71z" />
    <glyph glyph-name="nine.osf" 
d="M598 1063q442 0 442 -707q0 -161 -23 -285.5t-62.5 -204.5t-96.5 -131t-119.5 -72t-136.5 -21q-163 0 -264.5 95t-124.5 277h141q38 -237 252 -237q50 0 91 13t80.5 49t66 94t43 153.5t16.5 222.5v51q-77 -202 -315 -202q-83 0 -153.5 28t-124 82t-83.5 141.5t-30 198.5
q0 218 111 336.5t290 118.5zM598 291q131 0 210 78.5t79 238.5q-30 320 -289 320q-266 0 -266 -320q0 -317 266 -317z" />
    <glyph glyph-name="zero.osf.zero" horiz-adv-x="1228" 
d="M608 -10q-194 0 -303.5 130.5t-109.5 401.5q0 274 108.5 403.5t304.5 129.5t305 -130t109 -403t-109 -402.5t-305 -129.5zM608 125q141 0 210 91t69 306t-69 306.5t-210 91.5t-209.5 -90.5t-68.5 -307.5q0 -215 68.5 -306t209.5 -91zM563 377v293h92v-293h-92z" />
    <glyph glyph-name="zero.tf" 
d="M610 1411q78 0 139.5 -20.5t114 -70.5t87 -130t54 -203t19.5 -287q0 -163 -19.5 -286t-54 -203t-87 -130t-114 -70.5t-139.5 -20.5q-79 0 -140 20.5t-113.5 70t-87 129.5t-53.5 203t-19 287t19 287t53.5 203.5t87 130t113.5 70t140 20.5zM610 1276q-47 0 -82 -9.5
t-68 -32.5t-55.5 -65t-39.5 -105t-25 -154t-8 -210q0 -100 6 -176l520 523q-29 131 -89 180t-159 49zM610 125q56 0 96.5 13.5t76.5 51t57.5 101.5t34 166.5t12.5 244.5q0 98 -6 175l-521 -521q30 -132 90.5 -181.5t159.5 -49.5z" />
    <glyph glyph-name="one.tf" 
d="M737 135h320v-135h-803v135h348v850h-330v135h330v281h135v-1266z" />
    <glyph glyph-name="two.tf" 
d="M571 492q-106 -70 -152.5 -152.5t-51.5 -204.5h667v-135h-803v106q0 171 68.5 289.5t214.5 214.5l164 109q109 72 165 148t56 188q0 101 -69 161t-179 60q-122 0 -189.5 -60.5t-82.5 -197.5h-152q19 203 133 298t291 95q165 0 274 -100t109 -256q0 -80 -21.5 -147.5
t-65 -122.5t-93 -97.5t-119.5 -89.5z" />
    <glyph glyph-name="three.tf" 
d="M758 754q118 -40 180.5 -136t62.5 -223q0 -182 -112.5 -293.5t-294.5 -111.5q-79 0 -147 22t-122 65t-87.5 114t-40.5 163h141q33 -229 264 -229q120 0 192 73t72 197q0 123 -70 198t-169 75h-185v129h133q96 0 163 69t67 172q0 105 -65 171.5t-169 66.5q-94 0 -155 -56
t-78 -171h-141q6 92 38 162.5t84 113.5t116 64.5t138 21.5q154 0 260.5 -100.5t106.5 -245.5q0 -103 -45 -184t-137 -127z" />
    <glyph glyph-name="four.tf" 
d="M1010 496v-136h-109v-360h-135v360h-563v136l436 905h152l-439 -905h414v346h135v-346h109z" />
    <glyph glyph-name="five.tf" 
d="M621 897q172 0 277.5 -117.5t105.5 -335.5q0 -219 -108.5 -336.5t-293.5 -117.5q-169 0 -269.5 89t-123.5 269h141q17 -115 80.5 -169t175.5 -54q262 0 262 319q0 162 -68 240t-190 78q-97 0 -161.5 -46.5t-83.5 -127.5l-136 39l82 774h602v-135h-485l-53 -465
q86 96 246 96z" />
    <glyph glyph-name="six.tf" 
d="M618 897q173 0 282.5 -116t109.5 -337q0 -218 -111 -336t-291 -118q-442 0 -442 708q0 160 23 284.5t62.5 204t96.5 131t119.5 72.5t136.5 21q163 0 264.5 -95t124.5 -276h-141q-38 236 -252 236q-50 0 -90.5 -13t-79.5 -49t-65.5 -94.5t-43 -154t-18.5 -222.5v-51
q77 205 315 205zM608 125q266 0 266 319q0 162 -69.5 240t-196.5 78q-131 0 -210 -78t-79 -238q30 -321 289 -321z" />
    <glyph glyph-name="seven.tf" 
d="M209 1401h819v-135l-487 -1266h-146l490 1266h-541v-236h-135v371z" />
    <glyph glyph-name="eight.tf" 
d="M772 723q124 -33 191 -130t67 -226q0 -179 -115 -278t-305 -99t-305 99t-115 278q0 129 67 226t192 130q-108 38 -164 124t-56 206q0 156 103 257t278 101q176 0 278.5 -101t102.5 -257q0 -120 -55.5 -207t-163.5 -123zM365 1034q0 -114 65 -186t180 -72q114 0 180 72.5
t66 185.5q0 112 -66 181t-180 69t-179.5 -69t-65.5 -181zM610 125q132 0 208.5 71t76.5 203q0 127 -78.5 200t-206.5 73q-125 0 -204.5 -72.5t-79.5 -200.5q0 -132 76 -203t208 -71z" />
    <glyph glyph-name="nine.tf" 
d="M598 1411q442 0 442 -706q0 -161 -23 -285.5t-62.5 -204.5t-96.5 -131.5t-119.5 -72.5t-136.5 -21q-163 0 -264.5 95t-124.5 277h141q38 -237 252 -237q50 0 91 13t80.5 49t66 94t43 153.5t16.5 222.5v52q-77 -203 -315 -203q-83 0 -153.5 28t-124 82t-83.5 141.5
t-30 198.5q0 218 111 336.5t290 118.5zM598 639q131 0 210 78.5t79 238.5q-30 320 -289 320q-266 0 -266 -320q0 -317 266 -317z" />
    <glyph glyph-name="zero.tf.zero" 
d="M608 -10q-78 0 -139 20.5t-114 70t-87 129.5t-53.5 203t-19.5 287q0 163 19.5 286t54 203.5t87 130.5t114 70.5t138.5 20.5q78 0 139.5 -20.5t114 -70.5t87 -130t54 -203t19.5 -287q0 -163 -19.5 -286.5t-54 -203.5t-87 -129.5t-114 -70t-139.5 -20.5zM608 125
q56 0 97 13.5t77 50.5t58 100.5t34.5 166t12.5 244.5t-12.5 244.5t-34.5 166.5t-58 101t-77 50.5t-97 13.5t-97 -13.5t-76.5 -50.5t-57.5 -101t-34.5 -166.5t-12.5 -244.5t12.5 -244.5t34.5 -166t58 -100.5t76.5 -50.5t96.5 -13.5zM561 557v293h94v-293h-94z" />
    <glyph glyph-name="zero.tosf" 
d="M608 1055q196 0 305 -130t109 -403t-109 -402.5t-305 -129.5q-194 0 -303.5 130.5t-109.5 401.5q0 274 108.5 403.5t304.5 129.5zM608 920q-141 0 -209.5 -90.5t-68.5 -307.5q0 -102 14 -168l473 473q-63 93 -209 93zM608 125q141 0 210 91t69 306q0 100 -15 170
l-475 -473q65 -94 211 -94z" />
    <glyph glyph-name="one.tosf" 
d="M752 135h321v-135h-805v135h348v522h-350v123h350v264h136v-909z" />
    <glyph glyph-name="two.tosf" 
d="M508 375q-79 -27 -117 -83t-41 -157h660v-135h-803v145q0 138 66 231.5t194 131.5l231 70q176 52 176 182q0 74 -64.5 117t-203.5 43q-132 0 -187.5 -45t-76.5 -177h-129q25 201 119 279t284 78q191 0 292.5 -80.5t101.5 -214.5q0 -125 -73.5 -201t-209.5 -115z" />
    <glyph glyph-name="three.tosf" 
d="M758 397q118 -40 180.5 -135.5t62.5 -222.5q0 -183 -112.5 -294.5t-294.5 -111.5q-79 0 -147 22t-122 65.5t-87.5 114.5t-40.5 163h141q33 -229 264 -229q120 0 192 73t72 197q0 123 -70 197.5t-169 74.5h-185v129h133q96 0 163 69.5t67 172.5q0 105 -65 171.5t-169 66.5
q-94 0 -155 -56.5t-78 -171.5h-141q6 92 38 162.5t84 114t116 65t138 21.5q154 0 260.5 -100.5t106.5 -245.5q0 -103 -45 -184.5t-137 -127.5z" />
    <glyph glyph-name="four.tosf" 
d="M983 139v-135h-92v-360h-135v360h-553v135l436 905h152l-439 -905h404v346h135v-346h92z" />
    <glyph glyph-name="five.tosf" 
d="M627 549q167 0 272 -121.5t105 -339.5q0 -221 -108.5 -338t-293.5 -117q-169 0 -275 85.5t-120 224.5h141q42 -174 254 -174q266 0 266 319q0 163 -69 244.5t-193 81.5q-93 0 -157.5 -50.5t-83.5 -132.5l-136 41l52 772h643v-135h-518l-35 -475q97 115 256 115z" />
    <glyph glyph-name="six.tosf" 
d="M618 897q173 0 282.5 -116t109.5 -337q0 -218 -111 -336t-291 -118q-442 0 -442 708q0 160 23 284.5t62.5 204t96.5 131t119.5 72.5t136.5 21q163 0 264.5 -95t124.5 -276h-141q-38 236 -252 236q-50 0 -90.5 -13t-79.5 -49t-65.5 -94.5t-43 -154t-18.5 -222.5v-51
q77 205 315 205zM608 125q266 0 266 319q0 162 -69.5 240t-196.5 78q-131 0 -210 -78t-79 -238q30 -321 289 -321z" />
    <glyph glyph-name="seven.tosf" 
d="M395 -356l492 1265h-543v-235h-135v370h819v-135l-487 -1265h-146z" />
    <glyph glyph-name="eight.tosf" 
d="M772 723q124 -33 191 -130t67 -226q0 -179 -115 -278t-305 -99t-305 99t-115 278q0 129 67 226t192 130q-108 38 -164 124t-56 206q0 156 103 257t278 101q176 0 278.5 -101t102.5 -257q0 -120 -55.5 -207t-163.5 -123zM365 1034q0 -114 65 -186t180 -72q114 0 180 72.5
t66 185.5q0 112 -66 181t-180 69t-179.5 -69t-65.5 -181zM610 125q132 0 208.5 71t76.5 203q0 127 -78.5 200t-206.5 73q-125 0 -204.5 -72.5t-79.5 -200.5q0 -132 76 -203t208 -71z" />
    <glyph glyph-name="nine.tosf" 
d="M598 1063q442 0 442 -707q0 -161 -23 -285.5t-62.5 -204.5t-96.5 -131t-119.5 -72t-136.5 -21q-163 0 -264.5 95t-124.5 277h141q38 -237 252 -237q50 0 91 13t80.5 49t66 94t43 153.5t16.5 222.5v51q-77 -202 -315 -202q-83 0 -153.5 28t-124 82t-83.5 141.5t-30 198.5
q0 218 111 336.5t290 118.5zM598 291q131 0 210 78.5t79 238.5q-30 320 -289 320q-266 0 -266 -320q0 -317 266 -317z" />
    <glyph glyph-name="zero.tosf.zero" horiz-adv-x="1228" 
d="M608 -10q-194 0 -303.5 130.5t-109.5 401.5q0 274 108.5 403.5t304.5 129.5t305 -130t109 -403t-109 -402.5t-305 -129.5zM608 125q141 0 210 91t69 306t-69 306.5t-210 91.5t-209.5 -90.5t-68.5 -307.5q0 -215 68.5 -306t209.5 -91zM563 377v293h92v-293h-92z" />
    <glyph glyph-name="zero.zero" 
d="M608 -10q-78 0 -139 20.5t-114 70t-87 129.5t-53.5 203t-19.5 287q0 163 19.5 286t54 203.5t87 130.5t114 70.5t138.5 20.5q78 0 139.5 -20.5t114 -70.5t87 -130t54 -203t19.5 -287q0 -163 -19.5 -286.5t-54 -203.5t-87 -129.5t-114 -70t-139.5 -20.5zM608 125
q56 0 97 13.5t77 50.5t58 100.5t34.5 166t12.5 244.5t-12.5 244.5t-34.5 166.5t-58 101t-77 50.5t-97 13.5t-97 -13.5t-76.5 -50.5t-57.5 -101t-34.5 -166.5t-12.5 -244.5t12.5 -244.5t34.5 -166t58 -100.5t76.5 -50.5t96.5 -13.5zM561 557v293h94v-293h-94z" />
    <glyph glyph-name="zero.dnom" 
d="M610 854q60 0 105 -21.5t79.5 -70t52 -133.5t17.5 -207t-17.5 -208t-52 -134.5t-79.5 -70t-105 -21.5t-105 21.5t-79.5 70t-52 134.5t-17.5 208t17.5 207t52 133.5t79.5 70t105 21.5zM610 754q-52 0 -84 -27t-50.5 -101.5t-18.5 -203.5q0 -63 2 -90l289 289
q-18 73 -51.5 103t-86.5 30zM610 86q51 0 83 27t51.5 103t19.5 206q0 59 -2 86l-289 -289q18 -73 51.5 -103t85.5 -30z" />
    <glyph glyph-name="one.dnom" 
d="M690 98h189v-98h-494v98h207v508h-207v92h207v144h98v-744z" />
    <glyph glyph-name="two.dnom" 
d="M465 129v-29h393v-100h-493v104q0 124 42.5 192t161.5 132q109 59 149 97.5t40 105.5q0 53 -41 88t-109 35q-65 0 -100 -34t-47 -112h-107q14 128 81.5 187t172.5 59q111 0 180.5 -62t69.5 -161q0 -102 -49.5 -158.5t-196.5 -134.5q-90 -50 -118.5 -92.5t-28.5 -116.5z
" />
    <glyph glyph-name="three.dnom" 
d="M690 453q78 -26 114 -86.5t36 -141.5q0 -105 -66 -171t-182 -66q-100 0 -169.5 56t-82.5 161h106q9 -57 46.5 -87t99.5 -30q70 0 108.5 41t38.5 117q0 69 -35.5 110t-89.5 41h-108v88h82q51 0 87 40t36 100q0 61 -35.5 98t-100.5 37q-52 0 -85.5 -31t-40.5 -90h-99
q10 104 74 159.5t151 55.5q103 0 165.5 -63.5t62.5 -155.5q0 -127 -113 -182z" />
    <glyph glyph-name="four.dnom" 
d="M877 307v-98h-93v-209h-100v209h-340v98l260 535h111l-260 -535h229v199h100v-199h93z" />
    <glyph glyph-name="five.dnom" 
d="M623 549q104 0 168.5 -74.5t64.5 -208.5q0 -131 -68 -204.5t-180 -73.5q-99 0 -165.5 54.5t-75.5 154.5h98q9 -50 45.5 -79.5t97.5 -29.5q148 0 148 178q0 92 -39 137.5t-109 45.5q-48 0 -82.5 -27.5t-46.5 -71.5l-100 29l16 463h406v-101h-309l-11 -256q54 64 142 64z
" />
    <glyph glyph-name="six.dnom" 
d="M625 549q111 0 178 -75t67 -206t-67 -205.5t-178 -74.5h-2q-89 0 -148 47q-56 41 -80 115q-43 110 -43 299q0 89 13.5 158.5t37.5 115.5t58 75.5t72.5 42.5t84.5 13q98 0 160.5 -54.5t71.5 -154.5h-98q-21 109 -134 109q-169 0 -176 -281q67 76 183 76zM625 88
q145 0 145 180q0 181 -145 181q-70 0 -109 -45t-39 -136t39 -135.5t109 -44.5z" />
    <glyph glyph-name="seven.dnom" 
d="M459 0l289 741h-291v-133h-101v234h496v-101l-285 -741h-108z" />
    <glyph glyph-name="eight.dnom" 
d="M705 436q74 -20 112.5 -76.5t38.5 -140.5q0 -108 -67 -169.5t-179 -61.5q-114 0 -182 61.5t-68 169.5q0 85 39 142t113 75q-133 50 -133 201q0 91 63 153t168 62q103 0 166.5 -62.5t63.5 -152.5q0 -72 -34.5 -124t-100.5 -77zM463 629q0 -62 41 -102t106 -40q64 0 104 40
t40 102t-40 99.5t-104 37.5q-65 0 -106 -37.5t-41 -99.5zM610 88q71 0 113.5 40t42.5 110q0 66 -41.5 108.5t-114.5 42.5q-76 0 -117.5 -41.5t-41.5 -109.5q0 -70 42.5 -110t116.5 -40z" />
    <glyph glyph-name="nine.dnom" 
d="M827 694q43 -110 43 -301q0 -111 -20.5 -191.5t-57.5 -126t-83 -66.5t-103 -21q-99 0 -161 54t-72 155h100q17 -109 133 -109q167 0 174 281q-67 -76 -180 -76q-111 0 -179.5 74.5t-68.5 205.5t68.5 205t179.5 74h2q94 0 154 -51q48 -42 71 -107zM600 393q145 0 145 180
q0 90 -38 134.5t-107 44.5q-147 0 -147 -179q0 -90 38 -135t109 -45z" />
    <glyph glyph-name="zero.numr" 
d="M610 1415q60 0 105 -21.5t79.5 -70t52 -133.5t17.5 -207t-17.5 -208t-52 -134.5t-79.5 -70t-105 -21.5t-105 21.5t-79.5 70t-52 134.5t-17.5 208t17.5 207t52 133.5t79.5 70t105 21.5zM610 1315q-52 0 -84 -27t-50.5 -101.5t-18.5 -203.5q0 -63 2 -90l289 289
q-18 73 -51.5 103t-86.5 30zM610 647q51 0 83 27t51.5 103t19.5 206q0 59 -2 86l-289 -289q18 -73 51.5 -103t85.5 -30z" />
    <glyph glyph-name="one.numr" 
d="M690 657h189v-98h-494v98h207v508h-207v92h207v144h98v-744z" />
    <glyph glyph-name="two.numr" 
d="M465 688v-29h393v-100h-493v105q0 124 42.5 191.5t161.5 131.5q109 59 149 97.5t40 105.5q0 53 -41 88t-109 35q-65 0 -100 -34t-47 -112h-107q14 128 81.5 187t172.5 59q111 0 180.5 -62t69.5 -161q0 -102 -49.5 -158.5t-196.5 -134.5q-90 -50 -118.5 -92.5
t-28.5 -116.5z" />
    <glyph glyph-name="three.numr" 
d="M690 1012q78 -26 114 -86.5t36 -141.5q0 -105 -66 -171t-182 -66q-100 0 -169.5 56t-82.5 161h106q9 -57 46.5 -87t99.5 -30q70 0 108.5 41t38.5 117q0 69 -35.5 110t-89.5 41h-108v88h82q51 0 87 40t36 100q0 61 -35.5 98t-100.5 37q-52 0 -85.5 -31t-40.5 -90h-99
q10 104 74 159.5t151 55.5q103 0 165.5 -63.5t62.5 -155.5q0 -127 -113 -182z" />
    <glyph glyph-name="four.numr" 
d="M877 866v-98h-93v-209h-100v209h-340v98l260 535h111l-260 -535h229v199h100v-199h93z" />
    <glyph glyph-name="five.numr" 
d="M623 1108q104 0 168.5 -74.5t64.5 -208.5q0 -131 -68 -204.5t-180 -73.5q-99 0 -165.5 54.5t-75.5 154.5h98q9 -50 45.5 -79.5t97.5 -29.5q148 0 148 178q0 92 -39 137.5t-109 45.5q-48 0 -82.5 -27.5t-46.5 -71.5l-100 29l16 463h406v-101h-309l-11 -256q54 64 142 64z
" />
    <glyph glyph-name="six.numr" 
d="M625 1110q111 0 178 -75t67 -206t-67 -205.5t-178 -74.5h-2q-89 0 -148 47q-56 41 -80 115q-43 110 -43 299q0 89 13.5 158.5t37.5 115.5t58 75.5t72.5 42.5t84.5 13q98 0 160.5 -54.5t71.5 -154.5h-98q-21 109 -134 109q-169 0 -176 -281q67 76 183 76zM625 649
q145 0 145 180q0 181 -145 181q-70 0 -109 -45t-39 -136t39 -135.5t109 -44.5z" />
    <glyph glyph-name="seven.numr" 
d="M459 559l289 741h-291v-133h-101v234h496v-101l-285 -741h-108z" />
    <glyph glyph-name="eight.numr" 
d="M705 997q74 -20 112.5 -76.5t38.5 -140.5q0 -108 -67 -169.5t-179 -61.5q-114 0 -182 61.5t-68 169.5q0 85 39 142t113 75q-133 50 -133 201q0 91 63 153t168 62q103 0 166.5 -62.5t63.5 -152.5q0 -72 -34.5 -124t-100.5 -77zM463 1190q0 -62 40.5 -101.5t106.5 -39.5
q64 0 104 39.5t40 101.5t-40 99.5t-104 37.5q-65 0 -106 -37.5t-41 -99.5zM610 649q71 0 113.5 40t42.5 110q0 66 -41.5 108.5t-114.5 42.5q-76 0 -117.5 -41.5t-41.5 -109.5q0 -70 42.5 -110t116.5 -40z" />
    <glyph glyph-name="nine.numr" 
d="M827 1255q43 -110 43 -301q0 -111 -20.5 -191.5t-57.5 -126t-83 -66.5t-103 -21q-99 0 -161 54t-72 155h100q17 -109 133 -109q167 0 174 281q-67 -76 -180 -76q-111 0 -179.5 75t-68.5 206t68.5 204.5t179.5 73.5h2q94 0 154 -51q48 -42 71 -107zM600 954q145 0 145 181
q0 178 -145 178q-147 0 -147 -178q0 -90 38.5 -135.5t108.5 -45.5z" />
    <glyph glyph-name="uni2080.zero" 
d="M610 -10q-78 0 -139 20.5t-114 70t-87 129.5t-53.5 203t-19.5 287q0 163 19.5 286t54 203.5t87 130.5t114 70.5t138.5 20.5q78 0 139.5 -20.5t114 -70.5t87 -130t54 -203t19.5 -287q0 -163 -19.5 -286.5t-54 -203.5t-87 -129.5t-114 -70t-139.5 -20.5zM610 125
q56 0 97 13.5t77 50.5t58 100.5t34.5 166t12.5 244.5t-12.5 244.5t-34.5 166.5t-58 101t-77 50.5t-97 13.5t-97 -13.5t-76.5 -50.5t-57.5 -101t-34.5 -166.5t-12.5 -244.5t12.5 -244.5t34.5 -166t58 -100.5t76.5 -50.5t96.5 -13.5zM563 557v293h94v-293h-94z" />
    <glyph glyph-name="zero.dnom.zero" 
d="M610 -12q-60 0 -105 21.5t-79.5 70t-52 134.5t-17.5 208t17.5 207t52 133.5t79.5 70t105 21.5t105 -21.5t79.5 -70t52 -133.5t17.5 -207t-17.5 -208t-52 -134.5t-79.5 -70t-105 -21.5zM610 88q51 0 83 26.5t51.5 102t19.5 205.5q0 128 -19 202.5t-51 102t-84 27.5
t-84 -27t-50.5 -101.5t-18.5 -203.5q0 -131 18.5 -205.5t50.5 -101.5t84 -27zM578 313v217h65v-217h-65z" />
    <glyph glyph-name="zero.numr.zero" 
d="M610 551q-60 0 -105 21t-79.5 69.5t-52 134t-17.5 207.5t17.5 207t52 133.5t79.5 70t105 21.5t105 -21.5t79.5 -70t52 -133.5t17.5 -207t-17.5 -207.5t-52 -134t-79.5 -69.5t-105 -21zM610 649q51 0 83 26.5t51.5 102t19.5 205.5q0 128 -19 202.5t-51 102t-84 27.5
t-84 -27t-50.5 -101.5t-18.5 -203.5q0 -131 18.5 -205.5t50.5 -101.5t84 -27zM571 874v218h78v-218h-78z" />
    <glyph glyph-name="uni2070.zero" 
d="M610 -10q-78 0 -139 20.5t-114 70t-87 129.5t-53.5 203t-19.5 287q0 163 19.5 286t54 203.5t87 130.5t114 70.5t138.5 20.5q78 0 139.5 -20.5t114 -70.5t87 -130t54 -203t19.5 -287q0 -163 -19.5 -286.5t-54 -203.5t-87 -129.5t-114 -70t-139.5 -20.5zM610 125
q56 0 97 13.5t77 50.5t58 100.5t34.5 166t12.5 244.5t-12.5 244.5t-34.5 166.5t-58 101t-77 50.5t-97 13.5t-97 -13.5t-76.5 -50.5t-57.5 -101t-34.5 -166.5t-12.5 -244.5t12.5 -244.5t34.5 -166t58 -100.5t76.5 -50.5t96.5 -13.5zM563 557v293h94v-293h-94z" />
    <glyph glyph-name="periodcentered.case" 
d="M608 600q-46 0 -77 29.5t-31 72.5q0 44 31 73.5t77 29.5q45 0 77 -29.5t32 -73.5q0 -42 -32 -72t-77 -30z" />
    <glyph glyph-name="colon.case" 
d="M608 950q-46 0 -77 30.5t-31 74.5q0 43 31 71.5t77 28.5q45 0 77 -29t32 -71q0 -44 -32 -74.5t-77 -30.5zM608 231q-46 0 -77 30.5t-31 74.5q0 43 31 71.5t77 28.5q45 0 77 -29t32 -71q0 -44 -32 -74.5t-77 -30.5z" />
    <glyph glyph-name="semicolon.case" horiz-adv-x="1222" 
d="M608 915q-46 0 -77 30.5t-31 74.5q0 43 31 71.5t77 28.5q45 0 77 -29t32 -71q0 -44 -32 -74.5t-77 -30.5zM610 397q44 0 75.5 -29.5t31.5 -72.5q0 -34 -19 -59l-143 -224l-51 27l63 160q-29 11 -48 37.5t-19 58.5q0 44 32 73t78 29z" />
    <glyph glyph-name="braceleft.case" 
d="M657 934q0 -78 -44.5 -141.5t-135.5 -92.5q93 -28 136.5 -90t43.5 -143v-182q0 -63 43.5 -106.5t106.5 -43.5h156v-135h-164q-117 0 -197 79.5t-80 196.5v191q0 69 -48.5 117.5t-117.5 48.5h-61v135h61q69 0 117.5 49t48.5 117v192q0 116 80 195.5t197 79.5h164v-135
h-156q-63 0 -106.5 -43t-43.5 -105v-184z" />
    <glyph glyph-name="braceright.case" 
d="M860 768h62v-135h-62q-68 0 -117 -48.5t-49 -117.5v-191q0 -117 -79 -196.5t-195 -79.5h-164v135h156q62 0 104.5 43.5t42.5 106.5v182q0 81 44 143t138 90q-91 28 -136.5 92t-45.5 142v184q0 62 -43 105t-104 43h-156v135h164q115 0 194.5 -79.5t79.5 -195.5v-192
q0 -68 48.5 -117t117.5 -49z" />
    <glyph glyph-name="bracketleft.case" 
d="M506 0q-32 0 -53 21t-21 53v1255q0 31 21 51.5t53 20.5h397v-135h-336v-1131h336v-135h-397z" />
    <glyph glyph-name="bracketright.case" 
d="M315 0v135h334v1131h-334v135h398q31 0 51 -20.5t20 -51.5v-1255q0 -32 -20 -53t-51 -21h-398z" />
    <glyph glyph-name="parenleft.case" 
d="M893 0q-113 0 -193.5 34t-140 113.5t-88.5 216.5t-29 336t29 336.5t88.5 217t140 113.5t193.5 34h18v-135h-18q-68 0 -116 -14.5t-87.5 -51t-63 -100.5t-36 -162.5t-12.5 -237.5q0 -140 12.5 -238.5t36 -162t63.5 -100t87.5 -50.5t115.5 -14h18v-135h-18z" />
    <glyph glyph-name="parenright.case" 
d="M305 0v135h19q68 0 115.5 14t87.5 50.5t63.5 100t36 162t12.5 238.5q0 173 -18 284.5t-59 173.5t-96.5 85t-141.5 23h-19v135h19q113 0 193 -34t139.5 -113.5t88.5 -217t29 -336.5q0 -160 -19.5 -279.5t-55.5 -199.5t-92 -129.5t-124.5 -70.5t-158.5 -21h-19z" />
    <glyph glyph-name="emdash.case" 
d="M160 633v135h897v-135h-897z" />
    <glyph glyph-name="endash.case" 
d="M213 633v135h803v-135h-803z" />
    <glyph glyph-name="hyphen.case" 
d="M283 633v135h653v-135h-653z" />
    <glyph glyph-name="guillemotleft.case" 
d="M518 336l-325 366l325 367h160l-326 -367l326 -366h-160zM895 336l-326 366l326 367h160l-326 -367l326 -366h-160z" />
    <glyph glyph-name="guillemotright.case" 
d="M164 336l323 366l-323 367h160l323 -367l-323 -366h-160zM541 336l323 366l-323 367h159l324 -367l-324 -366h-159z" />
    <glyph glyph-name="guilsinglleft.case" 
d="M715 336l-324 366l324 367h159l-323 -367l323 -366h-159z" />
    <glyph glyph-name="guilsinglright.case" 
d="M342 336l326 366l-326 367h160l325 -367l-325 -366h-160z" />
    <glyph glyph-name="plus.case" 
d="M541 287v346h-346v135h346v348h135v-348h348v-135h-348v-346h-135z" />
    <glyph glyph-name="minus.case" 
d="M195 635v135h829v-135h-829z" />
    <glyph glyph-name="multiply.case" 
d="M344 342l-94 96l262 262l-260 263l94 94l262 -260l262 260l97 -94l-262 -263l262 -262l-97 -96l-262 262z" />
    <glyph glyph-name="divide.case" 
d="M610 961q-46 0 -77 30t-31 74q0 43 31 71.5t77 28.5q45 0 77 -29t32 -71q0 -44 -32 -74t-77 -30zM195 633v135h829v-135h-829zM610 260q-46 0 -77 30.5t-31 74.5q0 43 31 71.5t77 28.5q45 0 77 -29t32 -71q0 -44 -32 -74.5t-77 -30.5z" />
    <glyph glyph-name="equal.case" 
d="M195 815v135h829v-135h-829zM195 457v135h829v-135h-829z" />
    <glyph glyph-name="notequal.case" 
d="M1022 813h-270l-131 -223h401v-135h-479l-97 -166h-155l96 166h-192v135h270l131 223h-401v135h479l96 166h156l-97 -166h193v-135z" />
    <glyph glyph-name="greater.case" 
d="M223 1106l776 -313v-183l-776 -315v145l643 260l-643 261v145z" />
    <glyph glyph-name="less.case" 
d="M948 1106v-148l-641 -258l641 -260v-145l-778 313v183z" />
    <glyph glyph-name="greaterequal.case" 
d="M227 1106l764 -176v-189l-764 -196v125l660 166l-660 143v127zM227 334v123h764v-123h-764z" />
    <glyph glyph-name="lessequal.case" 
d="M991 1106v-127l-661 -143l661 -166v-125l-766 196v189zM225 334v123h766v-123h-766z" />
    <glyph glyph-name="plusminus.case" 
d="M541 528v258h-346v136h346v258h135v-258h348v-136h-348v-258h-135zM195 266v135h829v-135h-829z" />
    <glyph glyph-name="approxequal.case" 
d="M760 741q-98 0 -164 72q-26 33 -65.5 56.5t-73.5 23.5q-47 0 -81 -35t-34 -82v-22h-135v22q0 104 73 178t177 74q97 0 166 -72q26 -34 64 -56.5t73 -22.5q47 0 82 34t35 80v25h135v-25q0 -104 -74 -177t-178 -73zM760 375q-96 0 -164 71q-28 33 -66 55.5t-73 22.5
q-47 0 -81 -33.5t-34 -80.5v-25h-135v25q0 104 73 176.5t177 72.5q101 0 166 -71q26 -33 64 -55.5t73 -22.5q47 0 82 34.5t35 80.5v24h135v-24q0 -104 -74 -177t-178 -73z" />
    <glyph glyph-name="asciitilde.case" 
d="M770 541q-53 0 -90.5 17t-83.5 54q-3 3 -15 12.5t-16.5 12.5t-15.5 11.5t-16.5 11.5t-15.5 9.5t-17.5 9t-17 6t-18.5 4.5t-18 1q-39 0 -66.5 -33.5t-27.5 -81.5v-24h-135v24q0 105 66.5 177.5t162.5 72.5q53 0 91 -16.5t86 -54.5q5 -4 19.5 -15.5t21 -16.5t19 -14t21 -13
t20 -9.5t23 -7.5t23.5 -2q40 0 68 34t28 81v24h135v-24q0 -104 -67 -177t-164 -73z" />
    <glyph glyph-name="logicalnot.case" 
d="M856 481v328h-674v135h809v-463h-135z" />
    <glyph glyph-name="arrowup.case" 
d="M1079 932l-59 -60l-369 367v-1239h-84v1241l-370 -369l-58 60l469 469z" />
    <glyph glyph-name="uni2197.case" 
d="M340 1401h666v-666h-84v522l-650 -649l-59 62l649 647h-522v84z" />
    <glyph glyph-name="arrowright.case" 
d="M662 1171l468 -469l-468 -471l-60 60l367 368h-883v84h885l-369 371z" />
    <glyph glyph-name="uni2198.case" horiz-adv-x="1228" 
d="M922 666h84v-666h-666v84h522l-649 649l59 60l650 -650v523z" />
    <glyph glyph-name="arrowdown.case" 
d="M1020 528l59 -57l-471 -471l-469 471l58 57l370 -368v1241h84v-1239z" />
    <glyph glyph-name="uni2199.case" horiz-adv-x="1228" 
d="M1006 733l-650 -649h523v-84h-666v666h84v-523l649 650z" />
    <glyph glyph-name="arrowleft.case" 
d="M1130 743v-84h-882l366 -368l-57 -60l-471 471l471 469l57 -57l-368 -371h884z" />
    <glyph glyph-name="uni2196.case" 
d="M1006 670l-60 -62l-649 649v-522h-84v666h666v-84h-523z" />
    <glyph glyph-name="arrowboth.case" 
d="M743 1100l398 -398l-398 -399l-59 59l295 297h-741l294 -297l-57 -59l-399 399l399 398l57 -60l-296 -297h745l-297 297z" />
    <glyph glyph-name="bar.case" 
d="M541 0v1401h135v-1401h-135z" />
    <glyph glyph-name="brokenbar.case" 
d="M541 829v572h135v-572h-135zM541 0v571h135v-571h-135z" />
    <glyph glyph-name="bar_bar.dlig" 
d="M-20 0v1401h1257v-1401h-1257z" />
  </font>
</defs>
</svg>
