<svg xmlns="http://www.w3.org/2000/svg">
<defs>
<font id="EingrantchMono-SemiBold" horiz-adv-x="1216" >
  <font-face 
    font-family="Eingrantch Mono Semi Bold"
    font-weight="500"
    font-stretch="normal"
    units-per-em="2048"
    panose-1="2 0 7 9 0 0 0 0 0 0"
    ascent="1638"
    descent="-410"
    x-height="1044"
    cap-height="1401"
    bbox="-74 -524 3502 1870"
    underline-thickness="102"
    underline-position="-307"
    unicode-range="U+0020-1F642"
  />
<missing-glyph 
d="M80 1401v-1401h1055v1401h-1055zM258 1309l57 -197h97v-25h-115l-55 205h-66v17h82zM494 1309q-43 -54 -43 -105v-4q0 -48 43 -110h-21q-49 49 -49 110v4q0 33 14 61t35 44h21zM745 1309q20 -16 34 -44.5t14 -60.5v-4q0 -58 -48 -110h-22q43 54 43 106v8q0 58 -43 105h22
zM1038 1309v-17h-65l-55 -205h-113v25h94l55 197h84zM621 1214l-23 -6q-3 23 -23 76l23 8q16 -42 23 -78zM563 1124q98 45 107 158l22 -8q-12 -121 -114 -168zM567 1200l-26 -6q-1 13 -23 72l23 8q16 -36 26 -74zM258 1061l57 -197h97v-24h-115l-55 204h-66v17h82zM494 1061
q-43 -54 -43 -105v-4q0 -48 43 -110h-21q-49 49 -49 110v4q0 33 14 61t35 44h21zM745 1061q20 -16 34 -44.5t14 -60.5v-4q0 -58 -48 -110h-22q43 54 43 106v8q0 58 -43 105h22zM1038 1061v-17h-65l-55 -204h-113v24h94l55 197h84zM621 967l-23 -6q-3 22 -23 75l23 8
q16 -43 23 -77zM563 877q98 45 107 157l22 -8q-12 -121 -114 -168zM567 952l-26 -6q-1 13 -23 72l23 8q16 -36 26 -74zM258 811l57 -199h97v-20h-115l-55 199h-66v20h82zM494 811q-43 -58 -43 -104v-7q0 -48 43 -106h-21q-49 42 -49 106v7q0 62 49 104h21zM745 811
q48 -44 48 -104v-7q0 -62 -48 -106h-22q43 50 43 104v9q0 54 -43 104h22zM1038 811v-20h-65l-55 -199h-113v20h94l55 199h84zM598 791q12 -27 23 -74l-23 -6q-4 26 -23 73zM563 627q98 45 107 155l22 -6q-12 -124 -114 -170zM567 702l-26 -8q-1 15 -23 74l23 6
q16 -33 26 -72zM258 559l57 -199h97v-20h-115l-55 201h-66v18h82zM494 559q-43 -54 -43 -104v-6q0 -53 43 -107h-21q-49 45 -49 107v4q0 64 49 106h21zM745 559q48 -44 48 -106v-4q0 -59 -48 -107h-22q43 47 43 104v7q0 56 -43 106h22zM1038 559v-18h-65l-55 -201h-113v20

<glyph glyph-name="f_f" unicode="ff" horiz-adv-x="2433" 
d="M1978 1247q-70 0 -114.5 -41.5t-44.5 -103.5v-58h360v-172h-360v-700h436v-172h-842v172h234v700h-1045v-700h436v-172h-841v172h233v700h-233v172h233v68q0 131 91 219t231 88h350v-172h-340q-70 0 -115 -41.5t-45 -103.5v-58h1045v68q0 132 90.5 219.5t230.5 87.5h350
v-172h-340z" />
    <glyph glyph-name="f_f_i" unicode="ffi" horiz-adv-x="3649" 
d="M3072 1200q-56 0 -94.5 36.5t-38.5 88.5q0 53 38.5 88t94.5 35q55 0 93 -35t38 -88q0 -52 -38.5 -88.5t-92.5 -36.5zM3170 172h332v-172h-860v172h356v700h-1179v-700h436v-172h-842v172h234v700h-1045v-700h436v-172h-841v172h233v700h-233v172h233v68q0 131 91 219
t231 88h350v-172h-340q-70 0 -115 -41.5t-45 -103.5v-58h1045v68q0 132 90.5 219.5t230.5 87.5h350v-172h-340q-70 0 -114.5 -41.5t-44.5 -103.5v-58h1261q38 0 64 -26t26 -64v-782z" />
    <glyph glyph-name="f_i" unicode="fi" horiz-adv-x="2433" 
d="M1855 1200q-56 0 -94.5 36.5t-38.5 88.5q0 53 38.5 88t94.5 35q55 0 93.5 -35t38.5 -88q0 -52 -39 -88.5t-93 -36.5zM1954 172h332v-172h-861v172h357v700h-1180v-700h436v-172h-841v172h233v700h-233v172h233v68q0 131 91 219t231 88h350v-172h-340q-70 0 -115 -41.5
t-45 -103.5v-58h1262q38 0 64 -26t26 -64v-782z" />
    <glyph glyph-name=".notdef" 
d="M80 1401v-1401h1055v1401h-1055zM258 1309l57 -197h97v-25h-115l-55 205h-66v17h82zM494 1309q-43 -54 -43 -105v-4q0 -48 43 -110h-21q-49 49 -49 110v4q0 33 14 61t35 44h21zM745 1309q20 -16 34 -44.5t14 -60.5v-4q0 -58 -48 -110h-22q43 54 43 106v8q0 58 -43 105h22
zM1038 1309v-17h-65l-55 -205h-113v25h94l55 197h84zM621 1214l-23 -6q-3 23 -23 76l23 8q16 -42 23 -78zM563 1124q98 45 107 158l22 -8q-12 -121 -114 -168zM567 1200l-26 -6q-1 13 -23 72l23 8q16 -36 26 -74zM258 1061l57 -197h97v-24h-115l-55 204h-66v17h82zM494 1061
q-43 -54 -43 -105v-4q0 -48 43 -110h-21q-49 49 -49 110v4q0 33 14 61t35 44h21zM745 1061q20 -16 34 -44.5t14 -60.5v-4q0 -58 -48 -110h-22q43 54 43 106v8q0 58 -43 105h22zM1038 1061v-17h-65l-55 -204h-113v24h94l55 197h84zM621 967l-23 -6q-3 22 -23 75l23 8
q16 -43 23 -77zM563 877q98 45 107 157l22 -8q-12 -121 -114 -168zM567 952l-26 -6q-1 13 -23 72l23 8q16 -36 26 -74zM258 811l57 -199h97v-20h-115l-55 199h-66v20h82zM494 811q-43 -58 -43 -104v-7q0 -48 43 -106h-21q-49 42 -49 106v7q0 62 49 104h21zM745 811
q48 -44 48 -104v-7q0 -62 -48 -106h-22q43 50 43 104v9q0 54 -43 104h22zM1038 811v-20h-65l-55 -199h-113v20h94l55 199h84zM598 791q12 -27 23 -74l-23 -6q-4 26 -23 73zM563 627q98 45 107 155l22 -6q-12 -124 -114 -170zM567 702l-26 -8q-1 15 -23 74l23 6
q16 -33 26 -72zM258 559l57 -199h97v-20h-115l-55 201h-66v18h82zM494 559q-43 -54 -43 -104v-6q0 -53 43 -107h-21q-49 45 -49 107v4q0 64 49 106h21zM745 559q48 -44 48 -106v-4q0 -59 -48 -107h-22q43 47 43 104v7q0 56 -43 106h22zM1038 559v-18h-65l-55 -201h-113v20
h94l55 199h84zM598 541q12 -29 23 -76l-23 -6q-5 32 -23 73zM563 375q98 42 107 157l22 -6q-12 -125 -114 -172zM567 453l-26 -11q-1 12 -23 76l23 6q13 -26 26 -71zM258 309l57 -198h97v-21h-115l-55 199h-66v20h82zM494 309q-43 -54 -43 -104v-6q0 -51 43 -109h-21
q-49 45 -49 109v4q0 61 49 106h21zM745 309q48 -48 48 -106v-4q0 -61 -48 -109h-22q43 50 43 105v8q0 59 -43 106h22zM1038 309v-20h-65l-55 -199h-113v21h94l55 198h84zM598 291q14 -34 23 -76l-23 -6q-3 23 -23 76zM563 123q98 48 107 158l22 -7q-12 -120 -114 -170z
M541 274q17 -39 26 -75l-26 -6q-1 14 -23 73z" />
    <glyph glyph-name=".null" horiz-adv-x="0" 
 />
    <glyph glyph-name="nonmarkingreturn" horiz-adv-x="682" 
 />
    <glyph glyph-name="space" unicode=" " 
 />
    <glyph glyph-name="exclam" unicode="!" 
d="M522 432v969h172v-969h-172zM608 -18q-55 0 -93 35.5t-38 88.5q0 54 37.5 88.5t93.5 34.5q55 0 93 -35t38 -88q0 -52 -38.5 -88t-92.5 -36z" />
    <glyph glyph-name="quotedbl" unicode="&#x22;" 
d="M295 862l82 539h172l-82 -539h-172zM639 862l82 539h172l-82 -539h-172z" />
    <glyph glyph-name="numbersign" unicode="#" 
d="M1167 870h-225v-338h225v-172h-225v-360h-172v360h-311v-360h-172v360h-238v172h238v338h-238v172h238v359h172v-359h311v359h172v-359h225v-172zM770 532v338h-311v-338h311z" />
    <glyph glyph-name="dollar" unicode="$" 
d="M1030 365q0 -147 -97.5 -249t-262.5 -122v-170h-172v172q-155 23 -241 124.5t-103 305.5h180q13 -148 78.5 -206t187.5 -58q121 0 189.5 55.5t68.5 147.5q0 189 -213 251l-131 43q-168 50 -250 149t-82 236q0 140 93.5 241.5t244.5 121.5v176h172v-180
q136 -24 214 -119.5t95 -277.5h-165q-13 128 -73 180.5t-175 52.5q-106 0 -170 -54.5t-64 -140.5q0 -80 49 -133t177 -92l131 -45q158 -46 238.5 -154t80.5 -255z" />
    <glyph glyph-name="percent" unicode="%" 
d="M338 911q-103 0 -177.5 71.5t-74.5 178.5q0 110 74 181t178 71t178 -71t74 -181q0 -107 -74.5 -178.5t-177.5 -71.5zM1114 1243h-196l-527 -1243h-289v158h199l524 1243h289v-158zM338 1288q-56 0 -91.5 -36t-35.5 -91q0 -52 35.5 -87.5t91.5 -35.5q54 0 88.5 35.5
t34.5 87.5q0 55 -34 91t-89 36zM881 492q103 0 177.5 -72t74.5 -180t-74.5 -180t-177.5 -72t-177.5 72t-74.5 180q0 107 74.5 179.5t177.5 72.5zM881 113q56 0 90.5 36t34.5 91q0 54 -34.5 89.5t-90.5 35.5t-90.5 -35.5t-34.5 -89.5q0 -55 34.5 -91t90.5 -36z" />
    <glyph glyph-name="ampersand" unicode="&#x26;" 
d="M657 813q231 0 338 -121t107 -360v-332h-172v332q0 149 -55.5 232t-172.5 83h-6q57 -32 90 -104t33 -176q0 -172 -93.5 -274.5t-256.5 -102.5q-164 0 -258 102.5t-94 274.5q0 150 55 245t164 146q-95 50 -138.5 124t-43.5 189q0 154 115.5 251t285.5 97h227v-172h-227
q-98 0 -163.5 -57.5t-65.5 -159.5q0 -95 63.5 -156t151.5 -61h116zM469 162q178 0 178 246q0 105 -50.5 159t-127.5 54q-80 0 -130 -54t-50 -159q0 -246 180 -246z" />
    <glyph glyph-name="quotesingle" unicode="'" 
d="M461 862l82 539h172l-82 -539h-172z" />
    <glyph glyph-name="parenleft" unicode="(" 
d="M893 -197q-84 0 -149.5 22.5t-121.5 78.5t-93 146t-57.5 228.5t-20.5 323.5q0 184 20.5 322.5t57.5 229t93 146t121.5 78.5t149.5 23h29v-172h-29q-56 0 -95.5 -14t-74.5 -54t-55.5 -109.5t-32.5 -181t-12 -268.5t12 -268.5t32.5 -181t55.5 -109.5t74.5 -54t95.5 -14h29
v-172h-29z" />
    <glyph glyph-name="parenright" unicode=")" 
d="M295 -197v172h29q56 0 95.5 14t74.5 54t55.5 109.5t32.5 181t12 268.5t-11.5 268.5t-32.5 181t-55.5 109t-74 54t-96.5 14.5h-29v172h29q84 0 149.5 -23t121.5 -78.5t93 -146t57.5 -229t20.5 -322.5q0 -185 -20.5 -323.5t-57.5 -228.5t-93 -146t-121.5 -78.5
t-149.5 -22.5h-29z" />
    <glyph glyph-name="asterisk" unicode="*" 
d="M995 1098v-168l-317 55l264 -184l-119 -123l-186 266l57 -319h-172l58 319l-185 -266l-121 123l265 184l-318 -55v168l318 -56l-265 185l121 121l185 -267l-58 320h172l-57 -320l186 267l119 -121l-264 -185z" />
    <glyph glyph-name="plus" unicode="+" 
d="M522 172v334h-334v172h334v336h172v-336h336v-172h-336v-334h-172z" />
    <glyph glyph-name="comma" unicode="," 
d="M739 106q0 -38 -26 -75l-158 -238l-61 33l65 164q-37 14 -59.5 45.5t-22.5 70.5q0 54 38 88.5t95 34.5q53 0 91 -35t38 -88z" />
    <glyph glyph-name="hyphen" unicode="-" 
d="M276 506v172h666v-172h-666z" />
    <glyph glyph-name="period" unicode="." 
d="M608 -10q-56 0 -93.5 35.5t-37.5 89.5q0 52 37.5 86.5t93.5 34.5q55 0 93 -34.5t38 -86.5q0 -53 -38 -89t-93 -36z" />
    <glyph glyph-name="slash" unicode="/" 
d="M104 0l811 1401h197l-811 -1401h-197z" />
    <glyph glyph-name="zero" unicode="0" 
d="M610 1411q79 0 141.5 -21t116.5 -71t89 -130.5t55 -203.5t20 -285t-20 -284.5t-55 -203t-89 -130.5t-116.5 -71t-141.5 -21q-80 0 -143.5 20.5t-117 71t-89 130.5t-55 203t-19.5 285t19.5 285t55 203.5t89 130.5t117 71t143.5 21zM610 1239q-52 0 -88.5 -12t-69 -46
t-52 -93t-31 -155.5t-11.5 -232.5q0 -88 2 -127l469 471q-26 113 -79 154t-140 41zM610 162q51 0 87.5 12t68.5 46.5t51 94t30 156t11 231.5q0 86 -2 123l-467 -465q27 -114 80.5 -156t140.5 -42z" />
    <glyph glyph-name="one" unicode="1" 
d="M758 172h309v-172h-823v172h342v793h-318v172h318v264h172v-1229z" />
    <glyph glyph-name="two" unicode="2" 
d="M584 487q-94 -61 -138 -132t-51 -183h649v-172h-823v119q0 183 70.5 303t218.5 217l152 98q52 35 82.5 59t64 61.5t48.5 83t15 103.5q0 89 -61.5 142t-161.5 53q-111 0 -171 -55t-72 -185h-193q8 110 45.5 191.5t98 128.5t133 69.5t159.5 22.5q170 0 282.5 -104.5
t112.5 -262.5q0 -69 -17 -128.5t-42.5 -102.5t-69.5 -87t-83 -73t-99 -69z" />
    <glyph glyph-name="three" unicode="3" 
d="M776 760q120 -44 179 -139t59 -218q0 -186 -116 -299.5t-302 -113.5q-82 0 -152.5 22.5t-127 67.5t-91 119t-39.5 170h181q26 -207 239 -207q108 0 172 64.5t64 176.5q0 114 -63 181t-152 67h-193v164h137q86 0 144.5 61t58.5 154q0 94 -55.5 151.5t-147.5 57.5
q-83 0 -137 -50t-67 -155h-181q9 188 118 282.5t271 94.5q154 0 262.5 -101.5t108.5 -244.5q0 -214 -170 -305z" />
    <glyph glyph-name="four" unicode="4" 
d="M1022 518v-172h-111v-346h-172v346h-551v172l426 883h193l-430 -883h362v324h172v-324h111z" />
    <glyph glyph-name="five" unicode="5" 
d="M627 907q172 0 279.5 -119.5t107.5 -338.5q0 -220 -111.5 -339.5t-300.5 -119.5q-175 0 -278.5 93t-124.5 282h180q13 -106 69 -154.5t160 -48.5q116 0 175 68.5t59 218.5q0 286 -230 286q-88 0 -146 -42t-73 -113l-172 51l82 770h615v-172h-467l-45 -398q79 76 221 76z
" />
    <glyph glyph-name="six" unicode="6" 
d="M623 905q174 0 285.5 -116.5t111.5 -339.5q0 -217 -115.5 -338t-296.5 -121q-452 0 -452 706q0 159 23.5 282.5t64 204t99 132.5t123 74t140.5 22q170 0 274 -99.5t126 -289.5h-179q-35 217 -227 217q-45 0 -81.5 -12t-71.5 -44t-59 -84.5t-39.5 -139t-18.5 -201.5v-21
q42 92 115.5 130t177.5 38zM608 162q240 0 240 287q0 286 -240 286q-120 0 -191 -68.5t-71 -213.5q19 -291 262 -291z" />
    <glyph glyph-name="seven" unicode="7" 
d="M209 1401h827v-172l-471 -1229h-184l473 1229h-473v-223h-172v395z" />
    <glyph glyph-name="eight" unicode="8" 
d="M791 719q123 -35 185 -131t62 -221q0 -181 -116.5 -279t-311.5 -98t-310.5 98t-115.5 279q0 125 62.5 221.5t183.5 130.5q-104 37 -155.5 122.5t-51.5 205.5q0 159 103.5 261.5t283.5 102.5q182 0 285.5 -102.5t103.5 -261.5q0 -119 -51.5 -205t-156.5 -123zM610 1249
q-102 0 -158.5 -62t-56.5 -165q0 -105 55.5 -170.5t159.5 -65.5t160.5 65.5t56.5 170.5q0 103 -57.5 165t-159.5 62zM610 162q121 0 188.5 63t67.5 185q0 117 -70 180t-186 63q-113 0 -183.5 -62.5t-70.5 -180.5q0 -122 66.5 -185t187.5 -63z" />
    <glyph glyph-name="nine" unicode="9" 
d="M602 1411q451 0 451 -704q0 -159 -24 -283.5t-64.5 -205t-98.5 -132.5t-122 -74t-140 -22q-170 0 -274 99.5t-127 289.5h180q30 -217 227 -217q45 0 82 11.5t72.5 44t60 85t39.5 139t15 201.5v19q-77 -166 -291 -166q-84 0 -155 28.5t-126 83.5t-86 143t-31 201
q0 218 114.5 338.5t297.5 120.5zM602 666q118 0 190 69.5t72 214.5q-19 289 -262 289q-240 0 -240 -287q0 -286 240 -286z" />
    <glyph glyph-name="colon" unicode=":" 
d="M608 657q-56 0 -93.5 35.5t-37.5 89.5q0 52 37.5 86.5t93.5 34.5q55 0 93 -34.5t38 -86.5q0 -53 -38 -89t-93 -36zM608 -20q-56 0 -93.5 35t-37.5 89q0 52 37.5 86.5t93.5 34.5q55 0 93 -34.5t38 -86.5q0 -53 -38 -88.5t-93 -35.5z" />
    <glyph glyph-name="semicolon" unicode=";" 
d="M608 668q-56 0 -93.5 35.5t-37.5 89.5q0 52 37.5 86t93.5 34q55 0 93 -34t38 -86q0 -53 -38 -89t-93 -36zM610 229q53 0 91 -35t38 -88q0 -38 -26 -75l-158 -238l-61 33l65 164q-37 14 -59.5 45.5t-22.5 70.5q0 54 38 88.5t95 34.5z" />
    <glyph glyph-name="less" unicode="&#x3c;" 
d="M944 160l-784 315v232l784 317v-186l-612 -246l612 -248v-184z" />
    <glyph glyph-name="equal" unicode="=" 
d="M188 690v172h842v-172h-842zM188 322v172h842v-172h-842z" />
    <glyph glyph-name="greater" unicode="&#x3e;" 
d="M227 160v184l611 248l-611 246v186l783 -317v-232z" />
    <glyph glyph-name="question" unicode="?" 
d="M492 473v37q0 197 219 324q125 76 125 200q0 87 -65.5 142t-178.5 55q-212 0 -238 -213h-180q20 194 129 289.5t283 95.5q188 0 305 -106t117 -263q0 -106 -55 -197t-156 -153q-133 -77 -133 -174v-37h-172zM578 -10q-56 0 -94 35.5t-38 89.5q0 52 38 86.5t94 34.5
q55 0 93 -34.5t38 -86.5q0 -53 -38 -89t-93 -36z" />
    <glyph glyph-name="at" unicode="@" 
d="M627 1411q166 0 266 -63.5t147 -203t47 -374.5v-518h-120l-21 164q-37 -90 -103.5 -135t-150.5 -45q-139 0 -218 114t-79 344q0 229 79 343t218 114q77 0 140 -39t102 -115q-20 158 -89 220.5t-218 62.5q-88 0 -148.5 -27.5t-103 -94t-62.5 -179t-20 -279.5
q0 -165 24.5 -278t74 -178t117 -93t161.5 -28h417v-133h-417q-97 0 -173 22.5t-139 73.5t-105 132.5t-64.5 202.5t-22.5 279q0 199 29 337t89 220t143.5 118t199.5 36zM741 379q99 0 152 73t53 242t-53 242.5t-152 73.5q-100 0 -152 -73t-52 -243t52 -242.5t152 -72.5z" />
    <glyph glyph-name="A" unicode="A" 
d="M952 0l-88 319h-512l-88 -319h-180l403 1401h242l404 -1401h-181zM401 492h416l-209 747z" />
    <glyph glyph-name="B" unicode="B" 
d="M870 735q93 -48 146 -133.5t53 -195.5q0 -185 -117.5 -295.5t-296.5 -110.5h-487v1401h424q176 0 288.5 -111t112.5 -282q0 -169 -123 -273zM592 1229h-252v-445h252q101 0 165 66t64 158q0 99 -62.5 160t-166.5 61zM655 172q109 0 175.5 60t66.5 174q0 107 -68 171
t-174 64h-315v-469h315z" />
    <glyph glyph-name="C" unicode="C" 
d="M643 -10q-89 0 -157 21t-124.5 70.5t-92.5 130.5t-56 203t-20 285q0 203 29.5 343t89.5 220t140 114t191 34q168 0 277 -115t129 -338h-172q-18 154 -79 217.5t-169 63.5q-56 0 -95 -12t-73 -46t-54 -94t-31 -155.5t-11 -231.5q0 -135 11 -230.5t31 -155.5t54 -94t73 -46
t95 -12q107 0 168.5 64t79.5 218h172q-20 -224 -129 -339t-277 -115z" />
    <glyph glyph-name="D" unicode="D" 
d="M209 0v1401h293q530 0 530 -701q0 -700 -530 -700h-293zM381 172h135q59 0 107.5 14t93.5 50t75.5 94.5t49 152t18.5 217.5t-18.5 217.5t-49 152t-75.5 95t-93.5 50.5t-107.5 14h-135v-1057z" />
    <glyph glyph-name="E" unicode="E" 
d="M1051 1229h-652v-443h562v-172h-562v-442h652v-172h-824v1401h824v-172z" />
    <glyph glyph-name="F" unicode="F" 
d="M1094 1229h-652v-467h549v-172h-549v-590h-172v1401h824v-172z" />
    <glyph glyph-name="G" unicode="G" 
d="M602 760h447v-760h-146l-29 199q-71 -209 -286 -209q-72 0 -130.5 20.5t-109.5 71t-85 130.5t-53.5 204t-19.5 286q1 162 21 284.5t56 202.5t91 130t119.5 71t147.5 21q175 0 280 -113.5t125 -339.5h-172q-18 156 -74.5 218.5t-167.5 62.5q-53 0 -90 -12t-70 -46
t-52.5 -93.5t-30.5 -155t-11 -230.5t12.5 -232t34 -156.5t57 -93.5t73.5 -46t90 -12q46 0 81 9.5t66.5 34t52 65t32 104.5t11.5 151v62h-270v172z" />
    <glyph glyph-name="H" unicode="H" 
d="M848 1401h172v-1401h-172v614h-479v-614h-172v1401h172v-615h479v615z" />
    <glyph glyph-name="I" unicode="I" 
d="M694 172h326v-172h-823v172h325v1057h-311v172h795v-172h-312v-1057z" />
    <glyph glyph-name="J" unicode="J" 
d="M575 -10q-168 0 -274.5 89.5t-128.5 272.5h178q15 -100 70 -145t162 -45q235 0 235 297v770h-584v172h756v-975q0 -203 -113 -319.5t-301 -116.5z" />
    <glyph glyph-name="K" unicode="K" 
d="M942 0l-385 680l-190 -244v-436h-172v1401h172v-688l534 688h219l-448 -576l469 -825h-199z" />
    <glyph glyph-name="L" unicode="L" 
d="M246 0v1401h172v-1229h633v-172h-805z" />
    <glyph glyph-name="M" unicode="M" 
d="M860 1401h211v-1401h-172v1022l-219 -660h-141l-222 660v-1022h-172v1401h213l250 -766z" />
    <glyph glyph-name="N" unicode="N" 
d="M883 1401h172v-1401h-215l-506 1100v-1100h-172v1401h217l504 -1100v1100z" />
    <glyph glyph-name="O" unicode="O" 
d="M608 -10q-80 0 -143 20.5t-116.5 71t-89 130.5t-55.5 203t-20 285q0 201 30 342t87.5 220.5t132 114t174.5 34.5q79 0 142 -21t117 -71t89.5 -130.5t55.5 -203.5t20 -285t-20 -285t-55.5 -203t-89.5 -130.5t-117 -71t-142 -20.5zM608 162q52 0 88.5 12t69 46t52 93
t31 155.5t11.5 231.5t-11 231.5t-30.5 156t-52 93.5t-69.5 46t-89 12t-89 -12t-69.5 -46t-52 -93.5t-30.5 -156t-11 -231.5t11 -231t30.5 -155.5t52 -93.5t69.5 -46t89 -12z" />
    <glyph glyph-name="P" unicode="P" 
d="M627 1401q198 0 320 -118.5t122 -319.5q0 -199 -123 -319t-319 -120h-209v-524h-172v1401h381zM612 696q285 0 285 267q0 134 -70 200t-215 66h-194v-533h194z" />
    <glyph glyph-name="Q" unicode="Q" 
d="M1032 700q0 -504 -201 -649l87 -229h-173l-65 172q-46 -4 -72 -4q-80 0 -143 20.5t-116.5 71t-89 130.5t-55.5 203t-20 285q0 201 30 342t87.5 220.5t132 114t174.5 34.5q79 0 142 -21t117 -71t89.5 -130.5t55.5 -203.5t20 -285zM356 700q0 -135 11 -231t30.5 -155.5
t52 -93.5t69.5 -46t89 -12t88.5 12t69 46t52 93t31 155.5t11.5 231.5t-11 231.5t-30.5 156t-52 93.5t-69.5 46t-89 12t-89 -12t-69.5 -46t-52 -93.5t-30.5 -156t-11 -231.5z" />
    <glyph glyph-name="R" unicode="R" 
d="M1079 0h-198l-226 526q-16 -2 -51 -2h-209v-524h-172v1401h381q198 0 320.5 -118.5t122.5 -319.5q0 -135 -60.5 -236.5t-165.5 -155.5zM590 696q145 0 214.5 67t69.5 200q0 134 -69.5 200t-214.5 66h-195v-533h195z" />
    <glyph glyph-name="S" unicode="S" 
d="M600 -10q-203 0 -315 100.5t-131 335.5h180q13 -148 78.5 -206t187.5 -58q121 0 189.5 55.5t68.5 147.5q0 189 -213 251l-131 43q-168 50 -250 149t-82 236q0 157 114 262t292 105q186 0 289.5 -95.5t123.5 -309.5h-165q-13 128 -73 180.5t-175 52.5q-106 0 -170 -54.5
t-64 -140.5q0 -80 49 -133t177 -92l131 -45q158 -46 238.5 -154t80.5 -255q0 -163 -118.5 -269t-311.5 -106z" />
    <glyph glyph-name="T" unicode="T" 
d="M1053 1401v-158h-359v-1243h-172v1243h-356v158h887z" />
    <glyph glyph-name="U" unicode="U" 
d="M608 -10q-193 0 -308.5 117.5t-115.5 316.5v977h172v-916q0 -169 64 -246t188 -77t188 76.5t64 246.5v916h172v-977q0 -198 -116 -316t-308 -118z" />
    <glyph glyph-name="V" unicode="V" 
d="M956 1401h181l-422 -1401h-213l-420 1401h180l346 -1194z" />
    <glyph glyph-name="W" unicode="W" 
d="M961 1401h176l-222 -1401h-167l-140 643l-139 -643h-166l-223 1401h176l154 -1018l98 483h203l98 -479z" />
    <glyph glyph-name="X" unicode="X" 
d="M1124 0h-196l-318 584l-319 -584h-199l404 717l-385 684h198l299 -543l301 543h197l-383 -684z" />
    <glyph glyph-name="Y" unicode="Y" 
d="M694 547v-375h326v-172h-823v172h325v375l-416 854h193l309 -653l310 653h194z" />
    <glyph glyph-name="Z" unicode="Z" 
d="M381 172h639v-172h-830v172l619 1057h-604v172h796v-172z" />
    <glyph glyph-name="bracketleft" unicode="[" 
d="M489 -197q-39 0 -64.5 26t-25.5 65v1417q0 39 25.5 64.5t64.5 25.5h408v-172h-326v-1254h326v-172h-408z" />
    <glyph glyph-name="backslash" unicode="\" 
d="M915 0l-811 1401h197l811 -1401h-197z" />
    <glyph glyph-name="bracketright" unicode="]" 
d="M322 -197v172h323v1254h-323v172h407q38 0 63 -26t25 -64v-1417q0 -39 -25 -65t-63 -26h-407z" />
    <glyph glyph-name="asciicircum" unicode="^" 
d="M240 772l268 629h201l268 -629h-184l-185 457l-182 -457h-186z" />
    <glyph glyph-name="underscore" unicode="_" 
d="M215 -256v172h786v-172h-786z" />
    <glyph glyph-name="grave" unicode="`" 
d="M635 1163l-221 273h204l138 -273h-121z" />
    <glyph glyph-name="a" unicode="a" 
d="M1028 172h45v-172h-143q-142 0 -142 143v31q-46 -89 -125.5 -137t-183.5 -47q-148 0 -241 78t-93 221q0 146 108.5 234.5t334.5 88.5h200v76q0 88 -57 141.5t-141 53.5q-174 0 -207 -150h-188q13 150 126 236t269 86q167 0 275 -100t108 -267v-463q0 -28 13 -40.5
t42 -12.5zM532 156q122 0 189 61t67 174v84h-200q-121 0 -184.5 -46.5t-63.5 -117.5q0 -68 49 -111.5t143 -43.5z" />
    <glyph glyph-name="b" unicode="b" 
d="M682 1055q165 0 257.5 -130.5t92.5 -402.5t-92.5 -402t-257.5 -130q-101 0 -179 50.5t-122 154.5l-27 -195h-145v1401h172v-535q43 107 118 148t183 41zM621 162q119 0 179 81t60 279q0 200 -59.5 280.5t-179.5 80.5q-57 0 -99 -17.5t-75 -58t-49.5 -112t-16.5 -173.5
q0 -197 61 -278.5t179 -81.5z" />
    <glyph glyph-name="c" unicode="c" 
d="M633 -10q-197 0 -307.5 131t-110.5 401q0 272 110.5 402.5t307.5 130.5q80 0 146.5 -21.5t120 -66t87 -118.5t43.5 -173h-178q-15 111 -67 159t-152 48q-82 0 -134 -31t-82 -112t-30 -218q0 -198 61 -279t185 -81q99 0 151.5 49t67.5 160h178q-10 -99 -43.5 -173
t-87 -119t-120 -67t-146.5 -22z" />
    <glyph glyph-name="d" unicode="d" 
d="M844 1401h172v-1401h-146l-26 195q-44 -104 -122 -154.5t-179 -50.5q-165 0 -257.5 130t-92.5 402t92.5 402.5t257.5 130.5q108 0 183 -41t118 -148v535zM604 162q118 0 179 81.5t61 278.5q0 102 -16.5 173.5t-49.5 112t-75 58t-99 17.5q-120 0 -179.5 -80.5
t-59.5 -280.5q0 -198 60 -279t179 -81z" />
    <glyph glyph-name="e" unicode="e" 
d="M377 463q9 -166 67.5 -235.5t167.5 -69.5q96 0 155.5 46t74.5 136h178q-32 -178 -135.5 -267t-266.5 -89q-195 0 -305 133.5t-110 404.5q0 272 109.5 405.5t301.5 133.5q191 0 301.5 -131t110.5 -387v-80h-649zM614 889q-104 0 -163 -64.5t-72 -214.5h473
q-10 149 -70.5 214t-167.5 65z" />
    <glyph glyph-name="f" unicode="f" 
d="M762 1247q-70 0 -115 -41.5t-45 -103.5v-58h361v-172h-361v-700h436v-172h-841v172h233v700h-233v172h233v68q0 131 91 219t231 88h350v-172h-340z" />
    <glyph glyph-name="g" unicode="g" 
d="M485 -182h613v-174h-654q-67 0 -122 15t-99.5 46t-69 85t-24.5 126q0 98 44.5 177.5t131.5 119.5q-131 122 -131 360q0 231 99 356.5t278 125.5q242 0 330 -211l26 200h144v-466q0 -230 -116 -349.5t-323 -119.5q-137 0 -229 51q-88 -67 -88 -170q0 -172 190 -172z
M612 883q-266 0 -266 -310q0 -159 66 -232t200 -73t200.5 74t66.5 236q0 305 -267 305z" />
    <glyph glyph-name="h" unicode="h" 
d="M684 1057q160 0 251 -106.5t91 -280.5v-670h-172v573q0 312 -233 312q-59 0 -103 -18t-77 -58.5t-49.5 -112t-16.5 -172.5v-524h-172v1401h172v-522q45 101 117.5 139.5t191.5 38.5z" />
    <glyph glyph-name="i" unicode="i" 
d="M651 1200q-58 0 -94.5 32t-36.5 93q0 60 36.5 91.5t94.5 31.5q57 0 94 -31.5t37 -91.5t-37 -92.5t-94 -32.5zM737 172h332v-172h-860v172h356v700h-289v172h371q38 0 64 -26t26 -64v-782z" />
    <glyph glyph-name="j" unicode="j" 
d="M836 1200q-59 0 -96.5 32.5t-37.5 92.5t37.5 91.5t96.5 31.5q57 0 94 -31.5t37 -91.5t-37 -92.5t-94 -32.5zM211 -362v172h393q60 0 103 42.5t43 102.5v917h-435v172h516q39 0 65 -26t26 -64v-1011q0 -129 -88.5 -217t-217.5 -88h-405z" />
    <glyph glyph-name="k" unicode="k" 
d="M907 0l-319 489l-164 -186v-303h-172v1401h172v-834l426 477h223l-366 -419l401 -625h-201z" />
    <glyph glyph-name="l" unicode="l" 
d="M756 0q-130 0 -218.5 88t-88.5 219v922h-334v172h415q38 0 64.5 -26t26.5 -64v-994q0 -60 42.5 -102.5t102.5 -42.5h326v-172h-336z" />
    <glyph glyph-name="m" unicode="m" 
d="M870 1057q98 0 167 -74.5t69 -181.5v-801h-172v774q0 49 -32.5 80t-82.5 31q-54 0 -86.5 -32t-32.5 -85v-768h-172v774q0 49 -32 80t-82 31q-67 0 -97 -47l2 -11l-10 -4q-14 -35 -14 -75v-748h-172v1044h145l25 -104q26 64 68.5 90.5t103.5 26.5q65 0 110 -34t70 -118
q48 152 225 152z" />
    <glyph glyph-name="n" unicode="n" 
d="M696 1057q162 0 247 -107.5t85 -271.5v-678h-174v635q0 123 -63.5 190.5t-172.5 67.5q-243 0 -243 -367v-526h-172v1044h145l29 -231q65 244 319 244z" />
    <glyph glyph-name="o" unicode="o" 
d="M608 -12q-190 0 -300.5 133t-110.5 401q0 271 110 403t301 132q190 0 301 -133t111 -402t-111 -401.5t-301 -132.5zM608 160q118 0 179 81.5t61 280.5q0 103 -16 174t-48 112t-74.5 59t-101.5 18q-118 0 -178.5 -82t-60.5 -281q0 -101 16.5 -172.5t48.5 -112.5t74.5 -59
t99.5 -18zM549 653h121v-262h-121v262z" />
    <glyph glyph-name="p" unicode="p" 
d="M674 1055q165 0 257.5 -130.5t92.5 -402.5t-92.5 -402t-257.5 -130q-109 0 -183.5 40.5t-117.5 147.5v-534h-172v1400h145l27 -194q44 104 122 154.5t179 50.5zM612 162q79 0 129.5 31t80.5 112t30 217q0 198 -60.5 279.5t-179.5 81.5q-77 0 -128 -32t-81 -113.5
t-30 -215.5q0 -102 16.5 -173.5t49 -111.5t74.5 -57.5t99 -17.5z" />
    <glyph glyph-name="q" unicode="q" 
d="M862 1044h146v-1400h-172v534q-43 -107 -117.5 -147.5t-183.5 -40.5q-165 0 -258 130.5t-93 401.5t93 402t258 131q101 0 179 -50.5t122 -154.5zM596 162q57 0 99 17.5t75 57.5t49.5 111.5t16.5 173.5q0 197 -61 279t-179 82q-119 0 -179.5 -81.5t-60.5 -279.5
q0 -136 30 -217t80.5 -112t129.5 -31z" />
    <glyph glyph-name="r" unicode="r" 
d="M788 891q-133 0 -208.5 -88.5t-75.5 -222.5v-408h467v-172h-848v172h209v700h-209v172h354l31 -198q36 104 118.5 156.5t198.5 52.5h209v-164h-246z" />
    <glyph glyph-name="s" unicode="s" 
d="M625 -10q-178 0 -293 86t-133 276h192q12 -109 72 -157t170 -48q103 0 160 42t57 106q0 60 -40.5 104.5t-117.5 57.5l-166 35q-301 59 -301 280q0 123 100 203t273 80q157 0 263.5 -75.5t127.5 -229.5h-178q-10 70 -67.5 108.5t-151.5 38.5q-100 0 -145.5 -37t-45.5 -88
q0 -52 35 -88t109 -49l172 -33q142 -29 223.5 -108.5t81.5 -204.5q0 -129 -109.5 -214t-287.5 -85z" />
    <glyph glyph-name="t" unicode="t" 
d="M1067 872h-477v-555q0 -60 42.5 -102.5t102.5 -42.5h312v-172h-322q-130 0 -218.5 89t-88.5 218v565h-283v172h283v283h172v-283h477v-172z" />
    <glyph glyph-name="u" unicode="u" 
d="M608 -10q-180 0 -295.5 109t-115.5 270v675h172v-647q0 -109 63.5 -172t175.5 -63t176 63t64 172v647h172v-675q0 -160 -116.5 -269.5t-295.5 -109.5z" />
    <glyph glyph-name="v" unicode="v" 
d="M901 1044h182l-385 -1044h-180l-385 1044h180l295 -835z" />
    <glyph glyph-name="w" unicode="w" 
d="M950 1044h174l-217 -1044h-162l-137 653l-137 -653h-160l-219 1044h174l135 -661l115 602h184l115 -604z" />
    <glyph glyph-name="x" unicode="x" 
d="M1081 0h-204l-269 426l-266 -426h-207l365 541l-346 503h208l246 -374l246 374h211l-348 -503z" />
    <glyph glyph-name="y" unicode="y" 
d="M1100 1044l-410 -1228h326v-172h-799v172h303l60 184h-78l-371 1044h188l308 -897l286 897h187z" />
    <glyph glyph-name="z" unicode="z" 
d="M219 0v172l541 700h-522v172h749v-172l-541 -700h560v-172h-787z" />
    <glyph glyph-name="braceleft" unicode="{" 
d="M676 840q0 -80 -44 -144t-143 -94q99 -29 143 -92.5t44 -144.5v-269q0 -51 35 -86t86 -35h164v-172h-175q-120 0 -201 81.5t-81 201.5v279q0 63 -44.5 107t-107.5 44h-69v172h69q63 0 107.5 45t44.5 107v280q0 119 81 200t201 81h175v-172h-164q-51 0 -86 -34.5
t-35 -84.5v-270z" />
    <glyph glyph-name="bar" unicode="|" 
d="M522 -197v1598h172v-1598h-172z" />
    <glyph glyph-name="braceright" unicode="}" 
d="M864 688h70v-172h-70q-62 0 -106.5 -44t-44.5 -107v-279q0 -120 -81 -201.5t-200 -81.5h-176v172h166q50 0 84.5 35t34.5 86v269q0 183 188 237q-99 30 -143.5 94t-44.5 144v270q0 50 -34.5 84.5t-84.5 34.5h-166v172h176q118 0 199.5 -81.5t81.5 -199.5v-280
q0 -62 44 -107t107 -45z" />
    <glyph glyph-name="asciitilde" unicode="~" 
d="M772 465q-49 0 -87.5 13.5t-62.5 33.5t-45 39.5t-47.5 33t-58.5 13.5q-43 0 -70.5 -28.5t-27.5 -77.5v-17h-172v31q0 119 68 191.5t175 72.5q59 0 104.5 -21t69 -45.5t56.5 -45.5t71 -21q43 0 72 28.5t29 75.5v17h172v-29q0 -120 -69 -192t-177 -72z" />
    <glyph glyph-name="exclamdown" unicode="&#xa1;" 
d="M608 1171q-56 0 -93.5 34.5t-37.5 88.5q0 53 38 89t93 36q54 0 92.5 -36.5t38.5 -88.5q0 -53 -38 -88t-93 -35zM522 0v969h172v-969h-172z" />
    <glyph glyph-name="cent" unicode="&#xa2;" 
d="M633 338q99 0 151.5 49t67.5 160h178q-17 -170 -100 -262t-217 -113v-172h-172v174q-155 29 -240.5 158t-85.5 366q0 238 85.5 368t240.5 157v178h172v-176q134 -20 217 -111.5t100 -261.5h-178q-15 111 -67 159t-152 48q-82 0 -134 -31t-82 -112t-30 -218
q0 -198 61 -279t185 -81z" />
    <glyph glyph-name="sterling" unicode="&#xa3;" 
d="M442 172h625v-172h-917v172h20q58 0 96.5 39t38.5 96v307h-155v172h155v258q0 154 109 260.5t266 106.5q66 0 125.5 -22t109.5 -65t83.5 -113.5t43.5 -161.5h-180q-12 93 -63 141.5t-127 48.5q-84 0 -139.5 -57t-55.5 -140v-256h414v-172h-414v-309q0 -71 -35 -133z" />
    <glyph glyph-name="currency" unicode="&#xa4;" 
d="M995 662q0 -121 -65 -218l143 -143l-102 -104l-144 145q-96 -68 -219 -68q-121 0 -217 68l-143 -145l-103 104l144 141q-68 100 -68 220q0 119 68 219l-144 141l103 104l141 -143q100 68 219 68q123 0 219 -68l144 143l102 -104l-143 -143q65 -97 65 -217zM608 420
q101 0 172.5 70.5t71.5 171.5q0 100 -71.5 171.5t-172.5 71.5q-100 0 -171.5 -71.5t-71.5 -171.5q0 -101 71.5 -171.5t171.5 -70.5z" />
    <glyph glyph-name="yen" unicode="&#xa5;" 
d="M1112 1401l-356 -729h252v-172h-314v-135h314v-172h-314v-193h-172v193h-313v172h313v135h-313v172h252l-355 729h193l309 -653l310 653h194z" />
    <glyph glyph-name="brokenbar" unicode="&#xa6;" 
d="M522 731v670h172v-670h-172zM522 -197v670h172v-670h-172z" />
    <glyph glyph-name="section" unicode="&#xa7;" 
d="M1079 391q0 -117 -84 -219q29 -76 29 -154q0 -158 -113.5 -266t-289.5 -108q-185 0 -290.5 99t-125.5 314h166q15 -129 74.5 -185t168.5 -56q110 0 174 57.5t64 144.5q0 81 -48 135t-175 93l-170 53q-146 43 -234 135.5t-88 237.5q0 117 84 219q-31 73 -31 153
q0 158 114.5 265.5t291.5 107.5q185 0 289.5 -98t124.5 -313h-166q-13 128 -72.5 183.5t-169.5 55.5t-175 -57t-65 -144q0 -80 49.5 -133.5t176.5 -91.5l170 -53q145 -43 233 -136.5t88 -238.5zM537 455l157 -52q111 -34 187 -88q26 29 26 76q0 83 -60.5 134.5t-168.5 84.5
l-156 49q-113 34 -188 91q-25 -36 -25 -78q0 -83 60.5 -133.5t167.5 -83.5z" />
    <glyph glyph-name="dieresis" unicode="&#xa8;" 
d="M438 1233q-57 0 -95 35.5t-38 89.5q0 52 38 86.5t95 34.5q53 0 91 -34.5t38 -86.5q0 -53 -38 -89t-91 -36zM782 1233q-57 0 -95 35.5t-38 89.5q0 52 38 86.5t95 34.5q53 0 91 -34.5t38 -86.5q0 -53 -38 -89t-91 -36z" />
    <glyph glyph-name="copyright" unicode="&#xa9;" 
d="M608 55q-190 0 -324 134t-134 325t134 325t324 134t324.5 -134.5t134.5 -324.5t-134.5 -324.5t-324.5 -134.5zM608 154q150 0 255.5 105t105.5 255q0 151 -105 255.5t-256 104.5q-150 0 -255 -105t-105 -255q0 -149 105.5 -254.5t254.5 -105.5zM614 242
q-100 0 -156.5 67.5t-56.5 204.5q0 138 56 205t157 67q83 0 138 -48t65 -146h-94q-9 56 -35 79t-74 23q-62 0 -92 -39t-30 -141q0 -101 30 -140.5t92 -39.5q47 0 73.5 23.5t35.5 78.5h94q-10 -97 -65.5 -145.5t-137.5 -48.5z" />
    <glyph glyph-name="ordfeminine" unicode="&#xaa;" 
d="M600 1407q106 0 174 -60.5t68 -162.5v-410h-99l-30 96q-46 -104 -172 -104q-106 0 -155.5 52t-49.5 124q0 91 56 144t177 53h146v45q0 46 -30 74t-81 28q-44 0 -70.5 -20.5t-31.5 -57.5h-137q14 93 75 146t160 53zM569 860q71 0 108.5 41t37.5 107v53h-117
q-152 0 -152 -98q0 -45 30.5 -74t92.5 -29zM348 492v126h494v-126h-494z" />
    <glyph glyph-name="guillemotleft" unicode="&#xab;" 
d="M477 225l-315 367l315 366h203l-315 -366l315 -367h-203zM885 225l-314 367l314 366h202l-313 -366l313 -367h-202z" />
    <glyph glyph-name="logicalnot" unicode="&#xac;" 
d="M829 289v319h-657v172h829v-491h-172z" />
    <glyph glyph-name="registered" unicode="&#xae;" 
d="M608 1411q190 0 324.5 -134.5t134.5 -324.5t-134 -324t-325 -134q-190 0 -324 134t-134 324q0 191 134 325t324 134zM608 592q150 0 255.5 105t105.5 255q0 151 -105 256t-256 105q-150 0 -255 -105.5t-105 -255.5q0 -149 105.5 -254.5t254.5 -105.5zM793 1049
q0 -114 -95 -144l97 -209h-82l-90 199h-105v-199h-72v508h183q77 0 120.5 -38t43.5 -117zM518 967h82q58 0 88.5 16.5t30.5 65.5t-30.5 65t-88.5 16h-82v-163z" />
    <glyph glyph-name="macron" unicode="&#xaf;" 
d="M346 1206v146h526v-146h-526z" />
    <glyph glyph-name="degree" unicode="&#xb0;" 
d="M573 1006q-93 0 -159 66t-66 159q0 94 65.5 159.5t159.5 65.5t160 -65.5t66 -159.5t-64.5 -159.5t-161.5 -65.5zM573 1114q46 0 81.5 31t35.5 86t-36 87t-81 32t-80.5 -32t-35.5 -87t35.5 -86t80.5 -31z" />
    <glyph glyph-name="plusminus" unicode="&#xb1;" 
d="M522 422v270h-334v172h334v273h172v-273h336v-172h-336v-270h-172zM188 135v172h842v-172h-842z" />
    <glyph glyph-name="uni00B2" unicode="&#xb2;" 
d="M483 1061v-19h381v-127h-506v113q0 126 43 195.5t160 130.5q102 53 139 87t37 99q0 45 -34.5 73.5t-94.5 28.5q-61 0 -91 -28t-40 -98h-135q14 133 85 193t181 60q115 0 185.5 -62.5t70.5 -166.5q0 -109 -49 -165.5t-201 -135.5q-78 -42 -103.5 -78.5t-27.5 -99.5z" />
    <glyph glyph-name="uni00B3" unicode="&#xb3;" 
d="M702 1368q144 -52 144 -227q0 -102 -67.5 -169t-186.5 -67q-105 0 -178 60t-84 176h135q15 -109 127 -109q62 0 95.5 34t33.5 101q0 63 -30.5 99.5t-76.5 36.5h-112v110h92q44 0 73 33.5t29 89.5q0 54 -30 85.5t-88 31.5q-101 0 -113 -109h-125q10 111 77.5 169.5
t160.5 58.5q104 0 168.5 -65t64.5 -159q0 -127 -109 -180z" />
    <glyph glyph-name="acute" unicode="&#xb4;" 
d="M498 1163l135 273h205l-222 -273h-118z" />
    <glyph glyph-name="uni00B5" unicode="&#xb5;" 
d="M1071 172h57v-172h-55q-60 0 -105 23.5t-65 66.5q-92 -106 -250 -106q-118 0 -191 40.5t-118 143.5v-524h-172v1400h172v-524q0 -198 62.5 -281t183.5 -83q233 0 233 315v573h172v-796q0 -30 23 -53t53 -23z" />
    <glyph glyph-name="paragraph" unicode="&#xb6;" 
d="M948 1401v-1401h-172v1243h-67v-1243h-172v707h-52q-123 0 -204.5 94t-81.5 256q0 159 82 251.5t204 92.5h463z" />
    <glyph glyph-name="periodcentered" unicode="&#xb7;" 
d="M608 469q-56 0 -93.5 35.5t-37.5 87.5q0 54 37.5 88.5t93.5 34.5q55 0 93 -35t38 -88q0 -52 -38.5 -87.5t-92.5 -35.5z" />
    <glyph glyph-name="cedilla" unicode="&#xb8;" 
d="M664 -137q85 0 137.5 -52t52.5 -137q0 -91 -68 -144.5t-174 -53.5h-153v141h153q47 0 73 25t26 61q0 35 -23.5 60.5t-60.5 25.5h-125v72l67 139h152l-66 -137h9z" />
    <glyph glyph-name="uni00B9" unicode="&#xb9;" 
d="M705 1040h180v-125h-506v125h201v463h-201v117h201v137h125v-717z" />
    <glyph glyph-name="ordmasculine" unicode="&#xba;" 
d="M608 768q-117 0 -184.5 80.5t-67.5 241.5q0 159 67.5 238t184.5 79q119 0 186.5 -78.5t67.5 -238.5q0 -162 -67.5 -242t-186.5 -80zM608 893q65 0 96 43t31 154q0 108 -31 151t-96 43q-64 0 -95.5 -43.5t-31.5 -150.5q0 -109 31.5 -153t95.5 -44zM371 492v126h477v-126
h-477z" />
    <glyph glyph-name="guillemotright" unicode="&#xbb;" 
d="M129 225l313 367l-313 366h201l313 -366l-313 -367h-201zM539 225l313 367l-313 366h202l314 -366l-314 -367h-202z" />
    <glyph glyph-name="onequarter" unicode="&#xbc;" 
d="M885 1040v-125h-506v125h201v463h-201v117h201v137h125v-717h180zM137 762h942v-123h-942v123zM795 150v-183h94v-125h-94v-198h-127v198h-336v125l252 518h139l-254 -518h199v183h127z" />
    <glyph glyph-name="onehalf" unicode="&#xbd;" 
d="M885 1040v-125h-506v125h201v463h-201v117h201v137h125v-717h180zM137 762h942v-123h-942v123zM614 -33q-78 -42 -103.5 -78.5t-27.5 -99.5v-18h381v-127h-506v112q0 126 43 195.5t160 130.5q102 53 139 87t37 99q0 45 -34.5 74t-94.5 29q-61 0 -91 -28.5t-40 -98.5h-135
q14 133 85 193.5t181 60.5q114 0 185 -63t71 -167q0 -109 -49 -165.5t-201 -135.5z" />
    <glyph glyph-name="threequarters" unicode="&#xbe;" 
d="M592 1032q62 0 95.5 34t33.5 101q0 63 -30.5 99.5t-76.5 36.5h-112v110h92q44 0 73 33.5t29 89.5q0 54 -30 85.5t-88 31.5q-101 0 -113 -109h-125q10 111 77.5 169.5t160.5 58.5q104 0 168.5 -65t64.5 -159q0 -127 -109 -180q144 -52 144 -227q0 -102 -67.5 -169
t-186.5 -67q-105 0 -178 60t-84 176h135q15 -109 127 -109zM137 762h942v-123h-942v123zM795 150v-183h94v-125h-94v-198h-127v198h-336v125l252 518h139l-254 -518h199v183h127z" />
    <glyph glyph-name="questiondown" unicode="&#xbf;" 
d="M604 1403q56 0 93.5 -35.5t37.5 -89.5q0 -52 -37.5 -86.5t-93.5 -34.5q-55 0 -93 34.5t-38 86.5q0 53 38 89t93 36zM690 920v-37q0 -197 -219 -324q-125 -76 -125 -201q0 -87 65.5 -141.5t178.5 -54.5q211 0 237 213h181q-20 -194 -129 -289.5t-283 -95.5
q-188 0 -305 105.5t-117 262.5q0 107 55.5 198t155.5 153q133 77 133 174v37h172z" />
    <glyph glyph-name="Agrave" unicode="&#xc0;" 
d="M666 1520h-121l-221 272h204zM952 0l-88 319h-512l-88 -319h-180l403 1401h242l404 -1401h-181zM401 492h416l-209 747z" />
    <glyph glyph-name="Aacute" unicode="&#xc1;" 
d="M899 1792l-221 -272h-119l135 272h205zM952 0l-88 319h-512l-88 -319h-180l403 1401h242l404 -1401h-181zM401 492h416l-209 747z" />
    <glyph glyph-name="Acircumflex" unicode="&#xc2;" 
d="M608 1683l-147 -163h-199l260 268h172l260 -268h-198zM952 0l-88 319h-512l-88 -319h-180l403 1401h242l404 -1401h-181zM401 492h416l-209 747z" />
    <glyph glyph-name="Atilde" unicode="&#xc3;" 
d="M403 1595v-26h-143v26q0 95 63 161.5t152 66.5q71 0 150 -54q74 -65 120 -65q28 0 50 25.5t22 58.5v24h144v-24q0 -94 -63 -161.5t-153 -67.5q-76 0 -149 57q-56 47 -83 58q-19 7 -38 7q-32 0 -52 -24.5t-20 -61.5zM952 0l-88 319h-512l-88 -319h-180l403 1401h242
l404 -1401h-181zM401 492h416l-209 747z" />
    <glyph glyph-name="Adieresis" unicode="&#xc4;" 
d="M440 1544q-57 0 -95 35.5t-38 89.5q0 52 38 86.5t95 34.5q53 0 91 -34.5t38 -86.5q0 -53 -38 -89t-91 -36zM784 1544q-57 0 -95 35.5t-38 89.5q0 52 38 86.5t95 34.5q53 0 91 -34.5t38 -86.5q0 -53 -38 -89t-91 -36zM952 0l-88 319h-512l-88 -319h-180l403 1401h242
l404 -1401h-181zM401 492h416l-209 747z" />
    <glyph glyph-name="Aring" unicode="&#xc5;" 
d="M952 0l-88 319h-512l-88 -319h-180l385 1339q-45 31 -71.5 83t-26.5 114q0 101 69.5 169.5t167.5 68.5q100 0 170 -68t70 -170q0 -126 -100 -199l385 -1337h-181zM610 1640q-45 0 -76.5 -29t-31.5 -77t31.5 -78.5t76.5 -30.5q43 0 75 30.5t32 78.5t-31.5 77t-75.5 29z
M401 492h416l-209 747z" />
    <glyph glyph-name="AE" unicode="&#xc6;" 
d="M1114 1229h-303v-443h242v-172h-242v-442h303v-172h-475v319h-266l-84 -319h-176l383 1401h618v-172zM639 492v737h-27l-194 -737h221z" />
    <glyph glyph-name="Ccedilla" unicode="&#xc7;" 
d="M629 162q107 0 168.5 64t79.5 218h172q-17 -195 -103 -307.5t-221 -138.5l-63 -135h8q85 0 138.5 -52.5t53.5 -136.5q0 -91 -67.5 -144.5t-173.5 -53.5h-156v141h156q47 0 71.5 25t24.5 61q0 35 -23 60.5t-61 25.5h-125v72l65 133q-94 10 -162 50.5t-118 122t-75 214.5
t-25 319q0 203 29.5 343t89.5 220t140 114t191 34q168 0 277 -115t129 -338h-172q-18 154 -79 217.5t-169 63.5q-56 0 -95 -12t-73 -46t-54 -94t-31 -155.5t-11 -231.5q0 -135 11 -230.5t31 -155.5t54 -94t73 -46t95 -12z" />
    <glyph glyph-name="Egrave" unicode="&#xc8;" 
d="M688 1520h-121l-221 272h205zM1051 1229h-652v-443h562v-172h-562v-442h652v-172h-824v1401h824v-172z" />
    <glyph glyph-name="Eacute" unicode="&#xc9;" 
d="M924 1792l-222 -272h-118l135 272h205zM1051 1229h-652v-443h562v-172h-562v-442h652v-172h-824v1401h824v-172z" />
    <glyph glyph-name="Ecircumflex" unicode="&#xca;" 
d="M653 1683l-147 -163h-199l260 268h172l260 -268h-198zM1051 1229h-652v-443h562v-172h-562v-442h652v-172h-824v1401h824v-172z" />
    <glyph glyph-name="Edieresis" unicode="&#xcb;" 
d="M473 1544q-56 0 -94.5 35.5t-38.5 89.5q0 52 38.5 86.5t94.5 34.5q53 0 91 -34.5t38 -86.5q0 -53 -38 -89t-91 -36zM817 1544q-56 0 -94.5 35.5t-38.5 89.5q0 52 38.5 86.5t94.5 34.5q53 0 91 -34.5t38 -86.5q0 -53 -38 -89t-91 -36zM1051 1229h-652v-443h562v-172h-562
v-442h652v-172h-824v1401h824v-172z" />
    <glyph glyph-name="Igrave" unicode="&#xcc;" 
d="M668 1520h-119l-221 272h204zM694 172h326v-172h-823v172h325v1057h-311v172h795v-172h-312v-1057z" />
    <glyph glyph-name="Iacute" unicode="&#xcd;" 
d="M897 1792l-221 -272h-119l135 272h205zM694 172h326v-172h-823v172h325v1057h-311v172h795v-172h-312v-1057z" />
    <glyph glyph-name="Icircumflex" unicode="&#xce;" 
d="M610 1683l-149 -163h-199l262 268h170l262 -268h-198zM694 172h326v-172h-823v172h325v1057h-311v172h795v-172h-312v-1057z" />
    <glyph glyph-name="Idieresis" unicode="&#xcf;" 
d="M440 1544q-57 0 -95 35.5t-38 89.5q0 52 38 86.5t95 34.5q53 0 91 -34.5t38 -86.5q0 -53 -38 -89t-91 -36zM784 1544q-57 0 -95 35.5t-38 89.5q0 52 38 86.5t95 34.5q53 0 91 -34.5t38 -86.5q0 -53 -38 -89t-91 -36zM694 172h326v-172h-823v172h325v1057h-311v172h795
v-172h-312v-1057z" />
    <glyph glyph-name="Eth" unicode="&#xd0;" 
d="M535 1401q532 0 532 -701q0 -700 -532 -700h-293v614h-174v172h174v615h293zM549 172q59 0 107.5 14t94 50t76.5 94.5t49.5 152t18.5 217.5t-18.5 217.5t-49.5 152t-76.5 95t-94 50.5t-107.5 14h-135v-443h258v-172h-258v-442h135z" />
    <glyph glyph-name="Ntilde" unicode="&#xd1;" 
d="M403 1595v-26h-143v26q0 95 63 161.5t152 66.5q71 0 150 -54q74 -65 120 -65q28 0 50 25.5t22 58.5v24h144v-24q0 -94 -63 -161.5t-153 -67.5q-76 0 -149 57q-56 47 -83 58q-19 7 -38 7q-32 0 -52 -24.5t-20 -61.5zM883 1401h172v-1401h-215l-506 1100v-1100h-172v1401
h217l504 -1100v1100z" />
    <glyph glyph-name="Ograve" unicode="&#xd2;" 
d="M549 1520l-221 272h204l136 -272h-119zM608 -10q-80 0 -143 20.5t-116.5 71t-89 130.5t-55.5 203t-20 285q0 201 30 342t87.5 220.5t132 114t174.5 34.5q79 0 142 -21t117 -71t89.5 -130.5t55.5 -203.5t20 -285t-20 -285t-55.5 -203t-89.5 -130.5t-117 -71t-142 -20.5z
M608 162q52 0 88.5 12t69 46t52 93t31 155.5t11.5 231.5t-11 231.5t-30.5 156t-52 93.5t-69.5 46t-89 12t-89 -12t-69.5 -46t-52 -93.5t-30.5 -156t-11 -231.5t11 -231t30.5 -155.5t52 -93.5t69.5 -46t89 -12z" />
    <glyph glyph-name="Oacute" unicode="&#xd3;" 
d="M557 1520l135 272h205l-221 -272h-119zM608 -10q-80 0 -143 20.5t-116.5 71t-89 130.5t-55.5 203t-20 285q0 201 30 342t87.5 220.5t132 114t174.5 34.5q79 0 142 -21t117 -71t89.5 -130.5t55.5 -203.5t20 -285t-20 -285t-55.5 -203t-89.5 -130.5t-117 -71t-142 -20.5z
M608 162q52 0 88.5 12t69 46t52 93t31 155.5t11.5 231.5t-11 231.5t-30.5 156t-52 93.5t-69.5 46t-89 12t-89 -12t-69.5 -46t-52 -93.5t-30.5 -156t-11 -231.5t11 -231t30.5 -155.5t52 -93.5t69.5 -46t89 -12z" />
    <glyph glyph-name="Ocircumflex" unicode="&#xd4;" 
d="M262 1520l262 268h170l262 -268h-198l-148 163l-149 -163h-199zM608 -10q-80 0 -143 20.5t-116.5 71t-89 130.5t-55.5 203t-20 285q0 201 30 342t87.5 220.5t132 114t174.5 34.5q79 0 142 -21t117 -71t89.5 -130.5t55.5 -203.5t20 -285t-20 -285t-55.5 -203t-89.5 -130.5
t-117 -71t-142 -20.5zM608 162q52 0 88.5 12t69 46t52 93t31 155.5t11.5 231.5t-11 231.5t-30.5 156t-52 93.5t-69.5 46t-89 12t-89 -12t-69.5 -46t-52 -93.5t-30.5 -156t-11 -231.5t11 -231t30.5 -155.5t52 -93.5t69.5 -46t89 -12z" />
    <glyph glyph-name="Otilde" unicode="&#xd5;" 
d="M745 1559q-76 0 -149 57q-56 47 -83 58q-19 7 -38 7q-32 0 -52 -24.5t-20 -61.5v-26h-143v26q0 95 63 161.5t152 66.5q71 0 150 -54q74 -65 120 -65q28 0 50 25.5t22 58.5v24h144v-24q0 -94 -63 -161.5t-153 -67.5zM608 -10q-80 0 -143 20.5t-116.5 71t-89 130.5
t-55.5 203t-20 285q0 201 30 342t87.5 220.5t132 114t174.5 34.5q79 0 142 -21t117 -71t89.5 -130.5t55.5 -203.5t20 -285t-20 -285t-55.5 -203t-89.5 -130.5t-117 -71t-142 -20.5zM608 162q52 0 88.5 12t69 46t52 93t31 155.5t11.5 231.5t-11 231.5t-30.5 156t-52 93.5
t-69.5 46t-89 12t-89 -12t-69.5 -46t-52 -93.5t-30.5 -156t-11 -231.5t11 -231t30.5 -155.5t52 -93.5t69.5 -46t89 -12z" />
    <glyph glyph-name="Odieresis" unicode="&#xd6;" 
d="M440 1544q-57 0 -95 35.5t-38 89.5q0 52 38 86.5t95 34.5q53 0 91 -34.5t38 -86.5q0 -53 -38 -89t-91 -36zM784 1544q-57 0 -95 35.5t-38 89.5q0 52 38 86.5t95 34.5q53 0 91 -34.5t38 -86.5q0 -53 -38 -89t-91 -36zM608 -10q-80 0 -143 20.5t-116.5 71t-89 130.5
t-55.5 203t-20 285q0 201 30 342t87.5 220.5t132 114t174.5 34.5q79 0 142 -21t117 -71t89.5 -130.5t55.5 -203.5t20 -285t-20 -285t-55.5 -203t-89.5 -130.5t-117 -71t-142 -20.5zM608 162q52 0 88.5 12t69 46t52 93t31 155.5t11.5 231.5t-11 231.5t-30.5 156t-52 93.5
t-69.5 46t-89 12t-89 -12t-69.5 -46t-52 -93.5t-30.5 -156t-11 -231.5t11 -231t30.5 -155.5t52 -93.5t69.5 -46t89 -12z" />
    <glyph glyph-name="multiply" unicode="&#xd7;" 
d="M350 215l-119 121l254 256l-252 254l119 121l256 -252l254 252l123 -121l-256 -254l256 -256l-123 -121l-254 254z" />
    <glyph glyph-name="Oslash" unicode="&#xd8;" 
d="M1079 1303l-102 -168q55 -163 55 -435q0 -162 -20 -285t-55.5 -203t-89.5 -130.5t-117 -71t-142 -20.5q-174 0 -270 102l-57 -94l-144 100l103 166q-56 170 -56 436q0 201 30 342t87.5 220.5t132 114t174.5 34.5q174 0 273 -104l57 92zM356 700q0 -114 11 -229l419 682
q-29 48 -72.5 67t-105.5 19q-52 0 -89 -12t-69.5 -46t-52 -93.5t-30.5 -156t-11 -231.5zM860 700q0 123 -10 228l-418 -684q53 -82 176 -82q52 0 88.5 12t69 46t52 93t31 155.5t11.5 231.5z" />
    <glyph glyph-name="Ugrave" unicode="&#xd9;" 
d="M549 1520l-221 272h204l136 -272h-119zM608 -10q-193 0 -308.5 117.5t-115.5 316.5v977h172v-916q0 -169 64 -246t188 -77t188 76.5t64 246.5v916h172v-977q0 -198 -116 -316t-308 -118z" />
    <glyph glyph-name="Uacute" unicode="&#xda;" 
d="M557 1520l135 272h205l-221 -272h-119zM608 -10q-193 0 -308.5 117.5t-115.5 316.5v977h172v-916q0 -169 64 -246t188 -77t188 76.5t64 246.5v916h172v-977q0 -198 -116 -316t-308 -118z" />
    <glyph glyph-name="Ucircumflex" unicode="&#xdb;" 
d="M262 1520l262 268h170l262 -268h-198l-148 163l-149 -163h-199zM608 -10q-193 0 -308.5 117.5t-115.5 316.5v977h172v-916q0 -169 64 -246t188 -77t188 76.5t64 246.5v916h172v-977q0 -198 -116 -316t-308 -118z" />
    <glyph glyph-name="Udieresis" unicode="&#xdc;" 
d="M440 1544q-57 0 -95 35.5t-38 89.5q0 52 38 86.5t95 34.5q53 0 91 -34.5t38 -86.5q0 -53 -38 -89t-91 -36zM784 1544q-57 0 -95 35.5t-38 89.5q0 52 38 86.5t95 34.5q53 0 91 -34.5t38 -86.5q0 -53 -38 -89t-91 -36zM608 -10q-193 0 -308.5 117.5t-115.5 316.5v977h172
v-916q0 -169 64 -246t188 -77t188 76.5t64 246.5v916h172v-977q0 -198 -116 -316t-308 -118z" />
    <glyph glyph-name="Yacute" unicode="&#xdd;" 
d="M897 1792l-221 -272h-119l135 272h205zM694 547v-375h326v-172h-823v172h325v375l-416 854h193l309 -653l310 653h194z" />
    <glyph glyph-name="Thorn" unicode="&#xde;" 
d="M639 1141q196 0 313 -118t117 -321q0 -202 -117 -321t-313 -119h-221v-262h-172v1401h172v-260h221zM606 434q148 0 219.5 66.5t71.5 201.5q0 267 -291 267h-188v-535h188z" />
    <glyph glyph-name="germandbls" unicode="&#xdf;" 
d="M850 756q118 -43 177.5 -138t59.5 -219q0 -186 -119 -292.5t-323 -106.5h-70v172h70q132 0 201 58.5t69 168.5q0 114 -64 181t-153 67h-123v164h70q84 0 142.5 61t58.5 154q0 95 -55 154t-146 59q-89 0 -152 -53.5t-63 -155.5v-1030h-172v1032q0 95 32.5 169.5t88 119
t123.5 67.5t145 23q153 0 262 -103.5t109 -246.5q0 -214 -168 -305z" />
    <glyph glyph-name="agrave" unicode="&#xe0;" 
d="M637 1163h-121l-221 273h205zM1028 172h45v-172h-143q-142 0 -142 143v31q-46 -89 -125.5 -137t-183.5 -47q-148 0 -241 78t-93 221q0 146 108.5 234.5t334.5 88.5h200v76q0 88 -57 141.5t-141 53.5q-174 0 -207 -150h-188q13 150 126 236t269 86q167 0 275 -100
t108 -267v-463q0 -28 13 -40.5t42 -12.5zM532 156q122 0 189 61t67 174v84h-200q-121 0 -184.5 -46.5t-63.5 -117.5q0 -68 49 -111.5t143 -43.5z" />
    <glyph glyph-name="aacute" unicode="&#xe1;" 
d="M866 1436l-221 -273h-119l136 273h204zM1028 172h45v-172h-143q-142 0 -142 143v31q-46 -89 -125.5 -137t-183.5 -47q-148 0 -241 78t-93 221q0 146 108.5 234.5t334.5 88.5h200v76q0 88 -57 141.5t-141 53.5q-174 0 -207 -150h-188q13 150 126 236t269 86
q167 0 275 -100t108 -267v-463q0 -28 13 -40.5t42 -12.5zM532 156q122 0 189 61t67 174v84h-200q-121 0 -184.5 -46.5t-63.5 -117.5q0 -68 49 -111.5t143 -43.5z" />
    <glyph glyph-name="acircumflex" unicode="&#xe2;" 
d="M586 1343l-150 -163h-198l262 268h170l262 -268h-199zM1028 172h45v-172h-143q-142 0 -142 143v31q-46 -89 -125.5 -137t-183.5 -47q-148 0 -241 78t-93 221q0 146 108.5 234.5t334.5 88.5h200v76q0 88 -57 141.5t-141 53.5q-174 0 -207 -150h-188q13 150 126 236t269 86
q167 0 275 -100t108 -267v-463q0 -28 13 -40.5t42 -12.5zM532 156q122 0 189 61t67 174v84h-200q-121 0 -184.5 -46.5t-63.5 -117.5q0 -68 49 -111.5t143 -43.5z" />
    <glyph glyph-name="atilde" unicode="&#xe3;" 
d="M383 1253v-26h-145v26q0 95 63 161.5t152 66.5q44 0 77 -13t72 -43q79 -65 123 -65q28 0 49 25.5t21 60.5v24h145v-24q0 -96 -62.5 -162.5t-152.5 -66.5q-81 0 -150 57q-27 23 -39.5 32.5t-36 20t-46.5 10.5q-31 0 -50.5 -23.5t-19.5 -60.5zM1028 172h45v-172h-143
q-142 0 -142 143v31q-46 -89 -125.5 -137t-183.5 -47q-148 0 -241 78t-93 221q0 146 108.5 234.5t334.5 88.5h200v76q0 88 -57 141.5t-141 53.5q-174 0 -207 -150h-188q13 150 126 236t269 86q167 0 275 -100t108 -267v-463q0 -28 13 -40.5t42 -12.5zM532 156q122 0 189 61
t67 174v84h-200q-121 0 -184.5 -46.5t-63.5 -117.5q0 -68 49 -111.5t143 -43.5z" />
    <glyph glyph-name="adieresis" unicode="&#xe4;" 
d="M412 1233q-56 0 -94.5 35.5t-38.5 89.5q0 52 38.5 86.5t94.5 34.5q53 0 91 -34.5t38 -86.5q0 -53 -38 -89t-91 -36zM756 1233q-56 0 -94.5 35.5t-38.5 89.5q0 52 38.5 86.5t94.5 34.5q53 0 91 -34.5t38 -86.5q0 -53 -38 -89t-91 -36zM1028 172h45v-172h-143
q-142 0 -142 143v31q-46 -89 -125.5 -137t-183.5 -47q-148 0 -241 78t-93 221q0 146 108.5 234.5t334.5 88.5h200v76q0 88 -57 141.5t-141 53.5q-174 0 -207 -150h-188q13 150 126 236t269 86q167 0 275 -100t108 -267v-463q0 -28 13 -40.5t42 -12.5zM532 156q122 0 189 61
t67 174v84h-200q-121 0 -184.5 -46.5t-63.5 -117.5q0 -68 49 -111.5t143 -43.5z" />
    <glyph glyph-name="aring" unicode="&#xe5;" 
d="M600 1167q-100 0 -170 69t-70 173q0 101 70 169.5t168 68.5q100 0 170 -68t70 -170q0 -104 -70 -173t-168 -69zM600 1513q-45 0 -76.5 -29t-31.5 -77t31.5 -78.5t76.5 -30.5q43 0 75 30.5t32 78.5t-31.5 77t-75.5 29zM1028 172h45v-172h-143q-142 0 -142 143v31
q-46 -89 -125.5 -137t-183.5 -47q-148 0 -241 78t-93 221q0 146 108.5 234.5t334.5 88.5h200v76q0 88 -57 141.5t-141 53.5q-174 0 -207 -150h-188q13 150 126 236t269 86q167 0 275 -100t108 -267v-463q0 -28 13 -40.5t42 -12.5zM532 156q122 0 189 61t67 174v84h-200
q-121 0 -184.5 -46.5t-63.5 -117.5q0 -68 49 -111.5t143 -43.5z" />
    <glyph glyph-name="ae" unicode="&#xe6;" 
d="M1128 584v-144h-436q0 -82 10 -139.5t29 -88t41.5 -43.5t52.5 -13q52 0 85.5 41t43.5 141h166q-27 -192 -92.5 -273t-173.5 -81q-38 0 -70.5 9t-67 32.5t-63 71.5t-47.5 118q-65 -231 -246 -231q-127 0 -201.5 76.5t-74.5 209.5q0 129 78 223.5t200 94.5h158
q0 301 -129 301q-49 0 -82.5 -36t-42.5 -110h-168q19 165 90 241.5t177 76.5q179 0 241 -227q60 227 244 227q278 0 278 -477zM692 588h264q0 75 -7.5 130.5t-20 87.5t-30.5 50.5t-35.5 24.5t-39.5 6q-28 0 -49 -11.5t-41 -41.5t-30.5 -92t-10.5 -154zM389 160q28 0 49 10.5
t41 38.5t30.5 86.5t10.5 144.5h-133q-55 0 -93 -40t-38 -101q0 -69 39 -104t94 -35z" />
    <glyph glyph-name="ccedilla" unicode="&#xe7;" 
d="M633 162q99 0 151.5 49t67.5 160h178q-17 -167 -98.5 -259.5t-212.5 -115.5l-64 -133h9q85 0 137.5 -52t52.5 -137q0 -91 -68 -144.5t-174 -53.5h-153v141h153q47 0 73 25t26 61q0 35 -23.5 60.5t-60.5 25.5h-125v72l65 133q-167 21 -259.5 151.5t-92.5 376.5
q0 272 110.5 402.5t307.5 130.5q80 0 146.5 -21.5t120 -66t87 -118.5t43.5 -173h-178q-15 111 -67 159t-152 48q-82 0 -134 -31t-82 -112t-30 -218q0 -198 61 -279t185 -81z" />
    <glyph glyph-name="egrave" unicode="&#xe8;" 
d="M670 1163h-119l-221 273h205zM377 463q9 -166 67.5 -235.5t167.5 -69.5q96 0 155.5 46t74.5 136h178q-32 -178 -135.5 -267t-266.5 -89q-195 0 -305 133.5t-110 404.5q0 272 109.5 405.5t301.5 133.5q191 0 301.5 -131t110.5 -387v-80h-649zM614 889q-104 0 -163 -64.5
t-72 -214.5h473q-10 149 -70.5 214t-167.5 65z" />
    <glyph glyph-name="eacute" unicode="&#xe9;" 
d="M899 1436l-221 -273h-119l135 273h205zM377 463q9 -166 67.5 -235.5t167.5 -69.5q96 0 155.5 46t74.5 136h178q-32 -178 -135.5 -267t-266.5 -89q-195 0 -305 133.5t-110 404.5q0 272 109.5 405.5t301.5 133.5q191 0 301.5 -131t110.5 -387v-80h-649zM614 889
q-104 0 -163 -64.5t-72 -214.5h473q-10 149 -70.5 214t-167.5 65z" />
    <glyph glyph-name="ecircumflex" unicode="&#xea;" 
d="M616 1343l-149 -163h-199l262 268h170l263 -268h-199zM377 463q9 -166 67.5 -235.5t167.5 -69.5q96 0 155.5 46t74.5 136h178q-32 -178 -135.5 -267t-266.5 -89q-195 0 -305 133.5t-110 404.5q0 272 109.5 405.5t301.5 133.5q191 0 301.5 -131t110.5 -387v-80h-649z
M614 889q-104 0 -163 -64.5t-72 -214.5h473q-10 149 -70.5 214t-167.5 65z" />
    <glyph glyph-name="edieresis" unicode="&#xeb;" 
d="M446 1233q-57 0 -95 35.5t-38 89.5q0 52 38 86.5t95 34.5q53 0 91 -34.5t38 -86.5q0 -53 -38 -89t-91 -36zM791 1233q-57 0 -95.5 35.5t-38.5 89.5q0 52 38.5 86.5t95.5 34.5q53 0 91 -34.5t38 -86.5q0 -53 -38 -89t-91 -36zM377 463q9 -166 67.5 -235.5t167.5 -69.5
q96 0 155.5 46t74.5 136h178q-32 -178 -135.5 -267t-266.5 -89q-195 0 -305 133.5t-110 404.5q0 272 109.5 405.5t301.5 133.5q191 0 301.5 -131t110.5 -387v-80h-649zM614 889q-104 0 -163 -64.5t-72 -214.5h473q-10 149 -70.5 214t-167.5 65z" />
    <glyph glyph-name="igrave" unicode="&#xec;" 
d="M582 1163l-222 273h205l137 -273h-120zM209 0v172h356v700h-289v172h371q38 0 64 -26t26 -64v-782h332v-172h-860z" />
    <glyph glyph-name="iacute" unicode="&#xed;" 
d="M594 1163l135 273h205l-221 -273h-119zM209 0v172h356v700h-289v172h371q38 0 64 -26t26 -64v-782h332v-172h-860z" />
    <glyph glyph-name="icircumflex" unicode="&#xee;" 
d="M274 1180l263 268h170l262 -268h-199l-149 163l-148 -163h-199zM209 0v172h356v700h-289v172h371q38 0 64 -26t26 -64v-782h332v-172h-860z" />
    <glyph glyph-name="idieresis" unicode="&#xef;" 
d="M358 1233q-56 0 -94.5 35.5t-38.5 89.5q0 52 38.5 86.5t94.5 34.5q53 0 91 -34.5t38 -86.5q0 -53 -38 -89t-91 -36zM702 1233q-56 0 -94.5 35.5t-38.5 89.5q0 52 38.5 86.5t94.5 34.5q53 0 91 -34.5t38 -86.5q0 -53 -38 -89t-91 -36zM209 0v172h356v700h-289v172h371
q38 0 64 -26t26 -64v-782h332v-172h-860z" />
    <glyph glyph-name="eth" unicode="&#xf0;" 
d="M1188 1319v-172h-191v-625q0 -270 -109.5 -401t-301.5 -131t-302 131.5t-110 400.5q0 268 105.5 400.5t279.5 132.5q90 0 156.5 -37t109.5 -129v258h-252v172h234q-24 55 -74 84t-110 29v172q140 0 243.5 -76t126.5 -209h195zM586 162q120 0 179.5 80t59.5 280
t-59.5 280.5t-179.5 80.5t-180 -80.5t-60 -280.5q0 -136 30 -217t80.5 -112t129.5 -31z" />
    <glyph glyph-name="ntilde" unicode="&#xf1;" 
d="M410 1253v-26h-146v26q0 95 63 161.5t152 66.5q76 0 150 -56q79 -65 123 -65q28 0 48.5 25.5t20.5 60.5v24h146v-24q0 -96 -62.5 -162.5t-152.5 -66.5q-81 0 -150 57q-26 22 -39.5 32.5t-37 20.5t-46.5 10q-31 0 -50 -23.5t-19 -60.5zM696 1057q162 0 247 -107.5
t85 -271.5v-678h-174v635q0 123 -63.5 190.5t-172.5 67.5q-243 0 -243 -367v-526h-172v1044h145l29 -231q65 244 319 244z" />
    <glyph glyph-name="ograve" unicode="&#xf2;" 
d="M535 1163l-222 273h205l137 -273h-120zM608 -12q-190 0 -300.5 133t-110.5 401q0 271 110 403t301 132q190 0 301 -133t111 -402t-111 -401.5t-301 -132.5zM608 160q118 0 179 81.5t61 280.5q0 103 -16 174t-48 112t-74.5 59t-101.5 18q-118 0 -178.5 -82t-60.5 -281
q0 -101 16.5 -172.5t48.5 -112.5t74.5 -59t99.5 -18zM549 653h121v-262h-121v262z" />
    <glyph glyph-name="oacute" unicode="&#xf3;" 
d="M551 1163l135 273h205l-221 -273h-119zM608 -12q-190 0 -300.5 133t-110.5 401q0 271 110 403t301 132q190 0 301 -133t111 -402t-111 -401.5t-301 -132.5zM608 160q118 0 179 81.5t61 280.5q0 103 -16 174t-48 112t-74.5 59t-101.5 18q-118 0 -178.5 -82t-60.5 -281
q0 -101 16.5 -172.5t48.5 -112.5t74.5 -59t99.5 -18zM549 653h121v-262h-121v262z" />
    <glyph glyph-name="ocircumflex" unicode="&#xf4;" 
d="M262 1180l262 268h170l262 -268h-198l-148 163l-149 -163h-199zM608 -12q-190 0 -300.5 133t-110.5 401q0 271 110 403t301 132q190 0 301 -133t111 -402t-111 -401.5t-301 -132.5zM608 160q118 0 179 81.5t61 280.5q0 103 -16 174t-48 112t-74.5 59t-101.5 18
q-118 0 -178.5 -82t-60.5 -281q0 -101 16.5 -172.5t48.5 -112.5t74.5 -59t99.5 -18zM549 653h121v-262h-121v262z" />
    <glyph glyph-name="otilde" unicode="&#xf5;" 
d="M743 1217q-77 0 -149 57q-26 22 -39.5 32.5t-36.5 20.5t-45 10q-32 0 -52 -23.5t-20 -60.5v-26h-143v26q0 95 63 161.5t152 66.5q73 0 150 -56q26 -21 38 -30.5t37 -22t45 -12.5q29 0 50.5 25.5t21.5 60.5v24h143v-24q0 -96 -61.5 -162.5t-153.5 -66.5zM608 -12
q-190 0 -300.5 133t-110.5 401q0 271 110 403t301 132q190 0 301 -133t111 -402t-111 -401.5t-301 -132.5zM608 160q118 0 179 81.5t61 280.5q0 103 -16 174t-48 112t-74.5 59t-101.5 18q-118 0 -178.5 -82t-60.5 -281q0 -101 16.5 -172.5t48.5 -112.5t74.5 -59t99.5 -18z
M549 653h121v-262h-121v262z" />
    <glyph glyph-name="odieresis" unicode="&#xf6;" 
d="M440 1233q-57 0 -95 35.5t-38 89.5q0 52 38 86.5t95 34.5q53 0 91 -34.5t38 -86.5q0 -53 -38 -89t-91 -36zM784 1233q-57 0 -95 35.5t-38 89.5q0 52 38 86.5t95 34.5q53 0 91 -34.5t38 -86.5q0 -53 -38 -89t-91 -36zM608 -12q-190 0 -300.5 133t-110.5 401q0 271 110 403
t301 132q190 0 301 -133t111 -402t-111 -401.5t-301 -132.5zM608 160q118 0 179 81.5t61 280.5q0 103 -16 174t-48 112t-74.5 59t-101.5 18q-118 0 -178.5 -82t-60.5 -281q0 -101 16.5 -172.5t48.5 -112.5t74.5 -59t99.5 -18zM549 653h121v-262h-121v262z" />
    <glyph glyph-name="divide" unicode="&#xf7;" 
d="M610 852q-57 0 -95 35.5t-38 89.5q0 52 38 86.5t95 34.5q55 0 93 -34.5t38 -86.5q0 -53 -38 -89t-93 -36zM188 506v172h842v-172h-842zM610 111q-57 0 -95 35.5t-38 89.5q0 52 38 86t95 34q55 0 93 -34t38 -86q0 -53 -38 -89t-93 -36z" />
    <glyph glyph-name="oslash" unicode="&#xf8;" 
d="M1085 897l-104 -111q39 -112 39 -264q0 -269 -110.5 -400.5t-301.5 -131.5q-173 0 -274 104l-72 -76l-131 132l102 110q-36 104 -36 262q0 271 109.5 402t301.5 131q172 0 275 -103l71 76zM369 522q0 -62 6 -112l391 417q-53 56 -158 56q-118 0 -178.5 -81t-60.5 -280z
M848 522q0 62 -6 115l-391 -418q54 -57 157 -57q78 0 128.5 31t81 112.5t30.5 216.5z" />
    <glyph glyph-name="ugrave" unicode="&#xf9;" 
d="M553 1163l-221 273h205l137 -273h-121zM608 -10q-180 0 -295.5 109t-115.5 270v675h172v-647q0 -109 63.5 -172t175.5 -63t176 63t64 172v647h172v-675q0 -160 -116.5 -269.5t-295.5 -109.5z" />
    <glyph glyph-name="uacute" unicode="&#xfa;" 
d="M549 1163l135 273h205l-221 -273h-119zM608 -10q-180 0 -295.5 109t-115.5 270v675h172v-647q0 -109 63.5 -172t175.5 -63t176 63t64 172v647h172v-675q0 -160 -116.5 -269.5t-295.5 -109.5z" />
    <glyph glyph-name="ucircumflex" unicode="&#xfb;" 
d="M262 1180l262 268h170l262 -268h-198l-148 163l-149 -163h-199zM608 -10q-180 0 -295.5 109t-115.5 270v675h172v-647q0 -109 63.5 -172t175.5 -63t176 63t64 172v647h172v-675q0 -160 -116.5 -269.5t-295.5 -109.5z" />
    <glyph glyph-name="udieresis" unicode="&#xfc;" 
d="M440 1233q-57 0 -95 35.5t-38 89.5q0 52 38 86.5t95 34.5q53 0 91 -34.5t38 -86.5q0 -53 -38 -89t-91 -36zM784 1233q-57 0 -95 35.5t-38 89.5q0 52 38 86.5t95 34.5q53 0 91 -34.5t38 -86.5q0 -53 -38 -89t-91 -36zM608 -10q-180 0 -295.5 109t-115.5 270v675h172v-647
q0 -109 63.5 -172t175.5 -63t176 63t64 172v647h172v-675q0 -160 -116.5 -269.5t-295.5 -109.5z" />
    <glyph glyph-name="yacute" unicode="&#xfd;" 
d="M905 1436l-221 -273h-119l135 273h205zM1100 1044l-410 -1228h326v-172h-799v172h303l60 184h-78l-371 1044h188l308 -897l286 897h187z" />
    <glyph glyph-name="thorn" unicode="&#xfe;" 
d="M662 1055q171 0 270.5 -131.5t99.5 -401.5t-99.5 -401t-270.5 -131q-212 0 -281 192v-538h-172v1757h172v-541q70 195 281 195zM621 162q119 0 179 81t60 279q0 200 -59.5 280.5t-179.5 80.5q-57 0 -99 -17.5t-75 -58t-49.5 -112t-16.5 -173.5q0 -197 61 -278.5
t179 -81.5z" />
    <glyph glyph-name="ydieresis" unicode="&#xff;" 
d="M455 1233q-57 0 -95 35.5t-38 89.5q0 52 38 86.5t95 34.5q53 0 91 -34.5t38 -86.5q0 -53 -38 -89t-91 -36zM799 1233q-57 0 -95 35.5t-38 89.5q0 52 38 86.5t95 34.5q53 0 91 -34.5t38 -86.5q0 -53 -38 -89t-91 -36zM1100 1044l-410 -1228h326v-172h-799v172h303l60 184
h-78l-371 1044h188l308 -897l286 897h187z" />
    <glyph glyph-name="Amacron" unicode="&#x100;" 
d="M872 1708v-145h-526v145h526zM952 0l-88 319h-512l-88 -319h-180l403 1401h242l404 -1401h-181zM401 492h416l-209 747z" />
    <glyph glyph-name="amacron" unicode="&#x101;" 
d="M846 1352v-146h-527v146h527zM1028 172h45v-172h-143q-142 0 -142 143v31q-46 -89 -125.5 -137t-183.5 -47q-148 0 -241 78t-93 221q0 146 108.5 234.5t334.5 88.5h200v76q0 88 -57 141.5t-141 53.5q-174 0 -207 -150h-188q13 150 126 236t269 86q167 0 275 -100
t108 -267v-463q0 -28 13 -40.5t42 -12.5zM532 156q122 0 189 61t67 174v84h-200q-121 0 -184.5 -46.5t-63.5 -117.5q0 -68 49 -111.5t143 -43.5z" />
    <glyph glyph-name="Abreve" unicode="&#x102;" 
d="M608 1513q-101 0 -169 63t-68 175l131 -2q0 -48 32 -77.5t76 -29.5t75.5 29.5t31.5 77.5l131 2q0 -113 -68.5 -175.5t-171.5 -62.5zM952 0l-88 319h-512l-88 -319h-180l403 1401h242l404 -1401h-181zM401 492h416l-209 747z" />
    <glyph glyph-name="abreve" unicode="&#x103;" 
d="M590 1178q-101 0 -169.5 62.5t-68.5 174.5l131 -2q0 -48 32 -77t77 -29q44 0 75 29t31 77l131 2q0 -113 -68 -175t-171 -62zM1028 172h45v-172h-143q-142 0 -142 143v31q-46 -89 -125.5 -137t-183.5 -47q-148 0 -241 78t-93 221q0 146 108.5 234.5t334.5 88.5h200v76
q0 88 -57 141.5t-141 53.5q-174 0 -207 -150h-188q13 150 126 236t269 86q167 0 275 -100t108 -267v-463q0 -28 13 -40.5t42 -12.5zM532 156q122 0 189 61t67 174v84h-200q-121 0 -184.5 -46.5t-63.5 -117.5q0 -68 49 -111.5t143 -43.5z" />
    <glyph glyph-name="Aogonek" unicode="&#x104;" 
d="M1124 -184h84v-172h-190q-53 0 -92.5 22.5t-52 67.5t27.5 112l86 154h-35l-88 319h-512l-88 -319h-180l403 1401h242l404 -1401l-50 -94q-22 -37 -14 -57t22 -26.5t33 -6.5zM401 492h416l-209 747z" />
    <glyph glyph-name="aogonek" unicode="&#x105;" 
d="M1065 -184h84v-172h-191q-53 0 -92 22.5t-51.5 67.5t27.5 112l86 154h2q-142 0 -142 143v31q-46 -89 -125.5 -137t-183.5 -47q-148 0 -241 78t-93 221q0 146 108.5 234.5t334.5 88.5h200v76q0 88 -57 141.5t-141 53.5q-174 0 -207 -150h-188q13 150 126 236t269 86
q167 0 275 -100t108 -267v-463q0 -28 13 -40.5t42 -12.5h45v-172l-49 -94q-22 -37 -14 -57t22 -26.5t33 -6.5zM532 156q122 0 189 61t67 174v84h-200q-121 0 -184.5 -46.5t-63.5 -117.5q0 -68 49 -111.5t143 -43.5z" />
    <glyph glyph-name="Cacute" unicode="&#x106;" 
d="M563 1520l135 272h205l-221 -272h-119zM643 -10q-89 0 -157 21t-124.5 70.5t-92.5 130.5t-56 203t-20 285q0 203 29.5 343t89.5 220t140 114t191 34q168 0 277 -115t129 -338h-172q-18 154 -79 217.5t-169 63.5q-56 0 -95 -12t-73 -46t-54 -94t-31 -155.5t-11 -231.5
q0 -135 11 -230.5t31 -155.5t54 -94t73 -46t95 -12q107 0 168.5 64t79.5 218h172q-20 -224 -129 -339t-277 -115z" />
    <glyph glyph-name="cacute" unicode="&#x107;" 
d="M580 1163l135 273h205l-222 -273h-118zM633 -10q-197 0 -307.5 131t-110.5 401q0 272 110.5 402.5t307.5 130.5q80 0 146.5 -21.5t120 -66t87 -118.5t43.5 -173h-178q-15 111 -67 159t-152 48q-82 0 -134 -31t-82 -112t-30 -218q0 -198 61 -279t185 -81q99 0 151.5 49
t67.5 160h178q-10 -99 -43.5 -173t-87 -119t-120 -67t-146.5 -22z" />
    <glyph glyph-name="Ccircumflex" unicode="&#x108;" 
d="M297 1520l262 268h170l262 -268h-198l-150 163l-147 -163h-199zM643 -10q-89 0 -157 21t-124.5 70.5t-92.5 130.5t-56 203t-20 285q0 203 29.5 343t89.5 220t140 114t191 34q168 0 277 -115t129 -338h-172q-18 154 -79 217.5t-169 63.5q-56 0 -95 -12t-73 -46t-54 -94
t-31 -155.5t-11 -231.5q0 -135 11 -230.5t31 -155.5t54 -94t73 -46t95 -12q107 0 168.5 64t79.5 218h172q-20 -224 -129 -339t-277 -115z" />
    <glyph glyph-name="ccircumflex" unicode="&#x109;" 
d="M285 1180l260 268h172l260 -268h-199l-147 163l-148 -163h-198zM633 -10q-197 0 -307.5 131t-110.5 401q0 272 110.5 402.5t307.5 130.5q80 0 146.5 -21.5t120 -66t87 -118.5t43.5 -173h-178q-15 111 -67 159t-152 48q-82 0 -134 -31t-82 -112t-30 -218q0 -198 61 -279
t185 -81q99 0 151.5 49t67.5 160h178q-10 -99 -43.5 -173t-87 -119t-120 -67t-146.5 -22z" />
    <glyph glyph-name="Cdotaccent" unicode="&#x10a;" 
d="M623 1565q-56 0 -95 36.5t-39 88.5q0 53 39 87.5t95 34.5q55 0 93 -34.5t38 -87.5q0 -52 -38.5 -88.5t-92.5 -36.5zM643 -10q-89 0 -157 21t-124.5 70.5t-92.5 130.5t-56 203t-20 285q0 203 29.5 343t89.5 220t140 114t191 34q168 0 277 -115t129 -338h-172
q-18 154 -79 217.5t-169 63.5q-56 0 -95 -12t-73 -46t-54 -94t-31 -155.5t-11 -231.5q0 -135 11 -230.5t31 -155.5t54 -94t73 -46t95 -12q107 0 168.5 64t79.5 218h172q-20 -224 -129 -339t-277 -115z" />
    <glyph glyph-name="cdotaccent" unicode="&#x10b;" 
d="M629 1233q-57 0 -95 35.5t-38 89.5q0 52 38 86.5t95 34.5q55 0 93 -34.5t38 -86.5q0 -53 -38 -89t-93 -36zM633 -10q-197 0 -307.5 131t-110.5 401q0 272 110.5 402.5t307.5 130.5q80 0 146.5 -21.5t120 -66t87 -118.5t43.5 -173h-178q-15 111 -67 159t-152 48
q-82 0 -134 -31t-82 -112t-30 -218q0 -198 61 -279t185 -81q99 0 151.5 49t67.5 160h178q-10 -99 -43.5 -173t-87 -119t-120 -67t-146.5 -22z" />
    <glyph glyph-name="Ccaron" unicode="&#x10c;" 
d="M539 1520l-260 268h198l148 -164l147 164h199l-260 -268h-172zM643 -10q-89 0 -157 21t-124.5 70.5t-92.5 130.5t-56 203t-20 285q0 203 29.5 343t89.5 220t140 114t191 34q168 0 277 -115t129 -338h-172q-18 154 -79 217.5t-169 63.5q-56 0 -95 -12t-73 -46t-54 -94
t-31 -155.5t-11 -231.5q0 -135 11 -230.5t31 -155.5t54 -94t73 -46t95 -12q107 0 168.5 64t79.5 218h172q-20 -224 -129 -339t-277 -115z" />
    <glyph glyph-name="ccaron" unicode="&#x10d;" 
d="M543 1180l-260 268h198l148 -164l147 164h199l-260 -268h-172zM633 -10q-197 0 -307.5 131t-110.5 401q0 272 110.5 402.5t307.5 130.5q80 0 146.5 -21.5t120 -66t87 -118.5t43.5 -173h-178q-15 111 -67 159t-152 48q-82 0 -134 -31t-82 -112t-30 -218q0 -198 61 -279
t185 -81q99 0 151.5 49t67.5 160h178q-10 -99 -43.5 -173t-87 -119t-120 -67t-146.5 -22z" />
    <glyph glyph-name="Dcaron" unicode="&#x10e;" 
d="M506 1520l-260 268h198l148 -164l147 164h199l-260 -268h-172zM209 0v1401h293q530 0 530 -701q0 -700 -530 -700h-293zM381 172h135q59 0 107.5 14t93.5 50t75.5 94.5t49 152t18.5 217.5t-18.5 217.5t-49 152t-75.5 95t-93.5 50.5t-107.5 14h-135v-1057z" />
    <glyph glyph-name="dcaron" unicode="&#x10f;" 
d="M1352 1554q0 -38 -23 -71l-162 -244l-61 33l68 166q-39 14 -63 45.5t-24 70.5q0 53 39 88t95 35q55 0 93 -35t38 -88zM844 866v535h172v-1401h-146l-26 195q-44 -104 -122 -154.5t-179 -50.5q-165 0 -257.5 130t-92.5 402t92.5 402.5t257.5 130.5q108 0 183 -41t118 -148
zM604 162q118 0 179 81.5t61 278.5q0 102 -16.5 173.5t-49.5 112t-75 58t-99 17.5q-120 0 -179.5 -80.5t-59.5 -280.5q0 -198 60 -279t179 -81z" />
    <glyph glyph-name="Dcroat" unicode="&#x110;" 
d="M535 1401q532 0 532 -701q0 -700 -532 -700h-293v614h-174v172h174v615h293zM549 172q59 0 107.5 14t94 50t76.5 94.5t49.5 152t18.5 217.5t-18.5 217.5t-49.5 152t-76.5 95t-94 50.5t-107.5 14h-135v-443h258v-172h-258v-442h135z" />
    <glyph glyph-name="dcroat" unicode="&#x111;" 
d="M1149 1309v-172h-133v-1137h-146l-26 195q-44 -104 -122 -154.5t-179 -50.5q-165 0 -257.5 130t-92.5 402t92.5 402.5t257.5 130.5q108 0 183 -41t118 -148v271h-285v172h285v92h172v-92h133zM604 162q118 0 179 81.5t61 278.5q0 102 -16.5 173.5t-49.5 112t-75 58
t-99 17.5q-120 0 -179.5 -80.5t-59.5 -280.5q0 -198 60 -279t179 -81z" />
    <glyph glyph-name="Emacron" unicode="&#x112;" 
d="M897 1708v-145h-526v145h526zM1051 1229h-652v-443h562v-172h-562v-442h652v-172h-824v1401h824v-172z" />
    <glyph glyph-name="emacron" unicode="&#x113;" 
d="M879 1352v-146h-527v146h527zM377 463q9 -166 67.5 -235.5t167.5 -69.5q96 0 155.5 46t74.5 136h178q-32 -178 -135.5 -267t-266.5 -89q-195 0 -305 133.5t-110 404.5q0 272 109.5 405.5t301.5 133.5q191 0 301.5 -131t110.5 -387v-80h-649zM614 889q-104 0 -163 -64.5
t-72 -214.5h473q-10 149 -70.5 214t-167.5 65z" />
    <glyph glyph-name="Ebreve" unicode="&#x114;" 
d="M633 1513q-101 0 -169.5 63t-68.5 175l131 -2q0 -48 32 -77.5t77 -29.5q44 0 75 29.5t31 77.5l131 2q0 -113 -68 -175.5t-171 -62.5zM1051 1229h-652v-443h562v-172h-562v-442h652v-172h-824v1401h824v-172z" />
    <glyph glyph-name="ebreve" unicode="&#x115;" 
d="M614 1178q-102 0 -169.5 62.5t-67.5 174.5l131 -2q0 -48 31.5 -77t76.5 -29q44 0 75.5 29t31.5 77l131 2q0 -112 -68.5 -174.5t-171.5 -62.5zM377 463q9 -166 67.5 -235.5t167.5 -69.5q96 0 155.5 46t74.5 136h178q-32 -178 -135.5 -267t-266.5 -89q-195 0 -305 133.5
t-110 404.5q0 272 109.5 405.5t301.5 133.5q191 0 301.5 -131t110.5 -387v-80h-649zM614 889q-104 0 -163 -64.5t-72 -214.5h473q-10 149 -70.5 214t-167.5 65z" />
    <glyph glyph-name="Edotaccent" unicode="&#x116;" 
d="M633 1565q-57 0 -95 36t-38 89q0 54 38 88t95 34q55 0 93 -34.5t38 -87.5q0 -52 -38.5 -88.5t-92.5 -36.5zM1051 1229h-652v-443h562v-172h-562v-442h652v-172h-824v1401h824v-172z" />
    <glyph glyph-name="edotaccent" unicode="&#x117;" 
d="M616 1233q-56 0 -94.5 35.5t-38.5 89.5q0 52 38.5 86.5t94.5 34.5q55 0 93.5 -34.5t38.5 -86.5q0 -53 -38.5 -89t-93.5 -36zM377 463q9 -166 67.5 -235.5t167.5 -69.5q96 0 155.5 46t74.5 136h178q-32 -178 -135.5 -267t-266.5 -89q-195 0 -305 133.5t-110 404.5
q0 272 109.5 405.5t301.5 133.5q191 0 301.5 -131t110.5 -387v-80h-649zM614 889q-104 0 -163 -64.5t-72 -214.5h473q-10 149 -70.5 214t-167.5 65z" />
    <glyph glyph-name="Eogonek" unicode="&#x118;" 
d="M1044 -184h84v-172h-192q-53 0 -92.5 22.5t-52 67.5t27.5 112l88 154h-680v1401h824v-172h-652v-443h562v-172h-562v-442h652v-172l-50 -94q-14 -27 -15 -46t9.5 -28t22.5 -12.5t26 -3.5z" />
    <glyph glyph-name="eogonek" unicode="&#x119;" 
d="M377 463q9 -166 67.5 -235.5t167.5 -69.5q96 0 155.5 46t74.5 136h178q-27 -157 -111.5 -245t-216.5 -107l-43 -82q-14 -27 -15 -46t9.5 -28t22.5 -12.5t26 -3.5h84v-172h-192q-53 0 -92.5 22.5t-52 67.5t27.5 112l82 142q-164 24 -255 156.5t-91 377.5
q0 272 109.5 405.5t301.5 133.5q191 0 301.5 -131t110.5 -387v-80h-649zM614 889q-104 0 -163 -64.5t-72 -214.5h473q-10 149 -70.5 214t-167.5 65z" />
    <glyph glyph-name="Ecaron" unicode="&#x11a;" 
d="M719 1520h-172l-260 268h198l148 -164l147 164h199zM1051 1229h-652v-443h562v-172h-562v-442h652v-172h-824v1401h824v-172z" />
    <glyph glyph-name="ecaron" unicode="&#x11b;" 
d="M700 1180h-170l-262 268h199l149 -164l148 164h199zM377 463q9 -166 67.5 -235.5t167.5 -69.5q96 0 155.5 46t74.5 136h178q-32 -178 -135.5 -267t-266.5 -89q-195 0 -305 133.5t-110 404.5q0 272 109.5 405.5t301.5 133.5q191 0 301.5 -131t110.5 -387v-80h-649z
M614 889q-104 0 -163 -64.5t-72 -214.5h473q-10 149 -70.5 214t-167.5 65z" />
    <glyph glyph-name="Gcircumflex" unicode="&#x11c;" 
d="M635 1683l-148 -163h-198l262 268h170l262 -268h-199zM602 760h447v-760h-146l-29 199q-71 -209 -286 -209q-72 0 -130.5 20.5t-109.5 71t-85 130.5t-53.5 204t-19.5 286q1 162 21 284.5t56 202.5t91 130t119.5 71t147.5 21q175 0 280 -113.5t125 -339.5h-172
q-18 156 -74.5 218.5t-167.5 62.5q-53 0 -90 -12t-70 -46t-52.5 -93.5t-30.5 -155t-11 -230.5t12.5 -232t34 -156.5t57 -93.5t73.5 -46t90 -12q46 0 81 9.5t66.5 34t52 65t32 104.5t11.5 151v62h-270v172z" />
    <glyph glyph-name="gcircumflex" unicode="&#x11d;" 
d="M614 1343l-147 -163h-199l260 268h172l261 -268h-199zM485 -182h613v-174h-654q-67 0 -122 15t-99.5 46t-69 85t-24.5 126q0 98 44.5 177.5t131.5 119.5q-131 122 -131 360q0 231 99 356.5t278 125.5q242 0 330 -211l26 200h144v-466q0 -230 -116 -349.5t-323 -119.5
q-137 0 -229 51q-88 -67 -88 -170q0 -172 190 -172zM612 883q-266 0 -266 -310q0 -159 66 -232t200 -73t200.5 74t66.5 236q0 305 -267 305z" />
    <glyph glyph-name="Gbreve" unicode="&#x11e;" 
d="M616 1513q-101 0 -169 63t-68 175l131 -2q0 -48 32 -77.5t76 -29.5t75.5 29.5t31.5 77.5l131 2q0 -113 -68.5 -175.5t-171.5 -62.5zM602 760h447v-760h-146l-29 199q-71 -209 -286 -209q-72 0 -130.5 20.5t-109.5 71t-85 130.5t-53.5 204t-19.5 286q1 162 21 284.5
t56 202.5t91 130t119.5 71t147.5 21q175 0 280 -113.5t125 -339.5h-172q-18 156 -74.5 218.5t-167.5 62.5q-53 0 -90 -12t-70 -46t-52.5 -93.5t-30.5 -155t-11 -230.5t12.5 -232t34 -156.5t57 -93.5t73.5 -46t90 -12q46 0 81 9.5t66.5 34t52 65t32 104.5t11.5 151v62h-270
v172z" />
    <glyph glyph-name="gbreve" unicode="&#x11f;" 
d="M610 1178q-102 0 -170.5 62.5t-68.5 174.5l131 -2q0 -47 32.5 -76.5t75.5 -29.5q45 0 77 29t32 77l131 2q0 -112 -68.5 -174.5t-171.5 -62.5zM485 -182h613v-174h-654q-67 0 -122 15t-99.5 46t-69 85t-24.5 126q0 98 44.5 177.5t131.5 119.5q-131 122 -131 360
q0 231 99 356.5t278 125.5q242 0 330 -211l26 200h144v-466q0 -230 -116 -349.5t-323 -119.5q-137 0 -229 51q-88 -67 -88 -170q0 -172 190 -172zM612 883q-266 0 -266 -310q0 -159 66 -232t200 -73t200.5 74t66.5 236q0 305 -267 305z" />
    <glyph glyph-name="Gdotaccent" unicode="&#x120;" 
d="M616 1565q-56 0 -94.5 36.5t-38.5 88.5q0 53 38.5 87.5t94.5 34.5q55 0 93.5 -34.5t38.5 -87.5q0 -52 -39 -88.5t-93 -36.5zM602 760h447v-760h-146l-29 199q-71 -209 -286 -209q-72 0 -130.5 20.5t-109.5 71t-85 130.5t-53.5 204t-19.5 286q1 162 21 284.5t56 202.5
t91 130t119.5 71t147.5 21q175 0 280 -113.5t125 -339.5h-172q-18 156 -74.5 218.5t-167.5 62.5q-53 0 -90 -12t-70 -46t-52.5 -93.5t-30.5 -155t-11 -230.5t12.5 -232t34 -156.5t57 -93.5t73.5 -46t90 -12q46 0 81 9.5t66.5 34t52 65t32 104.5t11.5 151v62h-270v172z" />
    <glyph glyph-name="gdotaccent" unicode="&#x121;" 
d="M602 1233q-56 0 -94.5 35.5t-38.5 89.5q0 52 38.5 86.5t94.5 34.5q55 0 93 -34.5t38 -86.5q0 -53 -38 -89t-93 -36zM485 -182h613v-174h-654q-67 0 -122 15t-99.5 46t-69 85t-24.5 126q0 98 44.5 177.5t131.5 119.5q-131 122 -131 360q0 231 99 356.5t278 125.5
q242 0 330 -211l26 200h144v-466q0 -230 -116 -349.5t-323 -119.5q-137 0 -229 51q-88 -67 -88 -170q0 -172 190 -172zM612 883q-266 0 -266 -310q0 -159 66 -232t200 -73t200.5 74t66.5 236q0 305 -267 305z" />
    <glyph glyph-name="uni0122" unicode="&#x122;" horiz-adv-x="1220" 
d="M602 760h447v-760h-146l-29 199q-71 -209 -286 -209q-72 0 -130.5 20.5t-109.5 71t-85 130.5t-53.5 204t-19.5 286q1 162 21 284.5t56 202.5t91 130t119.5 71t147.5 21q175 0 280 -113.5t125 -339.5h-172q-18 156 -74.5 218.5t-167.5 62.5q-53 0 -90 -12t-70 -46
t-52.5 -93.5t-30.5 -155t-11 -230.5t12.5 -232t34 -156.5t57 -93.5t73.5 -46t90 -12q46 0 81 9.5t66.5 34t52 65t32 104.5t11.5 151v62h-270v172zM672 -88q53 0 91 -35t38 -88q0 -37 -27 -76l-158 -237l-61 32l66 164q-37 14 -59.5 45.5t-22.5 71.5q0 54 38 88.5t95 34.5z
" />
    <glyph glyph-name="uni0123" unicode="&#x123;" 
d="M631 1130q-53 0 -91 35t-38 88q0 41 22 72l162 244l62 -33l-68 -166q38 -13 61 -45t23 -72q0 -54 -38 -88.5t-95 -34.5zM485 -182h613v-174h-654q-67 0 -122 15t-99.5 46t-69 85t-24.5 126q0 98 44.5 177.5t131.5 119.5q-131 122 -131 360q0 231 99 356.5t278 125.5
q242 0 330 -211l26 200h144v-466q0 -230 -116 -349.5t-323 -119.5q-137 0 -229 51q-88 -67 -88 -170q0 -172 190 -172zM612 883q-266 0 -266 -310q0 -159 66 -232t200 -73t200.5 74t66.5 236q0 305 -267 305z" />
    <glyph glyph-name="Hcircumflex" unicode="&#x124;" 
d="M610 1683l-149 -163h-199l262 268h170l262 -268h-198zM848 1401h172v-1401h-172v614h-479v-614h-172v1401h172v-615h479v615z" />
    <glyph glyph-name="hcircumflex" unicode="&#x125;" 
d="M442 1495l-149 164l-148 -164h-198l262 268h170l262 -268h-199zM684 1057q160 0 251 -106.5t91 -280.5v-670h-172v573q0 312 -233 312q-59 0 -103 -18t-77 -58.5t-49.5 -112t-16.5 -172.5v-524h-172v1401h172v-522q45 101 117.5 139.5t191.5 38.5z" />
    <glyph glyph-name="Hbar" unicode="&#x126;" 
d="M1200 1176v-172h-180v-1004h-172v614h-479v-614h-172v1004h-179v172h179v225h172v-225h479v225h172v-225h180zM848 786v218h-479v-218h479z" />
    <glyph glyph-name="hbar" unicode="&#x127;" 
d="M684 1057q160 0 251 -106.5t91 -280.5v-670h-172v573q0 312 -233 312q-59 0 -103 -18t-77 -58.5t-49.5 -112t-16.5 -172.5v-524h-172v1137h-142v172h142v92h172v-92h276v-172h-276v-258q45 101 117.5 139.5t191.5 38.5z" />
    <glyph glyph-name="Itilde" unicode="&#x128;" 
d="M403 1595v-26h-143v26q0 95 63 161.5t152 66.5q71 0 150 -54q74 -65 120 -65q28 0 50 25.5t22 58.5v24h144v-24q0 -94 -63 -161.5t-153 -67.5q-76 0 -149 57q-56 47 -83 58q-19 7 -38 7q-32 0 -52 -24.5t-20 -61.5zM694 172h326v-172h-823v172h325v1057h-311v172h795
v-172h-312v-1057z" />
    <glyph glyph-name="itilde" unicode="&#x129;" 
d="M745 1217q-80 0 -149 57q-26 22 -39.5 32.5t-36.5 20.5t-45 10q-32 0 -52 -23.5t-20 -60.5v-26h-143v26q0 95 63 161.5t152 66.5q73 0 150 -56q26 -21 38 -30.5t37 -22t45 -12.5q28 0 50 25.5t22 60.5v24h144v-24q0 -95 -62.5 -162t-153.5 -67zM209 0v172h356v700h-289
v172h371q38 0 64 -26t26 -64v-782h332v-172h-860z" />
    <glyph glyph-name="Imacron" unicode="&#x12a;" 
d="M872 1708v-145h-526v145h526zM694 172h326v-172h-823v172h325v1057h-311v172h795v-172h-312v-1057z" />
    <glyph glyph-name="imacron" unicode="&#x12b;" 
d="M242 1206v146h526v-146h-526zM209 0v172h356v700h-289v172h371q38 0 64 -26t26 -64v-782h332v-172h-860z" />
    <glyph glyph-name="Ibreve" unicode="&#x12c;" 
d="M608 1513q-102 0 -169.5 63t-67.5 175l131 -2q0 -48 32 -77.5t76 -29.5t75.5 29.5t31.5 77.5l131 2q0 -113 -68.5 -175.5t-171.5 -62.5zM694 172h326v-172h-823v172h325v1057h-311v172h795v-172h-312v-1057z" />
    <glyph glyph-name="ibreve" unicode="&#x12d;" 
d="M639 1178q-102 0 -170 62.5t-68 174.5l131 -2q0 -48 32 -77t77 -29q44 0 75.5 29t31.5 77l131 2q0 -112 -68.5 -174.5t-171.5 -62.5zM209 0v172h356v700h-289v172h371q38 0 64 -26t26 -64v-782h332v-172h-860z" />
    <glyph glyph-name="Iogonek" unicode="&#x12e;" 
d="M1012 -184h84v-172h-191q-53 0 -92.5 22.5t-52.5 67.5t26 112l88 154h-677v172h325v1057h-311v172h795v-172h-312v-1057h326v-172l-49 -94q-22 -37 -14 -57t22 -26.5t33 -6.5z" />
    <glyph glyph-name="iogonek" unicode="&#x12f;" 
d="M651 1200q-58 0 -94.5 32t-36.5 93q0 60 36.5 91.5t94.5 31.5q57 0 94 -31.5t37 -91.5t-37 -92.5t-94 -32.5zM1061 -184h84v-172h-191q-53 0 -92.5 22.5t-52 67.5t26.5 112l88 154h-715v172h356v700h-289v172h371q38 0 64 -26t26 -64v-782h332v-172l-49 -94
q-22 -37 -14 -57t22 -26.5t33 -6.5z" />
    <glyph glyph-name="Idotaccent" unicode="&#x130;" 
d="M610 1565q-56 0 -94.5 36.5t-38.5 88.5q0 53 38.5 87.5t94.5 34.5q55 0 93 -34.5t38 -87.5q0 -52 -38.5 -88.5t-92.5 -36.5zM694 172h326v-172h-823v172h325v1057h-311v172h795v-172h-312v-1057z" />
    <glyph glyph-name="dotlessi" unicode="&#x131;" 
d="M209 0v172h356v700h-289v172h371q38 0 64 -26t26 -64v-782h332v-172h-860z" />
    <glyph glyph-name="Jcircumflex" unicode="&#x134;" 
d="M258 1520l262 268h170l262 -268h-198l-148 163l-149 -163h-199zM578 -10q-167 0 -274.5 90t-129.5 272h178q17 -100 71 -145t161 -45q235 0 235 297v770h-583v172h755v-975q0 -203 -112.5 -319.5t-300.5 -116.5z" />
    <glyph glyph-name="jcircumflex" unicode="&#x135;" 
d="M401 1180l263 268h170l262 -268h-199l-147 163l-150 -163h-199zM211 -362v172h393q60 0 103 42.5t43 102.5v917h-435v172h516q39 0 65 -26t26 -64v-1011q0 -129 -88.5 -217t-217.5 -88h-405z" />
    <glyph glyph-name="uni0136" unicode="&#x136;" 
d="M672 825l469 -825h-199l-385 680l-190 -244v-436h-172v1401h172v-688l534 688h219zM610 -88q53 0 91 -35t38 -88q0 -39 -26 -76l-158 -237l-61 32l67 164q-37 14 -60.5 46t-23.5 71q0 53 38.5 88t94.5 35z" />
    <glyph glyph-name="uni0137" unicode="&#x137;" 
d="M707 625l401 -625h-201l-319 489l-164 -186v-303h-172v1401h172v-834l426 477h223zM647 -88q53 0 91 -35t38 -88q0 -39 -26 -76l-158 -237l-62 32l66 164q-37 14 -59.5 45.5t-22.5 71.5q0 54 38 88.5t95 34.5z" />
    <glyph glyph-name="Lacute" unicode="&#x139;" 
d="M279 1520l135 272h204l-221 -272h-118zM246 0v1401h172v-1229h633v-172h-805z" />
    <glyph glyph-name="lacute" unicode="&#x13a;" 
d="M489 1520l136 272h204l-221 -272h-119zM756 0q-130 0 -218.5 88t-88.5 219v922h-334v172h415q38 0 64.5 -26t26.5 -64v-994q0 -60 42.5 -102.5t102.5 -42.5h326v-172h-336z" />
    <glyph glyph-name="uni013B" unicode="&#x13b;" 
d="M418 172h633v-172h-805v1401h172v-1229zM647 -88q53 0 91 -35t38 -88q0 -39 -26 -76l-158 -237l-62 32l66 164q-37 14 -59.5 45.5t-22.5 71.5q0 54 38 88.5t95 34.5z" />
    <glyph glyph-name="uni013C" unicode="&#x13c;" 
d="M766 172h326v-172h-336q-130 0 -218.5 88t-88.5 219v922h-334v172h415q38 0 64.5 -26t26.5 -64v-994q0 -60 42.5 -102.5t102.5 -42.5zM825 -88q55 0 93 -35t38 -88q0 -40 -24 -74l-160 -239l-61 32l65 164q-37 14 -60.5 46t-23.5 71q0 53 38.5 88t94.5 35z" />
    <glyph glyph-name="Lcaron" unicode="&#x13d;" 
d="M670 1174q-39 14 -62.5 45.5t-23.5 70.5q0 53 38.5 88t94.5 35q55 0 93 -35t38 -88q0 -38 -23 -71l-161 -242l-62 31zM418 172h633v-172h-805v1401h172v-1229z" />
    <glyph glyph-name="lcaron" unicode="&#x13e;" 
d="M821 1186q-38 13 -61 45t-23 72q0 54 38 88t95 34q54 0 91.5 -34.5t37.5 -87.5q0 -41 -22 -72l-162 -242l-61 31zM766 172h326v-172h-336q-130 0 -218.5 88t-88.5 219v922h-334v172h415q38 0 64.5 -26t26.5 -64v-994q0 -60 42.5 -102.5t102.5 -42.5z" />
    <glyph glyph-name="Ldot" unicode="&#x13f;" 
d="M246 0v1401h172v-1229h633v-172h-805zM705 627q-56 0 -95 36.5t-39 88.5q0 53 39 87.5t95 34.5q55 0 93 -34.5t38 -87.5q0 -52 -38.5 -88.5t-92.5 -36.5z" />
    <glyph glyph-name="ldot" unicode="&#x140;" 
d="M756 0q-130 0 -218.5 88t-88.5 219v922h-334v172h415q38 0 64.5 -26t26.5 -64v-994q0 -60 42.5 -102.5t102.5 -42.5h326v-172h-336zM885 655q-56 0 -94.5 35.5t-38.5 89.5q0 52 38.5 86.5t94.5 34.5q55 0 93 -34.5t38 -86.5q0 -53 -38 -89t-93 -36z" />
    <glyph glyph-name="Lslash" unicode="&#x141;" 
d="M475 172h633v-172h-805v426l-180 -180v243l180 181v731h172v-559l258 258v-242l-258 -258v-428z" />
    <glyph glyph-name="lslash" unicode="&#x142;" 
d="M766 172h326v-172h-336q-130 0 -218.5 88t-88.5 219v234l-193 -193v242l193 190v449h-334v172h415q38 0 64.5 -26t26.5 -64v-359l208 207v-239l-208 -209v-394q0 -60 42.5 -102.5t102.5 -42.5z" />
    <glyph glyph-name="Nacute" unicode="&#x143;" 
d="M897 1792l-221 -272h-119l135 272h205zM883 1401h172v-1401h-215l-506 1100v-1100h-172v1401h217l504 -1100v1100z" />
    <glyph glyph-name="nacute" unicode="&#x144;" 
d="M877 1436l-222 -273h-118l135 273h205zM696 1057q162 0 247 -107.5t85 -271.5v-678h-174v635q0 123 -63.5 190.5t-172.5 67.5q-243 0 -243 -367v-526h-172v1044h145l29 -231q65 244 319 244z" />
    <glyph glyph-name="uni0145" unicode="&#x145;" horiz-adv-x="1220" 
d="M883 1401h172v-1401h-215l-506 1100v-1100h-172v1401h217l504 -1100v1100zM586 -88q53 0 91 -35t38 -88q0 -37 -27 -76l-158 -237l-61 32l66 164q-37 14 -59.5 45.5t-22.5 71.5q0 54 38 88.5t95 34.5z" />
    <glyph glyph-name="uni0146" unicode="&#x146;" 
d="M696 1057q162 0 247 -107.5t85 -271.5v-678h-174v635q0 123 -63.5 190.5t-172.5 67.5q-243 0 -243 -367v-526h-172v1044h145l29 -231q65 244 319 244zM606 -88q53 0 91 -35t38 -88q0 -39 -26 -76l-158 -237l-62 32l66 164q-37 14 -59.5 45.5t-22.5 71.5q0 54 38 88.5
t95 34.5z" />
    <glyph glyph-name="Ncaron" unicode="&#x147;" 
d="M694 1520h-170l-262 268h199l149 -164l148 164h198zM883 1401h172v-1401h-215l-506 1100v-1100h-172v1401h217l504 -1100v1100z" />
    <glyph glyph-name="ncaron" unicode="&#x148;" 
d="M684 1180h-170l-262 268h199l149 -164l148 164h198zM696 1057q162 0 247 -107.5t85 -271.5v-678h-174v635q0 123 -63.5 190.5t-172.5 67.5q-243 0 -243 -367v-526h-172v1044h145l29 -231q65 244 319 244z" />
    <glyph glyph-name="napostrophe" unicode="&#x149;" 
d="M303 1374l-162 -241l-61 30l67 166q-37 14 -60.5 46t-23.5 71q0 53 39 88t95 35q53 0 91 -35t38 -88q0 -39 -23 -72zM696 1057q162 0 247 -107.5t85 -271.5v-678h-174v635q0 123 -63.5 190.5t-172.5 67.5q-243 0 -243 -367v-526h-172v1044h145l29 -231q65 244 319 244z
" />
    <glyph glyph-name="Eng" unicode="&#x14a;" 
d="M883 1401h172v-1530q0 -105 -61.5 -166t-166.5 -61h-75v172h49q34 0 58 24t24 58v102h-43l-506 1098v-1098h-172v1401h217l504 -1096v1096z" />
    <glyph glyph-name="eng" unicode="&#x14b;" 
d="M1028 688v-790q0 -106 -74 -180t-180 -74h-51v172h49q34 0 58 24t24 58v737q0 123 -63.5 190.5t-172.5 67.5q-243 0 -243 -367v-526h-172v1044h145l29 -231q65 244 319 244q159 0 244 -104t88 -265z" />
    <glyph glyph-name="Omacron" unicode="&#x14c;" 
d="M346 1563v145h526v-145h-526zM608 -10q-80 0 -143 20.5t-116.5 71t-89 130.5t-55.5 203t-20 285q0 201 30 342t87.5 220.5t132 114t174.5 34.5q79 0 142 -21t117 -71t89.5 -130.5t55.5 -203.5t20 -285t-20 -285t-55.5 -203t-89.5 -130.5t-117 -71t-142 -20.5zM608 162
q52 0 88.5 12t69 46t52 93t31 155.5t11.5 231.5t-11 231.5t-30.5 156t-52 93.5t-69.5 46t-89 12t-89 -12t-69.5 -46t-52 -93.5t-30.5 -156t-11 -231.5t11 -231t30.5 -155.5t52 -93.5t69.5 -46t89 -12z" />
    <glyph glyph-name="omacron" unicode="&#x14d;" 
d="M346 1206v146h526v-146h-526zM608 -12q-190 0 -300.5 133t-110.5 401q0 271 110 403t301 132q190 0 301 -133t111 -402t-111 -401.5t-301 -132.5zM608 160q118 0 179 81.5t61 280.5q0 103 -16 174t-48 112t-74.5 59t-101.5 18q-118 0 -178.5 -82t-60.5 -281
q0 -101 16.5 -172.5t48.5 -112.5t74.5 -59t99.5 -18zM549 653h121v-262h-121v262z" />
    <glyph glyph-name="Obreve" unicode="&#x14e;" 
d="M608 1513q-101 0 -169 63t-68 175l131 -2q0 -48 32 -77.5t76 -29.5t75.5 29.5t31.5 77.5l131 2q0 -113 -68.5 -175.5t-171.5 -62.5zM608 -10q-80 0 -143 20.5t-116.5 71t-89 130.5t-55.5 203t-20 285q0 201 30 342t87.5 220.5t132 114t174.5 34.5q79 0 142 -21t117 -71
t89.5 -130.5t55.5 -203.5t20 -285t-20 -285t-55.5 -203t-89.5 -130.5t-117 -71t-142 -20.5zM608 162q52 0 88.5 12t69 46t52 93t31 155.5t11.5 231.5t-11 231.5t-30.5 156t-52 93.5t-69.5 46t-89 12t-89 -12t-69.5 -46t-52 -93.5t-30.5 -156t-11 -231.5t11 -231t30.5 -155.5
t52 -93.5t69.5 -46t89 -12z" />
    <glyph glyph-name="obreve" unicode="&#x14f;" 
d="M608 1178q-102 0 -169.5 62.5t-67.5 174.5l131 -2q0 -48 31.5 -77t76.5 -29q44 0 75.5 29t31.5 77l131 2q0 -112 -68.5 -174.5t-171.5 -62.5zM608 -12q-190 0 -300.5 133t-110.5 401q0 271 110 403t301 132q190 0 301 -133t111 -402t-111 -401.5t-301 -132.5zM608 160
q118 0 179 81.5t61 280.5q0 103 -16 174t-48 112t-74.5 59t-101.5 18q-118 0 -178.5 -82t-60.5 -281q0 -101 16.5 -172.5t48.5 -112.5t74.5 -59t99.5 -18zM549 653h121v-262h-121v262z" />
    <glyph glyph-name="Ohungarumlaut" unicode="&#x150;" 
d="M401 1520l136 272h204l-221 -272h-119zM684 1520l135 272h205l-221 -272h-119zM608 -10q-80 0 -143 20.5t-116.5 71t-89 130.5t-55.5 203t-20 285q0 201 30 342t87.5 220.5t132 114t174.5 34.5q79 0 142 -21t117 -71t89.5 -130.5t55.5 -203.5t20 -285t-20 -285
t-55.5 -203t-89.5 -130.5t-117 -71t-142 -20.5zM608 162q52 0 88.5 12t69 46t52 93t31 155.5t11.5 231.5t-11 231.5t-30.5 156t-52 93.5t-69.5 46t-89 12t-89 -12t-69.5 -46t-52 -93.5t-30.5 -156t-11 -231.5t11 -231t30.5 -155.5t52 -93.5t69.5 -46t89 -12z" />
    <glyph glyph-name="ohungarumlaut" unicode="&#x151;" 
d="M408 1163l135 273h205l-222 -273h-118zM690 1163l135 273h205l-221 -273h-119zM608 -12q-190 0 -300.5 133t-110.5 401q0 271 110 403t301 132q190 0 301 -133t111 -402t-111 -401.5t-301 -132.5zM608 160q118 0 179 81.5t61 280.5q0 103 -16 174t-48 112t-74.5 59
t-101.5 18q-118 0 -178.5 -82t-60.5 -281q0 -101 16.5 -172.5t48.5 -112.5t74.5 -59t99.5 -18zM549 653h121v-262h-121v262z" />
    <glyph glyph-name="OE" unicode="&#x152;" 
d="M1120 1229h-305v-443h244v-172h-244v-442h305v-172h-573q-55 0 -100 16.5t-91 63t-77 122t-50.5 202.5t-19.5 296q0 142 13 254.5t37 187.5t54.5 127t70.5 80t78.5 40t84.5 12h573v-172zM643 164v1065h-96q-26 0 -46 -7.5t-44 -39t-39.5 -85.5t-26 -155.5t-10.5 -241.5
t10.5 -242t26 -157.5t39.5 -87.5t44 -40.5t46 -8.5h96z" />
    <glyph glyph-name="oe" unicode="&#x153;" 
d="M1133 580v-140h-437q0 -157 35.5 -217.5t97.5 -60.5q115 0 132 176h167q-27 -184 -104 -266t-180 -82q-87 0 -145 46t-89 171q-31 -125 -87.5 -171t-141.5 -46q-48 0 -89.5 16.5t-79.5 55.5t-64.5 98.5t-42 152t-15.5 209.5q0 147 23 253.5t64.5 166t91.5 86.5t112 27
q86 0 142.5 -44.5t86.5 -164.5q30 119 88.5 164t145.5 45q60 0 110.5 -26t91.5 -80.5t64 -148.5t23 -220zM393 164q23 0 40.5 6.5t35.5 29t29.5 60.5t18.5 104t7 158q0 114 -10 189.5t-30 111t-40.5 48t-50.5 12.5t-50.5 -12.5t-40.5 -48t-30 -111t-10 -189.5q0 -92 7 -158
t18.5 -104t29.5 -60.5t35.5 -29t40.5 -6.5zM696 588h265q0 93 -10.5 154.5t-31 90t-41 38.5t-49.5 10q-22 0 -39.5 -5.5t-36 -23t-30 -48.5t-19.5 -86t-8 -130z" />
    <glyph glyph-name="Racute" unicode="&#x154;" 
d="M897 1792l-221 -272h-119l135 272h205zM1079 0h-198l-226 526q-16 -2 -51 -2h-209v-524h-172v1401h381q198 0 320.5 -118.5t122.5 -319.5q0 -135 -60.5 -236.5t-165.5 -155.5zM590 696q145 0 214.5 67t69.5 200q0 134 -69.5 200t-214.5 66h-195v-533h195z" />
    <glyph glyph-name="racute" unicode="&#x155;" 
d="M938 1436l-221 -273h-119l135 273h205zM788 891q-133 0 -208.5 -88.5t-75.5 -222.5v-408h467v-172h-848v172h209v700h-209v172h354l31 -198q36 104 118.5 156.5t198.5 52.5h209v-164h-246z" />
    <glyph glyph-name="uni0156" unicode="&#x156;" horiz-adv-x="1220" 
d="M821 571l258 -571h-198l-226 526q-16 -2 -51 -2h-209v-524h-172v1401h381q198 0 320.5 -118.5t122.5 -319.5q0 -135 -60.5 -236.5t-165.5 -155.5zM590 696q145 0 214.5 67t69.5 200q0 134 -69.5 200t-214.5 66h-195v-533h195zM639 -88q55 0 93 -35t38 -88q0 -38 -25 -74
l-159 -239l-62 32l66 164q-37 14 -60.5 46t-23.5 71q0 53 38.5 88t94.5 35z" />
    <glyph glyph-name="uni0157" unicode="&#x157;" 
d="M788 891q-133 0 -208.5 -88.5t-75.5 -222.5v-408h467v-172h-848v172h209v700h-209v172h354l31 -198q36 104 118.5 156.5t198.5 52.5h209v-164h-246zM418 -88q53 0 91 -35t38 -88q0 -37 -27 -76l-158 -237l-61 32l66 164q-37 14 -59.5 45.5t-22.5 71.5q0 54 38 88.5
t95 34.5z" />
    <glyph glyph-name="Rcaron" unicode="&#x158;" 
d="M690 1520h-172l-260 268h199l147 -164l148 164h198zM1079 0h-198l-226 526q-16 -2 -51 -2h-209v-524h-172v1401h381q198 0 320.5 -118.5t122.5 -319.5q0 -135 -60.5 -236.5t-165.5 -155.5zM590 696q145 0 214.5 67t69.5 200q0 134 -69.5 200t-214.5 66h-195v-533h195z
" />
    <glyph glyph-name="rcaron" unicode="&#x159;" 
d="M748 1180h-170l-263 268h199l150 -164l147 164h199zM788 891q-133 0 -208.5 -88.5t-75.5 -222.5v-408h467v-172h-848v172h209v700h-209v172h354l31 -198q36 104 118.5 156.5t198.5 52.5h209v-164h-246z" />
    <glyph glyph-name="Sacute" unicode="&#x15a;" 
d="M541 1520l135 272h205l-222 -272h-118zM600 -10q-203 0 -315 100.5t-131 335.5h180q13 -148 78.5 -206t187.5 -58q121 0 189.5 55.5t68.5 147.5q0 189 -213 251l-131 43q-168 50 -250 149t-82 236q0 157 114 262t292 105q186 0 289.5 -95.5t123.5 -309.5h-165
q-13 128 -73 180.5t-175 52.5q-106 0 -170 -54.5t-64 -140.5q0 -80 49 -133t177 -92l131 -45q158 -46 238.5 -154t80.5 -255q0 -163 -118.5 -269t-311.5 -106z" />
    <glyph glyph-name="sacute" unicode="&#x15b;" 
d="M547 1163l135 273h205l-221 -273h-119zM625 -10q-178 0 -293 86t-133 276h192q12 -109 72 -157t170 -48q103 0 160 42t57 106q0 60 -40.5 104.5t-117.5 57.5l-166 35q-301 59 -301 280q0 123 100 203t273 80q157 0 263.5 -75.5t127.5 -229.5h-178q-10 70 -67.5 108.5
t-151.5 38.5q-100 0 -145.5 -37t-45.5 -88q0 -52 35 -88t109 -49l172 -33q142 -29 223.5 -108.5t81.5 -204.5q0 -129 -109.5 -214t-287.5 -85z" />
    <glyph glyph-name="Scircumflex" unicode="&#x15c;" 
d="M250 1520l262 268h170l262 -268h-199l-147 163l-149 -163h-199zM600 -10q-203 0 -315 100.5t-131 335.5h180q13 -148 78.5 -206t187.5 -58q121 0 189.5 55.5t68.5 147.5q0 189 -213 251l-131 43q-168 50 -250 149t-82 236q0 157 114 262t292 105q186 0 289.5 -95.5
t123.5 -309.5h-165q-13 128 -73 180.5t-175 52.5q-106 0 -170 -54.5t-64 -140.5q0 -80 49 -133t177 -92l131 -45q158 -46 238.5 -154t80.5 -255q0 -163 -118.5 -269t-311.5 -106z" />
    <glyph glyph-name="scircumflex" unicode="&#x15d;" 
d="M264 1180l262 268h170l262 -268h-198l-148 163l-149 -163h-199zM625 -10q-178 0 -293 86t-133 276h192q12 -109 72 -157t170 -48q103 0 160 42t57 106q0 60 -40.5 104.5t-117.5 57.5l-166 35q-301 59 -301 280q0 123 100 203t273 80q157 0 263.5 -75.5t127.5 -229.5h-178
q-10 70 -67.5 108.5t-151.5 38.5q-100 0 -145.5 -37t-45.5 -88q0 -52 35 -88t109 -49l172 -33q142 -29 223.5 -108.5t81.5 -204.5q0 -129 -109.5 -214t-287.5 -85z" />
    <glyph glyph-name="Scedilla" unicode="&#x15e;" 
d="M1030 365q0 -140 -89.5 -240.5t-240.5 -126.5l-65 -135h8q85 0 138 -52t53 -137q0 -91 -68 -144.5t-174 -53.5h-154v141h154q47 0 72.5 25t25.5 61q0 35 -23.5 60.5t-60.5 25.5h-125v72l64 131q-176 11 -274.5 113.5t-116.5 320.5h180q13 -148 78.5 -206t187.5 -58
q121 0 189.5 55.5t68.5 147.5q0 189 -213 251l-131 43q-168 50 -250 149t-82 236q0 157 114 262t292 105q186 0 289.5 -95.5t123.5 -309.5h-165q-13 128 -73 180.5t-175 52.5q-106 0 -170 -54.5t-64 -140.5q0 -80 49 -133t177 -92l131 -45q158 -46 238.5 -154t80.5 -255z
" />
    <glyph glyph-name="scedilla" unicode="&#x15f;" 
d="M1022 289q0 -113 -84.5 -193t-228.5 -100l-64 -133h10q85 0 138 -52t53 -137q0 -91 -68 -144.5t-174 -53.5h-155v141h155q47 0 71.5 25t24.5 61q0 35 -22.5 60.5t-59.5 25.5h-124v72l63 133q-150 13 -246 99.5t-112 258.5h192q12 -109 72 -157t170 -48q103 0 160 42
t57 106q0 60 -40.5 104.5t-117.5 57.5l-166 35q-301 59 -301 280q0 123 100 203t273 80q157 0 263.5 -75.5t127.5 -229.5h-178q-10 70 -67.5 108.5t-151.5 38.5q-100 0 -145.5 -37t-45.5 -88q0 -52 35 -88t109 -49l172 -33q142 -29 223.5 -108.5t81.5 -204.5z" />
    <glyph glyph-name="Scaron" unicode="&#x160;" 
d="M512 1520l-262 268h199l149 -164l147 164h199l-262 -268h-170zM600 -10q-203 0 -315 100.5t-131 335.5h180q13 -148 78.5 -206t187.5 -58q121 0 189.5 55.5t68.5 147.5q0 189 -213 251l-131 43q-168 50 -250 149t-82 236q0 157 114 262t292 105q186 0 289.5 -95.5
t123.5 -309.5h-165q-13 128 -73 180.5t-175 52.5q-106 0 -170 -54.5t-64 -140.5q0 -80 49 -133t177 -92l131 -45q158 -46 238.5 -154t80.5 -255q0 -163 -118.5 -269t-311.5 -106z" />
    <glyph glyph-name="scaron" unicode="&#x161;" 
d="M526 1180l-262 268h199l149 -164l148 164h198l-262 -268h-170zM625 -10q-178 0 -293 86t-133 276h192q12 -109 72 -157t170 -48q103 0 160 42t57 106q0 60 -40.5 104.5t-117.5 57.5l-166 35q-301 59 -301 280q0 123 100 203t273 80q157 0 263.5 -75.5t127.5 -229.5h-178
q-10 70 -67.5 108.5t-151.5 38.5q-100 0 -145.5 -37t-45.5 -88q0 -52 35 -88t109 -49l172 -33q142 -29 223.5 -108.5t81.5 -204.5q0 -129 -109.5 -214t-287.5 -85z" />
    <glyph glyph-name="uni0162" unicode="&#x162;" horiz-adv-x="1228" 
d="M694 0h-10l-66 -137h11q85 0 137.5 -52t52.5 -137q0 -91 -67.5 -144.5t-173.5 -53.5h-156v141h156q47 0 71.5 25t24.5 61q0 35 -22.5 60.5t-59.5 25.5h-125v72l68 139h-13v1243h-356v158h887v-158h-359v-1243z" />
    <glyph glyph-name="uni0163" unicode="&#x163;" 
d="M897 -137q85 0 139 -52.5t54 -136.5q0 -91 -68 -144.5t-174 -53.5h-156v141h156q47 0 71.5 25t24.5 61q0 35 -23 60.5t-61 25.5h-125v72l70 139h-80q-130 0 -218.5 89t-88.5 218v565h-283v172h283v283h172v-283h477v-172h-477v-555q0 -60 42.5 -102.5t102.5 -42.5h312
v-172h-93l-65 -137h8z" />
    <glyph glyph-name="Tcaron" unicode="&#x164;" 
d="M694 1520h-170l-262 268h199l149 -164l148 164h198zM1053 1401v-158h-359v-1243h-172v1243h-356v158h887z" />
    <glyph glyph-name="tcaron" unicode="&#x165;" 
d="M782 1335q-39 14 -62.5 46t-23.5 71q0 53 38.5 88t94.5 35q55 0 93.5 -35t38.5 -88q0 -39 -23 -72l-162 -243l-61 32zM1067 872h-477v-555q0 -60 42.5 -102.5t102.5 -42.5h312v-172h-322q-130 0 -218.5 89t-88.5 218v565h-283v172h283v283h172v-283h477v-172z" />
    <glyph glyph-name="Tbar" unicode="&#x166;" 
d="M1053 1243h-359v-495h234v-173h-234v-575h-172v575h-235v173h235v495h-356v158h887v-158z" />
    <glyph glyph-name="tbar" unicode="&#x167;" 
d="M1067 872h-477v-202h248v-172h-248v-181q0 -60 42.5 -102.5t102.5 -42.5h312v-172h-322q-130 0 -218.5 89t-88.5 218v191h-207v172h207v202h-283v172h283v283h172v-283h477v-172z" />
    <glyph glyph-name="Utilde" unicode="&#x168;" 
d="M745 1559q-76 0 -149 57q-56 47 -83 58q-19 7 -38 7q-32 0 -52 -24.5t-20 -61.5v-26h-143v26q0 95 63 161.5t152 66.5q71 0 150 -54q74 -65 120 -65q28 0 50 25.5t22 58.5v24h144v-24q0 -94 -63 -161.5t-153 -67.5zM608 -10q-193 0 -308.5 117.5t-115.5 316.5v977h172
v-916q0 -169 64 -246t188 -77t188 76.5t64 246.5v916h172v-977q0 -198 -116 -316t-308 -118z" />
    <glyph glyph-name="utilde" unicode="&#x169;" 
d="M743 1217q-77 0 -149 57q-26 22 -39.5 32.5t-36.5 20.5t-45 10q-32 0 -52 -23.5t-20 -60.5v-26h-143v26q0 95 63 161.5t152 66.5q73 0 150 -56q26 -21 38 -30.5t37 -22t45 -12.5q29 0 50.5 25.5t21.5 60.5v24h143v-24q0 -96 -61.5 -162.5t-153.5 -66.5zM608 -10
q-180 0 -295.5 109t-115.5 270v675h172v-647q0 -109 63.5 -172t175.5 -63t176 63t64 172v647h172v-675q0 -160 -116.5 -269.5t-295.5 -109.5z" />
    <glyph glyph-name="Umacron" unicode="&#x16a;" 
d="M346 1563v145h526v-145h-526zM608 -10q-193 0 -308.5 117.5t-115.5 316.5v977h172v-916q0 -169 64 -246t188 -77t188 76.5t64 246.5v916h172v-977q0 -198 -116 -316t-308 -118z" />
    <glyph glyph-name="umacron" unicode="&#x16b;" 
d="M346 1206v146h526v-146h-526zM608 -10q-180 0 -295.5 109t-115.5 270v675h172v-647q0 -109 63.5 -172t175.5 -63t176 63t64 172v647h172v-675q0 -160 -116.5 -269.5t-295.5 -109.5z" />
    <glyph glyph-name="Ubreve" unicode="&#x16c;" 
d="M608 1513q-101 0 -169 63t-68 175l131 -2q0 -48 32 -77.5t76 -29.5t75.5 29.5t31.5 77.5l131 2q0 -113 -68.5 -175.5t-171.5 -62.5zM608 -10q-193 0 -308.5 117.5t-115.5 316.5v977h172v-916q0 -169 64 -246t188 -77t188 76.5t64 246.5v916h172v-977q0 -198 -116 -316
t-308 -118z" />
    <glyph glyph-name="ubreve" unicode="&#x16d;" 
d="M608 1178q-102 0 -169.5 62.5t-67.5 174.5l131 -2q0 -48 31.5 -77t76.5 -29q44 0 75.5 29t31.5 77l131 2q0 -112 -68.5 -174.5t-171.5 -62.5zM608 -10q-180 0 -295.5 109t-115.5 270v675h172v-647q0 -109 63.5 -172t175.5 -63t176 63t64 172v647h172v-675
q0 -160 -116.5 -269.5t-295.5 -109.5z" />
    <glyph glyph-name="Uring" unicode="&#x16e;" 
d="M610 1391q-100 0 -169.5 68.5t-69.5 172.5q0 101 69.5 169.5t167.5 68.5q100 0 170 -68t70 -170q0 -104 -69.5 -172.5t-168.5 -68.5zM610 1522q43 0 75 30t32 78t-31.5 77.5t-75.5 29.5t-76 -29.5t-32 -77.5t31 -78t77 -30zM608 -10q-193 0 -308.5 117.5t-115.5 316.5
v977h172v-916q0 -169 64 -246t188 -77t188 76.5t64 246.5v916h172v-977q0 -198 -116 -316t-308 -118z" />
    <glyph glyph-name="uring" unicode="&#x16f;" 
d="M608 1167q-99 0 -169 69t-70 173q0 101 70 169.5t167 68.5q100 0 170 -68t70 -170q0 -104 -70 -173t-168 -69zM608 1298q43 0 75 30.5t32 78.5t-31.5 77t-75.5 29q-45 0 -76.5 -29t-31.5 -77t31.5 -78.5t76.5 -30.5zM608 -10q-180 0 -295.5 109t-115.5 270v675h172v-647
q0 -109 63.5 -172t175.5 -63t176 63t64 172v647h172v-675q0 -160 -116.5 -269.5t-295.5 -109.5z" />
    <glyph glyph-name="Uhungarumlaut" unicode="&#x170;" 
d="M406 1520l135 272h204l-221 -272h-118zM686 1520l135 272h205l-221 -272h-119zM608 -10q-193 0 -308.5 117.5t-115.5 316.5v977h172v-916q0 -169 64 -246t188 -77t188 76.5t64 246.5v916h172v-977q0 -198 -116 -316t-308 -118z" />
    <glyph glyph-name="uhungarumlaut" unicode="&#x171;" 
d="M399 1161l136 273h204l-221 -273h-119zM682 1161l135 273h205l-221 -273h-119zM608 -10q-180 0 -295.5 109t-115.5 270v675h172v-647q0 -109 63.5 -172t175.5 -63t176 63t64 172v647h172v-675q0 -160 -116.5 -269.5t-295.5 -109.5z" />
    <glyph glyph-name="Uogonek" unicode="&#x172;" 
d="M860 1401h172v-977q0 -175 -91.5 -289t-248.5 -139l-47 -90q-14 -27 -15 -46t9.5 -28t22.5 -12.5t26 -3.5h84v-172h-192q-53 0 -92.5 22.5t-52 67.5t27.5 112l84 148q-167 19 -265 133.5t-98 296.5v977h172v-916q0 -169 64 -246t188 -77t188 76.5t64 246.5v916z" />
    <glyph glyph-name="uogonek" unicode="&#x173;" 
d="M848 1044h172v-675q0 -142 -94 -246.5t-244 -126.5l-47 -90q-22 -37 -14 -57t22 -26.5t33 -6.5h84v-172h-191q-53 0 -92 22.5t-51.5 67.5t27.5 112l84 150q-152 22 -246 126.5t-94 246.5v675h172v-647q0 -109 63.5 -172t175.5 -63t176 63t64 172v647z" />
    <glyph glyph-name="Wcircumflex" unicode="&#x174;" 
d="M610 1683l-149 -163h-199l262 268h170l262 -268h-198zM961 1401h176l-222 -1401h-167l-140 643l-139 -643h-166l-223 1401h176l154 -1018l98 483h203l98 -479z" />
    <glyph glyph-name="wcircumflex" unicode="&#x175;" 
d="M610 1343l-149 -163h-199l262 268h170l262 -268h-198zM950 1044h174l-217 -1044h-162l-137 653l-137 -653h-160l-219 1044h174l135 -661l115 602h184l115 -604z" />
    <glyph glyph-name="Ycircumflex" unicode="&#x176;" 
d="M610 1683l-149 -163h-199l262 268h170l262 -268h-198zM694 547v-375h326v-172h-823v172h325v375l-416 854h193l309 -653l310 653h194z" />
    <glyph glyph-name="ycircumflex" unicode="&#x177;" 
d="M625 1343l-150 -163h-199l263 268h170l262 -268h-199zM1100 1044l-410 -1228h326v-172h-799v172h303l60 184h-78l-371 1044h188l308 -897l286 897h187z" />
    <glyph glyph-name="Ydieresis" unicode="&#x178;" 
d="M440 1544q-57 0 -95 35.5t-38 89.5q0 52 38 86.5t95 34.5q53 0 91 -34.5t38 -86.5q0 -53 -38 -89t-91 -36zM784 1544q-57 0 -95 35.5t-38 89.5q0 52 38 86.5t95 34.5q53 0 91 -34.5t38 -86.5q0 -53 -38 -89t-91 -36zM694 547v-375h326v-172h-823v172h325v375l-416 854
h193l309 -653l310 653h194z" />
    <glyph glyph-name="Zacute" unicode="&#x179;" 
d="M899 1792l-221 -272h-119l135 272h205zM381 172h639v-172h-830v172l619 1057h-604v172h796v-172z" />
    <glyph glyph-name="zacute" unicode="&#x17a;" 
d="M547 1163l135 273h205l-221 -273h-119zM219 0v172l541 700h-522v172h749v-172l-541 -700h560v-172h-787z" />
    <glyph glyph-name="Zdotaccent" unicode="&#x17b;" 
d="M610 1565q-56 0 -94.5 36.5t-38.5 88.5q0 53 38.5 87.5t94.5 34.5q55 0 93 -34.5t38 -87.5q0 -52 -38.5 -88.5t-92.5 -36.5zM381 172h639v-172h-830v172l619 1057h-604v172h796v-172z" />
    <glyph glyph-name="zdotaccent" unicode="&#x17c;" 
d="M612 1233q-56 0 -94.5 35.5t-38.5 89.5q0 52 38.5 86.5t94.5 34.5q55 0 93 -34.5t38 -86.5q0 -53 -38 -89t-93 -36zM219 0v172l541 700h-522v172h749v-172l-541 -700h560v-172h-787z" />
    <glyph glyph-name="Zcaron" unicode="&#x17d;" 
d="M694 1520h-172l-260 268h199l147 -164l148 164h198zM381 172h639v-172h-830v172l619 1057h-604v172h796v-172z" />
    <glyph glyph-name="zcaron" unicode="&#x17e;" 
d="M526 1180l-260 268h199l147 -164l148 164h198l-260 -268h-172zM219 0v172l541 700h-522v172h749v-172l-541 -700h560v-172h-787z" />
    <glyph glyph-name="florin" unicode="&#x192;" 
d="M807 1235q-46 0 -79.5 -33t-33.5 -80v-336h219v-172h-219v-348q0 -116 -78 -194t-194 -78h-229v172h219q45 0 77.5 33t32.5 80v335h-219v172h219v349q0 117 79 194.5t196 77.5h227v-172h-217z" />
    <glyph glyph-name="AEacute" unicode="&#x1fc;" 
d="M1014 1792l-221 -272h-119l135 272h205zM1114 1229h-303v-443h242v-172h-242v-442h303v-172h-475v319h-266l-84 -319h-176l383 1401h618v-172zM639 492v737h-27l-194 -737h221z" />
    <glyph glyph-name="aeacute" unicode="&#x1fd;" 
d="M887 1436l-221 -273h-119l135 273h205zM1128 584v-144h-436q0 -82 10 -139.5t29 -88t41.5 -43.5t52.5 -13q52 0 85.5 41t43.5 141h166q-27 -192 -92.5 -273t-173.5 -81q-38 0 -70.5 9t-67 32.5t-63 71.5t-47.5 118q-65 -231 -246 -231q-127 0 -201.5 76.5t-74.5 209.5
q0 129 78 223.5t200 94.5h158q0 301 -129 301q-49 0 -82.5 -36t-42.5 -110h-168q19 165 90 241.5t177 76.5q179 0 241 -227q60 227 244 227q278 0 278 -477zM692 588h264q0 75 -7.5 130.5t-20 87.5t-30.5 50.5t-35.5 24.5t-39.5 6q-28 0 -49 -11.5t-41 -41.5t-30.5 -92
t-10.5 -154zM389 160q28 0 49 10.5t41 38.5t30.5 86.5t10.5 144.5h-133q-55 0 -93 -40t-38 -101q0 -69 39 -104t94 -35z" />
    <glyph glyph-name="uni0218" unicode="&#x218;" horiz-adv-x="1220" 
d="M711 774q158 -46 238.5 -154t80.5 -255q0 -163 -118.5 -269t-311.5 -106q-203 0 -315 100.5t-131 335.5h180q13 -148 78.5 -206t187.5 -58q121 0 189.5 55.5t68.5 147.5q0 189 -213 251l-131 43q-168 50 -250 149t-82 236q0 157 114 262t292 105q186 0 289.5 -95.5
t123.5 -309.5h-165q-13 128 -73 180.5t-175 52.5q-106 0 -170 -54.5t-64 -140.5q0 -80 49 -133t177 -92zM590 -88q55 0 93 -35t38 -88q0 -38 -25 -74l-159 -239l-62 32l66 164q-37 14 -60.5 46t-23.5 71q0 53 38.5 88t94.5 35z" />
    <glyph glyph-name="uni0219" unicode="&#x219;" 
d="M717 602q142 -29 223.5 -108.5t81.5 -204.5q0 -129 -109.5 -214t-287.5 -85t-293 86t-133 276h192q12 -109 72 -157t170 -48q103 0 160 42t57 106q0 60 -40.5 104.5t-117.5 57.5l-166 35q-301 59 -301 280q0 123 100 203t273 80q157 0 263.5 -75.5t127.5 -229.5h-178
q-10 70 -67.5 108.5t-151.5 38.5q-100 0 -145.5 -37t-45.5 -88q0 -52 35 -88t109 -49zM590 -88q53 0 91 -35t38 -88q0 -37 -27 -76l-157 -237l-62 32l66 164q-37 14 -59.5 45.5t-22.5 71.5q0 54 38 88.5t95 34.5z" />
    <glyph glyph-name="uni021A" unicode="&#x21a;" 
d="M166 1401h887v-158h-359v-1243h-172v1243h-356v158zM598 -88q55 0 93 -35t38 -88q0 -40 -24 -74l-160 -239l-62 32l66 164q-37 14 -60.5 46t-23.5 71q0 53 38.5 88t94.5 35z" />
    <glyph glyph-name="uni021B" unicode="&#x21b;" 
d="M1067 872h-477v-555q0 -60 42.5 -102.5t102.5 -42.5h312v-172h-322q-130 0 -218.5 89t-88.5 218v565h-283v172h283v283h172v-283h477v-172zM764 -88q55 0 93 -35t38 -88q0 -38 -25 -74l-159 -239l-62 32l66 164q-37 14 -60.5 46t-23.5 71q0 53 38.5 88t94.5 35z" />
    <glyph glyph-name="uni0237" unicode="&#x237;" 
d="M211 -362v172h393q60 0 103 42.5t43 102.5v917h-435v172h516q39 0 65 -26t26 -64v-1011q0 -129 -88.5 -217t-217.5 -88h-405z" />
    <glyph glyph-name="uni02BC" unicode="&#x2bc;" horiz-adv-x="1228" 
d="M727 1290q0 -40 -22 -71l-162 -242l-62 31l68 166q-37 14 -60.5 45.5t-23.5 70.5q0 53 38.5 88t94.5 35q53 0 91 -35t38 -88z" />
    <glyph glyph-name="circumflex" unicode="&#x2c6;" 
d="M262 1235l260 268h172l260 -268h-198l-148 164l-147 -164h-199z" />
    <glyph glyph-name="caron" unicode="&#x2c7;" 
d="M522 1235l-260 268h199l147 -164l148 164h198l-260 -268h-172z" />
    <glyph glyph-name="breve" unicode="&#x2d8;" 
d="M608 1178q-101 0 -169 62.5t-68 174.5l131 -2q0 -48 31.5 -77t76.5 -29q44 0 75.5 29t31.5 77l131 2q0 -112 -68.5 -174.5t-171.5 -62.5z" />
    <glyph glyph-name="dotaccent" unicode="&#x2d9;" 
d="M608 1233q-56 0 -94.5 35.5t-38.5 89.5q0 52 38.5 86.5t94.5 34.5q55 0 93 -34.5t38 -86.5q0 -53 -38 -89t-93 -36z" />
    <glyph glyph-name="ring" unicode="&#x2da;" 
d="M610 1249q-99 0 -169 69t-70 173q0 101 70 169.5t167 68.5q100 0 170 -68t70 -170q0 -104 -70 -173t-168 -69zM610 1380q43 0 75 30.5t32 78.5t-31.5 77t-75.5 29q-45 0 -76.5 -29t-31.5 -77t31.5 -78.5t76.5 -30.5z" />
    <glyph glyph-name="ogonek" unicode="&#x2db;" 
d="M623 -356q-53 0 -92.5 22.5t-52 67.5t27.5 112l86 154h145l-49 -94q-22 -37 -14 -57t22 -26.5t33 -6.5h84v-172h-190z" />
    <glyph glyph-name="tilde" unicode="&#x2dc;" 
d="M745 1217q-80 0 -149 57q-26 22 -39.5 32.5t-36.5 20.5t-45 10q-32 0 -52 -23.5t-20 -60.5v-26h-143v26q0 95 63 161.5t152 66.5q73 0 150 -56q26 -21 38 -30.5t37 -22t45 -12.5q28 0 50 25.5t22 60.5v24h144v-24q0 -95 -62.5 -162t-153.5 -67z" />
    <glyph glyph-name="hungarumlaut" unicode="&#x2dd;" 
d="M418 1069l135 272h205l-221 -272h-119zM700 1069l136 272h204l-221 -272h-119z" />
    <glyph glyph-name="gravecomb" unicode="&#x300;" horiz-adv-x="0" 
d="M209 1163l-221 273h205l135 -273h-119z" />
    <glyph glyph-name="acutecomb" unicode="&#x301;" horiz-adv-x="0" 
d="M94 1163l135 273h205l-221 -273h-119z" />
    <glyph glyph-name="uni0302" unicode="&#x302;" horiz-adv-x="0" 
d="M-25 1180l263 268h170l262 -268h-199l-149 163l-148 -163h-199z" />
    <glyph glyph-name="tildecomb" unicode="&#x303;" horiz-adv-x="0" 
d="M545 1217q-81 0 -150 57q-26 22 -39.5 32.5t-36.5 20.5t-45 10q-32 0 -51.5 -23.5t-19.5 -60.5v-26h-144v26q0 95 63 161.5t152 66.5q73 0 150 -56q79 -65 121 -65q28 0 49.5 25.5t21.5 60.5v24h144v-24q0 -96 -62.5 -162.5t-152.5 -66.5z" />
    <glyph glyph-name="uni0304" unicode="&#x304;" horiz-adv-x="0" 
d="M39 1206v146h526v-146h-526z" />
    <glyph glyph-name="uni0306" unicode="&#x306;" horiz-adv-x="0" 
d="M264 1178q-101 0 -169 62.5t-68 174.5l131 -2q0 -48 31.5 -77t76.5 -29q44 0 75.5 29t31.5 77l131 2q0 -112 -68.5 -174.5t-171.5 -62.5z" />
    <glyph glyph-name="uni0307" unicode="&#x307;" horiz-adv-x="0" 
d="M86 1233q-56 0 -94.5 35.5t-38.5 89.5q0 52 38.5 86.5t94.5 34.5q55 0 93 -34.5t38 -86.5q0 -53 -38 -89t-93 -36z" />
    <glyph glyph-name="uni0308" unicode="&#x308;" horiz-adv-x="0" 
d="M88 1233q-56 0 -94.5 35.5t-38.5 89.5q0 52 38.5 86.5t94.5 34.5q53 0 91 -34.5t38 -86.5q0 -53 -38 -89t-91 -36zM432 1233q-56 0 -94.5 35.5t-38.5 89.5q0 52 38.5 86.5t94.5 34.5q53 0 91 -34.5t38 -86.5q0 -53 -38 -89t-91 -36z" />
    <glyph glyph-name="uni030A" unicode="&#x30a;" horiz-adv-x="0" 
d="M266 1249q-99 0 -169 69t-70 173q0 101 70 169.5t167 68.5q100 0 170 -68t70 -170q0 -104 -70 -173t-168 -69zM266 1380q43 0 75 30.5t32 78.5t-31.5 77t-75.5 29q-45 0 -76.5 -29t-31.5 -77t31.5 -78.5t76.5 -30.5z" />
    <glyph glyph-name="uni030B" unicode="&#x30b;" horiz-adv-x="0" 
d="M180 1208l135 273h205l-221 -273h-119zM463 1208l135 273h205l-221 -273h-119z" />
    <glyph glyph-name="uni030C" unicode="&#x30c;" horiz-adv-x="0" 
d="M238 1235l-263 268h199l148 -164l149 164h199l-262 -268h-170z" />
    <glyph glyph-name="uni0312" unicode="&#x312;" horiz-adv-x="0" 
d="M236 1370q37 -14 60 -46t23 -71q0 -53 -38.5 -88t-94.5 -35q-53 0 -91 35t-38 88q0 39 23 72l162 244l61 -33z" />
    <glyph glyph-name="uni0326" unicode="&#x326;" horiz-adv-x="0" 
d="M293 -211q0 -38 -25 -74l-159 -239l-62 32l66 164q-37 14 -60.5 46t-23.5 71q0 53 38.5 88t94.5 35q55 0 93 -35t38 -88z" />
    <glyph glyph-name="uni0327" unicode="&#x327;" horiz-adv-x="0" 
d="M133 -137q85 0 138 -52t53 -137q0 -91 -68 -144.5t-174 -53.5h-156v141h156q47 0 71.5 25t24.5 61q0 35 -22.5 60.5t-59.5 25.5h-125v72l68 139h149l-65 -137h10z" />
    <glyph glyph-name="uni0328" unicode="&#x328;" horiz-adv-x="0" 
d="M84 -356q-53 0 -92.5 22.5t-52 67.5t27.5 112l88 154h144l-49 -94q-14 -27 -15 -46t9.5 -28t22.5 -12.5t26 -3.5h83v-172h-192z" />
    <glyph glyph-name="pi" unicode="&#x3c0;" 
d="M1130 872h-200v-624q0 -34 21 -55t55 -21h57v-172h-55q-104 0 -177 73t-73 177v622h-312v-872h-172v872h-200v172h1056v-172z" />
    <glyph glyph-name="uni0E3F" unicode="&#xe3f;" 
d="M1069 406q0 -180 -112 -290t-285 -116v-176h-172v176h-332v1401h332v182h172v-188q145 -25 233 -130.5t88 -256.5q0 -169 -123 -273q93 -48 146 -133.5t53 -195.5zM592 1229h-252v-445h252q101 0 165 66t64 158q0 99 -62.5 160t-166.5 61zM655 172q109 0 175.5 60
t66.5 174q0 107 -68 171t-174 64h-315v-469h315z" />
    <glyph glyph-name="Wgrave" unicode="&#x1e80;" 
d="M668 1520h-119l-221 272h204zM961 1401h176l-222 -1401h-167l-140 643l-139 -643h-166l-223 1401h176l154 -1018l98 483h203l98 -479z" />
    <glyph glyph-name="wgrave" unicode="&#x1e81;" 
d="M670 1163h-121l-221 273h204zM950 1044h174l-217 -1044h-162l-137 653l-137 -653h-160l-219 1044h174l135 -661l115 602h184l115 -604z" />
    <glyph glyph-name="Wacute" unicode="&#x1e82;" 
d="M897 1792l-221 -272h-119l135 272h205zM961 1401h176l-222 -1401h-167l-140 643l-139 -643h-166l-223 1401h176l154 -1018l98 483h203l98 -479z" />
    <glyph glyph-name="wacute" unicode="&#x1e83;" 
d="M897 1436l-221 -273h-119l135 273h205zM950 1044h174l-217 -1044h-162l-137 653l-137 -653h-160l-219 1044h174l135 -661l115 602h184l115 -604z" />
    <glyph glyph-name="Wdieresis" unicode="&#x1e84;" 
d="M440 1544q-57 0 -95 35.5t-38 89.5q0 52 38 86.5t95 34.5q53 0 91 -34.5t38 -86.5q0 -53 -38 -89t-91 -36zM784 1544q-57 0 -95 35.5t-38 89.5q0 52 38 86.5t95 34.5q53 0 91 -34.5t38 -86.5q0 -53 -38 -89t-91 -36zM961 1401h176l-222 -1401h-167l-140 643l-139 -643
h-166l-223 1401h176l154 -1018l98 483h203l98 -479z" />
    <glyph glyph-name="wdieresis" unicode="&#x1e85;" 
d="M440 1233q-57 0 -95 35.5t-38 89.5q0 52 38 86.5t95 34.5q53 0 91 -34.5t38 -86.5q0 -53 -38 -89t-91 -36zM784 1233q-57 0 -95 35.5t-38 89.5q0 52 38 86.5t95 34.5q53 0 91 -34.5t38 -86.5q0 -53 -38 -89t-91 -36zM950 1044h174l-217 -1044h-162l-137 653l-137 -653
h-160l-219 1044h174l135 -661l115 602h184l115 -604z" />
    <glyph glyph-name="Ygrave" unicode="&#x1ef2;" 
d="M666 1520h-121l-221 272h204zM694 547v-375h326v-172h-823v172h325v375l-416 854h193l309 -653l310 653h194z" />
    <glyph glyph-name="ygrave" unicode="&#x1ef3;" 
d="M678 1163h-119l-221 273h205zM1100 1044l-410 -1228h326v-172h-799v172h303l60 184h-78l-371 1044h188l308 -897l286 897h187z" />
    <glyph glyph-name="endash" unicode="&#x2013;" 
d="M203 506v172h823v-172h-823z" />
    <glyph glyph-name="emdash" unicode="&#x2014;" 
d="M145 506v172h926v-172h-926z" />
    <glyph glyph-name="quoteleft" unicode="&#x2018;" 
d="M668 1204q37 -14 59.5 -45.5t22.5 -71.5q0 -54 -38 -88t-96 -34q-54 0 -91.5 34.5t-37.5 87.5q0 37 27 76l158 238l61 -33z" />
    <glyph glyph-name="quoteright" unicode="&#x2019;" 
d="M727 1290q0 -40 -22 -71l-162 -242l-62 31l68 166q-37 14 -60.5 45.5t-23.5 70.5q0 53 38.5 88t94.5 35q53 0 91 -35t38 -88z" />
    <glyph glyph-name="quotesinglbase" unicode="&#x201a;" 
d="M739 106q0 -38 -26 -75l-158 -238l-61 33l65 164q-37 14 -59.5 45.5t-22.5 70.5q0 54 38 88.5t95 34.5q53 0 91 -35t38 -88z" />
    <glyph glyph-name="quotedblleft" unicode="&#x201c;" 
d="M487 1204q37 -14 60.5 -46t23.5 -71q0 -53 -38.5 -87.5t-94.5 -34.5q-55 0 -93 34.5t-38 87.5q0 38 25 74l160 240l61 -33zM848 1204q37 -14 60.5 -46t23.5 -71q0 -53 -38.5 -87.5t-94.5 -34.5q-55 0 -93 34.5t-38 87.5q0 40 24 74l160 240l61 -33z" />
    <glyph glyph-name="quotedblright" unicode="&#x201d;" 
d="M451 1413q53 0 91 -35t38 -88q0 -38 -23 -71l-162 -242l-61 31l67 166q-37 14 -60.5 45.5t-23.5 70.5q0 53 39 88t95 35zM940 1290q0 -40 -22 -71l-162 -242l-62 31l68 166q-37 14 -60.5 45.5t-23.5 70.5q0 53 38.5 88t94.5 35q53 0 91 -35t38 -88z" />
    <glyph glyph-name="quotedblbase" unicode="&#x201e;" 
d="M418 229q55 0 93 -35t38 -88q0 -37 -25 -73l-159 -240l-62 33l66 164q-37 14 -60.5 45.5t-23.5 70.5q0 53 38.5 88t94.5 35zM909 106q0 -38 -26 -75l-158 -238l-61 33l67 164q-37 14 -60.5 45.5t-23.5 70.5q0 53 38.5 88t94.5 35q53 0 91 -35t38 -88z" />
    <glyph glyph-name="dagger" unicode="&#x2020;" 
d="M522 -356v1228h-319v172h319v357h172v-357h320v-172h-320v-1228h-172z" />
    <glyph glyph-name="daggerdbl" unicode="&#x2021;" 
d="M522 -356v356h-319v172h319v700h-319v172h319v357h172v-357h320v-172h-320v-700h320v-172h-320v-356h-172z" />
    <glyph glyph-name="bullet" unicode="&#x2022;" 
d="M608 281q-128 0 -219.5 91t-91.5 220q0 128 91.5 219.5t219.5 91.5q129 0 220.5 -91.5t91.5 -219.5q0 -129 -91.5 -220t-220.5 -91zM608 438q66 0 110 44.5t44 109.5t-45.5 109t-108.5 44q-64 0 -108.5 -44t-44.5 -109q0 -63 45 -108.5t108 -45.5z" />
    <glyph glyph-name="ellipsis" unicode="&#x2026;" 
d="M227 -20q-56 0 -94.5 35.5t-38.5 88.5q0 52 38.5 86.5t94.5 34.5q53 0 91 -34.5t38 -86.5q0 -53 -38 -88.5t-91 -35.5zM608 -20q-56 0 -93.5 35t-37.5 89q0 52 37.5 86.5t93.5 34.5q55 0 93 -34.5t38 -86.5q0 -53 -38 -88.5t-93 -35.5zM993 -20q-57 0 -95 35t-38 89
q0 52 38 86.5t95 34.5q53 0 91 -34.5t38 -86.5q0 -53 -38 -88.5t-91 -35.5z" />
    <glyph glyph-name="perthousand" unicode="&#x2030;" 
d="M586 918q-104 0 -178 70.5t-74 178.5q0 110 74 181t178 71t178 -71t74 -181q0 -109 -73 -179t-179 -70zM586 1042q56 0 90.5 35t34.5 90t-34.5 90t-90.5 35t-90.5 -35t-34.5 -90t34.5 -90t90.5 -35zM90 643v119h1036v-119h-1036zM342 -18q-102 0 -177 71.5t-75 179.5
t75 179t177 71q104 0 178 -71t74 -179t-74.5 -179.5t-177.5 -71.5zM874 -18q-103 0 -177 71.5t-74 179.5t74 179t177 71q104 0 178 -71t74 -179t-74.5 -179.5t-177.5 -71.5zM342 109q56 0 90.5 34.5t34.5 89.5t-34.5 90t-90.5 35q-55 0 -89 -35t-34 -90q0 -54 34 -89t89 -35
zM874 109q55 0 89 35t34 89q0 55 -34 90t-89 35q-56 0 -90 -35t-34 -90t34 -89.5t90 -34.5z" />
    <glyph glyph-name="guilsinglleft" unicode="&#x2039;" 
d="M694 225l-313 367l313 366h203l-313 -366l313 -367h-203z" />
    <glyph glyph-name="guilsinglright" unicode="&#x203a;" 
d="M319 225l316 367l-316 366h203l316 -366l-316 -367h-203z" />
    <glyph glyph-name="fraction" unicode="&#x2044;" 
d="M104 0l811 1401h197l-811 -1401h-197z" />
    <glyph glyph-name="uni2051" unicode="&#x2051;" 
d="M995 1098v-168l-317 55l264 -184l-119 -123l-186 266l57 -319h-172l58 319l-185 -266l-121 123l265 184l-318 -55v168l318 -56l-265 185l121 121l185 -267l-58 320h172l-57 -320l186 267l119 -121l-264 -185zM995 203v-170l-317 55l264 -184l-119 -121l-186 266l57 -319
h-172l58 319l-185 -266l-121 121l265 184l-318 -55v170l318 -58l-265 187l121 121l185 -267l-58 320h172l-57 -320l186 267l119 -121l-264 -187z" />
    <glyph glyph-name="uni2070" unicode="&#x2070;" 
d="M610 1772q61 0 107 -22t81 -71t53.5 -134.5t18.5 -205.5q0 -122 -18.5 -207.5t-53.5 -134.5t-81 -70.5t-107 -21.5q-127 0 -193.5 98.5t-66.5 335.5q0 120 18 205.5t53 134.5t81 71t108 22zM610 1645q-47 0 -75 -25t-44 -93.5t-16 -187.5v-57l252 252q-17 61 -45.5 86
t-71.5 25zM610 1030q46 0 73.5 25t43.5 94t16 190v52l-249 -250q14 -62 42.5 -86.5t73.5 -24.5z" />
    <glyph glyph-name="uni2074" unicode="&#x2074;" 
d="M889 1239v-125h-94v-199h-127v199h-336v125l252 518h139l-254 -518h199v182h127v-182h94z" />
    <glyph glyph-name="uni2075" unicode="&#x2075;" 
d="M627 1473q104 0 169.5 -75.5t65.5 -209.5q0 -132 -70 -207.5t-184 -75.5q-103 0 -173 57.5t-77 165.5h125q16 -96 125 -96q127 0 127 156q0 160 -127 160q-40 0 -69.5 -24t-38.5 -60l-127 34l14 461h416v-127h-293l-8 -209q47 50 125 50z" />
    <glyph glyph-name="uni2076" unicode="&#x2076;" 
d="M627 1473q112 0 182 -77t70 -208t-70 -207t-182 -76h-2h-2q-41 0 -78 13q-116 36 -156 155q-43 107 -43 289q0 214 74.5 310.5t197.5 96.5q102 0 168.5 -57t73.5 -166h-123q-17 99 -119 99q-66 0 -108 -50t-49 -180q67 58 166 58zM627 1032q125 0 125 156q0 158 -125 158
q-129 0 -129 -158q0 -156 129 -156z" />
    <glyph glyph-name="uni2077" unicode="&#x2077;" 
d="M449 915l276 715h-242v-123h-127v250h502v-127l-274 -715h-135z" />
    <glyph glyph-name="uni2078" unicode="&#x2078;" 
d="M713 1354q149 -45 149 -217q0 -109 -68.5 -170.5t-183.5 -61.5q-117 0 -186.5 61.5t-69.5 170.5q0 171 150 217q-129 54 -129 200q0 90 63 152.5t172 62.5q106 0 170 -63t64 -152q0 -149 -131 -200zM610 1661q-58 0 -94.5 -31.5t-36.5 -87.5t36.5 -90.5t94.5 -34.5
q57 0 92 34.5t35 90.5t-35 87.5t-92 31.5zM610 1032q64 0 102 34t38 95q0 58 -36.5 94.5t-103.5 36.5q-70 0 -106.5 -36t-36.5 -95q0 -61 38 -95t105 -34z" />
    <glyph glyph-name="uni2079" unicode="&#x2079;" 
d="M831 1612q48 -115 48 -299q0 -214 -75 -311t-198 -97q-103 0 -169 57t-75 168h127q13 -98 117 -98q66 0 108.5 50.5t49.5 179.5q-67 -58 -164 -58q-114 0 -184 75.5t-70 207.5q0 131 70 206.5t184 75.5h2h2q68 0 121 -30q76 -39 106 -127zM600 1331q125 0 125 156
q0 155 -125 155q-129 0 -129 -155q0 -156 129 -156z" />
    <glyph glyph-name="uni2080" unicode="&#x2080;" 
d="M610 496q61 0 107 -22t81 -71t53.5 -134.5t18.5 -205.5q0 -122 -18.5 -207.5t-53.5 -134.5t-81 -70.5t-107 -21.5q-127 0 -193.5 98.5t-66.5 335.5q0 120 18 205.5t53 134.5t81 71t108 22zM610 369q-47 0 -75 -25t-44 -93.5t-16 -187.5v-57l252 252q-17 61 -45.5 86
t-71.5 25zM610 -246q46 0 73.5 25t43.5 94t16 190v52l-249 -250q14 -62 42.5 -86.5t73.5 -24.5z" />
    <glyph glyph-name="uni2081" unicode="&#x2081;" 
d="M705 -231h180v-125h-506v125h201v462h-201v117h201v137h125v-716z" />
    <glyph glyph-name="uni2082" unicode="&#x2082;" 
d="M483 -211v-18h381v-127h-506v112q0 126 43 195.5t160 130.5q102 53 139 87t37 99q0 45 -34.5 74t-94.5 29q-61 0 -91 -28.5t-40 -98.5h-135q14 133 85 193.5t181 60.5q114 0 185 -63t71 -167q0 -109 -49 -165.5t-201 -135.5q-78 -42 -103.5 -78.5t-27.5 -99.5z" />
    <glyph glyph-name="uni2083" unicode="&#x2083;" 
d="M702 94q144 -52 144 -227q0 -102 -67.5 -169t-186.5 -67q-105 0 -178 60t-84 176h135q15 -109 127 -109q62 0 95.5 34.5t33.5 101.5q0 63 -30.5 99t-76.5 36h-112v110h92q44 0 73 33.5t29 89.5q0 54 -30 85.5t-88 31.5q-101 0 -113 -109h-125q10 111 77.5 169.5
t160.5 58.5q104 0 168.5 -65t64.5 -159q0 -127 -109 -180z" />
    <glyph glyph-name="uni2084" unicode="&#x2084;" 
d="M889 -33v-125h-94v-198h-127v198h-336v125l252 518h139l-254 -518h199v183h127v-183h94z" />
    <glyph glyph-name="uni2085" unicode="&#x2085;" 
d="M627 199q104 0 169.5 -75.5t65.5 -209.5q0 -132 -70 -207.5t-184 -75.5q-103 0 -173 58t-77 166h125q16 -97 125 -97q127 0 127 156q0 160 -127 160q-40 0 -69.5 -24t-38.5 -60l-127 35l14 460h416v-127h-293l-8 -208q46 49 125 49z" />
    <glyph glyph-name="uni2086" unicode="&#x2086;" 
d="M627 199q112 0 182 -77t70 -208t-70 -207t-182 -76h-2h-2q-41 0 -78 13q-116 36 -156 155q-43 107 -43 289q0 214 74.5 311t197.5 97q102 0 168.5 -57.5t73.5 -166.5h-123q-17 99 -119 99q-66 0 -108 -50t-49 -180q67 58 166 58zM627 -242q125 0 125 156q0 158 -125 158
q-129 0 -129 -158q0 -156 129 -156z" />
    <glyph glyph-name="uni2087" unicode="&#x2087;" 
d="M449 -356l276 714h-242v-122h-127v249h502v-127l-274 -714h-135z" />
    <glyph glyph-name="uni2088" unicode="&#x2088;" 
d="M713 80q149 -45 149 -217q0 -109 -68.5 -170.5t-183.5 -61.5q-117 0 -186.5 61.5t-69.5 170.5q0 171 150 217q-129 54 -129 201q0 90 63 152.5t172 62.5q106 0 170 -63t64 -152q0 -150 -131 -201zM610 387q-58 0 -94.5 -31.5t-36.5 -87.5t36.5 -90.5t94.5 -34.5
q57 0 92 34.5t35 90.5t-35 87.5t-92 31.5zM610 -242q64 0 102 34t38 95q0 58 -36.5 94.5t-103.5 36.5q-70 0 -106.5 -36t-36.5 -95q0 -61 38 -95t105 -34z" />
    <glyph glyph-name="uni2089" unicode="&#x2089;" 
d="M831 336q48 -115 48 -299q0 -214 -75 -311t-198 -97q-103 0 -169 57.5t-75 168.5h127q13 -99 117 -99q66 0 108.5 50.5t49.5 179.5q-67 -58 -164 -58q-114 0 -184 75.5t-70 207.5t70 207.5t184 75.5h2h2q67 0 121 -31q76 -39 106 -127zM600 55q125 0 125 156t-125 156
q-129 0 -129 -156t129 -156z" />
    <glyph glyph-name="franc" unicode="&#x20a3;" 
d="M1094 1229h-652v-467h549v-172h-549v-205h170v-172h-170v-213h-172v213h-145v172h145v1016h824v-172z" />
    <glyph glyph-name="uni20A8" unicode="&#x20a8;" 
d="M1018 1229h-187q51 -72 70 -178h117v-172h-117q-17 -105 -72.5 -184t-142.5 -122l264 -573h-190l-238 526q-18 -2 -57 -2h-244v172h232q233 0 274 183h-506v172h506q-43 178 -274 178h-232v172h797v-172z" />
    <glyph glyph-name="Euro" unicode="&#x20ac;" 
d="M629 162q107 0 168.5 64t79.5 218h172q-20 -224 -129 -339t-277 -115q-94 0 -165.5 24t-128.5 79t-93 149.5t-51 230.5h-170v172h158v55v58h-158v172h170q16 135 52.5 229.5t93.5 149t128 78.5t164 24q168 0 277 -115t129 -338h-172q-18 154 -79 217.5t-169 63.5
q-56 0 -95 -12.5t-72.5 -45.5t-54.5 -95t-32 -156h299v-172h-309v-58v-55h309v-172h-299q11 -95 32 -157t54.5 -95.5t72.5 -46t95 -12.5z" />
    <glyph glyph-name="uni20BF" unicode="&#x20bf;" 
d="M1069 406q0 -168 -97 -275.5t-253 -126.5v-180h-123v176h-72v-176h-123v176h-233v1401h233v182h123v-182h68h4v182h123v-201q125 -35 199.5 -136t74.5 -238q0 -169 -123 -273q93 -48 146 -133.5t53 -195.5zM592 1229h-252v-445h252q101 0 165 66t64 158q0 99 -62.5 160
t-166.5 61zM655 172q109 0 175.5 60t66.5 174q0 107 -68 171t-174 64h-315v-469h315z" />
    <glyph glyph-name="uni2116" unicode="&#x2116;" 
d="M969 1411q84 0 142 -57t58 -142q0 -88 -58 -145t-142 -57q-85 0 -143 57t-58 145q0 85 58.5 142t142.5 57zM883 301v662h172v-963h-215l-506 1100v-1100h-172v1401h217zM969 1124q34 0 60 24t26 62t-25.5 62t-60.5 24t-61.5 -24t-26.5 -62q0 -39 25.5 -62.5t62.5 -23.5z
" />
    <glyph glyph-name="trademark" unicode="&#x2122;" 
d="M899 1401h139v-588h-110v358l-66 -213h-108l-66 213v-358h-110v479h-144v-479h-110v479h-144v109h537l92 -314z" />
    <glyph glyph-name="uni2126" unicode="&#x2126;" 
d="M834 172h217v-172h-394v158q37 14 65 34t55 61.5t44.5 101.5t28 155.5t10.5 222.5q0 122 -11 210.5t-31 145.5t-52 90.5t-69.5 46.5t-88.5 13q-50 0 -87 -13t-69.5 -46.5t-52.5 -90t-31.5 -145.5t-11.5 -211q0 -126 11 -222t28.5 -156t45 -101.5t55 -61.5t63.5 -34v-158
h-393v172h217q-75 49 -122 153.5t-62 213t-15 235.5q0 139 19.5 247t55.5 181t89.5 120t117 68t142.5 21q78 0 141.5 -21t117 -68t89.5 -120t56 -181t20 -247q0 -473 -198 -602z" />
    <glyph glyph-name="uni2155" unicode="&#x2155;" 
d="M885 1040v-125h-506v125h201v463h-201v117h201v137h125v-717h180zM137 762h942v-123h-942v123zM627 199q104 0 169.5 -75.5t65.5 -209.5q0 -132 -70 -207.5t-184 -75.5q-103 0 -173 58t-77 166h125q16 -97 125 -97q127 0 127 156q0 160 -127 160q-40 0 -69.5 -24
t-38.5 -60l-127 35l14 460h416v-127h-293l-8 -208q46 49 125 49z" />
    <glyph glyph-name="uni2156" unicode="&#x2156;" 
d="M608 1642q-61 0 -91 -28t-40 -98h-135q14 133 85 193t181 60q115 0 185.5 -62.5t70.5 -166.5q0 -109 -49 -165.5t-201 -135.5q-78 -42 -103.5 -78.5t-27.5 -99.5v-19h381v-127h-506v113q0 126 43 195.5t160 130.5q102 53 139 87t37 99q0 45 -34.5 73.5t-94.5 28.5z
M137 762h942v-123h-942v123zM627 199q104 0 169.5 -75.5t65.5 -209.5q0 -132 -70 -207.5t-184 -75.5q-103 0 -173 58t-77 166h125q16 -97 125 -97q127 0 127 156q0 160 -127 160q-40 0 -69.5 -24t-38.5 -60l-127 35l14 460h416v-127h-293l-8 -208q46 49 125 49z" />
    <glyph glyph-name="uni2157" unicode="&#x2157;" 
d="M592 1032q62 0 95.5 34t33.5 101q0 63 -30.5 99.5t-76.5 36.5h-112v110h92q44 0 73 33.5t29 89.5q0 54 -30 85.5t-88 31.5q-101 0 -113 -109h-125q10 111 77.5 169.5t160.5 58.5q104 0 168.5 -65t64.5 -159q0 -127 -109 -180q144 -52 144 -227q0 -102 -67.5 -169
t-186.5 -67q-105 0 -178 60t-84 176h135q15 -109 127 -109zM137 762h942v-123h-942v123zM627 199q104 0 169.5 -75.5t65.5 -209.5q0 -132 -70 -207.5t-184 -75.5q-103 0 -173 58t-77 166h125q16 -97 125 -97q127 0 127 156q0 160 -127 160q-40 0 -69.5 -24t-38.5 -60
l-127 35l14 460h416v-127h-293l-8 -208q46 49 125 49z" />
    <glyph glyph-name="uni2158" unicode="&#x2158;" 
d="M668 915v199h-336v125l252 518h139l-254 -518h199v182h127v-182h94v-125h-94v-199h-127zM137 762h942v-123h-942v123zM627 199q104 0 169.5 -75.5t65.5 -209.5q0 -132 -70 -207.5t-184 -75.5q-103 0 -173 58t-77 166h125q16 -97 125 -97q127 0 127 156q0 160 -127 160
q-40 0 -69.5 -24t-38.5 -60l-127 35l14 460h416v-127h-293l-8 -208q46 49 125 49z" />
    <glyph glyph-name="uni2159" unicode="&#x2159;" 
d="M885 1040v-125h-506v125h201v463h-201v117h201v137h125v-717h180zM137 762h942v-123h-942v123zM627 199q112 0 182 -77t70 -208t-70 -207t-182 -76h-2h-2q-41 0 -78 13q-116 36 -156 155q-43 107 -43 289q0 214 74.5 311t197.5 97q102 0 168.5 -57.5t73.5 -166.5h-123
q-17 99 -119 99q-66 0 -108 -50t-49 -180q67 58 166 58zM627 -242q125 0 125 156q0 158 -125 158q-129 0 -129 -158q0 -156 129 -156z" />
    <glyph glyph-name="oneeighth" unicode="&#x215b;" 
d="M885 1040v-125h-506v125h201v463h-201v117h201v137h125v-717h180zM137 762h942v-123h-942v123zM713 80q149 -45 149 -217q0 -109 -68.5 -170.5t-183.5 -61.5q-117 0 -186.5 61.5t-69.5 170.5q0 171 150 217q-129 54 -129 201q0 90 63 152.5t172 62.5q106 0 170 -63
t64 -152q0 -150 -131 -201zM610 387q-58 0 -94.5 -31.5t-36.5 -87.5t36.5 -90.5t94.5 -34.5q57 0 92 34.5t35 90.5t-35 87.5t-92 31.5zM610 -242q64 0 102 34t38 95q0 58 -36.5 94.5t-103.5 36.5q-70 0 -106.5 -36t-36.5 -95q0 -61 38 -95t105 -34z" />
    <glyph glyph-name="threeeighths" unicode="&#x215c;" 
d="M592 1032q62 0 95.5 34t33.5 101q0 63 -30.5 99.5t-76.5 36.5h-112v110h92q44 0 73 33.5t29 89.5q0 54 -30 85.5t-88 31.5q-101 0 -113 -109h-125q10 111 77.5 169.5t160.5 58.5q104 0 168.5 -65t64.5 -159q0 -127 -109 -180q144 -52 144 -227q0 -102 -67.5 -169
t-186.5 -67q-105 0 -178 60t-84 176h135q15 -109 127 -109zM137 762h942v-123h-942v123zM713 80q149 -45 149 -217q0 -109 -68.5 -170.5t-183.5 -61.5q-117 0 -186.5 61.5t-69.5 170.5q0 171 150 217q-129 54 -129 201q0 90 63 152.5t172 62.5q106 0 170 -63t64 -152
q0 -150 -131 -201zM610 387q-58 0 -94.5 -31.5t-36.5 -87.5t36.5 -90.5t94.5 -34.5q57 0 92 34.5t35 90.5t-35 87.5t-92 31.5zM610 -242q64 0 102 34t38 95q0 58 -36.5 94.5t-103.5 36.5q-70 0 -106.5 -36t-36.5 -95q0 -61 38 -95t105 -34z" />
    <glyph glyph-name="fiveeighths" unicode="&#x215d;" 
d="M608 1032q127 0 127 156q0 160 -127 160q-40 0 -69.5 -24t-38.5 -60l-127 34l14 461h416v-127h-293l-8 -209q47 50 125 50q104 0 169.5 -75.5t65.5 -209.5q0 -132 -70 -207.5t-184 -75.5q-103 0 -173 57.5t-77 165.5h125q16 -96 125 -96zM137 762h942v-123h-942v123z
M713 80q149 -45 149 -217q0 -109 -68.5 -170.5t-183.5 -61.5q-117 0 -186.5 61.5t-69.5 170.5q0 171 150 217q-129 54 -129 201q0 90 63 152.5t172 62.5q106 0 170 -63t64 -152q0 -150 -131 -201zM610 387q-58 0 -94.5 -31.5t-36.5 -87.5t36.5 -90.5t94.5 -34.5
q57 0 92 34.5t35 90.5t-35 87.5t-92 31.5zM610 -242q64 0 102 34t38 95q0 58 -36.5 94.5t-103.5 36.5q-70 0 -106.5 -36t-36.5 -95q0 -61 38 -95t105 -34z" />
    <glyph glyph-name="seveneighths" unicode="&#x215e;" 
d="M483 1630v-123h-127v250h502v-127l-274 -715h-135l276 715h-242zM137 762h942v-123h-942v123zM713 80q149 -45 149 -217q0 -109 -68.5 -170.5t-183.5 -61.5q-117 0 -186.5 61.5t-69.5 170.5q0 171 150 217q-129 54 -129 201q0 90 63 152.5t172 62.5q106 0 170 -63
t64 -152q0 -150 -131 -201zM610 387q-58 0 -94.5 -31.5t-36.5 -87.5t36.5 -90.5t94.5 -34.5q57 0 92 34.5t35 90.5t-35 87.5t-92 31.5zM610 -242q64 0 102 34t38 95q0 58 -36.5 94.5t-103.5 36.5q-70 0 -106.5 -36t-36.5 -95q0 -61 38 -95t105 -34z" />
    <glyph glyph-name="arrowleft" unicode="&#x2190;" 
d="M1130 621v-103h-845l223 -225l-74 -72l-348 348l348 346l74 -71l-223 -223h845z" />
    <glyph glyph-name="arrowup" unicode="&#x2191;" 
d="M662 844v-740h227v-104h-559v104h227v742l-221 -221l-74 71l346 348l348 -348l-73 -71z" />
    <glyph glyph-name="arrowright" unicode="&#x2192;" 
d="M782 915l348 -346l-348 -348l-71 72l221 225h-846v103h846l-221 223z" />
    <glyph glyph-name="arrowdown" unicode="&#x2193;" 
d="M883 422l73 -74l-348 -348l-346 348l74 74l221 -223v741h-227v104h559v-104h-227v-739z" />
    <glyph glyph-name="arrowboth" unicode="&#x2194;" 
d="M782 915l348 -346l-348 -348l-71 72l221 225h-647l223 -225l-74 -72l-348 348l348 346l74 -71l-223 -223h647l-221 223z" />
    <glyph glyph-name="arrowupdn" unicode="&#x2195;" 
d="M662 201l221 221l73 -74l-348 -348l-346 348l74 74l221 -223v647l-221 -221l-74 71l346 348l348 -348l-73 -71l-221 219v-643z" />
    <glyph glyph-name="uni2196" unicode="&#x2196;" 
d="M997 293l-73 -74l-598 598v-315h-105v491h492v-102h-314z" />
    <glyph glyph-name="uni2197" unicode="&#x2197;" 
d="M506 993h491v-491h-104v315l-598 -598l-74 74l598 598h-313v102z" />
    <glyph glyph-name="uni2198" unicode="&#x2198;" 
d="M893 539h104v-492h-491v105h313l-598 598l74 73l598 -598v314z" />
    <glyph glyph-name="uni2199" unicode="&#x2199;" 
d="M997 750l-598 -598h314v-105h-492v492h105v-314l598 598z" />
    <glyph glyph-name="partialdiff" unicode="&#x2202;" 
d="M356 1407q664 0 664 -711q0 -160 -23.5 -284t-64 -203.5t-99 -131t-123.5 -72.5t-143 -21q-181 0 -296 123.5t-115 341.5q0 224 112 344t285 120q214 0 293 -172v17q-4 140 -39 235.5t-102 147.5t-150 73t-199 21v172zM567 156q242 0 264 297q0 146 -72.5 218t-191.5 72
q-239 0 -239 -294q0 -293 239 -293z" />
    <glyph glyph-name="emptyset" unicode="&#x2205;" 
d="M1094 1044l-152 -149q64 -95 64 -233q0 -190 -112 -293t-286 -103q-133 0 -233 62l-150 -150l-102 103l149 149q-61 92 -61 232q0 189 112 293t285 104q132 0 232 -62l151 152zM346 662q0 -74 29 -130l362 363q-63 29 -129 29q-112 0 -187 -70t-75 -192zM870 662
q0 73 -28 131l-365 -363q63 -29 131 -29q114 0 188 69t74 192z" />
    <glyph glyph-name="uni2206" unicode="&#x2206;" 
d="M135 0v172l367 1229h213l366 -1229v-172h-946zM313 172h590l-295 1018z" />
    <glyph glyph-name="product" unicode="&#x220f;" 
d="M197 0v1401h823v-1401h-172v1229h-479v-1229h-172z" />
    <glyph glyph-name="summation" unicode="&#x2211;" 
d="M391 170h684v-170h-903v170l416 530l-398 531v170h867v-170h-662l408 -531z" />
    <glyph glyph-name="minus" unicode="&#x2212;" 
d="M188 506v172h842v-172h-842z" />
    <glyph glyph-name="radical" unicode="&#x221a;" 
d="M444 0l-147 535h-133v172h264l139 -500l379 1194h275v-172h-148l-389 -1229h-240z" />
    <glyph glyph-name="infinity" unicode="&#x221e;" 
d="M879 883q120 0 202 -85.5t82 -205.5t-81.5 -205.5t-202.5 -85.5q-91 0 -153.5 38.5t-117.5 129.5q-55 -92 -117 -130t-153 -38q-120 0 -201.5 85.5t-81.5 205.5t81.5 205.5t201.5 85.5q92 0 153 -38.5t117 -131.5q57 92 118.5 131t152.5 39zM338 473q12 0 21.5 1t19 4.5
t15.5 5.5t15 10t14 12t15.5 16.5t15.5 18.5t19 24l21 27q-55 74 -83.5 96.5t-72.5 22.5q-51 0 -81 -35.5t-30 -83.5t30 -83.5t81 -35.5zM879 473q52 0 81 35.5t29 83.5t-29 83.5t-81 35.5q-49 0 -74 -21t-82 -98q56 -75 83.5 -97t72.5 -22z" />
    <glyph glyph-name="integral" unicode="&#x222b;" 
d="M205 -356v172h192q53 0 89 36t36 89v1173q0 123 82.5 205t204.5 82h203v-172h-191q-53 0 -90 -36.5t-37 -88.5v-1174q0 -123 -82 -204.5t-204 -81.5h-203z" />
    <glyph glyph-name="approxequal" unicode="&#x2248;" 
d="M752 631q-94 0 -158 61q-27 29 -63.5 50.5t-65.5 21.5q-39 0 -65.5 -26.5t-26.5 -65.5v-29h-172v29q0 110 77 187t187 77q92 0 160 -62q26 -28 62 -49.5t65 -21.5q38 0 66 27.5t28 64.5v29h172v-29q0 -110 -78 -187t-188 -77zM752 248q-88 0 -158 61q-28 28 -64.5 50
t-64.5 22q-39 0 -65.5 -26.5t-26.5 -65.5v-29h-172v29q0 110 77 187t187 77q93 0 160 -61q26 -28 62 -50t65 -22q38 0 66 27.5t28 64.5v31h172v-31q0 -110 -78 -187t-188 -77z" />
    <glyph glyph-name="notequal" unicode="&#x2260;" 
d="M1028 688h-264l-113 -196h377v-173h-477l-86 -149h-199l86 149h-164v173h265l112 196h-377v172h478l86 150h198l-86 -150h164v-172z" />
    <glyph glyph-name="lessequal" unicode="&#x2264;" 
d="M989 471l-764 145v242l764 146l2 -160l-620 -107l620 -108zM225 197v157h766v-157h-766z" />
    <glyph glyph-name="greaterequal" unicode="&#x2265;" 
d="M227 471l-2 158l621 108l-621 107l2 160l764 -146v-242zM225 197v157h766v-157h-766z" />
    <glyph glyph-name="uni24EA" unicode="&#x24ea;" horiz-adv-x="1228" 
d="M608 1065q147 0 272 -73t198 -198t73 -272t-72.5 -271.5t-197.5 -196.5t-273 -72q-145 0 -269.5 72t-197.5 196.5t-73 271.5q0 109 43 209.5t116 173.5t172.5 116.5t208.5 43.5zM608 49q97 0 185 37.5t151 100.5t100 150t37 183q0 97 -37.5 185t-100.5 151.5t-150.5 101
t-184.5 37.5q-96 0 -183.5 -37.5t-151 -101t-101 -151.5t-37.5 -185q0 -128 63.5 -236.5t172.5 -171.5t237 -63zM608 827q89 0 136 -69.5t47 -233.5q0 -165 -47 -234t-136 -69q-88 0 -135 69.5t-47 233.5t46.5 233.5t135.5 69.5zM608 739q-47 0 -70.5 -47t-23.5 -168v-41
l176 179q-18 77 -82 77zM608 307q49 0 71.5 46.5t22.5 170.5v37l-176 -176q19 -78 82 -78z" />
    <glyph glyph-name="uni24FF" unicode="&#x24ff;" horiz-adv-x="1228" 
d="M608 -18q-110 0 -210 42.5t-173 114.5t-116 172t-43 211q0 148 73 273.5t198 198.5t271 73q148 0 273 -73t197.5 -198.5t72.5 -273.5t-72.5 -272.5t-197.5 -196t-273 -71.5zM608 827q-89 0 -134.5 -69t-45.5 -234q0 -163 46.5 -232t133.5 -69q89 0 136 69t47 232
q0 165 -47 234t-136 69zM608 739q64 0 82 -77l-174 -173q-14 250 92 250zM608 309q-32 0 -52 17.5t-30 58.5l174 176q14 -252 -92 -252z" />
    <glyph glyph-name="filledbox" unicode="&#x25a0;" horiz-adv-x="1228" 
d="M197 0v1401h823v-1401h-823z" />
    <glyph glyph-name="uni25A1" unicode="&#x25a1;" horiz-adv-x="1228" 
d="M197 0v1401h823v-1401h-823zM369 172h479v1057h-479v-1057z" />
    <glyph glyph-name="uni25AF" unicode="&#x25af;" horiz-adv-x="1228" 
d="M197 0v1401h823v-1401h-823zM369 172h479v1057h-479v-1057z" />
    <glyph glyph-name="triagup" unicode="&#x25b2;" horiz-adv-x="1228" 
d="M92 0l516 1401l516 -1401h-1032z" />
    <glyph glyph-name="uni25B3" unicode="&#x25b3;" horiz-adv-x="1228" 
d="M53 0l555 1401l555 -1401h-1110zM299 172h619l-310 793z" />
    <glyph glyph-name="uni25B6" unicode="&#x25b6;" horiz-adv-x="1228" 
d="M178 0v1044l901 -522z" />
    <glyph glyph-name="uni25B7" unicode="&#x25b7;" horiz-adv-x="1228" 
d="M178 0v1044l901 -522zM342 264l442 258l-442 258v-516z" />
    <glyph glyph-name="uni25C0" unicode="&#x25c0;" horiz-adv-x="1228" 
d="M1079 0l-901 522l901 522v-1044z" />
    <glyph glyph-name="uni25C1" unicode="&#x25c1;" horiz-adv-x="1228" 
d="M1079 0l-901 522l901 522v-1044zM915 264v516l-442 -258z" />
    <glyph glyph-name="lozenge" unicode="&#x25ca;" 
d="M516 0l-383 700l383 701h184l383 -701l-383 -700h-184zM608 193l279 507l-279 510l-278 -510z" />
    <glyph glyph-name="circle" unicode="&#x25cb;" 
d="M608 -18q-145 0 -269.5 72t-197.5 196.5t-73 271.5q0 109 43 209.5t116 173.5t172.5 116.5t208.5 43.5q147 0 272 -73t198 -198t73 -272t-72.5 -271.5t-197.5 -196.5t-273 -72zM608 49q97 0 185 37.5t151 100.5t100 150t37 183q0 97 -37.5 185t-100.5 151.5t-150.5 101
t-184.5 37.5q-96 0 -183.5 -37.5t-151 -101t-101 -151.5t-37.5 -185q0 -128 63.5 -236.5t172.5 -171.5t237 -63z" />
    <glyph glyph-name="uni25CF" unicode="&#x25cf;" horiz-adv-x="1224" 
d="M608 -18q148 0 273 71.5t197.5 196t72.5 272.5t-72.5 273.5t-197.5 198.5t-273 73q-146 0 -271 -73t-198 -198.5t-73 -273.5q0 -111 43 -211t116 -172t173 -114.5t210 -42.5z" />
    <glyph glyph-name="uni25D0" unicode="&#x25d0;" horiz-adv-x="1228" 
d="M614 -8q-146 0 -269 72t-194 195.5t-71 268.5q0 146 71 269.5t194 195.5t269 72t269 -72t194.5 -195.5t71.5 -269.5q0 -109 -42 -208t-113.5 -171t-171 -114.5t-208.5 -42.5zM614 98q180 0 305 125t125 305t-125 305t-305 125v-860z" />
    <glyph glyph-name="uni25D1" unicode="&#x25d1;" horiz-adv-x="1228" 
d="M614 -8q-146 0 -269 72t-194 195.5t-71 268.5q0 146 71 269.5t194 195.5t269 72t269 -72t194.5 -195.5t71.5 -269.5q0 -109 -42 -208t-113.5 -171t-171 -114.5t-208.5 -42.5zM614 98v860q-179 0 -304.5 -125t-125.5 -305t125.5 -305t304.5 -125z" />
    <glyph glyph-name="uni25D2" unicode="&#x25d2;" horiz-adv-x="1228" 
d="M614 -8q-146 0 -269 72t-194 195.5t-71 268.5q0 146 71 269.5t194 195.5t269 72t269 -72t194.5 -195.5t71.5 -269.5q0 -109 -42 -208t-113.5 -171t-171 -114.5t-208.5 -42.5zM184 528h860q0 180 -125 305t-305 125q-179 0 -304.5 -125t-125.5 -305z" />
    <glyph glyph-name="uni25D3" unicode="&#x25d3;" horiz-adv-x="1228" 
d="M614 -8q-146 0 -269 72t-194 195.5t-71 268.5q0 146 71 269.5t194 195.5t269 72t269 -72t194.5 -195.5t71.5 -269.5q0 -109 -42 -208t-113.5 -171t-171 -114.5t-208.5 -42.5zM614 98q180 0 305 125t125 305h-860q0 -180 125.5 -305t304.5 -125z" />
    <glyph glyph-name="uni25FD" unicode="&#x25fd;" horiz-adv-x="1228" 
d="M197 0v1044h823v-1044h-823zM369 172h479v700h-479v-700z" />
    <glyph glyph-name="uni25FE" unicode="&#x25fe;" horiz-adv-x="1228" 
d="M197 0v1044h823v-1044h-823z" />
    <glyph glyph-name="uni261D" unicode="&#x261d;" 
d="M633 0q-78 0 -140.5 19t-86 35t-23.5 20v213q0 5 18 12q-35 73 -61.5 174t-26.5 195q0 28 3 66t8.5 79t12.5 87t14.5 90t16 89t16.5 84t15 74t12.5 59t8.5 40l4 16q3 18 16 27.5t29 9.5q21 0 36.5 -13.5t14.5 -40.5q-1 -25 -4 -72.5t-4 -70.5q-3 -106 2 -191q14 9 29 7
q31 39 71 39t67.5 -22.5t33.5 -61.5q18 6 35 6q81 0 81 -109v-26q72 -6 72 -84q0 -53 -12 -101q-10 -56 -9.5 -76.5t6 -67t5.5 -83.5q0 -63 -27 -123q15 -6 15 -12v-213q0 -2 -8 -9.5t-28 -18.5t-47 -21t-70.5 -17.5t-94.5 -7.5zM633 215q74 0 168 23q38 38 55.5 78
t17.5 100q0 135 -43 135q-15 0 -35 -7t-34 -7q-19 0 -33.5 10t-22 21.5t-18 21.5t-22.5 10q-15 0 -26 -9.5t-11 -25.5q0 -15 13.5 -35.5t26.5 -49t13 -62.5q0 -46 -20.5 -81.5t-69.5 -70.5q47 65 47 140q0 44 -28.5 90.5t-73.5 46.5q-19 0 -57 -18.5t-64 -18.5q-21 0 -37 8
q44 -4 84.5 28t40.5 105q0 39 -12 65t-24 44t-13 37q7 -17 16.5 -24.5t18.5 -5.5t16.5 7t11.5 12q60 96 60 150q0 22 -13.5 39.5t-27.5 17.5q-22 0 -33 -18l-72 -113q-20 -33 -41 -105t-20 -155q-12 52 3 141t44 131l78 117l-2 17q-3 17 -8 21.5t-15 4.5q-15 0 -28.5 5
t-20.5 11l-6 5q10 -2 26 -2q32 0 41 12.5t9 34.5v80q0 8 -9 8q-35 0 -51 20q34 -10 47 0.5t15 36.5l6 78q4 51 -27 51q-19 0 -25.5 -9t-11.5 -36l-4 -15q-3 -16 -8 -39t-12 -56.5t-14.5 -70.5t-15.5 -80t-15.5 -85.5t-14 -86.5t-11.5 -83.5t-8 -76t-3 -64.5q0 -219 116 -418
q72 -35 187 -35zM561 680q36 0 83 63t52 109q4 46 4 66q0 112 -84 112q-34 0 -59 -29q39 -19 39 -67q0 -50 -57 -154q-2 -3 -7.5 -12.5t-8 -14t-5 -13.5t-2.5 -19q0 -21 14.5 -31t30.5 -10zM735 678q12 19 24 40t21 39t16 32.5t12 25.5t5 12q11 125 -63 125q-17 0 -33 -8
q2 -27 -2 -96q-1 -33 -29.5 -79.5t-58.5 -76.5q-13 -14 -12 -34t14 -31q45 -40 106 51zM762 551q47 0 72 45q8 11 40 76q13 32 13 78q0 62 -60 67q-2 -5 -10.5 -24t-11 -24.5l-10 -22t-11.5 -23t-11 -20.5t-12.5 -21.5t-13.5 -18.5t-15.5 -20t-16.5 -18q-18 -19 -0.5 -46.5
t47.5 -27.5zM799 125q12 0 21 9.5t9 21.5t-9 21t-21 9t-21.5 -9t-9.5 -21t9.5 -21.5t21.5 -9.5z" />
    <glyph glyph-name="uni262E" unicode="&#x262e;" horiz-adv-x="1228" 
d="M608 1065q147 0 272 -73t198 -198t73 -272t-72.5 -271.5t-197.5 -196.5t-273 -72q-145 0 -269.5 72t-197.5 196.5t-73 271.5q0 109 43 209.5t116 173.5t172.5 116.5t208.5 43.5zM1081 520q0 188 -125 323.5t-309 149.5v-399l348 -348q86 127 86 274zM569 993
q-183 -14 -308.5 -149.5t-125.5 -323.5q0 -145 86 -272l348 346v399zM569 481l-295 -295q127 -123 295 -135v430zM647 479v-428q172 12 295 135z" />
    <glyph glyph-name="uni2638" unicode="&#x2638;" 
d="M1130 496h-73q-9 -155 -115 -271l55 -55l-36 -35l-56 53q-118 -103 -270 -112v-76h-51v76q-158 9 -273 112l-55 -53l-35 35l55 55q-105 115 -114 271h-76v51h76q9 157 112 272l-53 55l35 37l55 -55q119 106 273 115v73h51v-73q151 -9 270 -113l56 53l36 -37l-53 -55
q104 -117 113 -272h73v-51zM584 911q-132 -9 -232 -96l150 -145q38 26 82 32v209zM864 815q-96 87 -229 96v-209q40 -5 82 -32zM315 778q-87 -96 -96 -231h211q5 41 33 84zM997 547q-9 131 -96 231l-145 -147q27 -41 32 -84h209zM608 397q53 0 90 36.5t37 88.5t-37 88.5
t-90 36.5q-51 0 -88 -36.5t-37 -88.5q0 -51 37 -88t88 -37zM219 496q9 -134 96 -230l148 148q-28 44 -33 82h-211zM901 266q87 96 96 230h-209q-5 -40 -32 -82zM635 133q133 9 229 96l-147 148q-38 -27 -82 -33v-211zM352 229q100 -87 232 -96v211q-42 5 -82 31z" />
    <glyph glyph-name="uni26AA" unicode="&#x26aa;" horiz-adv-x="1228" 
d="M608 -18q-145 0 -269.5 72t-197.5 196.5t-73 271.5q0 109 43 209.5t116 173.5t172.5 116.5t208.5 43.5q147 0 272 -73t198 -198t73 -272t-72.5 -271.5t-197.5 -196.5t-273 -72zM608 174q146 0 247 101t101 247q0 145 -101 247.5t-247 102.5q-145 0 -246.5 -102.5
t-101.5 -247.5q0 -146 101.5 -247t246.5 -101z" />
    <glyph glyph-name="uni26AB" unicode="&#x26ab;" horiz-adv-x="1228" 
d="M608 -18q148 0 273 71.5t197.5 196t72.5 272.5t-72.5 273.5t-197.5 198.5t-273 73q-146 0 -271 -73t-198 -198.5t-73 -273.5q0 -111 43 -211t116 -172t173 -114.5t210 -42.5z" />
    <glyph glyph-name="uni2709" unicode="&#x2709;" horiz-adv-x="1228" 
d="M1079 1401v-1401h-942v1401h942zM944 1192l88 92v68l-106 -113h-635l-107 113v-68l88 -92h312v-1145h49v1145h311zM512 70v125h-305v-125h305z" />
    <glyph glyph-name="uni2713" unicode="&#x2713;" horiz-adv-x="1228" 
d="M608 -18q-110 0 -210.5 42.5t-173 114.5t-115.5 172t-43 211q0 148 72.5 273.5t197.5 198.5t272 73t272 -73t198 -198.5t73 -273.5t-73 -272.5t-198 -196t-272 -71.5zM608 406l187 184l-58 55l-129 -129l-129 129l-55 -55z" />
    <glyph glyph-name="uni2715" unicode="&#x2715;" horiz-adv-x="1228" 
d="M608 -18q148 0 273 71.5t197.5 196t72.5 272.5t-72.5 273.5t-197.5 198.5t-273 73q-146 0 -271 -73t-198 -198.5t-73 -273.5q0 -111 43 -211t116 -172t173 -114.5t210 -42.5zM764 625l-98 -99l98 -100l-55 -55l-101 98l-100 -98l-55 55l100 100l-100 99l55 55l100 -98
l101 98z" />
    <glyph glyph-name="uni2728" unicode="&#x2728;" 
d="M289 860q-19 125 -49.5 172t-110.5 68q80 23 110.5 69.5t49.5 169.5q18 -123 48 -169.5t112 -69.5q-82 -21 -112 -68t-48 -172zM694 164q-12 102 -24.5 171t-33 127.5t-45.5 93.5t-65.5 64t-89.5 46t-121 32q72 15 121 32.5t89.5 47t65.5 65t45.5 93.5t33 126t24.5 169
q12 -101 25 -169t34 -126t46.5 -93.5t67 -65t91.5 -47t123 -32.5q-73 -15 -123 -32t-91.5 -46t-67 -64t-46.5 -93.5t-34 -127.5t-25 -171zM373 72q-17 124 -48 170.5t-110 68.5q78 21 109 69.5t49 170.5q18 -124 48 -171.5t111 -68.5q-82 -21 -111.5 -67.5t-47.5 -171.5z
" />
    <glyph glyph-name="uni2733" unicode="&#x2733;" 
d="M1130 604v-133l-491 53l387 -309l-96 -94l-307 385l53 -490h-135l55 492l-309 -387l-94 94l385 309l-492 -53v133l492 -53l-385 307l94 96l309 -387l-55 494h135l-53 -492l307 385l96 -96l-387 -307z" />
    <glyph glyph-name="uni2734" unicode="&#x2734;" horiz-adv-x="1224" 
d="M1163 739v-45l-450 -18l305 -334l-33 -31l-330 303l-20 -448h-43l-21 450l-331 -305l-31 31l303 334l-451 18v45l451 19l-305 334l33 28l331 -303l21 451h43l20 -451l332 303l33 -28l-307 -334z" />
    <glyph glyph-name="uni2764" unicode="&#x2764;" 
d="M827 1049q87 0 152 -65.5t65 -152.5q0 -72 -22 -127.5t-56 -89t-81.5 -67t-93.5 -59.5t-97 -68.5t-86 -91.5q-36 50 -87.5 93t-97 69t-93 59.5t-81.5 66.5t-55.5 88t-21.5 127q0 87 65 152.5t152 65.5q73 0 118 -26t101 -95q58 71 102 96t117 25z" />
    <glyph glyph-name="uni2780" unicode="&#x2780;" 
d="M608 1065q147 0 272 -73t198 -198t73 -272t-72.5 -271.5t-197.5 -196.5t-273 -72q-145 0 -269.5 72t-197.5 196.5t-73 271.5q0 109 43 209.5t116 173.5t172.5 116.5t208.5 43.5zM608 49q97 0 185 37.5t151 100.5t100 150t37 183q0 97 -37.5 185t-100.5 151.5t-150.5 101
t-184.5 37.5q-96 0 -183.5 -37.5t-151 -101t-101 -151.5t-37.5 -185q0 -128 63.5 -236.5t172.5 -171.5t237 -63zM659 817v-502h125v-86h-354v86h141v326h-141v80h141v96h88z" />
    <glyph glyph-name="uni2781" unicode="&#x2781;" horiz-adv-x="1220" 
d="M608 1065q147 0 272 -73t198 -198t73 -272t-72.5 -271.5t-197.5 -196.5t-273 -72q-145 0 -269.5 72t-197.5 196.5t-73 271.5q0 109 43 209.5t116 173.5t172.5 116.5t208.5 43.5zM608 49q97 0 185 37.5t151 100.5t100 150t37 183q0 97 -37.5 185t-100.5 151.5t-150.5 101
t-184.5 37.5q-96 0 -183.5 -37.5t-151 -101t-101 -151.5t-37.5 -185q0 -128 63.5 -236.5t172.5 -171.5t237 -63zM618 453q-55 -30 -73.5 -56t-18.5 -69v-15h267v-88h-355v78q0 89 30 137.5t112 89.5q40 22 56.5 31.5t36.5 26t26 33.5t6 41q0 31 -25.5 51t-67.5 20t-63 -19.5
t-27 -68.5h-94q19 178 184 178q80 0 130.5 -44t50.5 -117q0 -52 -17 -86t-51 -59.5t-107 -63.5z" />
    <glyph glyph-name="uni2782" unicode="&#x2782;" horiz-adv-x="1228" 
d="M608 1065q147 0 272 -73t198 -198t73 -272t-72.5 -271.5t-197.5 -196.5t-273 -72q-145 0 -269.5 72t-197.5 196.5t-73 271.5q0 109 43 209.5t116 173.5t172.5 116.5t208.5 43.5zM608 49q97 0 185 37.5t151 100.5t100 150t37 183q0 97 -37.5 185t-100.5 151.5t-150.5 101
t-184.5 37.5q-96 0 -183.5 -37.5t-151 -101t-101 -151.5t-37.5 -185q0 -128 63.5 -236.5t172.5 -171.5t237 -63zM690 545q101 -38 101 -160q0 -71 -47.5 -117.5t-131.5 -46.5q-73 0 -124 41.5t-60 122.5h94q12 -76 90 -76q43 0 66.5 25t23.5 72q0 43 -20.5 67.5t-52.5 24.5
h-80v77h63q31 0 52.5 24.5t21.5 62.5t-22 59.5t-62 21.5q-69 0 -78 -75h-88q7 78 54 118.5t112 40.5q73 0 118.5 -45t45.5 -110q0 -88 -76 -127z" />
    <glyph glyph-name="uni2783" unicode="&#x2783;" horiz-adv-x="1228" 
d="M608 1065q147 0 272 -73t198 -198t73 -272t-72.5 -271.5t-197.5 -196.5t-273 -72q-145 0 -269.5 72t-197.5 196.5t-73 271.5q0 109 43 209.5t116 173.5t172.5 116.5t208.5 43.5zM608 49q97 0 185 37.5t151 100.5t100 150t37 183q0 97 -37.5 185t-100.5 151.5t-150.5 101
t-184.5 37.5q-96 0 -183.5 -37.5t-151 -101t-101 -151.5t-37.5 -185q0 -128 63.5 -236.5t172.5 -171.5t237 -63zM713 584v-127h65v-88h-65v-140h-88v140h-236v88l176 360h99l-179 -360h140v127h88z" />
    <glyph glyph-name="uni2784" unicode="&#x2784;" horiz-adv-x="1228" 
d="M608 1065q147 0 272 -73t198 -198t73 -272t-72.5 -271.5t-197.5 -196.5t-273 -72q-145 0 -269.5 72t-197.5 196.5t-73 271.5q0 109 43 209.5t116 173.5t172.5 116.5t208.5 43.5zM608 49q97 0 185 37.5t151 100.5t100 150t37 183q0 97 -37.5 185t-100.5 151.5t-150.5 101
t-184.5 37.5q-96 0 -183.5 -37.5t-151 -101t-101 -151.5t-37.5 -185q0 -128 63.5 -236.5t172.5 -171.5t237 -63zM621 621q73 0 119 -52.5t46 -146.5q0 -92 -49.5 -145.5t-128.5 -53.5q-72 0 -121 41.5t-53 116.5h86q13 -68 88 -68q90 0 90 109q0 110 -90 110
q-29 0 -49.5 -16t-26.5 -41l-90 25l11 321h290v-88h-204l-4 -145q33 33 86 33z" />
    <glyph glyph-name="uni2785" unicode="&#x2785;" horiz-adv-x="1228" 
d="M608 1065q147 0 272 -73t198 -198t73 -272t-72.5 -271.5t-197.5 -196.5t-273 -72q-145 0 -269.5 72t-197.5 196.5t-73 271.5q0 109 43 209.5t116 173.5t172.5 116.5t208.5 43.5zM608 49q97 0 185 37.5t151 100.5t100 150t37 183q0 97 -37.5 185t-100.5 151.5t-150.5 101
t-184.5 37.5q-96 0 -183.5 -37.5t-151 -101t-101 -151.5t-37.5 -185q0 -128 63.5 -236.5t172.5 -171.5t237 -63zM618 616q80 0 128.5 -52t48.5 -144t-49 -145.5t-128 -53.5h-2q-38 0 -65 12q-69 24 -98 105q-31 76 -31 203q0 150 52 217t138 67q72 0 118 -39.5t52 -115.5
h-88q-10 67 -82 67q-102 0 -112 -162q47 41 118 41zM618 309q89 0 89 111q0 108 -89 108q-90 0 -90 -108q0 -111 90 -111z" />
    <glyph glyph-name="uni2786" unicode="&#x2786;" horiz-adv-x="1228" 
d="M608 -18q-145 0 -269.5 72t-197.5 196.5t-73 271.5q0 109 43 209.5t116 173.5t172.5 116.5t208.5 43.5q147 0 272 -73t198 -198t73 -272t-72.5 -271.5t-197.5 -196.5t-273 -72zM608 49q97 0 185 37.5t151 100.5t100 150t37 183q0 97 -37.5 185t-100.5 151.5t-150.5 101
t-184.5 37.5q-96 0 -183.5 -37.5t-151 -101t-101 -151.5t-37.5 -185q0 -128 63.5 -236.5t172.5 -171.5t237 -63zM498 229l194 500h-170v-86h-88v174h350v-88l-190 -500h-96z" />
    <glyph glyph-name="uni2787" unicode="&#x2787;" horiz-adv-x="1228" 
d="M608 1065q147 0 272 -73t198 -198t73 -272t-72.5 -271.5t-197.5 -196.5t-273 -72q-145 0 -269.5 72t-197.5 196.5t-73 271.5q0 109 43 209.5t116 173.5t172.5 116.5t208.5 43.5zM608 49q97 0 185 37.5t151 100.5t100 150t37 183q0 97 -37.5 185t-100.5 151.5t-150.5 101
t-184.5 37.5q-96 0 -183.5 -37.5t-151 -101t-101 -151.5t-37.5 -185q0 -128 63.5 -236.5t172.5 -171.5t237 -63zM682 537q102 -34 102 -152q0 -77 -47.5 -120.5t-126.5 -43.5q-83 0 -131.5 43.5t-48.5 120.5q0 118 105 152q-91 37 -91 139q0 63 45 107t121 44q74 0 118 -44
t44 -107q0 -102 -90 -139zM610 752q-42 0 -67 -22.5t-25 -61.5t25.5 -63.5t66.5 -24.5q39 0 63.5 24.5t24.5 63.5t-24.5 61.5t-63.5 22.5zM610 311q44 0 70.5 24t26.5 66q0 40 -25.5 66.5t-71.5 26.5q-49 0 -74.5 -25.5t-25.5 -67.5t27 -66t73 -24z" />
    <glyph glyph-name="uni2788" unicode="&#x2788;" horiz-adv-x="1228" 
d="M608 1065q147 0 272 -73t198 -198t73 -272t-72.5 -271.5t-197.5 -196.5t-273 -72q-145 0 -269.5 72t-197.5 196.5t-73 271.5q0 109 43 209.5t116 173.5t172.5 116.5t208.5 43.5zM608 49q97 0 185 37.5t151 100.5t100 150t37 183q0 97 -37.5 185t-100.5 151.5t-150.5 101
t-184.5 37.5q-96 0 -183.5 -37.5t-151 -101t-101 -151.5t-37.5 -185q0 -128 63.5 -236.5t172.5 -171.5t237 -63zM686 805q57 -29 78 -96q31 -76 31 -203q0 -150 -52.5 -217.5t-138.5 -67.5q-72 0 -118 40t-52 116h88q10 -68 82 -68q101 0 111 160q-48 -39 -115 -39
q-79 0 -128.5 53.5t-49.5 145.5q0 91 49.5 143.5t128.5 52.5h2q48 0 84 -20zM600 518q88 0 88 111q0 62 -29 88q-16 13 -32 18q-8 2 -27 2q-90 0 -90 -108q0 -111 90 -111z" />
    <glyph glyph-name="uni278A" unicode="&#x278a;" 
d="M608 -18q148 0 273 71.5t197.5 196t72.5 272.5t-72.5 273.5t-197.5 198.5t-273 73q-146 0 -271 -73t-198 -198.5t-73 -273.5q0 -111 43 -211t116 -172t173 -114.5t210 -42.5zM659 317h125v-88h-352v88h139v324h-139v80h139v98h88v-502z" />
    <glyph glyph-name="uni278B" unicode="&#x278b;" horiz-adv-x="1228" 
d="M608 -18q148 0 273 71.5t197.5 196t72.5 272.5t-72.5 273.5t-197.5 198.5t-273 73q-146 0 -271 -73t-198 -198.5t-73 -273.5q0 -111 43 -211t116 -172t173 -114.5t210 -42.5zM524 330v-15h269v-90h-355v80q0 88 30 136t112 91q40 21 55.5 30t36 25.5t27 34t6.5 42.5
q0 30 -25.5 50.5t-67.5 20.5t-63.5 -20t-28.5 -70h-92q9 93 58.5 135.5t125.5 42.5q80 0 130.5 -44t50.5 -115q0 -76 -35 -116.5t-140 -96.5q-56 -28 -74 -53t-20 -68z" />
    <glyph glyph-name="uni278C" unicode="&#x278c;" horiz-adv-x="1228" 
d="M608 -18q148 0 273 71.5t197.5 196t72.5 272.5t-72.5 273.5t-197.5 198.5t-273 73q-146 0 -271 -73t-198 -198.5t-73 -273.5q0 -111 43 -211t116 -172t173 -114.5t210 -42.5zM688 547q103 -36 103 -160q0 -71 -47.5 -117.5t-131.5 -46.5q-73 0 -124 41.5t-58 122.5h94
q9 -76 88 -76q90 0 90 97q0 43 -20.5 67.5t-52.5 24.5h-80v78h63q31 0 52.5 24t21.5 62t-21 59.5t-63 21.5q-68 0 -80 -75h-86q6 77 53 117t113 40q73 0 118.5 -44.5t45.5 -110.5q0 -90 -78 -125z" />
    <glyph glyph-name="uni278D" unicode="&#x278d;" horiz-adv-x="1228" 
d="M608 -18q148 0 273 71.5t197.5 196t72.5 272.5t-72.5 273.5t-197.5 198.5t-273 73q-146 0 -271 -73t-198 -198.5t-73 -273.5q0 -111 43 -211t116 -172t173 -114.5t210 -42.5zM782 457v-86h-65v-142h-88v142h-236v86l176 362h99l-179 -362h140v127h88v-127h65z" />
    <glyph glyph-name="uni278E" unicode="&#x278e;" horiz-adv-x="1228" 
d="M608 -18q148 0 273 71.5t197.5 196t72.5 272.5t-72.5 273.5t-197.5 198.5t-273 73q-146 0 -271 -73t-198 -198.5t-73 -273.5q0 -111 43 -211t116 -172t173 -114.5t210 -42.5zM618 623q73 0 119.5 -53.5t46.5 -147.5q0 -91 -48.5 -144t-127.5 -53q-73 0 -121.5 41
t-52.5 117h86q13 -70 88 -70q88 0 88 109q0 113 -88 113q-29 0 -49.5 -17t-28.5 -43l-88 27l11 321h290v-88h-204l-7 -153q30 41 86 41z" />
    <glyph glyph-name="uni278F" unicode="&#x278f;" horiz-adv-x="1228" 
d="M608 -18q-110 0 -210 42.5t-173 114.5t-116 172t-43 211q0 148 73 273.5t198 198.5t271 73q148 0 273 -73t197.5 -198.5t72.5 -273.5t-72.5 -272.5t-197.5 -196t-273 -71.5zM616 223q80 0 129.5 52.5t49.5 144.5t-49.5 144t-129.5 52q-77 0 -112 -59q7 182 108 182
q72 0 82 -67h88q-6 74 -52.5 114.5t-117.5 40.5q-86 0 -139 -68t-53 -218q0 -318 196 -318zM616 311q-88 0 -88 109q0 108 88 108q91 0 91 -108q0 -109 -91 -109z" />
    <glyph glyph-name="uni2790" unicode="&#x2790;" horiz-adv-x="1228" 
d="M608 -18q148 0 273 71.5t197.5 196t72.5 272.5t-72.5 273.5t-197.5 198.5t-273 73q-146 0 -271 -73t-198 -198.5t-73 -273.5q0 -111 43 -211t116 -172t173 -114.5t210 -42.5zM498 229l194 500h-170v-86h-90v176h352v-90l-192 -500h-94z" />
    <glyph glyph-name="uni2791" unicode="&#x2791;" horiz-adv-x="1228" 
d="M608 -18q-110 0 -210 42.5t-173 114.5t-116 172t-43 211q0 148 73 273.5t198 198.5t271 73q148 0 273 -73t197.5 -198.5t72.5 -273.5t-72.5 -272.5t-197.5 -196t-273 -71.5zM610 223q80 0 127 43t47 121q0 118 -102 150q90 37 90 141q0 61 -44 105t-118 44
q-76 0 -121 -43.5t-45 -105.5q0 -104 91 -141q-103 -32 -103 -150q0 -78 47.5 -121t130.5 -43zM610 580q-42 0 -67 25t-25 65q0 39 25 60.5t67 21.5q39 0 63.5 -21.5t24.5 -60.5q0 -40 -25 -65t-63 -25zM610 311q-47 0 -73.5 24t-26.5 68q0 40 25.5 65.5t74.5 25.5
q46 0 71.5 -25.5t25.5 -65.5q0 -43 -26.5 -67.5t-70.5 -24.5z" />
    <glyph glyph-name="uni2792" unicode="&#x2792;" horiz-adv-x="1228" 
d="M608 -18q-110 0 -210 42.5t-173 114.5t-116 172t-43 211q0 148 73 273.5t198 198.5t271 73q148 0 273 -73t197.5 -198.5t72.5 -273.5t-72.5 -272.5t-197.5 -196t-273 -71.5zM604 223q86 0 138.5 67.5t52.5 217.5q0 319 -197 319q-79 0 -128.5 -52.5t-49.5 -143.5
q0 -92 49.5 -145.5t128.5 -53.5q80 0 115 60q-7 -181 -109 -181q-71 0 -84 68h-88q6 -76 52.5 -116t119.5 -40zM598 520q-88 0 -88 111q0 108 88 108q90 0 90 -108q0 -111 -90 -111z" />
    <glyph glyph-name="uniF31E" unicode="&#xf31e;" 
d="M588 1044h41v-292h-41v292zM549 745l-37 -14l-100 273l37 14zM768 1018l39 -14l-100 -273l-37 14zM473 711l-29 -25l-186 223l33 25zM930 934l31 -25l-189 -225l-29 27zM420 655l-23 -34l-252 143l23 37zM1051 799l20 -37l-252 -141l-22 34zM610 342q-75 0 -127.5 52.5
t-52.5 127.5q0 74 52.5 126t127.5 52q73 0 124.5 -52t51.5 -126q0 -75 -51.5 -127.5t-124.5 -52.5zM385 582l-6 -41l-289 51l8 39zM1120 631l6 -39l-286 -51l-6 41zM379 502l4 -39l-285 -51l-6 39zM1126 451l-6 -41l-286 51l6 39zM397 422l23 -33l-252 -147l-23 37z
M1071 276l-20 -32l-254 145l22 33zM444 356l29 -24l-184 -223l-31 26zM961 135l-31 -26l-187 223l29 24zM512 311l37 -14l-100 -274l-37 14zM807 37l-39 -14l-98 274l37 14zM588 289h41v-289h-41v289z" />
    <glyph glyph-name="uniF3AF" unicode="&#xf3af;" horiz-adv-x="1224" 
d="M606 -10q-144 0 -265.5 70t-193 192t-71.5 268q0 148 72 271.5t193.5 193.5t264.5 70q109 0 208 -42t170.5 -113.5t114 -171t42.5 -208.5q0 -146 -72.5 -268t-195.5 -192t-267 -70zM606 125q168 0 284 115.5t116 279.5q0 165 -116 282.5t-284 117.5q-166 0 -280.5 -116.5
t-114.5 -283.5q0 -161 116 -278t279 -117zM606 233q-121 0 -204 85.5t-83 201.5q0 123 83 207t204 84q126 0 209.5 -84.5t83.5 -206.5q0 -119 -85 -203t-208 -84zM606 326q85 0 143 57t58 137q0 82 -56.5 141.5t-144.5 59.5q-84 0 -140 -59t-56 -142q0 -80 55.5 -137
t140.5 -57zM606 438q-34 0 -59 25t-25 59t25 59t59 25q36 0 61 -25t25 -59t-25 -59t-61 -25zM606 487q15 0 26 10.5t11 24.5q0 15 -11 25t-26 10q-14 0 -24.5 -10t-10.5 -25q0 -14 10.5 -24.5t24.5 -10.5z" />
    <glyph glyph-name="uniF48A" unicode="&#xf48a;" horiz-adv-x="1228" 
d="M614 -10q-146 0 -242 97t-96 243v743q0 146 96 242t242 96t243 -96t97 -242v-743q0 -146 -97 -243t-243 -97zM358 700h514v373q0 110 -74 183t-184 73t-183 -73t-73 -183v-373z" />
    <glyph glyph-name="uniF4A3" unicode="&#xf4a3;" horiz-adv-x="1224" 
d="M625 1266v-82h-35v82h35zM575 1178l-26 -25l-57 57l22 25zM725 1210l-59 -57l-25 25l59 57zM608 1085q-14 0 -23.5 9.5t-9.5 23.5t10 24.5t23 10.5t22 -10.5t9 -24.5t-9 -23.5t-22 -9.5zM545 1135v-33h-86v33h86zM672 1102v33h84v-33h-84zM492 1026l57 59l26 -24l-61 -60
zM725 1026l-25 -25l-59 60l25 24zM698 883q115 -31 190 -127t75 -217q0 -145 -105.5 -250t-251.5 -105q-145 0 -249.5 105t-104.5 250q0 120 74 216.5t188 127.5v65h76v107h35v-107h73v-65zM819 662l39 26q-39 64 -104 105l-25 -41q58 -36 90 -90z" />
    <glyph glyph-name="uniF8FF" unicode="&#xf8ff;" 
d="M905 512q-119 0 -178 -47.5t-59 -122.5q0 -81 38 -119.5t99 -38.5q70 0 111.5 38.5t41.5 101.5h209q0 -150 -97.5 -242t-250.5 -92q-143 0 -237.5 79t-94.5 203q0 88 45 148.5t123 93.5h-163v-2h-23q-120 0 -179 -47.5t-59 -122.5q0 -145 189 -145l4 -195
q-186 0 -280.5 74t-94.5 196q0 87 44.5 147.5t121.5 92.5h-166v125h121q63 0 111.5 35.5t74.5 91.5t39 114t13 113h210q0 -62 -24.5 -127t-84.5 -129.5t-147 -97.5h144q52 0 94 24t68 61.5t44 86t25.5 94t7.5 88.5h211q0 -45 -14.5 -94.5t-44 -99t-81 -92.5t-118.5 -68h469
v-121h-241v-4h-21zM1038 694q-40 0 -69 30t-29 73q0 41 29 70.5t69 29.5q43 0 73 -29.5t30 -70.5q0 -43 -30 -73t-73 -30z" />
    <glyph glyph-name="u1F609" unicode="&#x1f609;" 
d="M608 184q-111 0 -211 42t-172 114.5t-114.5 172.5t-42.5 212q0 111 42 211t114 172.5t172 115t212 42.5q148 0 272.5 -71.5t196.5 -196t72 -273.5q0 -148 -71.5 -272.5t-196 -196.5t-273.5 -72zM465 717q32 0 54 26.5t22 77.5q0 53 -22.5 82t-53.5 29t-53.5 -30.5
t-22.5 -80.5q0 -49 22.5 -76.5t53.5 -27.5zM834 756l26 39q-41 28 -110 32l94 60l-23 41l-162 -99l13 -43q31 6 81.5 -1t80.5 -29zM608 393q113 0 190 68t93 168h-47q-16 -80 -79.5 -133.5t-156.5 -53.5q-92 0 -154.5 53.5t-78.5 133.5h-47q15 -101 92.5 -168.5t187.5 -67.5
z" />
    <glyph glyph-name="u1F641" unicode="&#x1f641;" 
d="M608 184q-146 0 -270.5 73t-197 197.5t-72.5 270.5t72.5 270.5t197 197.5t270.5 73t270.5 -73t197.5 -197.5t73 -270.5t-73 -270.5t-197.5 -197.5t-270.5 -73zM479 741q33 0 56.5 29t23.5 84q0 57 -23.5 87t-56.5 30q-34 0 -58 -31t-24 -86q0 -53 24 -83t58 -30zM739 741
q35 0 58.5 29t23.5 84q0 57 -23.5 87t-58.5 30q-34 0 -57 -30t-23 -87q0 -56 22.5 -84.5t57.5 -28.5zM397 461q28 52 85 83t126 31t127 -31t84 -83l41 20q-32 65 -100.5 103.5t-151.5 38.5t-151.5 -38.5t-100.5 -103.5z" />
    <glyph glyph-name="u1F642" unicode="&#x1f642;" 
d="M608 184q-146 0 -270.5 73t-197 197.5t-72.5 270.5t72.5 270.5t197 197.5t270.5 73t270.5 -73t197.5 -197.5t73 -270.5t-73 -270.5t-197.5 -197.5t-270.5 -73zM479 741q33 0 56.5 29t23.5 84q0 57 -23.5 87t-56.5 30q-34 0 -58 -31t-24 -86q0 -53 24 -83t58 -30zM739 741
q35 0 58.5 29t23.5 84q0 57 -23.5 87t-58.5 30q-34 0 -57 -30t-23 -87q0 -56 22.5 -84.5t57.5 -28.5zM608 336q161 0 275 114.5t114 274.5h-49q0 -140 -99.5 -240t-240.5 -100q-140 0 -240 100.5t-100 239.5h-49q0 -160 114.5 -274.5t274.5 -114.5z" />
    <glyph glyph-name="NULL" horiz-adv-x="1228" 
 />
    <glyph glyph-name="J.ss06" horiz-adv-x="1228" 
d="M993 1401v-172h-155v-785q0 -204 -112.5 -324t-297.5 -120h-248v172h248q238 0 238 305v752h-433v172h760z" />
    <glyph glyph-name="Jcircumflex.ss06" horiz-adv-x="1228" 
d="M598 1683l-147 -163h-199l262 268h170l262 -268h-198zM993 1401v-172h-155v-785q0 -204 -112.5 -324t-297.5 -120h-248v172h248q238 0 238 305v752h-433v172h760z" />
    <glyph glyph-name="Q.ss07" horiz-adv-x="1228" 
d="M692 -74q0 -63 64 -63h118v-146h-157q-95 0 -146 51t-51 146v76q-80 14 -139.5 59t-105 127.5t-68.5 214t-23 309.5q0 162 20 285.5t56 205t89.5 133t116.5 73.5t142 22q99 0 174 -35.5t132.5 -116.5t87.5 -223t30 -344q0 -179 -23.5 -311t-69.5 -214.5t-106.5 -127.5
t-140.5 -59v-62zM356 700q0 -168 16 -277.5t50 -167.5t77.5 -79.5t108.5 -21.5t108 21.5t77.5 79.5t50.5 167.5t16 277.5t-16 277.5t-50 168t-77.5 80t-108.5 21.5t-108.5 -21.5t-77.5 -80t-50 -168t-16 -277.5z" />
    <glyph glyph-name="a.ss01" 
d="M864 1044h146v-1044h-146l-26 195q-44 -104 -122 -154.5t-179 -50.5q-165 0 -258 130.5t-93 403.5q0 270 93 400.5t258 130.5q100 0 178.5 -50.5t122.5 -152.5zM598 162q118 0 179 81.5t61 280.5q0 196 -61 277.5t-179 81.5q-79 0 -130 -32t-80.5 -112.5t-29.5 -214.5
q0 -200 60 -281t180 -81z" />
    <glyph glyph-name="a.ss02" horiz-adv-x="1228" 
d="M623 1055q165 0 275 -104t110 -263v-688h-160l-31 143q-94 -153 -305 -153q-147 0 -240.5 79t-93.5 224q0 148 115 233.5t328 85.5h200v76q0 88 -57 141.5t-141 53.5q-88 0 -139.5 -39.5t-65.5 -110.5h-191q10 100 67.5 174.5t143 111t185.5 36.5zM565 156q132 0 194 54
t62 167v98h-200q-122 0 -185 -46.5t-63 -121.5q0 -64 50 -107.5t142 -43.5z" />
    <glyph glyph-name="aacute.ss01" 
d="M895 1436l-221 -273h-119l135 273h205zM864 1044h146v-1044h-146l-26 195q-44 -104 -122 -154.5t-179 -50.5q-165 0 -258 130.5t-93 403.5q0 270 93 400.5t258 130.5q100 0 178.5 -50.5t122.5 -152.5zM598 162q118 0 179 81.5t61 280.5q0 196 -61 277.5t-179 81.5
q-79 0 -130 -32t-80.5 -112.5t-29.5 -214.5q0 -200 60 -281t180 -81z" />
    <glyph glyph-name="aacute.ss02" 
d="M913 1436l-221 -273h-119l136 273h204zM623 1055q165 0 275 -104t110 -263v-688h-160l-31 143q-94 -153 -305 -153q-147 0 -240.5 79t-93.5 224q0 148 115 233.5t328 85.5h200v76q0 88 -57 141.5t-141 53.5q-88 0 -139.5 -39.5t-65.5 -110.5h-191q10 100 67.5 174.5
t143 111t185.5 36.5zM565 156q132 0 194 54t62 167v98h-200q-122 0 -185 -46.5t-63 -121.5q0 -64 50 -107.5t142 -43.5z" />
    <glyph glyph-name="abreve.ss01" 
d="M645 1178q-101 0 -169 62.5t-68 174.5l131 -2q0 -48 31.5 -77t76.5 -29q44 0 75.5 29t31.5 77l131 2q0 -112 -68.5 -174.5t-171.5 -62.5zM864 1044h146v-1044h-146l-26 195q-44 -104 -122 -154.5t-179 -50.5q-165 0 -258 130.5t-93 403.5q0 270 93 400.5t258 130.5
q100 0 178.5 -50.5t122.5 -152.5zM598 162q118 0 179 81.5t61 280.5q0 196 -61 277.5t-179 81.5q-79 0 -130 -32t-80.5 -112.5t-29.5 -214.5q0 -200 60 -281t180 -81z" />
    <glyph glyph-name="abreve.ss02" horiz-adv-x="1228" 
d="M608 1178q-101 0 -169 62.5t-68 174.5l131 -2q0 -48 31.5 -77t76.5 -29q44 0 75.5 29t31.5 77l131 2q0 -112 -68.5 -174.5t-171.5 -62.5zM623 1055q165 0 275 -104t110 -263v-688h-160l-31 143q-94 -153 -305 -153q-147 0 -240.5 79t-93.5 224q0 148 115 233.5t328 85.5
h200v76q0 88 -57 141.5t-141 53.5q-88 0 -139.5 -39.5t-65.5 -110.5h-191q10 100 67.5 174.5t143 111t185.5 36.5zM565 156q132 0 194 54t62 167v98h-200q-122 0 -185 -46.5t-63 -121.5q0 -64 50 -107.5t142 -43.5z" />
    <glyph glyph-name="acircumflex.ss01" 
d="M623 1343l-148 -163h-199l261 268h172l260 -268h-199zM864 1044h146v-1044h-146l-26 195q-44 -104 -122 -154.5t-179 -50.5q-165 0 -258 130.5t-93 403.5q0 270 93 400.5t258 130.5q100 0 178.5 -50.5t122.5 -152.5zM598 162q118 0 179 81.5t61 280.5q0 196 -61 277.5
t-179 81.5q-79 0 -130 -32t-80.5 -112.5t-29.5 -214.5q0 -200 60 -281t180 -81z" />
    <glyph glyph-name="acircumflex.ss02" horiz-adv-x="1228" 
d="M614 1399l-147 -164h-199l262 268h170l263 -268h-199zM623 1055q165 0 275 -104t110 -263v-688h-160l-31 143q-94 -153 -305 -153q-147 0 -240.5 79t-93.5 224q0 148 115 233.5t328 85.5h200v76q0 88 -57 141.5t-141 53.5q-88 0 -139.5 -39.5t-65.5 -110.5h-191
q10 100 67.5 174.5t143 111t185.5 36.5zM565 156q132 0 194 54t62 167v98h-200q-122 0 -185 -46.5t-63 -121.5q0 -64 50 -107.5t142 -43.5z" />
    <glyph glyph-name="adieresis.ss01" 
d="M455 1233q-56 0 -94.5 35.5t-38.5 89.5q0 52 38.5 86.5t94.5 34.5q55 0 93 -34.5t38 -86.5q0 -53 -38 -89t-93 -36zM799 1233q-56 0 -94.5 35.5t-38.5 89.5q0 52 38.5 86.5t94.5 34.5q55 0 93 -34.5t38 -86.5q0 -53 -38 -89t-93 -36zM864 1044h146v-1044h-146l-26 195
q-44 -104 -122 -154.5t-179 -50.5q-165 0 -258 130.5t-93 403.5q0 270 93 400.5t258 130.5q100 0 178.5 -50.5t122.5 -152.5zM598 162q118 0 179 81.5t61 280.5q0 196 -61 277.5t-179 81.5q-79 0 -130 -32t-80.5 -112.5t-29.5 -214.5q0 -200 60 -281t180 -81z" />
    <glyph glyph-name="adieresis.ss02" horiz-adv-x="1228" 
d="M444 1233q-56 0 -94.5 35.5t-38.5 89.5q0 52 38.5 86.5t94.5 34.5q55 0 93 -34.5t38 -86.5q0 -53 -38 -89t-93 -36zM788 1233q-56 0 -94.5 35.5t-38.5 89.5q0 52 38.5 86.5t94.5 34.5q55 0 93.5 -34.5t38.5 -86.5q0 -53 -38.5 -89t-93.5 -36zM623 1055q165 0 275 -104
t110 -263v-688h-160l-31 143q-94 -153 -305 -153q-147 0 -240.5 79t-93.5 224q0 148 115 233.5t328 85.5h200v76q0 88 -57 141.5t-141 53.5q-88 0 -139.5 -39.5t-65.5 -110.5h-191q10 100 67.5 174.5t143 111t185.5 36.5zM565 156q132 0 194 54t62 167v98h-200
q-122 0 -185 -46.5t-63 -121.5q0 -64 50 -107.5t142 -43.5z" />
    <glyph glyph-name="agrave.ss01" 
d="M659 1163h-120l-222 273h205zM864 1044h146v-1044h-146l-26 195q-44 -104 -122 -154.5t-179 -50.5q-165 0 -258 130.5t-93 403.5q0 270 93 400.5t258 130.5q100 0 178.5 -50.5t122.5 -152.5zM598 162q118 0 179 81.5t61 280.5q0 196 -61 277.5t-179 81.5q-79 0 -130 -32
t-80.5 -112.5t-29.5 -214.5q0 -200 60 -281t180 -81z" />
    <glyph glyph-name="agrave.ss02" 
d="M678 1163h-121l-221 273h205zM623 1055q165 0 275 -104t110 -263v-688h-160l-31 143q-94 -153 -305 -153q-147 0 -240.5 79t-93.5 224q0 148 115 233.5t328 85.5h200v76q0 88 -57 141.5t-141 53.5q-88 0 -139.5 -39.5t-65.5 -110.5h-191q10 100 67.5 174.5t143 111
t185.5 36.5zM565 156q132 0 194 54t62 167v98h-200q-122 0 -185 -46.5t-63 -121.5q0 -64 50 -107.5t142 -43.5z" />
    <glyph glyph-name="amacron.ss01" 
d="M864 1352v-146h-528v146h528zM864 1044h146v-1044h-146l-26 195q-44 -104 -122 -154.5t-179 -50.5q-165 0 -258 130.5t-93 403.5q0 270 93 400.5t258 130.5q100 0 178.5 -50.5t122.5 -152.5zM598 162q118 0 179 81.5t61 280.5q0 196 -61 277.5t-179 81.5q-79 0 -130 -32
t-80.5 -112.5t-29.5 -214.5q0 -200 60 -281t180 -81z" />
    <glyph glyph-name="amacron.ss02" horiz-adv-x="1228" 
d="M874 1352v-146h-528v146h528zM623 1055q165 0 275 -104t110 -263v-688h-160l-31 143q-94 -153 -305 -153q-147 0 -240.5 79t-93.5 224q0 148 115 233.5t328 85.5h200v76q0 88 -57 141.5t-141 53.5q-88 0 -139.5 -39.5t-65.5 -110.5h-191q10 100 67.5 174.5t143 111
t185.5 36.5zM565 156q132 0 194 54t62 167v98h-200q-122 0 -185 -46.5t-63 -121.5q0 -64 50 -107.5t142 -43.5z" />
    <glyph glyph-name="aogonek.ss01" 
d="M1001 -184h84v-172h-190q-53 0 -92.5 22.5t-52.5 67.5t26 112l88 154l-26 195q-44 -104 -122 -154.5t-179 -50.5q-165 0 -258 130.5t-93 403.5q0 270 93 400.5t258 130.5q100 0 178.5 -50.5t122.5 -152.5l26 192h146v-1044l-49 -94q-14 -27 -15 -46t9 -28t21.5 -12.5
t24.5 -3.5zM598 162q118 0 179 81.5t61 280.5q0 196 -61 277.5t-179 81.5q-79 0 -130 -32t-80.5 -112.5t-29.5 -214.5q0 -200 60 -281t180 -81z" />
    <glyph glyph-name="aogonek.ss02" horiz-adv-x="1228" 
d="M1001 -184h84v-172h-192q-53 0 -92.5 22.5t-52 67.5t27.5 112l88 154h-16l-31 143q-94 -153 -305 -153q-147 0 -240.5 79t-93.5 224q0 148 115 233.5t328 85.5h200v76q0 88 -57 141.5t-141 53.5q-88 0 -139.5 -39.5t-65.5 -110.5h-191q10 100 67.5 174.5t143 111
t185.5 36.5q165 0 275 -104t110 -263v-688l-50 -94q-14 -27 -15 -46t9.5 -28t22.5 -12.5t26 -3.5zM565 156q132 0 194 54t62 167v98h-200q-122 0 -185 -46.5t-63 -121.5q0 -64 50 -107.5t142 -43.5z" />
    <glyph glyph-name="aring.ss01" 
d="M610 1167q-99 0 -169 69t-70 173q0 101 70 169.5t167 68.5q100 0 170 -68t70 -170q0 -104 -70 -173t-168 -69zM610 1513q-45 0 -76.5 -29t-31.5 -77t31.5 -78.5t76.5 -30.5q43 0 75 30.5t32 78.5t-31.5 77t-75.5 29zM864 1044h146v-1044h-146l-26 195
q-44 -104 -122 -154.5t-179 -50.5q-165 0 -258 130.5t-93 403.5q0 270 93 400.5t258 130.5q100 0 178.5 -50.5t122.5 -152.5zM598 162q118 0 179 81.5t61 280.5q0 196 -61 277.5t-179 81.5q-79 0 -130 -32t-80.5 -112.5t-29.5 -214.5q0 -200 60 -281t180 -81z" />
    <glyph glyph-name="aring.ss02" horiz-adv-x="1228" 
d="M610 1167q-99 0 -169 69t-70 173q0 101 70 169.5t167 68.5q100 0 170 -68t70 -170q0 -104 -70 -173t-168 -69zM610 1513q-45 0 -76.5 -29t-31.5 -77t31.5 -78.5t76.5 -30.5q43 0 75 30.5t32 78.5t-31.5 77t-75.5 29zM623 1055q165 0 275 -104t110 -263v-688h-160l-31 143
q-94 -153 -305 -153q-147 0 -240.5 79t-93.5 224q0 148 115 233.5t328 85.5h200v76q0 88 -57 141.5t-141 53.5q-88 0 -139.5 -39.5t-65.5 -110.5h-191q10 100 67.5 174.5t143 111t185.5 36.5zM565 156q132 0 194 54t62 167v98h-200q-122 0 -185 -46.5t-63 -121.5
q0 -64 50 -107.5t142 -43.5z" />
    <glyph glyph-name="atilde.ss01" 
d="M424 1253v-26h-145v26q0 95 63 161.5t152 66.5q44 0 77 -13t72 -43q79 -65 123 -65q28 0 49 25.5t21 60.5v24h145v-24q0 -96 -62.5 -162.5t-152.5 -66.5q-81 0 -150 57q-27 23 -39.5 32.5t-36 20t-46.5 10.5q-31 0 -50.5 -23.5t-19.5 -60.5zM864 1044h146v-1044h-146
l-26 195q-44 -104 -122 -154.5t-179 -50.5q-165 0 -258 130.5t-93 403.5q0 270 93 400.5t258 130.5q100 0 178.5 -50.5t122.5 -152.5zM598 162q118 0 179 81.5t61 280.5q0 196 -61 277.5t-179 81.5q-79 0 -130 -32t-80.5 -112.5t-29.5 -214.5q0 -200 60 -281t180 -81z" />
    <glyph glyph-name="atilde.ss02" 
d="M412 1253v-26h-144v26q0 95 63 161.5t152 66.5q73 0 150 -56q79 -65 121 -65q28 0 49.5 25.5t21.5 60.5v24h144v-24q0 -96 -62.5 -162.5t-152.5 -66.5q-81 0 -150 57q-26 22 -39.5 32.5t-36.5 20.5t-45 10q-32 0 -51.5 -23.5t-19.5 -60.5zM623 1055q165 0 275 -104
t110 -263v-688h-160l-31 143q-94 -153 -305 -153q-147 0 -240.5 79t-93.5 224q0 148 115 233.5t328 85.5h200v76q0 88 -57 141.5t-141 53.5q-88 0 -139.5 -39.5t-65.5 -110.5h-191q10 100 67.5 174.5t143 111t185.5 36.5zM565 156q132 0 194 54t62 167v98h-200
q-122 0 -185 -46.5t-63 -121.5q0 -64 50 -107.5t142 -43.5z" />
    <glyph glyph-name="i.ss03" 
d="M565 1200q-60 0 -96.5 32t-36.5 93t36.5 92t96.5 31q57 0 94 -31.5t37 -91.5t-37 -92.5t-94 -32.5zM780 0q-129 0 -215 86.5t-86 214.5v571h-332v172h414q38 0 64 -26t26 -64v-643q0 -57 41 -98t99 -41h278v-172h-289z" />
    <glyph glyph-name="dotlessi.ss03" 
d="M780 0q-129 0 -215 86.5t-86 214.5v571h-332v172h414q38 0 64 -26t26 -64v-643q0 -57 41 -98t99 -41h278v-172h-289z" />
    <glyph glyph-name="iacute.ss03" 
d="M535 1163l135 273h204l-221 -273h-118zM780 0q-129 0 -215 86.5t-86 214.5v571h-332v172h414q38 0 64 -26t26 -64v-643q0 -57 41 -98t99 -41h278v-172h-289z" />
    <glyph glyph-name="ibreve.ss03" 
d="M608 1178q-102 0 -169.5 62.5t-67.5 174.5l131 -2q0 -48 31.5 -77t76.5 -29q44 0 75.5 29t31.5 77l131 2q0 -112 -68.5 -174.5t-171.5 -62.5zM780 0q-129 0 -215 86.5t-86 214.5v571h-332v172h414q38 0 64 -26t26 -64v-643q0 -57 41 -98t99 -41h278v-172h-289z" />
    <glyph glyph-name="icircumflex.ss03" 
d="M262 1180l262 268h170l262 -268h-198l-148 163l-149 -163h-199zM780 0q-129 0 -215 86.5t-86 214.5v571h-332v172h414q38 0 64 -26t26 -64v-643q0 -57 41 -98t99 -41h278v-172h-289z" />
    <glyph glyph-name="idieresis.ss03" 
d="M236 1233q-57 0 -95.5 35.5t-38.5 89.5q0 52 38.5 86.5t95.5 34.5q53 0 91 -34.5t38 -86.5q0 -53 -38 -89t-91 -36zM580 1233q-57 0 -95.5 35.5t-38.5 89.5q0 52 38.5 86.5t95.5 34.5q53 0 91 -34.5t38 -86.5q0 -53 -38 -89t-91 -36zM780 0q-129 0 -215 86.5t-86 214.5
v571h-332v172h414q38 0 64 -26t26 -64v-643q0 -57 41 -98t99 -41h278v-172h-289z" />
    <glyph glyph-name="i.loclTRK" 
d="M651 1200q-58 0 -94.5 32t-36.5 93q0 60 36.5 91.5t94.5 31.5q57 0 94 -31.5t37 -91.5t-37 -92.5t-94 -32.5zM737 172h332v-172h-860v172h356v700h-289v172h371q38 0 64 -26t26 -64v-782z" />
    <glyph glyph-name="i.loclTRK.ss03" 
d="M565 1200q-60 0 -96.5 32t-36.5 93t36.5 92t96.5 31q57 0 94 -31.5t37 -91.5t-37 -92.5t-94 -32.5zM780 0q-129 0 -215 86.5t-86 214.5v571h-332v172h414q38 0 64 -26t26 -64v-643q0 -57 41 -98t99 -41h278v-172h-289z" />
    <glyph glyph-name="igrave.ss03" 
d="M528 1163l-221 273h205l137 -273h-121zM780 0q-129 0 -215 86.5t-86 214.5v571h-332v172h414q38 0 64 -26t26 -64v-643q0 -57 41 -98t99 -41h278v-172h-289z" />
    <glyph glyph-name="imacron.ss01" horiz-adv-x="1224" 
d="M156 1206v146h528v-146h-528zM780 0q-129 0 -215 86.5t-86 214.5v571h-332v172h414q38 0 64 -26t26 -64v-643q0 -57 41 -98t99 -41h278v-172h-289z" />
    <glyph glyph-name="iogonek.ss03" 
d="M565 1200q-60 0 -96.5 32t-36.5 93t36.5 92t96.5 31q57 0 94 -31.5t37 -91.5t-37 -92.5t-94 -32.5zM1063 -184h84v-172h-193q-53 0 -92 22.5t-51.5 67.5t27.5 112l88 154h-146q-129 0 -215 86.5t-86 214.5v571h-332v172h414q38 0 64 -26t26 -64v-643q0 -57 41 -98t99 -41
h278v-172l-49 -94q-14 -27 -15 -46t9.5 -28t22.5 -12.5t26 -3.5z" />
    <glyph glyph-name="itilde.ss03" 
d="M745 1217q-80 0 -149 57q-26 22 -39.5 32.5t-36.5 20.5t-45 10q-32 0 -52 -23.5t-20 -60.5v-26h-143v26q0 95 63 161.5t152 66.5q73 0 150 -56q26 -21 38 -30.5t37 -22t45 -12.5q28 0 50 25.5t22 60.5v24h144v-24q0 -95 -62.5 -162t-153.5 -67zM780 0q-129 0 -215 86.5
t-86 214.5v571h-332v172h414q38 0 64 -26t26 -64v-643q0 -57 41 -98t99 -41h278v-172h-289z" />
    <glyph glyph-name="j.short" 
d="M756 1200q-60 0 -96.5 32t-36.5 93t36.5 92t96.5 31q57 0 94 -31.5t37 -91.5t-37 -92.5t-94 -32.5zM467 -362v172h57q60 0 103 42.5t43 102.5v917h-437v172h519q38 0 64 -26t26 -64v-1011q0 -129 -88.5 -217t-218.5 -88h-68z" />
    <glyph glyph-name="j.ss03" horiz-adv-x="1228" 
d="M762 1200q-56 0 -94.5 36.5t-38.5 88.5q0 53 38.5 88t94.5 35q55 0 93 -35t38 -88q0 -52 -38.5 -88.5t-92.5 -36.5zM334 -362v172h196q60 0 103 42.5t43 102.5v1089h172v-1101q0 -129 -88 -217t-217 -88h-209z" />
    <glyph glyph-name="j.ss04" horiz-adv-x="1228" 
d="M758 1200q-57 0 -95 36t-38 89q0 54 38 88.5t95 34.5q53 0 91 -35t38 -88q0 -52 -38 -88.5t-91 -36.5zM950 1044v-172h-102v-929q0 -129 -88 -217t-217 -88h-209v172h196q60 0 103 42.5t43 102.5v917h-113v172h387z" />
    <glyph glyph-name="uni0237.short" 
d="M467 -362v172h57q60 0 103 42.5t43 102.5v917h-437v172h519q38 0 64 -26t26 -64v-1011q0 -129 -88.5 -217t-218.5 -88h-68z" />
    <glyph glyph-name="uni0237.ss03" horiz-adv-x="1228" 
d="M334 -362v172h196q60 0 103 42.5t43 102.5v1089h172v-1101q0 -129 -88 -217t-217 -88h-209z" />
    <glyph glyph-name="uni0237.ss04" horiz-adv-x="1228" 
d="M950 1044v-172h-102v-929q0 -129 -88 -217t-217 -88h-209v172h196q60 0 103 42.5t43 102.5v917h-113v172h387z" />
    <glyph glyph-name="jcircumflex.short" horiz-adv-x="1224" 
d="M401 1180l263 268h170l262 -268h-199l-149 163l-148 -163h-199zM467 -362v172h57q60 0 103 42.5t43 102.5v917h-437v172h519q38 0 64 -26t26 -64v-1011q0 -129 -88.5 -217t-218.5 -88h-68z" />
    <glyph glyph-name="jcircumflex.ss03" horiz-adv-x="1228" 
d="M406 1180l262 268h170l262 -268h-199l-147 163l-150 -163h-198zM334 -362v172h196q60 0 103 42.5t43 102.5v1089h172v-1101q0 -129 -88 -217t-217 -88h-209z" />
    <glyph glyph-name="jcircumflex.ss04" horiz-adv-x="1228" 
d="M756 1343l-148 -163h-198l260 268h172l260 -268h-199zM563 872v172h387v-172h-102v-929q0 -129 -88 -217t-217 -88h-209v172h196q60 0 103 42.5t43 102.5v917h-113z" />
    <glyph glyph-name="t.ss05" 
d="M1053 872h-381v-700h190v-172h-553v172h191v700h-381v172h381v283h172v-283h381v-172z" />
    <glyph glyph-name="tbar.ss05" 
d="M1053 872h-381v-202h229v-172h-229v-326h190v-172h-553v172h191v326h-228v172h228v202h-381v172h381v283h172v-283h381v-172z" />
    <glyph glyph-name="tcaron.ss05" 
d="M881 1335q-39 14 -62.5 46t-23.5 71q0 53 38.5 88t94.5 35q55 0 93 -35t38 -88q0 -39 -23 -72l-162 -243l-61 32zM672 1327v-283h381v-172h-381v-700h190v-172h-553v172h191v700h-381v172h381v283h172z" />
    <glyph glyph-name="uni0163.ss05" horiz-adv-x="1224" 
d="M1053 872h-381v-700h190v-172h-184l-66 -137h9q85 0 137.5 -52t52.5 -137q0 -91 -68 -144.5t-174 -53.5h-153v141h153q47 0 73 25t26 61q0 35 -23.5 60.5t-60.5 25.5h-125v72l67 139h-217v172h191v700h-381v172h381v283h172v-283h381v-172z" />
    <glyph glyph-name="uni021B.ss05" 
d="M1053 872h-381v-700h190v-172h-553v172h191v700h-381v172h381v283h172v-283h381v-172zM584 -88q55 0 93 -35t38 -88q0 -38 -25 -74l-160 -239l-61 32l66 164q-37 14 -60.5 46t-23.5 71q0 53 38.5 88t94.5 35z" />
    <glyph glyph-name="y.ss01" 
d="M926 1044h186l-426 -1247q-25 -71 -83 -112t-134 -41h-246v172h209q37 0 68.5 24t42.5 56l35 104h-70l-377 1044h188l310 -888z" />
    <glyph glyph-name="yacute.ss01" 
d="M899 1436l-221 -273h-119l135 273h205zM926 1044h186l-426 -1247q-25 -71 -83 -112t-134 -41h-246v172h209q37 0 68.5 24t42.5 56l35 104h-70l-377 1044h188l310 -888z" />
    <glyph glyph-name="ycircumflex.ss01" 
d="M625 1343l-150 -163h-199l263 268h170l262 -268h-199zM926 1044h186l-426 -1247q-25 -71 -83 -112t-134 -41h-246v172h209q37 0 68.5 24t42.5 56l35 104h-70l-377 1044h188l310 -888z" />
    <glyph glyph-name="ydieresis.ss01" 
d="M455 1233q-57 0 -95 35.5t-38 89.5q0 52 38 86.5t95 34.5q53 0 91 -34.5t38 -86.5q0 -53 -38 -89t-91 -36zM799 1233q-57 0 -95 35.5t-38 89.5q0 52 38 86.5t95 34.5q53 0 91 -34.5t38 -86.5q0 -53 -38 -89t-91 -36zM926 1044h186l-426 -1247q-25 -71 -83 -112t-134 -41
h-246v172h209q37 0 68.5 24t42.5 56l35 104h-70l-377 1044h188l310 -888z" />
    <glyph glyph-name="ygrave.ss01" 
d="M680 1163h-119l-221 273h205zM926 1044h186l-426 -1247q-25 -71 -83 -112t-134 -41h-246v172h209q37 0 68.5 24t42.5 56l35 104h-70l-377 1044h188l310 -888z" />
    <glyph glyph-name="f_t" horiz-adv-x="2433" 
d="M2284 872h-478v-555q0 -60 43 -102.5t103 -42.5h311v-172h-321q-130 0 -219 89t-89 218v565h-1032v-700h436v-172h-841v172h233v700h-233v172h233v68q0 131 91 219t231 88h350v-172h-340q-70 0 -115 -41.5t-45 -103.5v-58h1032v283h172v-283h478v-172z" />
    <glyph glyph-name="t_t" horiz-adv-x="2433" 
d="M2284 872h-478v-555q0 -60 43 -102.5t103 -42.5h311v-172h-321q-130 0 -219 89t-89 218v565h-1044v-555q0 -60 42.5 -102.5t102.5 -42.5h312v-172h-322q-130 0 -218.5 89t-88.5 218v565h-283v172h283v283h172v-283h1044v283h172v-283h478v-172z" />
    <glyph glyph-name="uni24FF.001" horiz-adv-x="1228" 
d="M608 -18q-110 0 -210 42.5t-173 114.5t-116 172t-43 211q0 148 73 273.5t198 198.5t271 73q148 0 273 -73t197.5 -198.5t72.5 -273.5t-72.5 -272.5t-197.5 -196t-273 -71.5zM608 223q88 0 135.5 69t47.5 232q0 164 -47.5 233.5t-135.5 69.5q-89 0 -135.5 -69t-46.5 -234
q0 -163 47 -232t135 -69zM608 309q-48 0 -71 46.5t-23 168.5t23 168.5t71 46.5q47 0 70.5 -47t23.5 -168q0 -122 -23 -168.5t-71 -46.5zM575 453h66v145h-66v-145z" />
    <glyph glyph-name="uni24EA.001" horiz-adv-x="1228" 
d="M608 -18q-145 0 -269.5 72t-197.5 196.5t-73 271.5q0 109 43 209.5t116 173.5t172.5 116.5t208.5 43.5q147 0 272 -73t198 -198t73 -272t-72.5 -271.5t-197.5 -196.5t-273 -72zM608 49q97 0 185 37.5t151 100.5t100 150t37 183q0 97 -37.5 185t-100.5 151.5t-150.5 101
t-184.5 37.5q-96 0 -183.5 -37.5t-151 -101t-101 -151.5t-37.5 -185q0 -128 63.5 -236.5t172.5 -171.5t237 -63zM608 221q-88 0 -135 69.5t-47 233.5t46.5 233.5t135.5 69.5t136 -69.5t47 -233.5q0 -165 -47 -234t-136 -69zM608 309q49 0 71.5 45.5t22.5 169.5
q0 122 -22.5 168.5t-71.5 46.5q-47 0 -70.5 -47t-23.5 -168q0 -123 23 -169t71 -46zM582 451v147h55v-147h-55z" />
    <glyph glyph-name="zero.ss02" 
d="M608 1419q99 0 174 -35.5t132.5 -116.5t87.5 -223t30 -344t-30 -344t-87.5 -222.5t-132 -116t-174.5 -35.5t-175 35.5t-132.5 116t-87 222.5t-29.5 344q0 162 20 285.5t56 205t89.5 133t116.5 73.5t142 22zM608 1247q-61 0 -102.5 -18.5t-75 -68t-51 -141.5t-21.5 -233
h500q-4 141 -21.5 233t-51 141.5t-75 68t-102.5 18.5zM608 154q49 0 84 11t66.5 40.5t51.5 81t32.5 133t15.5 194.5h-500q3 -113 15.5 -194.5t32.5 -133t51.5 -81t66.5 -40.5t84 -11z" />
    <glyph glyph-name="zero.osf" 
d="M608 1055q199 0 311.5 -131.5t112.5 -401.5t-112.5 -401t-311.5 -131q-198 0 -311 131.5t-113 400.5q0 272 112 402.5t312 130.5zM608 883q-129 0 -190.5 -81.5t-61.5 -279.5q0 -68 9 -123l419 420q-61 64 -176 64zM608 162q129 0 190.5 82t61.5 278q0 76 -8 123
l-422 -418q59 -65 178 -65z" />
    <glyph glyph-name="one.osf" 
d="M774 172h309v-172h-823v172h342v457h-344v155h344v260h172v-872z" />
    <glyph glyph-name="two.osf" 
d="M526 360q-70 -22 -105.5 -67t-39.5 -121h637v-172h-821v168q0 135 72.5 230t205.5 130l211 60q162 46 162 157q0 138 -244 138q-121 0 -169 -38.5t-70 -156.5h-164q27 206 124.5 286.5t292.5 80.5q193 0 297.5 -84.5t104.5 -225.5q0 -134 -76 -210t-221 -115z" />
    <glyph glyph-name="three.osf" 
d="M776 403q120 -44 179 -138.5t59 -217.5q0 -186 -116 -300t-302 -114q-82 0 -152.5 22.5t-127 67.5t-91 119t-39.5 170h181q26 -207 239 -207q108 0 172 65t64 177q0 114 -63 181t-152 67h-193v164h137q86 0 144.5 61t58.5 154q0 94 -55.5 151.5t-147.5 57.5
q-83 0 -137 -50t-67 -155h-181q9 188 118 282.5t271 94.5q154 0 262.5 -101.5t108.5 -244.5q0 -215 -170 -306z" />
    <glyph glyph-name="four.osf" 
d="M993 162v-172h-90v-346h-172v346h-543v172l426 882h193l-430 -882h354v323h172v-323h90z" />
    <glyph glyph-name="five.osf" 
d="M631 559q168 0 275.5 -124t107.5 -343q0 -221 -111.5 -340t-300.5 -119q-178 0 -286 91t-119 237h180q34 -156 225 -156q240 0 240 287q0 150 -62 222.5t-176 72.5q-82 0 -139 -45.5t-72 -118.5l-172 53l53 768h652v-172h-492l-33 -405q95 92 230 92z" />
    <glyph glyph-name="six.osf" 
d="M623 905q174 0 285.5 -116.5t111.5 -339.5q0 -217 -115.5 -338t-296.5 -121q-452 0 -452 706q0 159 23.5 282.5t64 204t99 132.5t123 74t140.5 22q170 0 274 -99.5t126 -289.5h-179q-35 217 -227 217q-45 0 -81.5 -12t-71.5 -44t-59 -84.5t-39.5 -139t-18.5 -201.5v-21
q42 92 115.5 130t177.5 38zM608 162q240 0 240 287q0 286 -240 286q-120 0 -191 -68.5t-71 -213.5q19 -291 262 -291z" />
    <glyph glyph-name="seven.osf" 
d="M381 -356l475 1228h-475v-223h-172v395h827v-172l-471 -1228h-184z" />
    <glyph glyph-name="eight.osf" 
d="M791 719q123 -35 185 -131t62 -221q0 -181 -116.5 -279t-311.5 -98t-310.5 98t-115.5 279q0 125 62.5 221.5t183.5 130.5q-104 37 -155.5 122.5t-51.5 205.5q0 159 103.5 261.5t283.5 102.5q182 0 285.5 -102.5t103.5 -261.5q0 -119 -51.5 -205t-156.5 -123zM610 1249
q-102 0 -158.5 -62t-56.5 -165q0 -105 55.5 -170.5t159.5 -65.5t160.5 65.5t56.5 170.5q0 103 -57.5 165t-159.5 62zM610 162q121 0 188.5 63t67.5 185q0 117 -70 180t-186 63q-113 0 -183.5 -62.5t-70.5 -180.5q0 -122 66.5 -185t187.5 -63z" />
    <glyph glyph-name="nine.osf" 
d="M602 1067q451 0 451 -707q0 -158 -24 -282t-64.5 -204.5t-98.5 -132.5t-122 -73.5t-140 -21.5q-170 0 -274 99.5t-127 289.5h180q30 -217 227 -217q45 0 81.5 11.5t72.5 44t60.5 84.5t39.5 139t15 202v16q-77 -163 -291 -163q-174 0 -286 117t-112 337q0 218 114.5 339.5
t297.5 121.5zM602 322q118 0 190 69.5t72 214.5q-19 289 -262 289q-240 0 -240 -289q0 -284 240 -284z" />
    <glyph glyph-name="zero.osf.zero" horiz-adv-x="1228" 
d="M608 -10q-198 0 -311 131.5t-113 400.5q0 272 112 402.5t312 130.5q199 0 311.5 -131.5t112.5 -401.5t-112.5 -401t-311.5 -131zM608 162q129 0 190.5 82t61.5 278t-61 278.5t-191 82.5q-129 0 -190.5 -81.5t-61.5 -279.5q0 -196 61.5 -278t190.5 -82zM551 369v309h115
v-309h-115z" />
    <glyph glyph-name="zero.tf" 
d="M610 1411q79 0 141.5 -21t116.5 -71t89 -130.5t55 -203.5t20 -285t-20 -284.5t-55 -203t-89 -130.5t-116.5 -71t-141.5 -21q-80 0 -143.5 20.5t-117 71t-89 130.5t-55 203t-19.5 285t19.5 285t55 203.5t89 130.5t117 71t143.5 21zM610 1239q-52 0 -88.5 -12t-69 -46
t-52 -93t-31 -155.5t-11.5 -232.5q0 -88 2 -127l469 471q-26 113 -79 154t-140 41zM610 162q51 0 87.5 12t68.5 46.5t51 94t30 156t11 231.5q0 86 -2 123l-467 -465q27 -114 80.5 -156t140.5 -42z" />
    <glyph glyph-name="one.tf" 
d="M758 172h309v-172h-823v172h342v793h-318v172h318v264h172v-1229z" />
    <glyph glyph-name="two.tf" 
d="M584 487q-94 -61 -138 -132t-51 -183h649v-172h-823v119q0 183 70.5 303t218.5 217l152 98q52 35 82.5 59t64 61.5t48.5 83t15 103.5q0 89 -61.5 142t-161.5 53q-111 0 -171 -55t-72 -185h-193q8 110 45.5 191.5t98 128.5t133 69.5t159.5 22.5q170 0 282.5 -104.5
t112.5 -262.5q0 -69 -17 -128.5t-42.5 -102.5t-69.5 -87t-83 -73t-99 -69z" />
    <glyph glyph-name="three.tf" 
d="M776 760q120 -44 179 -139t59 -218q0 -186 -116 -299.5t-302 -113.5q-82 0 -152.5 22.5t-127 67.5t-91 119t-39.5 170h181q26 -207 239 -207q108 0 172 64.5t64 176.5q0 114 -63 181t-152 67h-193v164h137q86 0 144.5 61t58.5 154q0 94 -55.5 151.5t-147.5 57.5
q-83 0 -137 -50t-67 -155h-181q9 188 118 282.5t271 94.5q154 0 262.5 -101.5t108.5 -244.5q0 -214 -170 -305z" />
    <glyph glyph-name="four.tf" 
d="M1022 518v-172h-111v-346h-172v346h-551v172l426 883h193l-430 -883h362v324h172v-324h111z" />
    <glyph glyph-name="five.tf" 
d="M627 907q172 0 279.5 -119.5t107.5 -338.5q0 -220 -111.5 -339.5t-300.5 -119.5q-175 0 -278.5 93t-124.5 282h180q13 -106 69 -154.5t160 -48.5q116 0 175 68.5t59 218.5q0 286 -230 286q-88 0 -146 -42t-73 -113l-172 51l82 770h615v-172h-467l-45 -398q79 76 221 76z
" />
    <glyph glyph-name="six.tf" 
d="M623 905q174 0 285.5 -116.5t111.5 -339.5q0 -217 -115.5 -338t-296.5 -121q-452 0 -452 706q0 159 23.5 282.5t64 204t99 132.5t123 74t140.5 22q170 0 274 -99.5t126 -289.5h-179q-35 217 -227 217q-45 0 -81.5 -12t-71.5 -44t-59 -84.5t-39.5 -139t-18.5 -201.5v-21
q42 92 115.5 130t177.5 38zM608 162q240 0 240 287q0 286 -240 286q-120 0 -191 -68.5t-71 -213.5q19 -291 262 -291z" />
    <glyph glyph-name="seven.tf" 
d="M209 1401h827v-172l-471 -1229h-184l473 1229h-473v-223h-172v395z" />
    <glyph glyph-name="eight.tf" 
d="M791 719q123 -35 185 -131t62 -221q0 -181 -116.5 -279t-311.5 -98t-310.5 98t-115.5 279q0 125 62.5 221.5t183.5 130.5q-104 37 -155.5 122.5t-51.5 205.5q0 159 103.5 261.5t283.5 102.5q182 0 285.5 -102.5t103.5 -261.5q0 -119 -51.5 -205t-156.5 -123zM610 1249
q-102 0 -158.5 -62t-56.5 -165q0 -105 55.5 -170.5t159.5 -65.5t160.5 65.5t56.5 170.5q0 103 -57.5 165t-159.5 62zM610 162q121 0 188.5 63t67.5 185q0 117 -70 180t-186 63q-113 0 -183.5 -62.5t-70.5 -180.5q0 -122 66.5 -185t187.5 -63z" />
    <glyph glyph-name="nine.tf" 
d="M602 1411q451 0 451 -704q0 -159 -24 -283.5t-64.5 -205t-98.5 -132.5t-122 -74t-140 -22q-170 0 -274 99.5t-127 289.5h180q30 -217 227 -217q45 0 82 11.5t72.5 44t60 85t39.5 139t15 201.5v19q-77 -166 -291 -166q-84 0 -155 28.5t-126 83.5t-86 143t-31 201
q0 218 114.5 338.5t297.5 120.5zM602 666q118 0 190 69.5t72 214.5q-19 289 -262 289q-240 0 -240 -287q0 -286 240 -286z" />
    <glyph glyph-name="zero.tf.zero" 
d="M608 -10q-80 0 -143 20.5t-116.5 71t-89 130.5t-55.5 203t-20 285q0 201 30 342t87.5 220.5t132 114t174.5 34.5q79 0 142 -21t117 -71t89.5 -130.5t55.5 -203.5t20 -285t-20 -285t-55.5 -203t-89.5 -130.5t-117 -71t-142 -20.5zM608 162q52 0 89 12t69.5 46t52 93.5
t30.5 155.5t11 231t-11 231.5t-30.5 156t-52 93.5t-69.5 46t-89 12t-89 -12t-69.5 -46t-52 -93.5t-30.5 -156t-11 -231.5t11 -231t30.5 -155.5t52 -93.5t69.5 -46t89 -12zM549 549v309h119v-309h-119z" />
    <glyph glyph-name="zero.tosf" 
d="M608 1055q199 0 311.5 -131.5t112.5 -401.5t-112.5 -401t-311.5 -131q-198 0 -311 131.5t-113 400.5q0 272 112 402.5t312 130.5zM608 883q-129 0 -190.5 -81.5t-61.5 -279.5q0 -68 9 -123l419 420q-61 64 -176 64zM608 162q129 0 190.5 82t61.5 278q0 76 -8 123
l-422 -418q59 -65 178 -65z" />
    <glyph glyph-name="one.tosf" 
d="M774 172h309v-172h-823v172h342v457h-344v155h344v260h172v-872z" />
    <glyph glyph-name="two.tosf" 
d="M526 360q-70 -22 -105.5 -67t-39.5 -121h637v-172h-821v168q0 135 72.5 230t205.5 130l211 60q162 46 162 157q0 138 -244 138q-121 0 -169 -38.5t-70 -156.5h-164q27 206 124.5 286.5t292.5 80.5q193 0 297.5 -84.5t104.5 -225.5q0 -134 -76 -210t-221 -115z" />
    <glyph glyph-name="three.tosf" 
d="M776 403q120 -44 179 -138.5t59 -217.5q0 -186 -116 -300t-302 -114q-82 0 -152.5 22.5t-127 67.5t-91 119t-39.5 170h181q26 -207 239 -207q108 0 172 65t64 177q0 114 -63 181t-152 67h-193v164h137q86 0 144.5 61t58.5 154q0 94 -55.5 151.5t-147.5 57.5
q-83 0 -137 -50t-67 -155h-181q9 188 118 282.5t271 94.5q154 0 262.5 -101.5t108.5 -244.5q0 -215 -170 -306z" />
    <glyph glyph-name="four.tosf" 
d="M993 162v-172h-90v-346h-172v346h-543v172l426 882h193l-430 -882h354v323h172v-323h90z" />
    <glyph glyph-name="five.tosf" 
d="M631 559q168 0 275.5 -124t107.5 -343q0 -221 -111.5 -340t-300.5 -119q-178 0 -286 91t-119 237h180q34 -156 225 -156q240 0 240 287q0 150 -62 222.5t-176 72.5q-82 0 -139 -45.5t-72 -118.5l-172 53l53 768h652v-172h-492l-33 -405q95 92 230 92z" />
    <glyph glyph-name="six.tosf" 
d="M623 905q174 0 285.5 -116.5t111.5 -339.5q0 -217 -115.5 -338t-296.5 -121q-452 0 -452 706q0 159 23.5 282.5t64 204t99 132.5t123 74t140.5 22q170 0 274 -99.5t126 -289.5h-179q-35 217 -227 217q-45 0 -81.5 -12t-71.5 -44t-59 -84.5t-39.5 -139t-18.5 -201.5v-21
q42 92 115.5 130t177.5 38zM608 162q240 0 240 287q0 286 -240 286q-120 0 -191 -68.5t-71 -213.5q19 -291 262 -291z" />
    <glyph glyph-name="seven.tosf" 
d="M381 -356l475 1228h-475v-223h-172v395h827v-172l-471 -1228h-184z" />
    <glyph glyph-name="eight.tosf" 
d="M791 719q123 -35 185 -131t62 -221q0 -181 -116.5 -279t-311.5 -98t-310.5 98t-115.5 279q0 125 62.5 221.5t183.5 130.5q-104 37 -155.5 122.5t-51.5 205.5q0 159 103.5 261.5t283.5 102.5q182 0 285.5 -102.5t103.5 -261.5q0 -119 -51.5 -205t-156.5 -123zM610 1249
q-102 0 -158.5 -62t-56.5 -165q0 -105 55.5 -170.5t159.5 -65.5t160.5 65.5t56.5 170.5q0 103 -57.5 165t-159.5 62zM610 162q121 0 188.5 63t67.5 185q0 117 -70 180t-186 63q-113 0 -183.5 -62.5t-70.5 -180.5q0 -122 66.5 -185t187.5 -63z" />
    <glyph glyph-name="nine.tosf" 
d="M602 1067q451 0 451 -707q0 -158 -24 -282t-64.5 -204.5t-98.5 -132.5t-122 -73.5t-140 -21.5q-170 0 -274 99.5t-127 289.5h180q30 -217 227 -217q45 0 81.5 11.5t72.5 44t60.5 84.5t39.5 139t15 202v16q-77 -163 -291 -163q-174 0 -286 117t-112 337q0 218 114.5 339.5
t297.5 121.5zM602 322q118 0 190 69.5t72 214.5q-19 289 -262 289q-240 0 -240 -289q0 -284 240 -284z" />
    <glyph glyph-name="zero.tosf.zero" horiz-adv-x="1228" 
d="M608 -10q-198 0 -311 131.5t-113 400.5q0 272 112 402.5t312 130.5q199 0 311.5 -131.5t112.5 -401.5t-112.5 -401t-311.5 -131zM608 162q129 0 190.5 82t61.5 278t-61 278.5t-191 82.5q-129 0 -190.5 -81.5t-61.5 -279.5q0 -196 61.5 -278t190.5 -82zM551 369v309h115
v-309h-115z" />
    <glyph glyph-name="zero.zero" 
d="M608 -10q-80 0 -143 20.5t-116.5 71t-89 130.5t-55.5 203t-20 285q0 201 30 342t87.5 220.5t132 114t174.5 34.5q79 0 142 -21t117 -71t89.5 -130.5t55.5 -203.5t20 -285t-20 -285t-55.5 -203t-89.5 -130.5t-117 -71t-142 -20.5zM608 162q52 0 89 12t69.5 46t52 93.5
t30.5 155.5t11 231t-11 231.5t-30.5 156t-52 93.5t-69.5 46t-89 12t-89 -12t-69.5 -46t-52 -93.5t-30.5 -156t-11 -231.5t11 -231t30.5 -155.5t52 -93.5t69.5 -46t89 -12zM549 549v309h119v-309h-119z" />
    <glyph glyph-name="zero.dnom" 
d="M610 854q61 0 107 -22t81 -70.5t53.5 -134t18.5 -205.5q0 -122 -18.5 -207.5t-53.5 -134.5t-81 -70.5t-107 -21.5q-127 0 -193.5 98.5t-66.5 335.5q0 120 18 205t53 134t81 71t108 22zM610 727q-47 0 -75 -24.5t-44 -93t-16 -187.5v-57l252 251q-17 61 -45.5 86t-71.5 25
zM610 113q46 0 73.5 25t43.5 94t16 190v51l-249 -250q14 -61 42 -85.5t74 -24.5z" />
    <glyph glyph-name="one.dnom" 
d="M705 125h180v-125h-506v125h201v463h-201v117h201v137h125v-717z" />
    <glyph glyph-name="two.dnom" 
d="M483 145v-18h381v-127h-506v113q0 126 43 194.5t160 130.5q102 53 139 87.5t37 99.5q0 45 -34.5 73.5t-94.5 28.5q-61 0 -91 -28.5t-40 -98.5h-135q14 133 85 193.5t181 60.5q115 0 185.5 -62.5t70.5 -166.5q0 -109 -49 -165.5t-201 -135.5q-77 -42 -103 -79t-28 -100z
" />
    <glyph glyph-name="three.dnom" 
d="M702 451q144 -52 144 -228q0 -102 -67.5 -168.5t-186.5 -66.5q-105 0 -178 59.5t-84 175.5h135q15 -108 127 -108q62 0 95.5 34t33.5 101q0 63 -30.5 99t-76.5 36h-112v111h92q44 0 73 33t29 89q0 54 -30 85.5t-88 31.5q-101 0 -113 -108h-125q10 111 77.5 169t160.5 58
q104 0 168.5 -64.5t64.5 -158.5q0 -127 -109 -180z" />
    <glyph glyph-name="four.dnom" 
d="M889 324v-125h-94v-199h-127v199h-336v125l252 518h139l-254 -518h199v182h127v-182h94z" />
    <glyph glyph-name="five.dnom" 
d="M627 555q104 0 169.5 -75.5t65.5 -209.5q0 -131 -70 -206.5t-184 -75.5q-103 0 -173 57.5t-77 165.5h125q16 -96 125 -96q63 0 95 37t32 118q0 160 -127 160q-40 0 -69.5 -24t-38.5 -60l-127 35l14 461h416v-127h-293l-8 -209q46 49 125 49z" />
    <glyph glyph-name="six.dnom" 
d="M627 555q112 0 182 -77t70 -208t-70 -206.5t-182 -75.5h-2h-2q-43 0 -78 12q-115 36 -156 156q-43 107 -43 288q0 214 74.5 311t197.5 97q102 0 168.5 -57t73.5 -166h-123q-17 98 -119 98q-66 0 -108 -49.5t-49 -179.5q66 57 166 57zM627 115q125 0 125 155
q0 158 -125 158q-129 0 -129 -158q0 -155 129 -155z" />
    <glyph glyph-name="seven.dnom" 
d="M449 0l276 715h-242v-123h-127v250h502v-127l-274 -715h-135z" />
    <glyph glyph-name="eight.dnom" 
d="M713 436q149 -45 149 -217q0 -109 -68 -170t-184 -61q-117 0 -186.5 61t-69.5 170q0 171 150 217q-129 54 -129 201q0 90 63 152.5t172 62.5q106 0 170 -63t64 -152q0 -150 -131 -201zM610 743q-59 0 -95 -31t-36 -87t36.5 -90.5t94.5 -34.5q57 0 92 34.5t35 90.5t-35 87
t-92 31zM610 115q64 0 102 34t38 95q0 58 -36.5 94.5t-103.5 36.5q-70 0 -106.5 -36t-36.5 -95q0 -61 38 -95t105 -34z" />
    <glyph glyph-name="nine.dnom" 
d="M831 694q48 -115 48 -299q0 -214 -75 -310.5t-198 -96.5q-103 0 -169 57t-75 168h127q13 -98 117 -98q31 0 56 10t47.5 33.5t36.5 70.5t18 115q-66 -57 -164 -57q-114 0 -184 75.5t-70 206.5q0 132 70 207.5t184 75.5h2h2q67 0 121 -31q76 -39 106 -127zM600 414
q125 0 125 155q0 156 -125 156q-129 0 -129 -156q0 -155 129 -155z" />
    <glyph glyph-name="zero.numr" 
d="M610 1415q61 0 107 -22t81 -70.5t53.5 -134t18.5 -205.5q0 -122 -18.5 -207.5t-53.5 -134.5t-81 -70.5t-107 -21.5q-127 0 -193.5 98.5t-66.5 335.5q0 120 18 205t53 134t81 71t108 22zM610 1288q-47 0 -75 -24.5t-44 -93t-16 -187.5v-57l252 252q-17 60 -45 85t-72 25z
M610 674q46 0 73.5 25t43.5 94t16 190v51l-249 -250q14 -61 42 -85.5t74 -24.5z" />
    <glyph glyph-name="one.numr" 
d="M705 684h180v-125h-506v125h201v463h-201v117h201v137h125v-717z" />
    <glyph glyph-name="two.numr" 
d="M483 705v-19h381v-127h-506v113q0 126 43 194.5t160 130.5q102 53 139 87.5t37 99.5q0 45 -34.5 73.5t-94.5 28.5q-61 0 -91 -28.5t-40 -98.5h-135q14 133 85 193.5t181 60.5q115 0 185.5 -62.5t70.5 -166.5q0 -109 -49 -165.5t-201 -135.5q-78 -42 -103.5 -78.5
t-27.5 -99.5z" />
    <glyph glyph-name="three.numr" 
d="M702 1010q144 -52 144 -228q0 -102 -67.5 -168.5t-186.5 -66.5q-105 0 -178 59.5t-84 175.5h135q15 -108 127 -108q62 0 95.5 34t33.5 101q0 63 -30.5 99t-76.5 36h-112v111h92q44 0 73 33.5t29 89.5q0 54 -30 85t-88 31q-101 0 -113 -108h-125q10 111 77.5 169t160.5 58
q104 0 168.5 -64.5t64.5 -158.5q0 -127 -109 -180z" />
    <glyph glyph-name="four.numr" 
d="M889 883v-125h-94v-199h-127v199h-336v125l252 518h139l-254 -518h199v182h127v-182h94z" />
    <glyph glyph-name="five.numr" 
d="M627 1114q104 0 169.5 -75.5t65.5 -209.5q0 -131 -70 -206.5t-184 -75.5q-103 0 -173 57.5t-77 165.5h125q16 -96 125 -96q63 0 95 37t32 118q0 160 -127 160q-40 0 -69.5 -24t-38.5 -60l-127 35l14 461h416v-127h-293l-8 -209q46 49 125 49z" />
    <glyph glyph-name="six.numr" 
d="M627 1116q112 0 182 -77t70 -208t-70 -206.5t-182 -75.5h-2h-2q-43 0 -78 12q-115 36 -156 156q-43 107 -43 289q0 214 74.5 310.5t197.5 96.5q102 0 168.5 -57t73.5 -166h-123q-17 98 -119 98q-66 0 -108 -49.5t-49 -179.5q66 57 166 57zM627 676q125 0 125 155
q0 158 -125 158q-129 0 -129 -158q0 -155 129 -155z" />
    <glyph glyph-name="seven.numr" 
d="M449 559l276 715h-242v-123h-127v250h502v-127l-274 -715h-135z" />
    <glyph glyph-name="eight.numr" 
d="M713 997q149 -45 149 -217q0 -109 -68 -170t-184 -61q-117 0 -186.5 61t-69.5 170q0 171 150 217q-129 54 -129 201q0 90 63 152.5t172 62.5q106 0 170 -63t64 -152q0 -150 -131 -201zM610 1305q-58 0 -94.5 -31.5t-36.5 -87.5t36.5 -90.5t94.5 -34.5q57 0 92 34.5
t35 90.5t-35 87.5t-92 31.5zM610 676q64 0 102 34t38 95q0 58 -36.5 94.5t-103.5 36.5q-70 0 -106.5 -36t-36.5 -95q0 -61 38 -95t105 -34z" />
    <glyph glyph-name="nine.numr" 
d="M831 1255q48 -115 48 -299q0 -214 -75 -310.5t-198 -96.5q-103 0 -169 57t-75 168h127q13 -98 117 -98q31 0 56 10t47.5 33.5t36.5 70.5t18 115q-66 -57 -164 -57q-114 0 -184 75.5t-70 206.5q0 132 70 207.5t184 75.5h2h2q67 0 121 -31q76 -39 106 -127zM600 975
q125 0 125 155q0 156 -125 156q-129 0 -129 -156q0 -155 129 -155z" />
    <glyph glyph-name="uni2080.zero" 
d="M610 -10q-80 0 -143 20.5t-116.5 71t-89 130.5t-55.5 203t-20 285q0 201 30 342t87.5 220.5t132 114t174.5 34.5q79 0 141.5 -21t116.5 -71t89 -130.5t55 -203.5t20 -285t-20 -285t-55 -203t-89 -130.5t-116.5 -71t-141.5 -20.5zM610 162q52 0 88 12t68.5 46t52 93
t30.5 155.5t11 231.5t-11 231.5t-30.5 156t-52 93.5t-68.5 46t-88 12t-89 -12t-69.5 -46t-52 -93.5t-30.5 -156t-11 -231.5t11 -231t30.5 -155.5t52 -93.5t69.5 -46t89 -12zM551 549v309h117v-309h-117z" />
    <glyph glyph-name="zero.dnom.zero" 
d="M610 -12q-127 0 -193.5 98.5t-66.5 335.5q0 120 18 205t53 134t81 71t108 22q61 0 107 -22t81 -70.5t53.5 -134t18.5 -205.5q0 -122 -18.5 -207.5t-53.5 -134.5t-81 -70.5t-107 -21.5zM610 113q46 0 73.5 25t43.5 94t16 190q0 173 -32 239t-101 66q-47 0 -75 -24.5
t-44 -93t-16 -187.5q0 -121 16 -190t44 -94t75 -25zM569 317v209h80v-209h-80z" />
    <glyph glyph-name="zero.numr.zero" 
d="M610 551q-62 0 -108 21.5t-81 70t-53 133.5t-18 207q0 120 18 205t53 134t81 71t108 22q61 0 107 -22t81 -70.5t53.5 -134t18.5 -205.5q0 -122 -18 -207.5t-53.5 -133.5t-81.5 -69.5t-107 -21.5zM610 674q46 0 73.5 25t43.5 94t16 190q0 173 -32 239t-101 66
q-47 0 -75 -24.5t-44 -93t-16 -187.5q0 -121 16 -190t44 -94t75 -25zM561 879v208h96v-208h-96z" />
    <glyph glyph-name="uni2070.zero" 
d="M610 -10q-80 0 -143 20.5t-116.5 71t-89 130.5t-55.5 203t-20 285q0 201 30 342t87.5 220.5t132 114t174.5 34.5q79 0 141.5 -21t116.5 -71t89 -130.5t55 -203.5t20 -285t-20 -285t-55 -203t-89 -130.5t-116.5 -71t-141.5 -20.5zM610 162q52 0 88 12t68.5 46t52 93
t30.5 155.5t11 231.5t-11 231.5t-30.5 156t-52 93.5t-68.5 46t-88 12t-89 -12t-69.5 -46t-52 -93.5t-30.5 -156t-11 -231.5t11 -231t30.5 -155.5t52 -93.5t69.5 -46t89 -12zM551 549v309h117v-309h-117z" />
    <glyph glyph-name="periodcentered.case" 
d="M608 580q-56 0 -93.5 35t-37.5 87q0 54 37.5 88.5t93.5 34.5q55 0 93 -35t38 -88q0 -52 -38 -87t-93 -35z" />
    <glyph glyph-name="colon.case" 
d="M608 909q-56 0 -93.5 35.5t-37.5 89.5q0 52 37.5 86.5t93.5 34.5q55 0 93 -34.5t38 -86.5q0 -53 -38 -89t-93 -36zM608 231q-56 0 -93.5 35.5t-37.5 89.5q0 52 37.5 86.5t93.5 34.5q55 0 93 -34.5t38 -86.5q0 -53 -38 -89t-93 -36z" />
    <glyph glyph-name="semicolon.case" horiz-adv-x="1220" 
d="M608 858q-55 0 -93 36t-38 89q0 54 37.5 88.5t93.5 34.5q55 0 93 -35t38 -88q0 -52 -38.5 -88.5t-92.5 -36.5zM610 422q53 0 91 -35t38 -88q0 -41 -22 -72l-162 -241l-61 30l67 166q-38 13 -61 45t-23 72q0 54 38 88.5t95 34.5z" />
    <glyph glyph-name="braceleft.case" 
d="M676 938q0 -80 -44 -144t-143 -94q99 -29 143 -92.5t44 -144.5v-170q0 -51 35 -86t86 -35h164v-172h-175q-120 0 -201 81.5t-81 201.5v180q0 63 -44.5 107t-107.5 44h-69v172h69q63 0 107.5 45t44.5 107v182q0 119 81 200t201 81h175v-172h-164q-51 0 -86 -34.5
t-35 -84.5v-172z" />
    <glyph glyph-name="braceright.case" 
d="M864 786h70v-172h-70q-62 0 -106.5 -44t-44.5 -107v-180q0 -120 -81 -201.5t-200 -81.5h-176v172h166q50 0 84.5 35t34.5 86v170q0 183 188 237q-99 30 -143.5 94t-44.5 144v172q0 50 -34.5 84.5t-84.5 34.5h-166v172h176q118 0 199.5 -81.5t81.5 -199.5v-182
q0 -62 44 -107t107 -45z" />
    <glyph glyph-name="bracketleft.case" 
d="M489 0q-39 0 -64.5 25.5t-25.5 64.5v1221q0 39 25.5 64.5t64.5 25.5h408v-172h-326v-1057h326v-172h-408z" />
    <glyph glyph-name="bracketright.case" 
d="M322 0v172h323v1057h-323v172h407q38 0 63 -26t25 -64v-1221q0 -38 -25 -64t-63 -26h-407z" />
    <glyph glyph-name="parenleft.case" 
d="M899 0q-93 0 -165.5 22t-131.5 73t-97.5 131.5t-59.5 199t-21 274.5q0 194 31.5 331t94 217.5t147.5 116.5t202 36h23v-172h-23q-82 0 -135.5 -22t-93 -80t-57 -162t-17.5 -265t17.5 -265t57 -162t93 -79.5t135.5 -21.5h23v-172h-23z" />
    <glyph glyph-name="parenright.case" 
d="M295 0v172h22q82 0 135.5 21.5t93.5 79.5t57.5 162t17.5 265q0 129 -12 221t-34.5 152t-60.5 94.5t-84.5 48t-112.5 13.5h-22v172h22q117 0 202 -36t148 -116.5t94.5 -217.5t31.5 -331q0 -156 -21 -274.5t-59.5 -199t-98 -131.5t-132 -73t-165.5 -22h-22z" />
    <glyph glyph-name="emdash.case" 
d="M145 614v172h926v-172h-926z" />
    <glyph glyph-name="endash.case" 
d="M203 614v172h823v-172h-823z" />
    <glyph glyph-name="hyphen.case" 
d="M276 614v172h666v-172h-666z" />
    <glyph glyph-name="guillemotleft.case" 
d="M477 336l-315 366l315 367h203l-315 -367l315 -366h-203zM887 336l-314 366l314 367h203l-316 -367l316 -366h-203z" />
    <glyph glyph-name="guillemotright.case" 
d="M129 336l313 366l-313 367h201l313 -367l-313 -366h-201zM539 336l313 366l-313 367h202l314 -367l-314 -366h-202z" />
    <glyph glyph-name="guilsinglleft.case" 
d="M694 336l-313 366l313 367h203l-313 -367l313 -366h-203z" />
    <glyph glyph-name="guilsinglright.case" 
d="M319 336l316 366l-316 367h203l316 -367l-316 -366h-203z" />
    <glyph glyph-name="plus.case" 
d="M522 281v333h-334v172h334v336h172v-336h336v-172h-336v-333h-172z" />
    <glyph glyph-name="minus.case" 
d="M188 616v172h842v-172h-842z" />
    <glyph glyph-name="multiply.case" 
d="M350 324l-119 120l254 256l-252 254l119 121l256 -252l254 252l123 -121l-256 -254l256 -256l-123 -120l-254 254z" />
    <glyph glyph-name="divide.case" 
d="M610 961q-57 0 -95 35t-38 89q0 52 38 86.5t95 34.5q55 0 93 -34.5t38 -86.5q0 -53 -38 -88.5t-93 -35.5zM188 614v172h842v-172h-842zM610 219q-57 0 -95 35.5t-38 89.5q0 52 38 86.5t95 34.5q55 0 93 -34.5t38 -86.5q0 -53 -38 -89t-93 -36z" />
    <glyph glyph-name="equal.case" 
d="M188 801v172h842v-172h-842zM188 432v172h842v-172h-842z" />
    <glyph glyph-name="notequal.case" 
d="M1028 799h-264l-113 -197h377v-172h-477l-86 -149h-199l86 149h-164v172h265l112 197h-377v172h478l86 149h198l-86 -149h164v-172z" />
    <glyph glyph-name="greater.case" 
d="M227 1133l783 -316v-231l-783 -318v185l611 247l-611 248v185z" />
    <glyph glyph-name="less.case" 
d="M944 1133v-187l-610 -246l610 -247v-185l-784 316v231z" />
    <glyph glyph-name="greaterequal.case" 
d="M227 1128l764 -167v-238l-764 -182v157l627 144l-627 127v159zM227 301v158h764v-158h-764z" />
    <glyph glyph-name="lessequal.case" 
d="M991 1128v-159l-629 -127l629 -144v-157l-766 182v238zM225 301v158h766v-158h-766z" />
    <glyph glyph-name="plusminus.case" 
d="M522 528v244h-334v172h334v244h172v-244h336v-172h-336v-244h-172zM188 242v172h842v-172h-842z" />
    <glyph glyph-name="approxequal.case" 
d="M752 739q-93 0 -158 62q-24 27 -62.5 49t-66.5 22q-38 0 -65 -27t-27 -65v-28h-172v28q0 110 77 187t187 77q93 0 160 -61q26 -28 62 -50t65 -22q38 0 66 28t28 65v28h172v-28q0 -110 -78 -187.5t-188 -77.5zM752 356q-86 0 -158 62q-28 28 -64.5 49.5t-64.5 21.5
q-38 0 -65 -27t-27 -65v-28h-172v28q0 110 77 187.5t187 77.5q95 0 160 -62q26 -28 62 -50t65 -22q38 0 66 28t28 65v30h172v-30q0 -110 -78 -187.5t-188 -77.5z" />
    <glyph glyph-name="asciitilde.case" 
d="M760 537q-50 0 -87.5 15t-78.5 46q-6 4 -24.5 18t-28.5 20.5t-26 16t-30.5 13.5t-27.5 4q-32 0 -55 -27t-23 -65v-31h-172v31q0 110 73 187t177 77q84 0 168 -62q1 -1 17 -13l20 -15t18 -12.5t21 -12.5t18.5 -8.5t21 -7.5t19.5 -2q32 0 55 27t23 65v28h172v-28
q0 -110 -73 -187t-177 -77z" />
    <glyph glyph-name="logicalnot.case" 
d="M829 471v320h-657v172h829v-492h-172z" />
    <glyph glyph-name="arrowup.case" 
d="M1085 924l-71 -72l-352 348v-1200h-105v1202l-354 -350l-72 72l477 477z" />
    <glyph glyph-name="uni2197.case" 
d="M338 1401h676v-676h-105v500l-630 -631l-74 74l629 628h-496v105z" />
    <glyph glyph-name="arrowright.case" 
d="M653 1180l477 -478l-477 -477l-71 72l348 352h-844v105h846l-350 354z" />
    <glyph glyph-name="uni2198.case" horiz-adv-x="1228" 
d="M909 676h105v-676h-676v104h496l-629 629l74 74l630 -631v500z" />
    <glyph glyph-name="arrowdown.case" 
d="M1014 549l71 -72l-477 -477l-477 477l72 72l354 -350v1202h105v-1200z" />
    <glyph glyph-name="uni2199.case" horiz-adv-x="1228" 
d="M1014 733l-629 -629h496v-104h-676v676h104v-500l631 631z" />
    <glyph glyph-name="arrowleft.case" 
d="M1130 754v-105h-843l348 -352l-72 -72l-477 477l477 478l72 -72l-350 -354h845z" />
    <glyph glyph-name="uni2196.case" 
d="M1014 668l-74 -74l-631 631v-500h-104v676h676v-105h-496z" />
    <glyph glyph-name="arrowboth.case" 
d="M764 1083l381 -381l-381 -383l-74 74l254 256h-672l254 -256l-71 -74l-383 383l383 381l71 -73l-256 -256h676l-256 256z" />
    <glyph glyph-name="bar.case" 
d="M522 0v1401h172v-1401h-172z" />
    <glyph glyph-name="brokenbar.case" 
d="M522 829v572h172v-572h-172zM522 0v571h172v-571h-172z" />
    <glyph glyph-name="bar_bar.dlig" 
d="M-20 0v1401h1257v-1401h-1257z" />
  </font>
</defs>
</svg>
